<svg width="12" height="12" viewBox="0 0 12 12" fill="none" xmlns="http://www.w3.org/2000/svg">
<g clip-path="url(#clip0_11_172)">
<path d="M11.25 1.12371L8.24738 1.12372V0.376343C8.24738 0.169155 8.07956 0.00134277 7.87238 0.00134277C7.66519 0.00134277 7.49738 0.169155 7.49738 0.376343V1.12353H4.49738V0.376343C4.49738 0.169155 4.32956 0.00134277 4.12238 0.00134277C3.91519 0.00134277 3.74738 0.169155 3.74738 0.376343V1.12353H0.75C0.335812 1.12353 0 1.45934 0 1.87353V11.2485C0 11.6627 0.335812 11.9985 0.75 11.9985H11.25C11.6642 11.9985 12 11.6627 12 11.2485V1.87353C12 1.45952 11.6642 1.12371 11.25 1.12371ZM11.25 11.2485H0.75V1.87353H3.74738V2.25134C3.74738 2.45852 3.91519 2.62634 4.12238 2.62634C4.32956 2.62634 4.49738 2.45852 4.49738 2.25134V1.87372H7.49738V2.25153C7.49738 2.45872 7.66519 2.62653 7.87238 2.62653C8.07956 2.62653 8.24738 2.45872 8.24738 2.25153V1.87372H11.25V11.2485ZM8.625 5.99871H9.375C9.582 5.99871 9.75 5.83071 9.75 5.62371V4.87371C9.75 4.66671 9.582 4.49871 9.375 4.49871H8.625C8.418 4.49871 8.25 4.66671 8.25 4.87371V5.62371C8.25 5.83071 8.418 5.99871 8.625 5.99871ZM8.625 8.99852H9.375C9.582 8.99852 9.75 8.83071 9.75 8.62352V7.87352C9.75 7.66652 9.582 7.49852 9.375 7.49852H8.625C8.418 7.49852 8.25 7.66652 8.25 7.87352V8.62352C8.25 8.83089 8.418 8.99852 8.625 8.99852ZM6.375 7.49852H5.625C5.418 7.49852 5.25 7.66652 5.25 7.87352V8.62352C5.25 8.83071 5.418 8.99852 5.625 8.99852H6.375C6.582 8.99852 6.75 8.83071 6.75 8.62352V7.87352C6.75 7.66671 6.582 7.49852 6.375 7.49852ZM6.375 4.49871H5.625C5.418 4.49871 5.25 4.66671 5.25 4.87371V5.62371C5.25 5.83071 5.418 5.99871 5.625 5.99871H6.375C6.582 5.99871 6.75 5.83071 6.75 5.62371V4.87371C6.75 4.66652 6.582 4.49871 6.375 4.49871ZM3.375 4.49871H2.625C2.418 4.49871 2.25 4.66671 2.25 4.87371V5.62371C2.25 5.83071 2.418 5.99871 2.625 5.99871H3.375C3.582 5.99871 3.75 5.83071 3.75 5.62371V4.87371C3.75 4.66652 3.582 4.49871 3.375 4.49871ZM3.375 7.49852H2.625C2.418 7.49852 2.25 7.66652 2.25 7.87352V8.62352C2.25 8.83071 2.418 8.99852 2.625 8.99852H3.375C3.582 8.99852 3.75 8.83071 3.75 8.62352V7.87352C3.75 7.66671 3.582 7.49852 3.375 7.49852Z" fill="#757575"/>
</g>
<defs>
<clipPath id="clip0_11_172">
<rect width="12" height="12" fill="white"/>
</clipPath>
</defs>
</svg>
