<svg width="24" height="24" viewBox="0 0 24 24" fill="none" xmlns="http://www.w3.org/2000/svg">
<path d="M21.792 11.184H19.968V17.856H21.792C22.752 17.856 23.52 17.088 23.52 16.128V12.96C23.52 12 22.752 11.184 21.792 11.184Z" fill="#0D99FF"/>
<path d="M2.20798 11.184H4.03198V17.856H2.20798C1.24798 17.856 0.47998 17.088 0.47998 16.128V12.96C0.47998 12 1.24798 11.184 2.20798 11.184Z" fill="#0D99FF"/>
<path d="M20.6399 10.464V19.104C20.6399 20.832 19.1999 22.272 17.4719 22.272H13.7759C13.3919 22.272 13.1039 21.984 13.1039 21.6C13.1039 21.216 13.3919 20.928 13.7759 20.928H17.4719C18.4799 20.928 19.2959 20.112 19.2959 19.104V10.704C19.2959 6.76797 16.2719 3.40797 12.3839 3.21597C8.20786 3.02397 4.70386 6.33597 4.70386 10.464V18.24C4.70386 18.624 4.41586 18.912 4.03186 18.912C3.69586 18.912 3.35986 18.576 3.35986 18.24V10.704C3.35986 6.04797 7.00786 2.06397 11.6639 1.87197C16.5599 1.67997 20.6399 5.61597 20.6399 10.464Z" fill="#0D99FF"/>
<path d="M16.56 5.32795C16.272 5.32795 16.032 5.23195 15.792 5.08795C14.688 4.31995 13.392 3.88795 12 3.88795C10.608 3.88795 9.31196 4.31995 8.20796 5.08795C7.58396 5.51995 6.76796 5.37595 6.33596 4.75195C5.90396 4.12795 6.04796 3.31195 6.67196 2.87995C8.25596 1.77595 10.08 1.19995 12 1.19995C13.92 1.19995 15.744 1.77595 17.328 2.87995C17.952 3.31195 18.096 4.12795 17.664 4.75195C17.376 5.08795 16.992 5.32795 16.56 5.32795Z" fill="#0D99FF"/>
<path d="M13.2959 22.7999C13.9587 22.7999 14.4959 22.2626 14.4959 21.5999C14.4959 20.9372 13.9587 20.3999 13.2959 20.3999C12.6332 20.3999 12.0959 20.9372 12.0959 21.5999C12.0959 22.2626 12.6332 22.7999 13.2959 22.7999Z" fill="#0D99FF"/>
</svg>
