<svg width="80" height="80" viewBox="0 0 80 80" fill="none" xmlns="http://www.w3.org/2000/svg">
<path d="M17.6332 16.3853C17.7944 16.3846 17.9555 16.3839 18.1216 16.3832C18.3 16.3832 18.4784 16.3832 18.6622 16.3832C18.8507 16.3827 19.0391 16.3821 19.2333 16.3815C19.7581 16.3801 20.2829 16.3794 20.8077 16.3789C21.3731 16.3783 21.9385 16.3768 22.5039 16.3755C23.8701 16.3724 25.2363 16.3708 26.6025 16.3694C27.2456 16.3687 27.8886 16.3679 28.5317 16.3671C30.6688 16.3644 32.8058 16.3621 34.9429 16.361C35.4977 16.3607 36.0525 16.3604 36.6073 16.3601C36.7452 16.36 36.8831 16.36 37.0252 16.3599C39.2595 16.3586 41.4938 16.3546 43.7282 16.3496C46.0211 16.3444 48.3139 16.3416 50.6068 16.3411C51.8946 16.3407 53.1824 16.3394 54.4702 16.3354C55.5669 16.332 56.6635 16.3307 57.7601 16.3322C58.3198 16.333 58.8793 16.3327 59.4389 16.3296C60.0455 16.3264 60.652 16.328 61.2586 16.33C61.4356 16.3283 61.6127 16.3266 61.795 16.3248C62.7582 16.3328 63.3318 16.3833 64.0626 17.0312C67.0461 20.2567 65.7002 31.5146 65.553 35.6968C65.3144 41.5914 64.361 46.3829 59.9496 50.6448C54.6181 55.515 46.7733 55.1782 40.0001 55.1172C39.7833 55.1154 39.7833 55.1154 39.5621 55.1135C37.5879 55.0949 35.6189 55.0309 33.6477 54.9208C33.2567 54.9001 32.8657 54.8834 32.4744 54.8675C27.8517 54.6653 27.8517 54.6653 26.1445 52.8383C25.8441 52.4818 25.5576 52.1195 25.2772 51.7472C24.9069 51.2916 24.4851 50.9254 24.0343 50.5515C23.5719 50.1626 23.1564 49.7286 22.7345 49.2969C22.2019 48.7576 21.6725 48.2248 21.0938 47.7344C20.4182 47.1618 19.8062 46.5289 19.1841 45.8996C18.7397 45.4522 18.294 45.0174 17.8126 44.6094C17.725 44.5289 17.6374 44.4484 17.5472 44.3655C17.1793 44.041 17.1793 44.041 16.6898 43.7518C15.8525 43.1658 15.2711 42.5385 15.0409 41.5205C14.8706 40.0513 14.9053 38.5735 14.935 37.097C14.946 36.4447 14.9457 35.7923 14.9468 35.1398C14.9503 34.0457 14.9612 32.9518 14.9774 31.8577C15.0001 30.3167 15.0083 28.7758 15.0142 27.2347C15.0188 26.1638 15.0271 25.0929 15.036 24.022C15.0381 23.7633 15.0401 23.5045 15.0419 23.2458C15.0472 22.5086 15.0548 21.7715 15.0662 21.0344C15.0693 20.8117 15.0716 20.5889 15.0731 20.3661C15.0908 17.95 15.0908 17.95 15.865 17.0715C16.5124 16.5913 16.8336 16.3869 17.6332 16.3853ZM46.7156 28.9168C46.2961 29.343 45.875 29.7676 45.4541 30.1924C44.6725 30.9811 43.8917 31.7704 43.1133 32.5622C42.5695 33.1152 42.0238 33.6664 41.4768 34.2163C41.269 34.4259 41.062 34.6362 40.8556 34.8473C40.5684 35.1409 40.2789 35.432 39.9886 35.7226C39.9037 35.8106 39.8188 35.8986 39.7313 35.9892C39.154 36.5604 39.154 36.5604 38.7281 36.5701C38.3814 36.3746 38.1403 36.1607 37.8627 35.8746C37.7526 35.7625 37.6426 35.6504 37.5292 35.5349C37.4118 35.4132 37.2945 35.2914 37.1736 35.166C36.9228 34.9109 36.6721 34.6557 36.4213 34.4006C36.0272 33.9968 35.6336 33.5925 35.2405 33.1877C34.8608 32.7976 34.4792 32.4095 34.0974 32.0215C33.9803 31.8997 33.8633 31.778 33.7427 31.6525C33.6322 31.5404 33.5216 31.4283 33.4077 31.3128C33.3114 31.2137 33.2151 31.1146 33.1159 31.0125C32.7492 30.7329 32.4889 30.6621 32.0313 30.625C31.0242 31.1398 30.1546 32.0339 29.5313 32.9687C29.443 33.5747 29.4713 33.8223 29.8314 34.3253C29.972 34.4666 30.1125 34.608 30.2574 34.7536C30.3346 34.8324 30.4118 34.9113 30.4914 34.9926C30.7469 35.2522 31.0056 35.5082 31.2647 35.7641C31.4441 35.9441 31.6232 36.1242 31.8023 36.3044C32.178 36.6815 32.5554 37.0569 32.9341 37.4312C33.4178 37.9096 33.8973 38.3921 34.3756 38.876C34.7449 39.2488 35.1165 39.6193 35.4888 39.9891C35.6664 40.1661 35.8433 40.3438 36.0195 40.5221C36.267 40.772 36.5173 41.0187 36.7686 41.2648C36.9102 41.4056 37.0517 41.5464 37.1976 41.6915C37.9301 42.234 38.5466 42.3847 39.4501 42.2818C40.2149 41.9334 40.714 41.4277 41.3004 40.8345C41.4255 40.711 41.5507 40.5875 41.6796 40.4602C42.0916 40.0524 42.5007 39.6418 42.9096 39.2309C43.1952 38.9463 43.4809 38.6617 43.7667 38.3772C44.3647 37.7811 44.9612 37.1836 45.5567 36.5851C46.2447 35.8935 46.9359 35.2052 47.6286 34.5183C48.2959 33.8565 48.9605 33.1921 49.6241 32.5266C49.9064 32.244 50.1894 31.9622 50.4732 31.6811C50.869 31.2884 51.2618 30.8928 51.6538 30.4964C51.7719 30.3804 51.89 30.2645 52.0116 30.145C52.6396 29.5179 52.6396 29.5179 52.8979 28.6909C52.7981 28.2116 52.6621 28.0072 52.3243 27.6562C52.2242 27.5513 52.1241 27.4464 52.021 27.3382C51.8714 27.1863 51.8714 27.1863 51.7188 27.0312C51.6369 26.938 51.5549 26.8447 51.4704 26.7486C51.1214 26.3626 50.8063 26.1051 50.3321 25.8887C48.986 26.0233 47.6391 27.9778 46.7156 28.9168Z" fill="#0D99FF"/>
<path d="M29.1648 58.5734C29.4255 58.5702 29.6862 58.5664 29.9469 58.5622C30.6514 58.5525 31.3557 58.5508 32.0603 58.5512C32.6508 58.551 33.2413 58.5471 33.8317 58.5434C35.2268 58.5349 36.6217 58.5332 38.0167 58.5356C39.4497 58.5378 40.8823 58.5274 42.3153 58.5108C43.5505 58.4971 44.7856 58.4919 46.0209 58.4934C46.7565 58.4941 47.4917 58.4916 48.2273 58.4805C53.5164 58.407 53.5164 58.407 55.0885 59.8129C55.3637 60.091 55.6199 60.3739 55.8686 60.6758C56.2093 61.0718 56.5992 61.37 57.0117 61.6895C57.1451 61.7984 57.2784 61.9074 57.4158 62.0197C57.5467 62.1266 57.6776 62.2336 57.8125 62.3438C58.099 62.5781 58.3854 62.8125 58.6719 63.0469C58.8137 63.1629 58.9555 63.2789 59.1016 63.3984C68.9844 71.4844 68.9844 71.4844 69.4177 71.839C69.6919 72.0633 69.9661 72.2875 70.2405 72.5116C70.8898 73.0423 71.5385 73.5735 72.1844 74.1083C72.41 74.2949 72.6357 74.4815 72.8613 74.668C72.9737 74.7609 73.0861 74.8538 73.2019 74.9496C74.0443 75.6435 74.8978 76.3217 75.7634 76.9863C75.9804 77.1542 76.1938 77.3266 76.4062 77.5C76.4062 77.5516 76.4062 77.6031 76.4062 77.6563C52.3781 77.6563 28.35 77.6563 3.59375 77.6563C4.11751 77.1325 4.60521 76.6708 5.17578 76.211C5.32604 76.0893 5.47629 75.9676 5.6311 75.8423C5.86011 75.6574 5.86011 75.6574 6.09375 75.4688C6.38039 75.2346 6.66685 75.0002 6.95312 74.7656C22.4219 62.1094 22.4219 62.1094 22.851 61.7584C23.1396 61.5222 23.4281 61.2858 23.7164 61.0492C23.8596 60.9318 24.0028 60.8144 24.1504 60.6934C24.2763 60.59 24.4022 60.4867 24.5319 60.3803C24.7636 60.192 24.7636 60.192 25 60C25.1465 59.8494 25.1465 59.8494 25.296 59.6957C26.4899 58.5644 27.6166 58.5658 29.1648 58.5734Z" fill="#0D99FF"/>
<path d="M80 33.9062C80 47.3641 80 60.8219 80 74.6875C78.342 73.444 76.7193 72.1808 75.1526 70.8246C74.5106 70.2696 73.8567 69.7331 73.1909 69.2065C72.4849 68.6463 71.7905 68.0717 71.0938 67.5C70.8073 67.2656 70.5209 67.0312 70.2344 66.7969C67.3698 64.4531 64.5052 62.1094 61.6406 59.7656C61.499 59.6498 61.3574 59.534 61.2115 59.4147C60.9229 59.1784 60.6344 58.942 60.3461 58.7054C59.4029 57.9321 58.4543 57.1659 57.5 56.4062C58.0938 55.6973 58.7066 55.0207 59.3619 54.3683C59.494 54.2358 59.494 54.2358 59.6288 54.1006C59.921 53.8078 60.2137 53.5155 60.5065 53.2233C60.7173 53.0123 60.9281 52.8012 61.1388 52.5901C61.7088 52.0194 62.2793 51.4492 62.85 50.8791C63.4471 50.2823 64.044 49.6851 64.6408 49.088C65.6421 48.0864 66.6436 47.0853 67.6454 46.0843C68.805 44.9255 69.9641 43.7661 71.1229 42.6065C72.1177 41.6109 73.1128 40.6157 74.1082 39.6208C74.7028 39.0264 75.2973 38.4319 75.8915 37.8372C76.4492 37.2791 77.0072 36.7213 77.5656 36.1639C77.771 35.9587 77.9763 35.7533 78.1814 35.5478C78.4601 35.2687 78.7393 34.9901 79.0186 34.7116C79.1008 34.629 79.183 34.5465 79.2677 34.4614C79.8259 33.9062 79.8259 33.9062 80 33.9062Z" fill="#0D99FF"/>
<path d="M0 33.9062C0.707827 34.513 1.38363 35.1111 2.03794 35.7692C2.12629 35.8574 2.21464 35.9456 2.30566 36.0365C2.59846 36.329 2.8907 36.6221 3.18295 36.9152C3.39397 37.1263 3.60503 37.3373 3.81612 37.5483C4.38683 38.119 4.95705 38.6901 5.52719 39.2614C6.12395 39.8591 6.72114 40.4564 7.31829 41.0537C8.448 42.1839 9.57732 43.3145 10.7065 44.4452C11.9925 45.733 13.2789 47.0202 14.5653 48.3075C17.2107 50.9545 19.8555 53.6021 22.5 56.25C21.9505 56.8044 21.3885 57.33 20.791 57.832C20.7032 57.9062 20.6154 57.9803 20.5249 58.0567C19.8064 58.6591 19.0705 59.2371 18.33 59.812C17.5633 60.4107 16.8253 61.039 16.0899 61.6756C15.448 62.2305 14.7941 62.767 14.1284 63.2935C13.4224 63.8537 12.728 64.4283 12.0312 65C11.7448 65.2344 11.4584 65.4688 11.1719 65.7031C11.0301 65.8191 10.8883 65.9352 10.7422 66.0547C4.29688 71.3281 4.29688 71.3281 3.8678 71.6791C3.57916 71.9153 3.29067 72.1517 3.00232 72.3883C2.2833 72.9779 1.56311 73.566 0.839844 74.1504C0.712146 74.2537 0.584448 74.357 0.452881 74.4635C0.15625 74.6875 0.15625 74.6875 0 74.6875C0 61.2297 0 47.7719 0 33.9062Z" fill="#0D99FF"/>
<path d="M40.9375 2.34371C41.6193 2.70572 42.1993 3.15953 42.7982 3.64406C43.2905 4.03894 43.7945 4.418 44.2975 4.79915C44.7221 5.12115 45.1452 5.44501 45.5682 5.769C46.3359 6.35493 47.1114 6.92948 47.8906 7.49996C49.0948 8.38185 50.2838 9.2824 51.4686 10.1901C52.4134 10.9127 53.3667 11.6221 54.3336 12.3148C54.5584 12.4771 54.7797 12.6442 55 12.8125C55 12.864 55 12.9156 55 12.9687C45.1 12.9687 35.2 12.9687 25 12.9687C25.878 12.0907 25.878 12.0907 26.3916 11.7205C26.5061 11.6373 26.6206 11.554 26.7386 11.4682C26.8609 11.38 26.9833 11.2919 27.1094 11.2011C28.2136 10.3972 29.3066 9.58081 30.3906 8.74996C31.5431 7.86775 32.7046 6.99969 33.8758 6.14265C34.9951 5.32145 36.0979 4.47929 37.197 3.63124C37.3272 3.53124 37.4574 3.43124 37.5916 3.3282C37.706 3.23984 37.8205 3.15149 37.9385 3.06045C38.9427 2.33392 39.6985 2.08171 40.9375 2.34371Z" fill="#0D99FF"/>
<path d="M69.375 23.75C70.6039 24.4522 70.6039 24.4522 71.0864 24.8376C71.1946 24.9231 71.3028 25.0086 71.4143 25.0967C71.5276 25.1873 71.641 25.2778 71.7578 25.3711C73.121 26.4461 74.5125 27.4783 75.9138 28.5028C76.4455 28.8938 76.973 29.2902 77.5 29.6875C77.2564 30.2712 76.8968 30.6419 76.4517 31.0863C76.3772 31.161 76.3027 31.2358 76.226 31.3128C75.9807 31.5588 75.7342 31.8036 75.4877 32.0483C75.3168 32.219 75.1459 32.3898 74.9752 32.5606C74.6177 32.9178 74.2598 33.2745 73.9014 33.6308C73.441 34.0885 72.9817 34.5473 72.5226 35.0064C72.1703 35.3587 71.8176 35.7106 71.4647 36.0623C71.2951 36.2314 71.1255 36.4006 70.9561 36.5699C70.7201 36.8056 70.4836 37.0408 70.2468 37.2758C70.1121 37.41 69.9774 37.5441 69.8386 37.6823C69.5312 37.9688 69.5312 37.9688 69.375 37.9688C69.375 33.2766 69.375 28.5844 69.375 23.75Z" fill="#0D99FF"/>
<path d="M10.625 23.75C10.625 28.4422 10.625 33.1344 10.625 37.9688C9.97358 37.4104 9.36192 36.8814 8.76163 36.2794C8.62095 36.1387 8.48026 35.998 8.33531 35.853C8.18565 35.7026 8.036 35.5521 7.88635 35.4016C7.73031 35.2453 7.57423 35.089 7.41812 34.9327C7.01064 34.5246 6.60363 34.1161 6.19673 33.7075C5.7801 33.2892 5.36302 32.8714 4.94598 32.4536C4.13022 31.6362 3.31495 30.8182 2.5 30C2.67496 29.4751 2.77125 29.4048 3.20557 29.0948C3.3222 29.0105 3.43883 28.9261 3.559 28.8391C3.68648 28.7485 3.81397 28.6578 3.94531 28.5645C4.2163 28.3686 4.48708 28.1725 4.75769 27.9761C4.89956 27.8733 5.04144 27.7704 5.18761 27.6645C6.05322 27.0297 6.90227 26.3731 7.75253 25.718C10.3179 23.75 10.3179 23.75 10.625 23.75Z" fill="#0D99FF"/>
</svg>
