<svg width="40" height="40" viewBox="0 0 40 40" fill="none" xmlns="http://www.w3.org/2000/svg">
<g clip-path="url(#clip0_11_400)">
<path d="M19.2019 -0.018578C19.2589 -0.0193396 19.3159 -0.0201012 19.3747 -0.0208859C21.1257 -0.0394504 22.7147 0.115396 24.3749 0.703163C24.5015 0.746215 24.5015 0.746215 24.6306 0.790138C27.7103 1.89655 30.1751 4.30193 31.6405 7.18754C31.6796 7.26347 31.7187 7.33941 31.7589 7.41764C32.9488 9.88029 33.3089 13.041 32.6561 15.7032C32.6329 15.8005 32.6329 15.8005 32.6091 15.8998C32.1628 17.7147 31.3395 19.3099 30.295 20.8484C30.0427 21.2217 29.8016 21.6019 29.5604 21.9825C29.5147 22.0545 29.469 22.1266 29.4219 22.2009C29.3261 22.352 29.2303 22.5031 29.1345 22.6542C28.8721 23.0673 28.6084 23.4795 28.3446 23.8916C28.2916 23.9745 28.2386 24.0573 28.1839 24.1427C27.8555 24.6556 27.5253 25.1673 27.1937 25.6782C26.9026 26.1276 26.6151 26.5793 26.328 27.0313C26.0077 27.5355 25.6864 28.039 25.3612 28.5401C24.7937 29.4146 24.2333 30.2936 23.6718 31.1719C22.1943 33.4831 22.1943 33.4831 21.6545 34.3113C21.5639 34.4509 21.4743 34.5911 21.3848 34.7315C21.3035 34.8572 21.3035 34.8572 21.2206 34.9854C21.1749 35.0568 21.1292 35.1282 21.082 35.2018C20.8653 35.4848 20.6516 35.6682 20.3124 35.7813C19.8756 35.8099 19.5881 35.8063 19.2186 35.5469C18.7646 35.0738 18.44 34.4846 18.098 33.9289C17.8969 33.6024 17.6895 33.2803 17.4804 32.959C17.1536 32.4562 16.8302 31.9515 16.5087 31.4453C15.726 30.2137 14.9413 28.9834 14.1469 27.7593C13.8079 27.2362 13.474 26.7099 13.1398 26.1838C12.8634 25.7488 12.5852 25.3151 12.3046 24.8828C11.9282 24.3032 11.5572 23.7203 11.1867 23.1369C10.9103 22.702 10.632 22.2683 10.3515 21.836C10.2826 21.7295 10.2137 21.623 10.1449 21.5165C10.0265 21.3334 9.90781 21.1505 9.7886 20.968C9.20257 20.0701 8.64871 19.1793 8.20302 18.2032C8.16082 18.1139 8.11862 18.0247 8.07515 17.9328C7.74671 17.2097 7.52832 16.4732 7.34364 15.7032C7.33063 15.6522 7.31761 15.6012 7.3042 15.5487C6.85683 13.7416 6.95854 11.5562 7.42177 9.76566C7.43639 9.70651 7.45102 9.64736 7.46609 9.58641C7.67665 8.74909 7.98355 7.96392 8.35927 7.18754C8.38334 7.13779 8.4074 7.08804 8.4322 7.03678C8.92664 6.03149 9.54134 5.1347 10.3063 4.31492C10.4554 4.15489 10.5965 3.99063 10.7372 3.82328C12.7382 1.54945 16.1806 0.0149952 19.2019 -0.018578ZM15.7811 8.90629C15.7348 8.9513 15.6885 8.99632 15.6408 9.0427C14.568 10.1425 14.1958 11.598 14.1997 13.0895C14.2194 14.5821 14.802 15.831 15.8104 16.919C15.8781 16.9818 15.9458 17.0447 16.0155 17.1094C16.0605 17.1557 16.1055 17.2021 16.1519 17.2498C17.2517 18.3226 18.7072 18.6947 20.1988 18.6908C21.6913 18.6712 22.9402 18.0885 24.0282 17.0801C24.0911 17.0124 24.1539 16.9448 24.2186 16.875C24.265 16.83 24.3113 16.785 24.359 16.7386C25.4318 15.6388 25.804 14.1834 25.8001 12.6918C25.7804 11.1992 25.1977 9.95035 24.1893 8.86234C24.1217 8.7995 24.054 8.73666 23.9843 8.67191C23.9393 8.62559 23.8942 8.57926 23.8479 8.53153C22.748 7.45875 21.2926 7.08659 19.801 7.09049C18.2401 7.11105 16.8458 7.75969 15.7811 8.90629Z" fill="#0D99FF"/>
<path d="M10.9375 26.9531C11.059 27.1103 11.059 27.1103 11.1899 27.3193C11.2391 27.3971 11.2883 27.4749 11.339 27.5551C11.4182 27.6825 11.4182 27.6825 11.4991 27.8125C11.5549 27.9012 11.6108 27.9899 11.6667 28.0785C11.7831 28.2628 11.8991 28.4473 12.0149 28.6319C12.278 29.0507 12.5455 29.4666 12.8125 29.8828C12.9162 30.0447 13.0199 30.2067 13.1235 30.3687C13.175 30.4491 13.2265 30.5296 13.2796 30.6125C13.441 30.8648 13.6024 31.1172 13.7638 31.3696C14.2498 32.1297 14.7359 32.8896 15.2276 33.646C15.4761 34.0291 15.7204 34.4148 15.9641 34.8011C17.1922 36.7606 17.1922 36.7606 19.2151 37.7701C20.2476 37.9541 21.1881 37.7395 22.0941 37.2296C22.5841 36.8861 22.9266 36.5199 23.2471 36.0156C23.2868 35.9547 23.3264 35.8938 23.3673 35.831C23.4959 35.6328 23.6231 35.4337 23.75 35.2344C23.7927 35.1678 23.8353 35.1012 23.8792 35.0326C24.1054 34.6793 24.3306 34.3254 24.5551 33.9709C24.8549 33.4976 25.1568 33.0255 25.459 32.5537C25.5112 32.4723 25.5633 32.3909 25.617 32.307C25.723 32.1414 25.829 31.9759 25.935 31.8104C26.1444 31.4834 26.3537 31.1564 26.563 30.8293C26.6665 30.6676 26.77 30.506 26.8734 30.3444C27.1147 29.9676 27.3558 29.5907 27.5961 29.2132C27.6805 29.0807 27.7649 28.9483 27.8493 28.8159C27.9546 28.6507 28.0598 28.4854 28.1649 28.32C28.4779 27.8293 28.8027 27.349 29.1407 26.875C31.981 27.4331 35.3546 28.551 37.0636 31.0461C37.6111 31.9469 37.713 32.9101 37.5302 33.9426C37.0473 35.5616 35.5392 36.5825 34.1288 37.3455C33.2781 37.7954 32.4 38.1439 31.4844 38.4375C31.3828 38.4701 31.3828 38.4701 31.2791 38.5034C29.3098 39.1262 27.2826 39.5136 25.2344 39.7656C25.1428 39.7774 25.0511 39.7892 24.9567 39.8014C21.6419 40.2105 18.0767 40.1982 14.7657 39.7656C14.6585 39.7521 14.5513 39.7385 14.4441 39.725C10.5331 39.2232 5.70287 38.3497 3.05698 35.1349C2.43282 34.2726 2.30899 33.3009 2.42191 32.2656C2.69788 30.9233 3.75544 29.9174 4.84897 29.18C6.3451 28.2095 8.00942 27.6335 9.71195 27.1387C9.80701 27.1109 9.90207 27.0832 10 27.0546C10.1325 27.0173 10.1325 27.0173 10.2677 26.9794C10.3462 26.9573 10.4246 26.9351 10.5055 26.9123C10.7032 26.875 10.7032 26.875 10.9375 26.9531Z" fill="#0D99FF"/>
</g>
<defs>
<clipPath id="clip0_11_400">
<rect width="40" height="40" fill="white"/>
</clipPath>
</defs>
</svg>
