<svg width="24" height="24" viewBox="0 0 24 24" fill="none" xmlns="http://www.w3.org/2000/svg">
<path d="M20.3301 3.66996C20.1409 3.48213 19.9036 3.35008 19.6443 3.28833C19.385 3.22659 19.1136 3.23753 18.8601 3.31996L4.23012 8.19996C3.95879 8.28593 3.71903 8.45039 3.54111 8.67255C3.36319 8.89471 3.2551 9.16462 3.23049 9.44818C3.20588 9.73174 3.26585 10.0162 3.40283 10.2657C3.53982 10.5152 3.74766 10.7185 4.00012 10.85L10.0701 13.85L13.0701 19.94C13.1907 20.1783 13.3752 20.3785 13.603 20.518C13.8308 20.6575 14.093 20.7309 14.3601 20.73H14.4601C14.7462 20.7089 15.0193 20.6023 15.244 20.4239C15.4687 20.2456 15.6346 20.0038 15.7201 19.73L20.6701 5.13996C20.7585 4.88789 20.7735 4.6159 20.7133 4.35565C20.6531 4.09541 20.5202 3.85762 20.3301 3.66996ZM4.85012 9.57996L17.6201 5.31996L10.5301 12.41L4.85012 9.57996ZM14.4301 19.15L11.5901 13.47L18.6801 6.37996L14.4301 19.15Z" fill="#0D99FF"/>
</svg>
