<svg width="60" height="60" viewBox="0 0 60 60" fill="none" xmlns="http://www.w3.org/2000/svg">
<path d="M30.3517 0.937519C30.927 1.27003 31.3381 1.68285 31.7872 2.16066C35.1325 5.57935 40.2955 7.65697 45.0713 7.75142C45.2612 7.75296 45.4511 7.75382 45.641 7.75408C45.744 7.75447 45.847 7.75486 45.9532 7.75526C46.1702 7.75585 46.3873 7.75613 46.6043 7.75611C46.9296 7.75636 47.2548 7.75849 47.5801 7.76072C48.7426 7.7643 49.8746 7.71506 51.0267 7.55552C52.504 7.35971 52.504 7.35971 53.0714 7.7051C55.0293 10.6995 55.1054 15.1284 55.1002 18.5742C55.1001 18.6624 55.1001 18.7505 55.1 18.8412C55.0883 24.2797 54.4176 29.7373 52.7345 34.9219C52.6818 35.0867 52.6818 35.0867 52.628 35.2549C50.9995 40.3013 48.4296 45.0301 44.8829 48.9844C44.7811 49.0992 44.6793 49.214 44.5744 49.3323C43.2903 50.7582 41.9544 52.1505 40.4298 53.3203C40.2832 53.4363 40.1367 53.5525 39.9903 53.6687C37.5401 55.597 34.8863 57.2199 32.0143 58.44C31.8413 58.5142 31.8413 58.5142 31.6649 58.59C30.6397 59.0104 29.8687 59.216 28.8179 58.7872C28.7222 58.7451 28.6265 58.703 28.5279 58.6597C28.4259 58.6167 28.3239 58.5737 28.2188 58.5294C27.2678 58.1227 26.3427 57.673 25.4298 57.1875C25.3474 57.1444 25.265 57.1012 25.1801 57.0568C23.1297 55.9784 21.2419 54.6726 19.4532 53.2031C19.3595 53.1275 19.3595 53.1275 19.2639 53.0504C18.3047 52.2743 17.4206 51.4284 16.5455 50.5591C16.4434 50.4581 16.3413 50.357 16.236 50.2529C15.5401 49.5536 14.9118 48.8177 14.297 48.0469C14.1784 47.9039 14.0594 47.7612 13.9399 47.6189C6.67868 38.8523 4.16558 26.3527 5.04074 14.8586C5.27649 12.4933 5.59816 9.78031 6.91416 7.73439C7.58295 7.28853 8.43702 7.47836 9.205 7.58411C10.4632 7.75478 11.7105 7.77621 12.9786 7.77101C13.1412 7.77069 13.1412 7.77069 13.307 7.77037C14.8719 7.76517 16.3966 7.72416 17.9298 7.38283C18.0729 7.35267 18.0729 7.35267 18.2189 7.32189C22.3875 6.42828 25.9979 4.47093 28.9445 1.38842C29.3886 0.979751 29.7488 0.865171 30.3517 0.937519Z" fill="#0D99FF"/>
<path d="M30.3517 0.937519C30.927 1.27003 31.3381 1.68285 31.7872 2.16066C35.1325 5.57935 40.2955 7.65697 45.0713 7.75142C45.2612 7.75296 45.4511 7.75382 45.641 7.75408C45.744 7.75447 45.847 7.75486 45.9532 7.75526C46.1702 7.75585 46.3873 7.75613 46.6043 7.75611C46.9296 7.75636 47.2548 7.75849 47.5801 7.76072C48.7426 7.7643 49.8746 7.71506 51.0267 7.55552C52.504 7.35971 52.504 7.35971 53.0714 7.7051C55.0293 10.6995 55.1054 15.1284 55.1002 18.5742C55.1001 18.6624 55.1001 18.7505 55.1 18.8412C55.0883 24.2797 54.4176 29.7373 52.7345 34.9219C52.6818 35.0867 52.6818 35.0867 52.628 35.2549C50.9995 40.3013 48.4296 45.0301 44.8829 48.9844C44.7811 49.0992 44.6793 49.214 44.5744 49.3323C43.2903 50.7582 41.9544 52.1505 40.4298 53.3203C40.2832 53.4363 40.1367 53.5525 39.9903 53.6687C37.5401 55.597 34.8863 57.2199 32.0143 58.44C31.8413 58.5142 31.8413 58.5142 31.6649 58.59C30.6397 59.0104 29.8687 59.216 28.8179 58.7872C28.7222 58.7451 28.6265 58.703 28.5279 58.6597C28.4259 58.6167 28.3239 58.5737 28.2188 58.5294C27.2678 58.1227 26.3427 57.673 25.4298 57.1875C25.3474 57.1444 25.265 57.1012 25.1801 57.0568C23.1297 55.9784 21.2419 54.6726 19.4532 53.2031C19.3595 53.1275 19.3595 53.1275 19.2639 53.0504C18.3047 52.2743 17.4206 51.4284 16.5455 50.5591C16.4434 50.4581 16.3413 50.357 16.236 50.2529C15.5401 49.5536 14.9118 48.8177 14.297 48.0469C14.1784 47.9039 14.0594 47.7612 13.9399 47.6189C6.67868 38.8523 4.16558 26.3527 5.04074 14.8586C5.27649 12.4933 5.59816 9.78031 6.91416 7.73439C7.58295 7.28853 8.43702 7.47836 9.205 7.58411C10.4632 7.75478 11.7105 7.77621 12.9786 7.77101C13.1412 7.77069 13.1412 7.77069 13.307 7.77037C14.8719 7.76517 16.3966 7.72416 17.9298 7.38283C18.0729 7.35267 18.0729 7.35267 18.2189 7.32189C22.3875 6.42828 25.9979 4.47093 28.9445 1.38842C29.3886 0.979751 29.7488 0.865171 30.3517 0.937519ZM29.2384 6.63576C26.3342 9.14179 22.4716 10.6254 18.7501 11.3672C18.6441 11.3902 18.538 11.4132 18.4288 11.4368C15.5717 12.0418 12.6298 11.8815 9.72666 11.836C9.66931 12.0016 9.61253 12.1674 9.55597 12.3332C9.52429 12.4255 9.49261 12.5178 9.45996 12.6129C9.33509 13.0216 9.28473 13.4261 9.24326 13.8501C9.23465 13.9266 9.22604 14.0031 9.21717 14.082C9.1884 14.3487 9.16421 14.6156 9.14072 14.8828C9.13038 14.9927 9.12003 15.1025 9.10937 15.2156C8.99546 16.5727 8.99523 17.931 8.99424 19.292C8.99408 19.4194 8.99393 19.5468 8.99376 19.678C8.99426 21.5428 9.05621 23.3631 9.326 25.2106C9.37468 25.544 9.41807 25.8777 9.46024 26.212C9.62361 27.4734 9.85095 28.7149 10.133 29.9549C10.1952 30.2337 10.253 30.5131 10.3103 30.7929C10.8672 33.4132 11.8245 36.0353 13.0079 38.4375C13.0613 38.547 13.1147 38.6565 13.1697 38.7693C14.3538 41.1777 15.7462 43.4034 17.461 45.4688C17.5411 45.5666 17.5411 45.5666 17.6227 45.6665C18.9411 47.2753 20.3906 48.7581 22.0314 50.0391C22.158 50.1447 22.2843 50.2508 22.4104 50.3572C24.3916 52.0147 27.3556 54.3569 29.958 54.7765C30.5657 54.6995 31.0658 54.432 31.6114 54.1626C31.7306 54.1045 31.8498 54.0465 31.9726 53.9866C34.13 52.9173 36.1188 51.578 37.9689 50.0391C38.028 49.9906 38.0871 49.942 38.148 49.892C39.7588 48.5658 41.2609 47.1216 42.5392 45.4688C42.6418 45.3413 42.7446 45.2141 42.8477 45.087C43.6275 44.1202 44.337 43.1204 45.0001 42.0703C45.0464 41.9975 45.0927 41.9247 45.1404 41.8497C47.2226 38.5433 48.5448 34.9228 49.5704 31.1719C49.595 31.0833 49.6196 30.9947 49.645 30.9034C49.9441 29.8178 50.1447 28.7307 50.3074 27.6174C50.3646 27.2271 50.4327 26.8403 50.5061 26.4528C51.3189 22.0118 51.7786 16.1641 50.2735 11.836C50.2056 11.8367 50.1377 11.8375 50.0677 11.8383C49.3469 11.8462 48.6261 11.8515 47.9053 11.8553C47.638 11.857 47.3706 11.8594 47.1032 11.8625C44.7809 11.8885 42.5709 11.6814 40.3126 11.1328C40.2296 11.1132 40.1467 11.0936 40.0612 11.0734C38.65 10.7373 37.3101 10.298 35.9767 9.72658C35.8936 9.6911 35.8106 9.65562 35.725 9.61906C33.8977 8.82627 32.2025 7.82239 30.668 6.55062C30.0559 6.12015 29.7784 6.12634 29.2384 6.63576Z" fill="#D4EBFD"/>
<path d="M37.7345 18.9843C38.1988 19.1999 38.6057 19.5103 39.0236 19.8046C39.0984 19.8567 39.1732 19.9088 39.2503 19.9625C39.4908 20.1305 39.7298 20.3004 39.9684 20.4712C40.0452 20.5254 40.122 20.5797 40.2011 20.6356C40.9002 21.1456 40.9002 21.1456 41.0157 21.5625C41.0857 22.086 40.9954 22.3728 40.6826 22.7974C40.633 22.8612 40.5834 22.925 40.5323 22.9907C40.4543 23.0953 40.4543 23.0953 40.3748 23.2021C40.2603 23.3555 40.1451 23.5084 40.0294 23.6608C39.7686 24.0057 39.5136 24.3546 39.258 24.7033C39.0492 24.9878 38.8397 25.2718 38.6299 25.5555C38.2136 26.1186 37.7982 26.6823 37.3829 27.2461C37.2462 27.4316 37.1095 27.6172 36.9728 27.8027C36.9051 27.8945 36.8374 27.9864 36.7677 28.081C34.922 30.5859 33.0763 33.0908 31.2306 35.5957C31.1629 35.6876 31.0951 35.7795 31.0253 35.8742C30.8892 36.059 30.7531 36.2436 30.6169 36.4283C30.2656 36.9048 29.9149 37.3817 29.5652 37.8593C29.1654 38.4051 28.7632 38.9491 28.3595 39.4921C28.3096 39.5598 28.2597 39.6275 28.2083 39.6972C27.3568 40.8463 27.3568 40.8463 26.7189 41.0156C26.1886 41.0823 25.8165 41.0098 25.3813 40.6915C25.1825 40.511 24.9873 40.3263 24.7953 40.1385C24.5017 39.8529 24.1981 39.5998 23.8771 39.3457C23.358 38.9263 22.8684 38.4843 22.3829 38.0273C21.7979 37.4767 21.1982 36.9565 20.572 36.4526C20.2703 36.2083 19.9737 35.9597 19.6803 35.7055C19.5968 35.6335 19.5132 35.5614 19.4272 35.4872C19.104 35.1555 18.9988 34.9216 18.9424 34.4609C18.9949 34.013 19.1292 33.8464 19.424 33.5083C19.519 33.3984 19.614 33.2886 19.7119 33.1755C19.8207 33.0542 19.9299 32.9333 20.0392 32.8125C20.1 32.7446 20.1608 32.6768 20.2234 32.6069C21.4964 31.1895 21.4964 31.1895 22.0607 31.1352C22.8159 31.1982 23.2951 31.7036 23.8331 32.2045C24.2233 32.5645 24.6135 32.9235 25.0123 33.2739C25.0823 33.3354 25.1522 33.3969 25.2243 33.4602C25.443 33.6438 25.6686 33.815 25.8986 33.9843C25.9267 33.9221 25.9548 33.8599 25.9837 33.7957C26.1751 33.4365 26.4076 33.1123 26.6456 32.7832C26.6972 32.7114 26.7487 32.6397 26.8018 32.5658C27.2455 31.9512 27.6994 31.3446 28.1556 30.7393C28.825 29.8505 29.4837 28.9539 30.1428 28.0574C30.4855 27.5914 30.8288 27.1258 31.172 26.6601C31.3087 26.4746 31.4454 26.289 31.5822 26.1035C31.8556 25.7324 32.129 25.3613 32.4025 24.9902C32.4702 24.8983 32.5379 24.8064 32.6076 24.7118C32.7441 24.5265 32.8806 24.3413 33.0172 24.156C33.3621 23.6879 33.7069 23.2197 34.0513 22.7513C34.3916 22.2885 34.7325 21.8261 35.0739 21.3641C35.2083 21.1822 35.3424 21 35.4764 20.8178C35.6695 20.5553 35.8633 20.2935 36.0573 20.0317C36.144 19.9134 36.144 19.9134 36.2324 19.7927C36.6865 19.1825 36.9548 18.9092 37.7345 18.9843Z" fill="#FDFDFD"/>
</svg>
