<svg width="24" height="24" viewBox="0 0 24 24" fill="none" xmlns="http://www.w3.org/2000/svg">
<path d="M6.3751 0.75C6.50456 0.872979 6.5533 0.956476 6.60948 1.125C6.60948 1.44984 6.60948 1.77469 6.60948 2.10937C8.74417 2.10937 10.8789 2.10937 13.0782 2.10937C13.0782 1.73812 13.0782 1.36687 13.0782 0.984375C13.3534 0.709239 13.3534 0.709239 13.5587 0.685547C13.7914 0.708818 13.8543 0.772269 14.0157 0.9375C14.0626 1.07813 14.068 1.17067 14.0672 1.31744C14.067 1.36352 14.0669 1.40959 14.0667 1.45706C14.0663 1.50507 14.0659 1.55308 14.0655 1.60254C14.0653 1.65109 14.0651 1.69964 14.0649 1.74966C14.0643 1.86957 14.0636 1.98947 14.0626 2.10937C14.1046 2.10875 14.1046 2.10875 14.1475 2.10811C14.4418 2.10393 14.7361 2.10112 15.0305 2.09908C15.14 2.09814 15.2495 2.09686 15.359 2.09523C16.2859 2.08176 17.0612 2.14004 17.7657 2.8125C18.3471 3.47755 18.4431 4.21736 18.4422 5.06575C18.4427 5.14988 18.4432 5.23402 18.4437 5.31815C18.445 5.54493 18.4454 5.77171 18.4457 5.99849C18.4461 6.2361 18.4474 6.4737 18.4485 6.7113C18.4506 7.16051 18.4519 7.60972 18.453 8.05893C18.4543 8.57065 18.4563 9.08237 18.4584 9.59408C18.4628 10.6461 18.4661 11.698 18.4689 12.75C18.5409 12.7688 18.5409 12.7688 18.6145 12.788C18.6782 12.8047 18.742 12.8215 18.8058 12.8383C18.8532 12.8506 18.8532 12.8506 18.9015 12.8632C19.1456 12.9276 19.3739 13.0074 19.6026 13.1133C19.6381 13.1295 19.6736 13.1457 19.7102 13.1624C20.9428 13.7407 21.9193 14.8171 22.3948 16.09C22.863 17.4974 22.8196 19.0018 22.1724 20.3465C21.9907 20.7002 21.7746 21.0264 21.5157 21.3281C21.4829 21.3666 21.4501 21.4051 21.4163 21.4448C20.6499 22.3201 19.6563 22.916 18.5157 23.1562C18.4441 23.172 18.4441 23.172 18.3711 23.1881C16.9901 23.4473 15.5482 23.121 14.3878 22.3413C14.1921 22.2011 14.0091 22.0494 13.8282 21.8906C13.79 21.8571 13.7517 21.8236 13.7123 21.789C13.179 21.2876 12.8194 20.6741 12.5157 20.0156C12.5003 19.9847 12.4848 19.9537 12.4689 19.9219C12.4214 19.9218 12.3739 19.9218 12.325 19.9218C11.168 19.9211 10.0111 19.9191 8.85415 19.9157C8.29464 19.9141 7.73515 19.9129 7.17564 19.9127C6.68777 19.9126 6.19991 19.9116 5.71205 19.9097C5.45391 19.9087 5.19579 19.9081 4.93764 19.9085C4.69425 19.9088 4.45088 19.9081 4.20748 19.9065C4.11856 19.9061 4.02964 19.9061 3.94073 19.9066C3.18148 19.91 2.55532 19.7955 1.96885 19.2656C1.39156 18.6616 1.19585 17.9615 1.201 17.1388C1.20078 17.0838 1.20056 17.0288 1.20033 16.9721C1.19987 16.8212 1.20003 16.6704 1.20047 16.5196C1.20079 16.3562 1.2003 16.1928 1.19991 16.0294C1.19929 15.71 1.19942 15.3906 1.19983 15.0712C1.20015 14.8115 1.20019 14.5518 1.20004 14.292C1.20001 14.2549 1.19999 14.2179 1.19997 14.1797C1.19993 14.1043 1.19988 14.029 1.19983 13.9536C1.19943 13.2484 1.19989 12.5433 1.20065 11.8381C1.20128 11.234 1.20117 10.63 1.20052 10.0259C1.19977 9.32311 1.19947 8.62031 1.1999 7.91751C1.19995 7.84246 1.19999 7.7674 1.20004 7.69235C1.20006 7.65543 1.20008 7.61851 1.2001 7.58047C1.20022 7.32128 1.20002 7.06208 1.19969 6.80289C1.19929 6.48668 1.1994 6.17048 1.20015 5.85427C1.20052 5.69318 1.20067 5.5321 1.2002 5.37101C1.19981 5.19584 1.2003 5.0207 1.201 4.84554C1.20068 4.79538 1.20037 4.74523 1.20005 4.69355C1.20624 3.88817 1.44972 3.28574 2.01573 2.71875C2.0428 2.69114 2.06987 2.66352 2.09776 2.63507C2.56454 2.19634 3.16854 2.09418 3.7838 2.10022C3.83529 2.10035 3.88678 2.10048 3.93983 2.10062C4.10316 2.10114 4.26647 2.10232 4.42979 2.10352C4.541 2.10399 4.6522 2.10441 4.76341 2.1048C5.03502 2.10583 5.30662 2.10739 5.57823 2.10937C5.57749 2.07936 5.57676 2.04935 5.576 2.01843C5.57306 1.88176 5.57124 1.74509 5.56944 1.6084C5.56826 1.56118 5.56708 1.51395 5.56587 1.4653C5.56155 1.0291 5.56155 1.0291 5.71885 0.84375C5.91906 0.6671 6.12939 0.67376 6.3751 0.75ZM2.57823 3.5625C2.07718 4.19553 2.2501 4.81617 2.2501 5.67187C7.26198 5.67187 12.2739 5.67187 17.4376 5.67187C17.5036 4.50824 17.5036 4.50824 17.0223 3.51508C16.7103 3.22664 16.38 3.08722 15.9517 3.08843C15.9095 3.08843 15.8673 3.08844 15.8238 3.08844C15.7789 3.08868 15.734 3.08892 15.6877 3.08917C15.6412 3.08924 15.5947 3.0893 15.5468 3.08937C15.3987 3.08963 15.2507 3.09022 15.1026 3.09082C15.0021 3.09106 14.9015 3.09127 14.801 3.09146C14.5549 3.09198 14.3087 3.09276 14.0626 3.09375C14.0619 3.1409 14.0619 3.1409 14.0613 3.189C14.0588 3.33209 14.0548 3.47511 14.0509 3.61816C14.0502 3.66762 14.0496 3.71708 14.0489 3.76804C14.0374 4.13292 14.0374 4.13292 13.933 4.32092C13.8194 4.41344 13.7619 4.44004 13.6173 4.4502C13.582 4.45352 13.5467 4.45684 13.5104 4.46027C13.3893 4.45195 13.3205 4.42509 13.2189 4.35937C12.9834 4.00619 13.0959 3.51785 13.0782 3.09375C10.9435 3.09375 8.80885 3.09375 6.60948 3.09375C6.59401 3.43406 6.57854 3.77437 6.5626 4.125C6.39623 4.40229 6.39623 4.40229 6.23448 4.45312C6.01817 4.47614 5.88942 4.4499 5.71885 4.3125C5.64104 4.15226 5.61222 4.01706 5.60569 3.8399C5.60388 3.79625 5.60207 3.75259 5.6002 3.70761C5.59875 3.66262 5.5973 3.61764 5.59581 3.57129C5.59399 3.5254 5.59218 3.4795 5.59031 3.43222C5.58591 3.31941 5.5819 3.20659 5.57823 3.09375C5.28641 3.09025 4.9946 3.08771 4.70276 3.08602C4.60365 3.08532 4.50454 3.08436 4.40544 3.08314C4.26231 3.08142 4.1192 3.08063 3.97606 3.08002C3.93234 3.07929 3.88862 3.07857 3.84357 3.07782C3.34141 3.07769 2.93849 3.20509 2.57823 3.5625ZM2.2501 6.65625C2.24624 8.47963 2.24237 10.303 2.23839 12.1816C2.23668 12.7574 2.23497 13.3331 2.23321 13.9262C2.23259 14.4424 2.23259 14.4424 2.23221 14.9585C2.23203 15.1883 2.23133 15.4182 2.23031 15.648C2.22902 15.9414 2.22864 16.2348 2.2289 16.5281C2.22885 16.6357 2.22848 16.7433 2.22775 16.8508C2.22682 16.9964 2.22704 17.1419 2.22756 17.2875C2.22701 17.3293 2.22646 17.3712 2.2259 17.4143C2.22995 17.8446 2.37366 18.2115 2.66868 18.527C2.97941 18.7908 3.32674 18.8979 3.72657 18.8963C3.76268 18.8963 3.79878 18.8963 3.83599 18.8964C3.95733 18.8965 4.07868 18.8962 4.20003 18.8959C4.28687 18.8959 4.37371 18.8959 4.46056 18.896C4.69666 18.896 4.93276 18.8957 5.16886 18.8954C5.41548 18.8951 5.66209 18.8951 5.9087 18.895C6.37586 18.8949 6.84301 18.8945 7.31017 18.894C7.84194 18.8935 8.37371 18.8932 8.90548 18.893C9.99952 18.8925 11.0936 18.8917 12.1876 18.8906C12.1872 18.8479 12.1868 18.8051 12.1864 18.7611C12.1851 18.6001 12.1841 18.4391 12.1834 18.2781C12.183 18.2088 12.1825 18.1396 12.1819 18.0704C12.1692 16.721 12.5766 15.4449 13.5001 14.4375C13.5391 14.3947 13.5781 14.3519 13.6182 14.3079C14.6523 13.2238 15.938 12.8499 17.3907 12.6562C17.3907 10.6762 17.3907 8.69625 17.3907 6.65625C12.3943 6.65625 7.39792 6.65625 2.2501 6.65625ZM14.2144 15.0883C13.475 15.9375 13.0903 16.9902 13.1136 18.1187C13.1963 19.2849 13.6717 20.3235 14.5169 21.1406C15.4156 21.9192 16.5555 22.3331 17.7461 22.253C18.9312 22.1471 19.9889 21.5676 20.7657 20.6719C21.4851 19.7238 21.839 18.5548 21.6884 17.3675C21.4934 16.2059 20.8779 15.1519 19.919 14.458C18.0931 13.209 15.7344 13.5016 14.2144 15.0883Z" fill="#FDFDFD"/>
<path d="M5.7443 10.7275C5.77618 10.7273 5.80806 10.7271 5.84091 10.7269C5.94825 10.7264 6.05559 10.7263 6.16294 10.7261C6.23969 10.7258 6.31645 10.7255 6.39321 10.7251C6.60211 10.7243 6.81102 10.7238 7.01993 10.7234C7.15038 10.7232 7.28084 10.7229 7.4113 10.7226C7.81928 10.7217 8.22727 10.7211 8.63525 10.7207C9.10654 10.7202 9.57783 10.719 10.0491 10.7171C10.4132 10.7157 10.7772 10.715 11.1413 10.7148C11.3588 10.7147 11.5764 10.7143 11.7939 10.7131C11.9985 10.712 12.2032 10.7118 12.4078 10.7123C12.4829 10.7123 12.558 10.712 12.6332 10.7114C12.7357 10.7106 12.8382 10.7109 12.9408 10.7115C12.9982 10.7114 13.0556 10.7113 13.1147 10.7112C13.2944 10.7388 13.3716 10.7956 13.4999 10.9219C13.5813 11.0846 13.575 11.2599 13.5468 11.4375C13.4445 11.5667 13.3653 11.6454 13.2187 11.7187C13.1178 11.7236 13.0167 11.7253 12.9157 11.7256C12.8842 11.7258 12.8527 11.726 12.8203 11.7262C12.7144 11.7267 12.6084 11.7269 12.5025 11.727C12.4267 11.7273 12.351 11.7276 12.2752 11.728C12.069 11.7288 11.8628 11.7293 11.6566 11.7297C11.5278 11.7299 11.399 11.7302 11.2703 11.7305C10.8674 11.7314 10.4645 11.7321 10.0617 11.7324C9.59647 11.7329 9.13127 11.7341 8.66606 11.736C8.30662 11.7374 7.94718 11.7381 7.58774 11.7383C7.373 11.7384 7.15827 11.7388 6.94354 11.74C6.74146 11.7411 6.53941 11.7413 6.33734 11.7408C6.26322 11.7408 6.18911 11.7411 6.11501 11.7417C6.01368 11.7426 5.91243 11.7422 5.81111 11.7416C5.72613 11.7418 5.72613 11.7418 5.63943 11.7419C5.45225 11.714 5.34993 11.6484 5.20304 11.5312C5.12201 11.3692 5.13321 11.1928 5.15617 11.0156C5.32396 10.7471 5.43967 10.7285 5.7443 10.7275Z" fill="#FDFDFD"/>
<path d="M20.1094 16.0781C20.2506 16.1542 20.356 16.2235 20.458 16.3477C20.4998 16.5149 20.4856 16.6651 20.4375 16.8281C20.3014 17.0302 20.1331 17.1721 19.9486 17.3289C19.7851 17.4763 19.6313 17.6326 19.4765 17.7891C19.2749 17.9927 19.0733 18.1903 18.854 18.375C18.6631 18.547 18.4853 18.7326 18.3045 18.9151C18.1302 19.0905 17.9536 19.2585 17.7643 19.4178C17.5912 19.5717 17.4314 19.7397 17.2696 19.9052C17.1237 20.0474 17.0224 20.1246 16.8193 20.1357C16.6356 20.129 16.5513 20.0929 16.4174 19.9678C16.385 19.9379 16.3527 19.9081 16.3193 19.8773C16.2861 19.8456 16.2529 19.8139 16.2187 19.7813C16.1864 19.7509 16.1542 19.7206 16.1209 19.6894C15.9018 19.4821 15.6869 19.2704 15.472 19.0587C15.3934 18.9816 15.3145 18.9049 15.2351 18.8285C15.1198 18.7174 15.0057 18.6052 14.8918 18.4926C14.8563 18.4589 14.8208 18.4251 14.7842 18.3904C14.5861 18.1915 14.4912 18.0497 14.4736 17.7662C14.4918 17.6066 14.5686 17.5086 14.6719 17.3906C14.8405 17.3063 15.0041 17.3124 15.1875 17.3438C15.2704 17.3965 15.2704 17.3965 15.3512 17.4714C15.3834 17.5011 15.4156 17.5309 15.4487 17.5616C15.6924 17.7979 15.9327 18.0374 16.1719 18.2783C16.2266 18.3333 16.2813 18.3883 16.3361 18.4432C16.469 18.5766 16.6017 18.7101 16.7344 18.8438C17.145 18.6473 17.4636 18.2578 17.7808 17.937C17.9115 17.8053 18.0427 17.6776 18.1845 17.5576C18.3676 17.4025 18.5345 17.2329 18.7031 17.0625C18.9298 16.8337 19.159 16.6131 19.4062 16.4063C19.4668 16.3535 19.5273 16.3008 19.5879 16.248C19.7638 16.095 19.8702 16.0551 20.1094 16.0781Z" fill="#FDFDFD"/>
<path d="M5.67519 13.8209C5.73512 13.8203 5.73512 13.8203 5.79626 13.8197C5.84019 13.8195 5.88412 13.8193 5.92938 13.8191C5.99867 13.8185 5.99867 13.8185 6.06937 13.8179C6.22273 13.8168 6.37609 13.816 6.52946 13.8153C6.58177 13.8151 6.63409 13.8148 6.68798 13.8146C6.96489 13.8133 7.24179 13.8124 7.51869 13.8117C7.80484 13.8109 8.09097 13.8088 8.37711 13.8065C8.597 13.8049 8.81688 13.8043 9.03677 13.8041C9.14225 13.8038 9.24773 13.803 9.35321 13.8019C9.50089 13.8004 9.64851 13.8004 9.7962 13.8008C9.86153 13.7996 9.86153 13.7996 9.92817 13.7984C10.1331 13.8004 10.2699 13.8099 10.4328 13.9411C10.5697 14.0869 10.5914 14.1526 10.6019 14.3439C10.5888 14.4931 10.5352 14.5955 10.453 14.7188C10.3078 14.8156 10.2765 14.8243 10.112 14.825C10.0711 14.8254 10.0303 14.8258 9.98815 14.8263C9.92109 14.8262 9.92109 14.8262 9.85267 14.8261C9.80547 14.8264 9.75828 14.8268 9.70966 14.8271C9.55328 14.828 9.3969 14.8281 9.24052 14.8283C9.13198 14.8286 9.02345 14.8289 8.91491 14.8292C8.68723 14.8298 8.45955 14.8299 8.23186 14.8299C7.93998 14.8299 7.64812 14.8311 7.35625 14.8328C7.13202 14.8338 6.9078 14.834 6.68357 14.8339C6.57596 14.8341 6.46834 14.8345 6.36073 14.8352C6.21024 14.8361 6.0598 14.8358 5.90931 14.8353C5.84252 14.8361 5.84252 14.8361 5.77439 14.8369C5.57465 14.835 5.46661 14.8306 5.29367 14.7232C5.14196 14.5588 5.13793 14.4324 5.13933 14.2154C5.16604 14.0473 5.2594 13.9749 5.39055 13.875C5.49718 13.8217 5.55672 13.8218 5.67519 13.8209Z" fill="#FDFDFD"/>
</svg>
