<svg width="24" height="24" viewBox="0 0 24 24" fill="none" xmlns="http://www.w3.org/2000/svg">
<g clip-path="url(#clip0_11_87)">
<path d="M0.453802 -0.0234625C0.508433 -0.0239225 0.563064 -0.0243826 0.619351 -0.0248566C0.679412 -0.0244063 0.739473 -0.0239561 0.801355 -0.0234922C0.865769 -0.0236747 0.930182 -0.023939 0.994596 -0.0242784C1.17179 -0.0249716 1.34896 -0.0244918 1.52615 -0.0238219C1.71717 -0.0233023 1.90819 -0.0238606 2.0992 -0.0242833C2.47348 -0.0249372 2.84775 -0.0245816 3.22203 -0.0238766C3.65766 -0.0230873 4.09329 -0.0232367 4.52892 -0.0234123C5.30607 -0.023688 6.08322 -0.0230229 6.86037 -0.0218679C7.6149 -0.0207465 8.36943 -0.0204145 9.12396 -0.0209066C9.94511 -0.0214411 10.7663 -0.0215322 11.5874 -0.0208551C11.6749 -0.0207836 11.7624 -0.0207123 11.85 -0.0206413C11.9146 -0.020588 11.9146 -0.020588 11.9805 -0.0205337C12.2843 -0.0203111 12.5881 -0.0203983 12.892 -0.0205975C13.2621 -0.0208282 13.6323 -0.0205491 14.0024 -0.0196181C14.1914 -0.0191546 14.3803 -0.0189168 14.5692 -0.0192849C14.7421 -0.0196148 14.9149 -0.0192989 15.0878 -0.0184597C15.1802 -0.0181792 15.2726 -0.018591 15.365 -0.0190244C15.4469 -0.018431 15.4469 -0.018431 15.5305 -0.0178256C15.5778 -0.0177773 15.625 -0.0177291 15.6737 -0.0176794C15.8175 0.00295951 15.881 0.0398811 15.9844 0.140627C16.0399 0.307318 16.0378 0.44066 16.0386 0.616703C16.0389 0.651087 16.0391 0.685471 16.0393 0.720896C16.0401 0.836414 16.0405 0.95193 16.0409 1.06745C16.0413 1.15014 16.0418 1.23282 16.0423 1.31551C16.0435 1.54028 16.0445 1.76505 16.0454 1.98982C16.0465 2.22461 16.0478 2.4594 16.049 2.69419C16.0514 3.13893 16.0535 3.58367 16.0555 4.02842C16.0578 4.53468 16.0604 5.04095 16.063 5.54722C16.0683 6.58877 16.0733 7.63032 16.0781 8.67188C16.1104 8.65558 16.1426 8.63928 16.1758 8.62249C16.2181 8.60122 16.2604 8.57996 16.304 8.55804C16.3459 8.53691 16.3878 8.51578 16.431 8.49401C17.1401 8.14812 18.196 8.18612 18.932 8.4256C19.6448 8.71232 20.1937 9.19843 20.5235 9.89649C20.9433 10.9333 20.9027 12.1405 20.4844 13.1719C20.2922 13.6246 20.0678 14.0252 19.7344 14.3906C19.7096 14.4197 19.6848 14.4488 19.6593 14.4787C19.4172 14.7453 19.1054 14.9151 18.7969 15.0938C18.8328 15.098 18.8688 15.1022 18.9059 15.1065C20.03 15.2406 21.1743 15.3833 22.2187 15.8438C22.2836 15.8718 22.2836 15.8718 22.3498 15.9003C23.0632 16.2316 23.6108 16.7512 23.9062 17.4844C24.0167 17.7881 24.0138 18.0766 24.0136 18.3976C24.0141 18.485 24.0141 18.485 24.0145 18.5741C24.0153 18.7331 24.0156 18.8922 24.0157 19.0512C24.0157 19.1506 24.0159 19.25 24.0162 19.3494C24.017 19.6964 24.0174 20.0434 24.0173 20.3904C24.0173 20.7137 24.0183 21.037 24.0198 21.3603C24.021 21.6382 24.0215 21.9161 24.0214 22.194C24.0214 22.3599 24.0217 22.5257 24.0227 22.6915C24.0237 22.8762 24.0233 23.0609 24.0228 23.2456C24.0233 23.3006 24.0238 23.3555 24.0243 23.4121C24.0238 23.4875 24.0238 23.4875 24.0232 23.5644C24.0232 23.608 24.0233 23.6517 24.0233 23.6966C23.9929 23.8478 23.9305 23.9041 23.8125 24C23.6839 24.0341 23.5674 24.0267 23.4375 24C23.2855 23.8909 23.237 23.8047 23.2031 23.625C23.1991 23.5465 23.1975 23.4678 23.1976 23.3891C23.1975 23.3416 23.1975 23.294 23.1974 23.245C23.1977 23.1671 23.1977 23.1671 23.1979 23.0877C23.1979 22.9739 23.1979 22.8601 23.1979 22.7463C23.1979 22.6859 23.198 22.6255 23.1981 22.5633C23.1982 22.3741 23.1978 22.1849 23.1972 21.9957C23.1971 21.9637 23.197 21.9317 23.1969 21.8987C23.1967 21.8333 23.1965 21.7679 23.1964 21.7025C23.195 21.2622 23.1941 20.822 23.1949 20.3817C23.1954 20.0845 23.195 19.7873 23.1934 19.4901C23.1926 19.3331 23.1924 19.1761 23.1932 19.0191C23.194 18.8434 23.1931 18.6678 23.1917 18.4921C23.1924 18.4409 23.193 18.3898 23.1937 18.3371C23.188 17.9481 23.0671 17.6779 22.875 17.3438C22.8583 17.3085 22.8417 17.2733 22.8245 17.237C22.7666 17.129 22.7044 17.1116 22.5937 17.0625C22.5248 17.0124 22.4565 16.9616 22.3886 16.9102C21.5587 16.3279 20.4809 16.1769 19.5 16.0313C19.463 16.0256 19.4261 16.02 19.388 16.0142C17.4468 15.7318 14.6268 15.772 12.9931 16.9893C12.666 17.2565 12.4159 17.579 12.3281 18C12.3239 18.0799 12.3221 18.1599 12.3219 18.2399C12.3218 18.2883 12.3216 18.3367 12.3214 18.3866C12.3214 18.4395 12.3214 18.4924 12.3215 18.5468C12.3213 18.6027 12.3211 18.6586 12.321 18.7162C12.3206 18.8376 12.3204 18.959 12.3202 19.0804C12.3199 19.2725 12.3191 19.4646 12.3183 19.6566C12.318 19.7224 12.3177 19.7882 12.3174 19.854C12.3172 19.887 12.3171 19.9199 12.3169 19.9539C12.3149 20.4009 12.3134 20.8479 12.3128 21.2949C12.3124 21.5966 12.3114 21.8983 12.3096 22.2001C12.3086 22.3596 12.3081 22.5192 12.3083 22.6788C12.3084 22.8568 12.3074 23.0347 12.3061 23.2127C12.3064 23.2655 12.3067 23.3183 12.307 23.3727C12.3027 23.7294 12.3027 23.7294 12.1924 23.9154C12.0798 24.0119 12.0297 24.0318 11.8828 24.0293C11.8475 24.0299 11.8122 24.0305 11.7759 24.0311C11.6207 23.9847 11.5726 23.8988 11.4844 23.7656C11.4631 23.6271 11.4631 23.6271 11.466 23.4761C11.4666 23.4219 11.4672 23.3677 11.4679 23.3118C11.4702 23.2276 11.4702 23.2276 11.4726 23.1416C11.4735 23.0845 11.4743 23.0275 11.4752 22.9687C11.4774 22.828 11.4805 22.6875 11.4844 22.5469C11.4263 22.5471 11.3683 22.5472 11.3084 22.5474C9.93112 22.5515 8.55379 22.5546 7.17646 22.5565C7.00701 22.5567 6.83756 22.5569 6.66811 22.5572C6.63437 22.5572 6.60064 22.5573 6.56588 22.5573C6.01933 22.5581 5.47278 22.5596 4.92623 22.5613C4.36561 22.5631 3.80498 22.5641 3.24435 22.5645C2.92937 22.5648 2.61441 22.5653 2.29944 22.5667C2.00318 22.568 1.70694 22.5684 1.41069 22.5681C1.30177 22.5681 1.19285 22.5685 1.08393 22.5692C0.935569 22.5702 0.787256 22.5699 0.638897 22.5694C0.595488 22.57 0.552078 22.5705 0.507354 22.5711C0.467629 22.5707 0.427904 22.5703 0.386975 22.57C0.352729 22.57 0.318483 22.5701 0.283199 22.5702C0.138211 22.5349 0.0867202 22.4803 -2.36258e-05 22.3594C-0.0184017 22.2302 -0.0252374 22.1197 -0.0236188 21.9906C-0.0240276 21.9342 -0.0240276 21.9342 -0.0244446 21.8766C-0.0251324 21.7499 -0.0244766 21.6231 -0.0238331 21.4964C-0.024049 21.4049 -0.0243467 21.3134 -0.0247194 21.2219C-0.0255049 20.9699 -0.025114 20.7179 -0.0245345 20.4659C-0.0241116 20.1943 -0.0247644 19.9228 -0.0252807 19.6513C-0.026116 19.1191 -0.0259337 18.5869 -0.0253909 18.0547C-0.0249681 17.6223 -0.0249097 17.1899 -0.0251141 16.7575C-0.0251428 16.6961 -0.0251716 16.6346 -0.0252012 16.5713C-0.0252461 16.4778 -0.025291 16.3842 -0.0253374 16.2907C-0.0259113 15.1213 -0.0253905 13.9519 -0.0243818 12.7825C-0.0234919 11.7431 -0.0235716 10.7036 -0.0244682 9.66419C-0.0254717 8.49696 -0.0258706 7.32972 -0.0252909 6.16248C-0.0252312 6.0381 -0.0251722 5.91372 -0.0251141 5.78934C-0.0250852 5.72813 -0.0250562 5.66693 -0.0250264 5.60387C-0.0248643 5.17183 -0.0251383 4.73978 -0.025579 4.30774C-0.026104 3.78147 -0.0259645 3.25522 -0.0249639 2.72895C-0.0244699 2.46026 -0.0242802 2.19158 -0.0248981 1.92289C-0.0254546 1.67718 -0.0251534 1.43148 -0.0241523 1.18578C-0.0239419 1.09663 -0.0240515 1.00749 -0.024504 0.918351C-0.02507 0.797652 -0.0244938 0.677012 -0.0236188 0.556316C-0.0240578 0.521291 -0.0244968 0.486266 -0.024949 0.450179C-0.0226821 0.294895 -0.00972831 0.201746 0.0785557 0.0721674C0.213928 -0.0175236 0.291948 -0.0234453 0.453802 -0.0234625ZM0.796851 0.750002C0.796851 7.69547 0.796851 14.6409 0.796851 21.7969C4.32373 21.7969 7.8506 21.7969 11.4844 21.7969C11.4998 20.5284 11.5153 19.26 11.5312 17.9531C11.738 17.1261 12.0321 16.6307 12.75 16.1719C13.5242 15.7158 14.3636 15.5137 15.2344 15.3281C15.2414 15.0865 15.2465 14.8449 15.2498 14.6031C15.2512 14.5212 15.2531 14.4393 15.2556 14.3574C15.27 13.8638 15.2487 13.4754 15.0223 13.0309C14.621 12.2175 14.6498 11.0296 14.9126 10.1771C14.9531 10.0781 14.9531 10.0781 15.0202 9.96709C15.2799 9.52935 15.2727 9.13974 15.2663 8.64711C15.2662 8.55928 15.2662 8.47145 15.2664 8.38361C15.2664 8.14987 15.2648 7.91616 15.2628 7.68242C15.2612 7.46253 15.2612 7.24265 15.261 7.02276C15.2595 6.38105 15.2556 5.73936 15.2519 5.09766C15.2432 2.94557 15.2432 2.94557 15.2344 0.750002C10.47 0.750002 5.7056 0.750002 0.796851 0.750002ZM16.0166 9.76758C15.505 10.3786 15.4608 11.1386 15.5156 11.9063C15.6267 12.7747 15.9981 13.5985 16.6875 14.1563C17.1595 14.4426 17.5429 14.5278 18.0937 14.4844C18.3727 14.4126 18.6148 14.2836 18.8437 14.1094C18.8861 14.0788 18.8861 14.0788 18.9292 14.0477C19.432 13.6535 19.6996 13.0674 19.875 12.4688C19.8914 12.415 19.8914 12.415 19.9081 12.3602C20.0972 11.6432 20.0637 10.7925 19.7344 10.125C19.4354 9.61496 19.0442 9.28227 18.4698 9.1247C17.5687 8.95007 16.66 9.07912 16.0166 9.76758ZM16.0312 14.625C16.0312 14.8106 16.0312 14.9963 16.0312 15.1875C16.4257 15.1643 16.4257 15.1643 16.8281 15.1406C16.721 15.0335 16.6163 14.9797 16.4824 14.9092C16.3177 14.8224 16.1814 14.7377 16.0312 14.625Z" fill="#FDFDFD"/>
<path d="M2.7655 8.98106C2.80865 8.98074 2.85181 8.98042 2.89627 8.98009C3.03918 8.97923 3.18207 8.97941 3.32499 8.97968C3.42418 8.97947 3.52337 8.97922 3.62256 8.97893C3.83058 8.97852 4.0386 8.97863 4.24662 8.9791C4.51339 8.97963 4.78013 8.97869 5.04689 8.97732C5.25178 8.97646 5.45666 8.97647 5.66154 8.97674C5.7599 8.97675 5.85827 8.97646 5.95663 8.97588C6.09411 8.97518 6.23154 8.97568 6.36902 8.97649C6.40976 8.97603 6.45051 8.97558 6.49249 8.97511C6.76806 8.9785 6.76806 8.9785 6.91478 9.08808C6.997 9.20557 7.02424 9.27853 7.03123 9.42188C6.99554 9.57177 6.96163 9.63741 6.83971 9.73253C6.66675 9.814 6.51507 9.81557 6.32795 9.81284C6.29089 9.81286 6.25382 9.81288 6.21563 9.81291C6.09362 9.81281 5.97165 9.81172 5.84965 9.81061C5.76486 9.81035 5.68006 9.81015 5.59527 9.81001C5.37248 9.80947 5.14971 9.80809 4.92692 9.80653C4.65941 9.80484 4.3919 9.8042 4.12439 9.80338C3.71833 9.80202 3.31229 9.79932 2.90623 9.79688C2.90623 10.7714 2.90623 11.7459 2.90623 12.75C4.00451 12.75 5.10279 12.75 6.23435 12.75C6.21115 12.3323 6.21115 12.3323 6.18748 11.9063C6.00647 12.0737 6.00647 12.0737 5.82568 12.2414C5.58885 12.4595 5.58885 12.4595 5.38474 12.4922C5.12055 12.4581 5.01138 12.3251 4.8281 12.1406C4.77964 12.0938 4.73111 12.0469 4.68253 12.0002C4.63138 11.9504 4.5803 11.9005 4.52927 11.8506C4.5047 11.8266 4.48013 11.8027 4.45481 11.778C4.22642 11.55 4.22642 11.55 4.17185 11.3906C4.18694 11.104 4.18694 11.104 4.28611 10.9746C4.44098 10.8631 4.54424 10.8468 4.73435 10.875C4.87259 10.971 4.99017 11.0847 5.10935 11.2031C5.13443 11.2275 5.15951 11.252 5.18534 11.2771C5.23885 11.3299 5.29142 11.3836 5.34373 11.4375C5.5028 11.3677 5.61477 11.2766 5.74217 11.1592C5.78325 11.1215 5.82434 11.0839 5.86668 11.0451C5.91067 11.0044 5.95466 10.9638 5.99998 10.9219C6.04634 10.8793 6.09273 10.8368 6.13914 10.7943C6.16251 10.7728 6.18588 10.7514 6.20997 10.7293C6.25752 10.6858 6.30512 10.6423 6.35277 10.5988C6.46673 10.4947 6.57948 10.3899 6.69083 10.283C7.08346 9.91185 7.08346 9.91185 7.35935 9.89063C7.51463 9.93457 7.51463 9.93457 7.6406 10.0313C7.71385 10.1865 7.71385 10.1865 7.73435 10.3594C7.64507 10.597 7.53732 10.6873 7.33024 10.8257C7.10064 11.0277 7.04515 11.168 7.02421 11.4716C7.01831 11.7076 7.02186 11.9427 7.0283 12.1787C7.02998 12.3236 7.03094 12.4685 7.03156 12.6134C7.03218 12.7032 7.03355 12.7929 7.03577 12.8826C7.04284 13.2753 7.04284 13.2753 6.93748 13.4531C6.75171 13.577 6.59077 13.5607 6.37508 13.5605C6.31035 13.561 6.31035 13.561 6.24431 13.5615C6.1014 13.5623 5.9585 13.5625 5.81559 13.5626C5.7164 13.5629 5.61721 13.5632 5.51802 13.5636C5.31 13.5641 5.10198 13.5643 4.89396 13.5643C4.6272 13.5642 4.36045 13.5655 4.09369 13.5671C3.8888 13.5682 3.68393 13.5684 3.47904 13.5683C3.38068 13.5684 3.28231 13.5688 3.18395 13.5696C3.04647 13.5705 2.90905 13.5702 2.77157 13.5697C2.73082 13.5702 2.69008 13.5707 2.6481 13.5712C2.37401 13.5684 2.37401 13.5684 2.22617 13.4634C2.08636 13.2554 2.10239 13.05 2.10254 12.8058C2.10239 12.7691 2.10223 12.7324 2.10207 12.6946C2.10162 12.5735 2.10153 12.4524 2.10148 12.3312C2.10133 12.2469 2.10117 12.1626 2.10101 12.0783C2.10073 11.9017 2.10064 11.7251 2.10067 11.5484C2.10067 11.3222 2.10003 11.0959 2.09922 10.8697C2.0987 10.6956 2.09861 10.5215 2.09863 10.3474C2.09858 10.264 2.09837 10.1806 2.09801 10.0972C2.09755 9.98053 2.09768 9.86386 2.09797 9.74718C2.0977 9.71281 2.09744 9.67844 2.09717 9.64304C2.09855 9.41743 2.11938 9.24237 2.26531 9.06503C2.40525 8.94899 2.59137 8.98016 2.7655 8.98106Z" fill="#FDFDFD"/>
<path d="M2.80835 15.8248C2.85052 15.8245 2.89269 15.8242 2.93614 15.8238C3.07553 15.823 3.21489 15.8232 3.35429 15.8234C3.4512 15.8232 3.5481 15.823 3.64501 15.8227C3.84815 15.8223 4.05127 15.8224 4.2544 15.8228C4.5147 15.8234 4.77497 15.8224 5.03527 15.8211C5.23541 15.8202 5.43554 15.8202 5.63569 15.8205C5.73165 15.8205 5.82762 15.8202 5.92359 15.8196C6.0578 15.8189 6.19196 15.8194 6.32617 15.8202C6.3658 15.8198 6.40542 15.8193 6.44625 15.8189C6.63301 15.8212 6.72811 15.8303 6.89072 15.9304C7.01118 16.0602 7.03123 16.1362 7.03123 16.3125C6.95604 16.4779 6.90272 16.5388 6.74998 16.6406C6.62537 16.6493 6.50575 16.6525 6.38117 16.6513C6.3249 16.6513 6.3249 16.6513 6.2675 16.6513C6.14347 16.6512 6.01945 16.6505 5.89542 16.6498C5.80945 16.6496 5.72347 16.6495 5.63749 16.6494C5.41116 16.649 5.18484 16.6481 4.95851 16.6471C4.68697 16.6459 4.41543 16.6455 4.14389 16.645C3.73133 16.6441 3.31879 16.6423 2.90623 16.6406C2.90623 17.6306 2.90623 18.6206 2.90623 19.6406C4.00451 19.6406 5.10279 19.6406 6.23435 19.6406C6.21888 19.3467 6.20342 19.0528 6.18748 18.75C6.14011 18.7993 6.09273 18.8486 6.04392 18.8994C5.65361 19.2858 5.65361 19.2858 5.3701 19.3477C5.12209 19.2954 5.00353 19.1612 4.8281 18.9844C4.7756 18.9329 4.72304 18.8816 4.67045 18.8302C4.17916 18.3471 4.17916 18.3471 4.1572 18.1494C4.17577 17.9601 4.21818 17.8923 4.35935 17.7656C4.55089 17.7053 4.64372 17.6973 4.82517 17.7861C5.00962 17.9405 5.1776 18.1075 5.34373 18.2813C5.52259 18.2204 5.6283 18.1524 5.75681 18.0147C5.87603 17.8908 5.99551 17.7722 6.12595 17.6602C6.3302 17.4847 6.52687 17.3016 6.72337 17.1176C7.10625 16.7611 7.10625 16.7611 7.31248 16.7607C7.45278 16.7665 7.49467 16.7776 7.61424 16.8604C7.69683 16.9826 7.72717 17.0558 7.73435 17.2031C7.67412 17.4374 7.54947 17.5081 7.35661 17.6431C7.16316 17.8014 7.06453 17.9372 7.02992 18.188C7.01054 18.4663 7.0188 18.7439 7.0283 19.0225C7.03093 19.1666 7.03276 19.3106 7.03395 19.4548C7.03492 19.544 7.03685 19.6331 7.03988 19.7223C7.04522 19.9662 7.03048 20.1334 6.8906 20.3438C6.73276 20.4227 6.55405 20.3984 6.3804 20.3989C6.33726 20.3992 6.29411 20.3995 6.24966 20.3999C6.10649 20.4008 5.96333 20.4013 5.82017 20.4018C5.77136 20.402 5.72255 20.4022 5.67226 20.4024C5.41401 20.4034 5.15576 20.404 4.8975 20.4045C4.63036 20.405 4.36325 20.4066 4.09612 20.4085C3.89103 20.4097 3.68595 20.4101 3.48087 20.4102C3.38237 20.4105 3.28388 20.411 3.18539 20.4119C3.04768 20.413 2.91002 20.413 2.77231 20.4127C2.73149 20.4133 2.69067 20.4139 2.64862 20.4145C2.374 20.4121 2.374 20.4121 2.22612 20.3072C2.08642 20.0992 2.10239 19.8938 2.10254 19.6495C2.10239 19.6128 2.10223 19.5762 2.10207 19.5384C2.10162 19.4172 2.10153 19.2961 2.10148 19.175C2.10133 19.0907 2.10117 19.0064 2.10101 18.9221C2.10073 18.7455 2.10064 18.5688 2.10067 18.3922C2.10067 18.1659 2.10003 17.9397 2.09922 17.7134C2.0987 17.5394 2.09861 17.3653 2.09863 17.1912C2.09858 17.1078 2.09837 17.0244 2.09801 16.941C2.09755 16.8243 2.09768 16.7076 2.09797 16.5909C2.0977 16.5566 2.09744 16.5222 2.09717 16.4868C2.09861 16.2517 2.11905 16.0802 2.2766 15.9006C2.44892 15.8147 2.61996 15.8238 2.80835 15.8248Z" fill="#FDFDFD"/>
<path d="M2.76015 2.14795C2.8033 2.14765 2.84644 2.14734 2.8909 2.14702C3.03406 2.14609 3.17722 2.14555 3.32039 2.14508C3.36919 2.14489 3.418 2.1447 3.46829 2.1445C3.72655 2.14352 3.9848 2.14285 4.24305 2.14241C4.51019 2.14189 4.77731 2.14028 5.04444 2.13842C5.24952 2.1372 5.4546 2.1368 5.65969 2.13664C5.75818 2.13641 5.85668 2.13586 5.95517 2.13499C6.09287 2.13386 6.23053 2.13389 6.36824 2.13422C6.40906 2.13362 6.44988 2.13302 6.49194 2.1324C6.76816 2.13479 6.76816 2.13479 6.91462 2.24442C6.99847 2.3639 7.02771 2.4316 7.0312 2.57812C6.92446 2.84243 6.92446 2.84243 6.79683 2.90625C6.67381 2.91061 6.55205 2.91215 6.42904 2.91157C6.39107 2.91158 6.35311 2.91159 6.314 2.91159C6.1882 2.91156 6.0624 2.91119 5.9366 2.91083C5.8495 2.91074 5.76241 2.91067 5.67531 2.91063C5.44582 2.91045 5.21633 2.90999 4.98684 2.90947C4.71163 2.90891 4.43642 2.90869 4.1612 2.90842C3.74287 2.90796 3.32454 2.90706 2.9062 2.90625C2.9062 3.89625 2.9062 4.88625 2.9062 5.90625C4.00448 5.90625 5.10276 5.90625 6.23433 5.90625C6.21112 5.48859 6.21112 5.48859 6.18745 5.0625C6.02598 5.21231 6.02598 5.21231 5.86496 5.36259C5.6246 5.58334 5.6246 5.58334 5.48433 5.625C5.22281 5.61031 5.10226 5.55902 4.92073 5.37177C4.8797 5.33004 4.83867 5.28832 4.7964 5.24533C4.75465 5.20143 4.71289 5.15753 4.66987 5.1123C4.62703 5.06859 4.58419 5.02487 4.54005 4.97983C4.18026 4.61015 4.18026 4.61015 4.15425 4.41504C4.17183 4.26562 4.17183 4.26562 4.26851 4.13086C4.4062 4.03125 4.4062 4.03125 4.56147 3.99609C4.80895 4.04643 4.9355 4.18337 5.10933 4.35938C5.13434 4.38379 5.15936 4.4082 5.18513 4.43335C5.23875 4.48606 5.29136 4.53978 5.3437 4.59375C5.53551 4.51638 5.67083 4.37945 5.81831 4.23926C5.87291 4.18809 5.92754 4.13694 5.98219 4.08582C6.00907 4.06057 6.03595 4.03533 6.06365 4.00932C6.20595 3.87646 6.35104 3.74676 6.49672 3.61761C6.57582 3.54597 6.65321 3.47241 6.72926 3.39752C7.06605 3.07201 7.06605 3.07201 7.28022 3.03223C7.48366 3.04947 7.5559 3.07891 7.68745 3.23438C7.73433 3.37207 7.73433 3.37207 7.73433 3.51562C7.63781 3.70803 7.50834 3.84797 7.3564 3.99902C7.31525 4.04041 7.2741 4.08181 7.2317 4.12445C7.12495 4.21875 7.12495 4.21875 7.0312 4.21875C7.03167 4.25849 7.03167 4.25849 7.03215 4.29903C7.03526 4.57506 7.03738 4.85108 7.03893 5.12712C7.03963 5.23011 7.04059 5.33309 7.04181 5.43607C7.04352 5.58419 7.04431 5.7323 7.04493 5.88043C7.04566 5.92639 7.04639 5.97234 7.04713 6.01969C7.04723 6.4249 7.04723 6.4249 6.89058 6.60938C6.70687 6.73184 6.55072 6.71697 6.33753 6.71674C6.27428 6.71722 6.27428 6.71722 6.20976 6.7177C6.07012 6.71859 5.93049 6.71877 5.79084 6.71887C5.69387 6.71917 5.59689 6.71949 5.49992 6.71982C5.29651 6.72038 5.0931 6.72055 4.88969 6.7205C4.62902 6.72049 4.36838 6.72177 4.10772 6.72338C3.90737 6.72442 3.70704 6.72461 3.50669 6.72457C3.41059 6.72468 3.31449 6.72509 3.2184 6.72581C3.08396 6.72673 2.94957 6.72646 2.81513 6.7259C2.77543 6.72643 2.73573 6.72695 2.69483 6.7275C2.50993 6.72552 2.41209 6.71588 2.24978 6.61967C2.07349 6.42366 2.10216 6.21675 2.10177 5.9635C2.10154 5.92697 2.10131 5.89044 2.10107 5.8528C2.10038 5.73213 2.10006 5.61146 2.0998 5.49078C2.09953 5.40671 2.09926 5.32264 2.09899 5.23857C2.0985 5.06231 2.09823 4.88606 2.09806 4.7098C2.09781 4.48441 2.09668 4.25903 2.09535 4.03364C2.09447 3.85995 2.09423 3.68627 2.09416 3.51258C2.09402 3.42951 2.09364 3.34644 2.09302 3.26338C2.09222 3.14693 2.09231 3.03052 2.09262 2.91407C2.09219 2.88004 2.09175 2.84601 2.09131 2.81095C2.09325 2.5721 2.14067 2.41123 2.24995 2.20312C2.40779 2.1242 2.5865 2.14849 2.76015 2.14795Z" fill="#FDFDFD"/>
<path d="M9.18889 8.97573C9.23662 8.9754 9.28435 8.97507 9.33353 8.97474C9.49142 8.97391 9.64926 8.97446 9.80715 8.97509C9.91678 8.97496 10.0264 8.97478 10.136 8.97455C10.3659 8.97427 10.5957 8.97467 10.8255 8.97555C11.1202 8.97662 11.415 8.976 11.7098 8.97488C11.9362 8.9742 12.1625 8.97442 12.3889 8.9749C12.4976 8.97503 12.6063 8.97487 12.715 8.97444C12.8669 8.97396 13.0187 8.97469 13.1705 8.97573C13.2381 8.97516 13.2381 8.97516 13.307 8.97458C13.6103 8.97845 13.6103 8.97845 13.7608 9.08519C13.8575 9.2322 13.875 9.34027 13.875 9.51562C13.7772 9.67628 13.7262 9.73709 13.5469 9.79687C13.482 9.80128 13.4169 9.80319 13.3518 9.80345C13.2923 9.80385 13.2923 9.80385 13.2315 9.80426C13.1882 9.80432 13.1448 9.80437 13.1 9.80442C13.0313 9.80477 13.0313 9.80477 12.9612 9.80513C12.8094 9.80581 12.6576 9.80613 12.5058 9.80639C12.4004 9.80666 12.295 9.80693 12.1896 9.8072C11.9685 9.80769 11.7475 9.80797 11.5264 9.80813C11.2431 9.80839 10.9597 9.80951 10.6763 9.81085C10.4586 9.81172 10.2409 9.81196 10.0232 9.81204C9.91873 9.81218 9.81426 9.81255 9.70979 9.81317C9.56368 9.81397 9.4176 9.81388 9.27149 9.81358C9.22829 9.81401 9.18508 9.81444 9.14057 9.81489C8.91438 9.81341 8.76156 9.80408 8.57814 9.65624C8.48774 9.53707 8.48397 9.47889 8.49025 9.32812C8.59947 8.95365 8.85042 8.97288 9.18889 8.97573Z" fill="#FDFDFD"/>
<path d="M9.18889 4.00698C9.23662 4.00665 9.28435 4.00632 9.33353 4.00599C9.49142 4.00516 9.64926 4.00571 9.80715 4.00634C9.91678 4.00621 10.0264 4.00603 10.136 4.0058C10.3659 4.00552 10.5957 4.00592 10.8255 4.0068C11.1202 4.00787 11.415 4.00725 11.7098 4.00613C11.9362 4.00545 12.1625 4.00567 12.3889 4.00615C12.4976 4.00628 12.6063 4.00612 12.715 4.00569C12.8669 4.00521 13.0187 4.00594 13.1705 4.00698C13.2381 4.00641 13.2381 4.00641 13.307 4.00583C13.6103 4.0097 13.6103 4.0097 13.7608 4.11644C13.8575 4.26345 13.875 4.37152 13.875 4.54687C13.7922 4.67821 13.733 4.75852 13.5938 4.82812C13.5302 4.8327 13.4663 4.83445 13.4026 4.8347C13.3625 4.83497 13.3225 4.83524 13.2813 4.83551C13.2373 4.83557 13.1933 4.83562 13.1479 4.83567C13.1017 4.8359 13.0554 4.83614 13.0077 4.83638C12.8541 4.83706 12.7005 4.83738 12.547 4.83764C12.4405 4.83791 12.334 4.83818 12.2274 4.83845C12.0039 4.83894 11.7803 4.83922 11.5568 4.83938C11.2702 4.83964 10.9837 4.84076 10.6971 4.8421C10.477 4.84297 10.2569 4.84321 10.0368 4.84329C9.9312 4.84343 9.82555 4.8438 9.7199 4.84442C9.57211 4.84522 9.42434 4.84513 9.27654 4.84483C9.23282 4.84526 9.1891 4.84569 9.14406 4.84614C8.91684 4.84467 8.76223 4.83638 8.57814 4.68749C8.48774 4.56832 8.48397 4.51014 8.49025 4.35937C8.59947 3.9849 8.85042 4.00413 9.18889 4.00698Z" fill="#FDFDFD"/>
<path d="M8.96425 10.8625C9.02497 10.8619 9.02497 10.8619 9.08692 10.8613C9.13119 10.8613 9.17546 10.8613 9.22108 10.8614C9.29118 10.8609 9.29118 10.8609 9.3627 10.8604C9.51756 10.8595 9.67241 10.8594 9.82727 10.8593C9.93476 10.859 10.0422 10.8586 10.1497 10.8583C10.3752 10.8577 10.6007 10.8576 10.8262 10.8576C11.1152 10.8576 11.4042 10.8564 11.6933 10.8547C11.9153 10.8537 12.1374 10.8535 12.3594 10.8536C12.466 10.8535 12.5726 10.853 12.6791 10.8523C12.8282 10.8514 12.9771 10.8517 13.1262 10.8522C13.1703 10.8517 13.2143 10.8512 13.2598 10.8506C13.4556 10.8525 13.5659 10.8585 13.7374 10.9599C13.8622 11.101 13.8717 11.2046 13.875 11.3906C13.8373 11.5174 13.8095 11.5611 13.6964 11.6292C13.5854 11.6753 13.5092 11.6839 13.3895 11.6844C13.3489 11.6848 13.3084 11.6852 13.2666 11.6856C13.2225 11.6856 13.1784 11.6855 13.133 11.6855C13.0629 11.686 13.0629 11.686 12.9913 11.6864C12.8367 11.6873 12.6821 11.6875 12.5275 11.6876C12.4201 11.6879 12.3127 11.6882 12.2053 11.6886C11.9801 11.6891 11.7549 11.6893 11.5297 11.6892C11.241 11.6892 10.9524 11.6905 10.6637 11.6921C10.4418 11.6932 10.22 11.6934 9.99813 11.6933C9.89169 11.6934 9.78526 11.6938 9.67882 11.6946C9.53002 11.6955 9.38127 11.6952 9.23246 11.6947C9.18845 11.6952 9.14445 11.6957 9.0991 11.6962C8.90237 11.6943 8.7937 11.6888 8.62219 11.5853C8.50486 11.4551 8.48438 11.3778 8.48438 11.2031C8.5892 10.9725 8.70809 10.8636 8.96425 10.8625Z" fill="#FDFDFD"/>
<path d="M8.91562 2.14966C8.97752 2.14926 8.97752 2.14926 9.04068 2.14885C9.08607 2.1488 9.13146 2.14875 9.17823 2.14869C9.24981 2.14834 9.24981 2.14834 9.32283 2.14799C9.48121 2.1473 9.63959 2.14698 9.79797 2.14673C9.90774 2.14646 10.0175 2.14619 10.1273 2.14592C10.3576 2.14542 10.588 2.14515 10.8184 2.14499C11.1139 2.14473 11.4094 2.1436 11.7049 2.14227C11.9317 2.1414 12.1585 2.14115 12.3853 2.14108C12.4942 2.14094 12.6032 2.14056 12.7122 2.13995C12.8644 2.13915 13.0167 2.13923 13.169 2.13954C13.2142 2.13911 13.2594 2.13867 13.306 2.13823C13.3683 2.13862 13.3683 2.13862 13.4319 2.13902C13.4679 2.13895 13.5039 2.13888 13.5409 2.13881C13.6699 2.16136 13.7337 2.20731 13.8281 2.29687C13.8799 2.48313 13.8945 2.58234 13.8135 2.75976C13.7344 2.85937 13.7344 2.85937 13.6406 2.90625C13.5751 2.91094 13.5094 2.91278 13.4438 2.91315C13.4025 2.91348 13.3612 2.91382 13.3187 2.91416C13.2733 2.91429 13.2279 2.91441 13.1811 2.91454C13.1334 2.91485 13.0857 2.91516 13.0365 2.91548C12.8782 2.9164 12.7198 2.91695 12.5614 2.91742C12.5074 2.91761 12.4534 2.9178 12.3978 2.91799C12.1122 2.91897 11.8266 2.91964 11.541 2.92008C11.2455 2.9206 10.95 2.92221 10.6545 2.92408C10.4277 2.9253 10.2009 2.92569 9.9741 2.92586C9.86514 2.92609 9.75618 2.92664 9.64722 2.9275C9.49492 2.92864 9.34266 2.9286 9.19036 2.92828C9.14516 2.92888 9.09996 2.92948 9.05339 2.9301C8.74863 2.92771 8.74863 2.92771 8.59827 2.81973C8.51038 2.68731 8.48762 2.59648 8.48438 2.4375C8.59129 2.20839 8.669 2.15062 8.91562 2.14966Z" fill="#FDFDFD"/>
<path d="M14.5576 19.0986C14.7413 19.1287 14.7949 19.167 14.9062 19.3125C14.984 19.4681 14.9609 19.6422 14.9614 19.8134C14.9617 19.8555 14.962 19.8977 14.9623 19.9411C14.9633 20.081 14.9638 20.2209 14.9643 20.3608C14.9645 20.4085 14.9647 20.4562 14.9649 20.5054C14.9658 20.7579 14.9665 21.0104 14.967 21.263C14.9675 21.524 14.9691 21.785 14.9709 22.0461C14.9722 22.2466 14.9726 22.4471 14.9727 22.6477C14.973 22.7439 14.9735 22.8401 14.9744 22.9364C14.9755 23.071 14.9755 23.2057 14.9751 23.3403C14.9757 23.3801 14.9763 23.4199 14.977 23.4609C14.9753 23.6499 14.967 23.7434 14.8645 23.9076C14.7515 24.0132 14.7071 24.0308 14.5547 24.0264C14.5194 24.0264 14.4841 24.0265 14.4477 24.0265C14.2976 23.9882 14.2495 23.9372 14.1562 23.8125C14.1278 23.6706 14.1302 23.5305 14.1312 23.3861C14.1308 23.3431 14.1304 23.3 14.13 23.2556C14.129 23.1131 14.1293 22.9708 14.1297 22.8283C14.1294 22.7293 14.1292 22.6303 14.1288 22.5313C14.1283 22.3237 14.1285 22.1162 14.1292 21.9086C14.13 21.6427 14.1289 21.3767 14.1273 21.1108C14.1263 20.9063 14.1263 20.7018 14.1267 20.4973C14.1267 20.3992 14.1264 20.3012 14.1257 20.2031C14.1249 20.066 14.1256 19.9289 14.1267 19.7918C14.1261 19.7513 14.1256 19.7108 14.125 19.6691C14.1282 19.466 14.138 19.3833 14.2648 19.2168C14.3906 19.125 14.3906 19.125 14.5576 19.0986Z" fill="#FDFDFD"/>
<path d="M21.1406 19.125C21.2769 19.229 21.3206 19.29 21.375 19.4531C21.38 19.5864 21.3824 19.7186 21.3825 19.8519C21.3828 19.8926 21.383 19.9333 21.3833 19.9753C21.3839 20.1101 21.3843 20.245 21.3845 20.3798C21.3848 20.4735 21.3851 20.5672 21.3853 20.661C21.3858 20.8575 21.3861 21.0541 21.3863 21.2507C21.3865 21.5025 21.3876 21.7542 21.389 22.0059C21.3898 22.1995 21.3901 22.3931 21.3902 22.5868C21.3903 22.6796 21.3907 22.7724 21.3913 22.8651C21.3921 22.9951 21.392 23.125 21.3917 23.2549C21.3921 23.2931 21.3926 23.3313 21.393 23.3707C21.3913 23.5988 21.3607 23.7555 21.2344 23.9531C21.0877 24.0265 20.9245 24.0327 20.7656 24C20.6538 23.9226 20.5876 23.8604 20.5605 23.7239C20.5533 23.6093 20.5523 23.496 20.5531 23.3811C20.5525 23.3157 20.5525 23.3157 20.5519 23.2489C20.5508 23.1047 20.5511 22.9606 20.5516 22.8164C20.5513 22.7162 20.551 22.6161 20.5507 22.5159C20.5502 22.3059 20.5504 22.096 20.5511 21.886C20.5519 21.6168 20.5508 21.3476 20.5492 21.0784C20.5481 20.8715 20.5482 20.6647 20.5486 20.4578C20.5486 20.3585 20.5483 20.2592 20.5476 20.16C20.5468 20.0212 20.5475 19.8826 20.5485 19.7439C20.548 19.7028 20.5474 19.6617 20.5469 19.6193C20.5512 19.342 20.5512 19.342 20.6867 19.1932C20.852 19.1036 20.9553 19.098 21.1406 19.125Z" fill="#FDFDFD"/>
<path d="M8.9672 15.8301C9.00773 15.8295 9.04825 15.8289 9.09001 15.8283C9.15549 15.8282 9.15549 15.8282 9.22229 15.828C9.26731 15.8277 9.31234 15.8274 9.35873 15.8271C9.454 15.8266 9.54928 15.8264 9.64455 15.8264C9.79014 15.8262 9.93566 15.8245 10.0812 15.8227C10.1738 15.8224 10.2664 15.8222 10.359 15.8221C10.4242 15.8211 10.4242 15.8211 10.4907 15.8201C10.6874 15.8215 10.7994 15.8267 10.9715 15.9288C11.0989 16.0722 11.1127 16.1692 11.1094 16.3594C11.0266 16.4907 10.9673 16.571 10.8281 16.6406C10.7628 16.6457 10.6973 16.6481 10.6319 16.6489C10.5913 16.6495 10.5508 16.6501 10.5091 16.6507C10.4432 16.6513 10.4432 16.6513 10.376 16.6518C10.3309 16.6522 10.2859 16.6525 10.2394 16.6529C10.1438 16.6536 10.0483 16.6541 9.95273 16.6545C9.80673 16.6553 9.66079 16.6573 9.5148 16.6594C9.422 16.6599 9.32919 16.6603 9.23639 16.6606C9.17097 16.6618 9.17097 16.6618 9.10423 16.6631C8.90591 16.6624 8.79499 16.6583 8.62194 16.5542C8.50499 16.4238 8.48438 16.3464 8.48438 16.1719C8.58999 15.9395 8.7098 15.8327 8.9672 15.8301Z" fill="#FDFDFD"/>
<path d="M9.41459 17.704C9.51222 17.7041 9.6098 17.703 9.70743 17.7018C9.76927 17.7018 9.83112 17.7018 9.89484 17.7017C9.95133 17.7016 10.0078 17.7014 10.066 17.7013C10.2322 17.7203 10.3196 17.7608 10.4531 17.8594C10.5435 17.9785 10.5473 18.0367 10.541 18.1875C10.4921 18.3552 10.4511 18.4102 10.3125 18.5156C10.1858 18.5343 10.0786 18.542 9.95215 18.5405C9.91748 18.5407 9.88282 18.5409 9.8471 18.5411C9.77398 18.5412 9.70085 18.5409 9.62773 18.5401C9.51597 18.5391 9.40436 18.5401 9.2926 18.5413C9.22144 18.5411 9.15027 18.5409 9.0791 18.5405C9.0458 18.5409 9.01249 18.5413 8.97818 18.5417C8.81913 18.5387 8.73316 18.5266 8.60522 18.4289C8.50869 18.2974 8.4877 18.2098 8.48438 18.0469C8.54053 17.9168 8.58563 17.8386 8.7042 17.7599C8.9279 17.6749 9.17815 17.7032 9.41459 17.704Z" fill="#FDFDFD"/>
</g>
<defs>
<clipPath id="clip0_11_87">
<rect width="24" height="24" fill="white"/>
</clipPath>
</defs>
</svg>
