<svg width="24" height="24" viewBox="0 0 24 24" fill="none" xmlns="http://www.w3.org/2000/svg">
<g clip-path="url(#clip0_11_121)">
<path d="M2.10811 -0.0349014C2.21696 -0.0351293 2.32581 -0.0354783 2.43466 -0.0359386C2.72898 -0.036817 3.02327 -0.0359402 3.31759 -0.0346887C3.59481 -0.0337324 3.87203 -0.033967 4.14925 -0.0341452C4.69845 -0.0344435 5.24764 -0.0333543 5.79684 -0.031514C6.32895 -0.0297314 6.86105 -0.0290687 7.39316 -0.0295914C8.03571 -0.0302207 8.67826 -0.0299103 9.32081 -0.0287379C9.56578 -0.0283031 9.81073 -0.0282201 10.0557 -0.0284178C10.3442 -0.0285947 10.6326 -0.0278321 10.921 -0.0263497C11.0268 -0.0259527 11.1325 -0.0258717 11.2382 -0.0261331C11.3828 -0.0264363 11.5273 -0.0255809 11.6718 -0.0244373C11.7342 -0.0249687 11.7342 -0.0249687 11.7979 -0.0255109C12.2049 -0.0198326 12.5193 0.118531 12.8134 0.400981C12.8363 0.422823 12.8593 0.444666 12.883 0.46717C12.9643 0.545121 13.0446 0.624044 13.1249 0.703128C13.1567 0.734231 13.1885 0.765335 13.2212 0.79738C13.4928 1.06332 13.7622 1.33148 14.0313 1.59998C14.0951 1.66364 14.0951 1.66364 14.1603 1.72859C14.3621 1.92974 14.5638 2.13097 14.7653 2.33234C14.9963 2.56313 15.2276 2.7936 15.4592 3.02381C15.6613 3.2248 15.863 3.42619 16.0646 3.62771C16.1499 3.71279 16.2352 3.79774 16.3206 3.88257C16.4401 4.00121 16.5591 4.12028 16.6779 4.23947C16.7303 4.2912 16.7303 4.2912 16.7838 4.34399C17.2198 4.78348 17.4496 5.17026 17.4487 5.80114C17.4488 5.85301 17.4488 5.85301 17.4489 5.90594C17.4491 6.02073 17.4486 6.13551 17.448 6.25031C17.448 6.33303 17.448 6.41575 17.4481 6.49847C17.4481 6.72226 17.4476 6.94605 17.4469 7.16984C17.4463 7.404 17.4463 7.63816 17.4461 7.87232C17.4459 8.3154 17.4451 8.75847 17.4441 9.20155C17.4431 9.70612 17.4426 10.2107 17.4421 10.7153C17.4411 11.7529 17.4395 12.7905 17.4374 13.8281C17.4727 13.8152 17.508 13.8022 17.5444 13.7888C17.5908 13.7719 17.6371 13.7549 17.6849 13.7374C17.7309 13.7206 17.7768 13.7038 17.8242 13.6864C18.9304 13.2932 20.2279 13.441 21.2811 13.9219C22.4156 14.4705 23.2755 15.4181 23.7186 16.5938C23.864 17.0316 23.9889 17.4899 23.9999 17.9531C24.0026 18.0166 24.0026 18.0166 24.0054 18.0813C24.0341 19.2889 23.6356 20.3987 22.8749 21.3281C22.8514 21.3587 22.828 21.3893 22.8039 21.4208C22.1147 22.2882 20.9528 22.8248 19.8749 22.9688C19.6618 22.9834 19.4498 22.9866 19.2362 22.9863C19.1788 22.9863 19.1213 22.9863 19.0621 22.9863C18.498 22.9792 18.0172 22.8684 17.4843 22.6875C17.4745 22.7266 17.4648 22.7657 17.4548 22.806C17.3287 23.2664 17.1718 23.6156 16.746 23.8594C16.5419 23.9621 16.3792 24.0059 16.1503 24.0066C16.0968 24.0068 16.0433 24.0071 15.9882 24.0074C15.8997 24.0074 15.8997 24.0075 15.8093 24.0075C15.7462 24.0078 15.683 24.008 15.6199 24.0083C15.446 24.0089 15.2721 24.0093 15.0982 24.0096C14.9492 24.0099 14.8001 24.0103 14.651 24.0108C14.1598 24.0124 13.6686 24.0134 13.1773 24.0142C13.0494 24.0145 12.9215 24.0147 12.7935 24.0149C11.9989 24.0164 11.2044 24.0176 10.4098 24.0184C10.2257 24.0186 10.0416 24.0188 9.85753 24.019C9.81177 24.019 9.76602 24.0191 9.71888 24.0191C8.97814 24.0199 8.23741 24.0219 7.49667 24.0242C6.73603 24.0267 5.97538 24.028 5.21473 24.0284C4.78772 24.0286 4.36072 24.0293 3.93371 24.0312C3.56993 24.0328 3.20617 24.0334 2.84239 24.0328C2.6569 24.0326 2.47144 24.0327 2.28595 24.0342C2.11582 24.0354 1.94573 24.0354 1.7756 24.0344C1.68557 24.0341 1.59553 24.0353 1.50551 24.0365C1.06873 24.0318 0.683399 23.9267 0.362147 23.6156C-0.0540615 23.1392 -0.0203166 22.5493 -0.0179616 21.9528C-0.0181237 21.8634 -0.0183472 21.774 -0.0186264 21.6846C-0.0192124 21.4396 -0.0189237 21.1947 -0.0184876 20.9497C-0.0181692 20.6853 -0.0186607 20.4208 -0.0190473 20.1564C-0.0196725 19.6386 -0.0195377 19.1208 -0.0191299 18.6031C-0.0188123 18.1822 -0.0187693 17.7614 -0.0189223 17.3406C-0.0189439 17.2807 -0.0189654 17.2208 -0.0189876 17.1591C-0.0190326 17.0374 -0.0190782 16.9157 -0.0191244 16.794C-0.0195139 15.6855 -0.01911 14.577 -0.018373 13.4685C-0.0177057 12.457 -0.0177655 11.4455 -0.0184379 10.434C-0.0191913 9.29708 -0.0194868 8.16012 -0.019055 7.02316C-0.0190102 6.90191 -0.018966 6.78066 -0.0189223 6.65942C-0.0189006 6.59976 -0.0188789 6.5401 -0.0188565 6.47864C-0.0187351 6.05835 -0.0189401 5.63805 -0.019271 5.21776C-0.0196655 4.70553 -0.0195585 4.1933 -0.0188097 3.68107C-0.0184402 3.41975 -0.0182952 3.15843 -0.0187603 2.89711C-0.0191798 2.65782 -0.0189483 2.41853 -0.018201 2.17924C-0.0180441 2.09275 -0.0181233 2.00626 -0.0184648 1.91978C-0.0224799 0.818005 -0.0224799 0.818005 0.363813 0.384388C0.854706 -0.0985567 1.46759 -0.0396047 2.10811 -0.0349014ZM1.07307 1.12953C0.962581 1.29887 0.958079 1.43343 0.960544 1.62897C0.960258 1.6654 0.959971 1.70183 0.959676 1.73937C0.958943 1.86191 0.959549 1.98441 0.960146 2.10696C0.959896 2.19551 0.959565 2.28407 0.959159 2.37263C0.958283 2.61633 0.958582 2.86003 0.959073 3.10374C0.9594 3.36643 0.958651 3.62912 0.958041 3.89181C0.957025 4.40657 0.957033 4.92133 0.957415 5.4361C0.957709 5.85438 0.957657 6.27266 0.957355 6.69095C0.957313 6.75042 0.95727 6.80989 0.957227 6.87116C0.95714 6.99196 0.957053 7.11277 0.956965 7.23357C0.956408 8.04499 0.956202 8.85641 0.956727 9.66784C0.956748 9.69958 0.956768 9.73131 0.95679 9.76401C0.956959 10.0218 0.957138 10.2795 0.957319 10.5372C0.958015 11.5427 0.957603 12.5481 0.95629 13.5536C0.954817 14.6829 0.954118 15.8123 0.954593 16.9416C0.954641 17.062 0.954687 17.1824 0.954733 17.3028C0.954755 17.362 0.954777 17.4213 0.9548 17.4823C0.954902 17.9001 0.954442 18.318 0.953759 18.7359C0.952939 19.245 0.952941 19.7541 0.95401 20.2632C0.954534 20.5231 0.954678 20.783 0.953808 21.0429C0.953023 21.2806 0.953315 21.5184 0.954475 21.7561C0.954705 21.8423 0.954536 21.9284 0.953936 22.0146C0.953181 22.1314 0.953862 22.2482 0.954907 22.3651C0.954345 22.3988 0.953783 22.4324 0.953204 22.4671C0.956427 22.6429 0.985425 22.7581 1.09157 22.8951C1.28018 23.074 1.40492 23.0683 1.6567 23.0687C1.70782 23.0688 1.75894 23.069 1.8116 23.0692C1.86774 23.0692 1.92387 23.0691 1.98171 23.0691C2.04136 23.0692 2.10101 23.0694 2.16247 23.0695C2.32816 23.0699 2.49385 23.07 2.65954 23.07C2.83819 23.0701 3.01685 23.0704 3.1955 23.0708C3.58619 23.0714 3.97688 23.0717 4.36756 23.0719C4.61148 23.072 4.8554 23.0722 5.09932 23.0724C5.77459 23.073 6.44986 23.0735 7.12513 23.0736C7.16835 23.0736 7.21157 23.0737 7.2561 23.0737C7.29942 23.0737 7.34274 23.0737 7.38738 23.0737C7.47516 23.0737 7.56295 23.0737 7.65074 23.0738C7.69429 23.0738 7.73783 23.0738 7.7827 23.0738C8.48843 23.074 9.19415 23.0748 9.89988 23.0759C10.6244 23.077 11.3488 23.0776 12.0733 23.0776C12.4801 23.0777 12.8869 23.078 13.2937 23.0788C13.6401 23.0795 13.9864 23.0798 14.3328 23.0794C14.5095 23.0792 14.6862 23.0792 14.8629 23.0799C15.0545 23.0806 15.2461 23.0802 15.4377 23.0797C15.5215 23.0803 15.5215 23.0803 15.6069 23.0809C15.8935 23.0792 16.1078 23.0646 16.3593 22.9219C16.5085 22.7325 16.4888 22.4721 16.4862 22.2413C16.4364 21.9963 16.3102 21.9175 16.109 21.7833C16.0678 21.7569 16.0267 21.7304 15.9843 21.7031C15.1181 20.9677 14.6135 19.7831 14.5203 18.6667C14.4694 17.729 14.6173 16.8674 15.0468 16.0313C15.0713 15.9823 15.0958 15.9334 15.1211 15.8829C15.2688 15.6098 15.4456 15.3691 15.6444 15.1318C15.6763 15.0934 15.6763 15.0934 15.7087 15.0543C15.8197 14.9267 15.9191 14.8239 16.0639 14.7336C16.2865 14.5883 16.4299 14.4775 16.5 14.2146C16.5232 13.9935 16.5169 13.7728 16.5116 13.551C16.5114 13.4659 16.5115 13.3809 16.5118 13.2959C16.5119 13.0659 16.5089 12.8361 16.5053 12.6062C16.5021 12.3656 16.5018 12.125 16.5012 11.8844C16.4996 11.4292 16.4953 10.974 16.4902 10.5188C16.4844 10.0004 16.4816 9.48203 16.479 8.96361C16.4736 7.89758 16.4645 6.83161 16.453 5.76563C16.4045 5.76535 16.356 5.76508 16.3061 5.76479C15.8481 5.76211 15.3902 5.7587 14.9323 5.75458C14.6969 5.75249 14.4615 5.75065 14.2261 5.74939C13.9987 5.74817 13.7714 5.74627 13.5441 5.74392C13.4575 5.74314 13.3709 5.7426 13.2844 5.7423C13.1628 5.74185 13.0412 5.74053 12.9195 5.73902C12.8663 5.73912 12.8663 5.73912 12.8121 5.73922C12.4702 5.73325 12.1509 5.64214 11.9061 5.39063C11.6965 5.05992 11.6652 4.7406 11.6621 4.35391C11.6617 4.31683 11.6612 4.27976 11.6607 4.24156C11.6593 4.11982 11.6581 3.99809 11.6569 3.87635C11.656 3.79162 11.655 3.7069 11.654 3.62217C11.6514 3.39978 11.6491 3.17738 11.6468 2.95498C11.6445 2.7278 11.6419 2.50062 11.6393 2.27344C11.6342 1.82813 11.6295 1.38282 11.6249 0.937503C10.2966 0.935314 8.96827 0.93366 7.63996 0.932646C7.02322 0.932162 6.40649 0.931502 5.78975 0.930431C5.25229 0.929497 4.71484 0.928891 4.17738 0.928682C3.89272 0.92856 3.60806 0.928272 3.3234 0.927591C3.05558 0.926955 2.78776 0.926758 2.51994 0.926899C2.42155 0.926873 2.32316 0.926686 2.22476 0.926327C2.0906 0.925862 1.95644 0.925973 1.82227 0.926229C1.7832 0.925956 1.74412 0.925683 1.70386 0.925402C1.44648 0.926734 1.26383 0.939584 1.07307 1.12953ZM12.6093 1.6875C12.6082 2.07704 12.6074 2.46657 12.6068 2.8561C12.6066 3.03696 12.6063 3.21783 12.6057 3.39869C12.6052 3.57315 12.6049 3.7476 12.6048 3.92206C12.6047 3.98871 12.6046 4.05536 12.6043 4.122C12.604 4.21516 12.604 4.30831 12.6039 4.40147C12.6038 4.45456 12.6037 4.50764 12.6036 4.56234C12.6007 4.68628 12.6007 4.68628 12.6561 4.78125C13.6616 4.78125 14.6671 4.78125 15.703 4.78125C15.5187 4.56625 15.3365 4.36099 15.1367 4.162C15.1098 4.13498 15.0828 4.10796 15.0551 4.08012C14.9672 3.99199 14.8791 3.90404 14.791 3.8161C14.7295 3.75457 14.668 3.69304 14.6065 3.63149C14.4782 3.50318 14.3499 3.37494 14.2215 3.24677C14.0566 3.0821 13.8919 2.91722 13.7272 2.75228C13.6006 2.62549 13.4738 2.49881 13.3471 2.37217C13.2862 2.31137 13.2255 2.25053 13.1647 2.18966C13.0802 2.10505 12.9956 2.02059 12.9109 1.93617C12.8856 1.91083 12.8604 1.88548 12.8344 1.85937C12.7381 1.74058 12.7381 1.74058 12.6093 1.6875ZM16.7811 15.375C16.7338 15.4108 16.6864 15.4465 16.6376 15.4834C15.988 16.0777 15.5217 16.9768 15.4621 17.8625C15.4118 19.0249 15.7307 19.96 16.4812 20.8552C17.1595 21.5886 18.1605 21.98 19.1406 22.0311C20.2613 22.0323 21.181 21.5894 21.9901 20.8272C22.591 20.2112 22.9655 19.3276 23.0155 18.4688C23.018 18.435 23.0205 18.4012 23.023 18.3664C23.0599 17.4145 22.7006 16.4404 22.0634 15.7383C21.8375 15.4978 21.5966 15.2852 21.328 15.0938C21.2938 15.0689 21.2595 15.044 21.2242 15.0183C19.8689 14.1194 17.9832 14.3313 16.7811 15.375Z" fill="#FDFDFD"/>
<path d="M3.57571 12.1334C3.64421 12.1331 3.64421 12.1331 3.71409 12.1328C3.86807 12.1322 4.02205 12.1319 4.17604 12.1316C4.28605 12.1312 4.39605 12.1308 4.50606 12.1304C4.83688 12.1293 5.1677 12.1286 5.49852 12.128C5.65424 12.1277 5.80997 12.1274 5.9657 12.1271C6.48326 12.126 7.00082 12.1252 7.51838 12.1246C7.65272 12.1245 7.78705 12.1244 7.92139 12.1242C7.97148 12.1242 7.97148 12.1242 8.02257 12.1241C8.56363 12.1235 9.10468 12.122 9.64573 12.12C10.201 12.118 10.7563 12.1169 11.3116 12.1167C11.6234 12.1165 11.9353 12.1159 12.2471 12.1144C12.5404 12.113 12.8337 12.1127 13.127 12.1133C13.2348 12.1133 13.3425 12.1129 13.4503 12.1121C13.5972 12.111 13.7441 12.1114 13.891 12.1121C13.9338 12.1115 13.9766 12.1108 14.0208 12.1102C14.2315 12.1128 14.3162 12.1187 14.4864 12.2537C14.6211 12.4317 14.6466 12.5259 14.6251 12.75C14.4771 13.0115 14.4771 13.0115 14.3438 13.0781C14.1979 13.0833 14.053 13.0855 13.907 13.0857C13.8612 13.0859 13.8153 13.0861 13.7681 13.0864C13.6135 13.0871 13.4588 13.0875 13.3042 13.0879C13.1937 13.0884 13.0833 13.0888 12.9728 13.0893C12.6406 13.0906 12.3084 13.0916 11.9762 13.0924C11.8823 13.0926 11.7885 13.0928 11.6947 13.0931C11.1124 13.0945 10.5301 13.0958 9.94782 13.0965C9.81292 13.0967 9.67801 13.0969 9.54311 13.0971C9.49282 13.0972 9.49282 13.0972 9.44151 13.0973C8.89817 13.0981 8.35485 13.1 7.81152 13.1024C7.25391 13.1048 6.69631 13.1062 6.13869 13.1065C5.82552 13.1067 5.51236 13.1074 5.1992 13.1093C4.90467 13.111 4.61017 13.1114 4.31564 13.1108C4.20742 13.1108 4.09919 13.1113 3.99098 13.1123C3.84344 13.1136 3.69601 13.1131 3.54848 13.1123C3.50545 13.113 3.46242 13.1138 3.41809 13.1146C3.13545 13.1104 3.13545 13.1104 3.01484 13.0168C2.90481 12.8892 2.82712 12.7775 2.83309 12.6064C2.86187 12.4049 2.90269 12.3275 3.04695 12.1875C3.20922 12.1064 3.39708 12.1335 3.57571 12.1334Z" fill="#FDFDFD"/>
<path d="M3.54897 9.31027C3.58445 9.31005 3.61994 9.30983 3.6565 9.30961C3.77493 9.30905 3.89334 9.30949 4.01176 9.30993C4.09686 9.30974 4.18196 9.30949 4.26706 9.30918C4.49784 9.30854 4.72862 9.30879 4.95941 9.30924C5.20097 9.30959 5.44253 9.30926 5.68409 9.30904C6.08968 9.30879 6.49528 9.30912 6.90087 9.30979C7.36983 9.31056 7.83877 9.31031 8.30773 9.30954C8.7104 9.3089 9.11307 9.30881 9.51575 9.30918C9.75623 9.3094 9.99671 9.30943 10.2372 9.30896C10.4632 9.30855 10.6893 9.30884 10.9153 9.30965C10.9983 9.30984 11.0813 9.30978 11.1642 9.30947C11.2775 9.30909 11.3906 9.30957 11.5039 9.31027C11.5367 9.30996 11.5696 9.30964 11.6035 9.30932C11.8061 9.31176 11.9319 9.34614 12.0938 9.46875C12.1935 9.59598 12.2311 9.68081 12.2549 9.84082C12.2289 10.0225 12.1598 10.1229 12.0469 10.2656C11.9062 10.336 11.7614 10.3194 11.6071 10.3194C11.571 10.3196 11.5349 10.3197 11.4977 10.3199C11.3761 10.3204 11.2545 10.3206 11.1329 10.3208C11.046 10.3211 10.9591 10.3214 10.8722 10.3217C10.6356 10.3225 10.399 10.323 10.1624 10.3234C10.0146 10.3237 9.86692 10.324 9.71919 10.3243C9.25724 10.3251 8.79529 10.3258 8.33335 10.3262C7.7996 10.3267 7.26587 10.3279 6.73213 10.3298C6.3199 10.3312 5.90768 10.3319 5.49546 10.3321C5.2491 10.3322 5.00275 10.3326 4.75639 10.3338C4.52465 10.3348 4.29294 10.3351 4.0612 10.3346C3.97611 10.3345 3.89102 10.3348 3.80593 10.3355C3.68981 10.3363 3.57376 10.336 3.45764 10.3354C3.42392 10.3359 3.39019 10.3364 3.35545 10.3369C3.13088 10.334 3.01711 10.284 2.85938 10.125C2.77164 9.94953 2.79152 9.7339 2.8418 9.54785C3.02293 9.32556 3.28131 9.30771 3.54897 9.31027Z" fill="#FDFDFD"/>
<path d="M3.61697 17.7122C3.65082 17.712 3.68466 17.7119 3.71953 17.7117C3.83295 17.7113 3.94637 17.7113 4.05979 17.7112C4.1411 17.711 4.22241 17.7107 4.30373 17.7105C4.52464 17.7099 4.74555 17.7096 4.96647 17.7094C5.10448 17.7092 5.24249 17.709 5.3805 17.7088C5.81229 17.7082 6.24407 17.7077 6.67586 17.7076C7.17434 17.7073 7.67282 17.7065 8.1713 17.7052C8.55661 17.7042 8.94193 17.7037 9.32724 17.7036C9.55738 17.7036 9.78752 17.7033 10.0177 17.7025C10.2341 17.7017 10.4506 17.7016 10.667 17.702C10.7464 17.702 10.8258 17.7018 10.9052 17.7014C11.0137 17.7008 11.1222 17.701 11.2307 17.7015C11.2914 17.7015 11.352 17.7014 11.4146 17.7013C11.5942 17.7205 11.7066 17.7645 11.8595 17.8594C11.9722 18.0193 12.0001 18.1117 12.0001 18.3076C11.9426 18.5052 11.8789 18.5751 11.7188 18.7031C11.5915 18.7262 11.4935 18.7347 11.3666 18.7326C11.3315 18.7329 11.2964 18.7332 11.2603 18.7336C11.143 18.7344 11.0258 18.7336 10.9085 18.7327C10.8243 18.733 10.7402 18.7333 10.656 18.7337C10.4275 18.7346 10.1991 18.734 9.97062 18.7331C9.73156 18.7323 9.4925 18.7327 9.25344 18.7329C8.85198 18.7332 8.45052 18.7324 8.04906 18.7311C7.58487 18.7296 7.1207 18.7296 6.65651 18.7304C6.21003 18.7312 5.76355 18.7308 5.31707 18.73C5.12703 18.7297 4.937 18.7298 4.74696 18.7301C4.52319 18.7305 4.29943 18.7299 4.07566 18.7286C3.99352 18.7283 3.91138 18.7283 3.82923 18.7286C3.71713 18.729 3.60508 18.7283 3.49298 18.7273C3.46044 18.7276 3.42791 18.728 3.39439 18.7284C3.17338 18.7246 3.06189 18.6712 2.90634 18.5156C2.83056 18.3641 2.83211 18.2107 2.85946 18.0469C2.9331 17.9093 3.02411 17.792 3.17467 17.7351C3.32286 17.7124 3.46703 17.7125 3.61697 17.7122Z" fill="#FDFDFD"/>
<path d="M3.6655 14.8997C3.7157 14.8995 3.7157 14.8995 3.76692 14.8992C3.87879 14.8988 3.99065 14.8988 4.10252 14.8987C4.18284 14.8985 4.26316 14.8982 4.34348 14.898C4.56149 14.8974 4.7795 14.8971 4.99751 14.8969C5.13375 14.8967 5.27 14.8965 5.40624 14.8963C5.83265 14.8957 6.25905 14.8952 6.68546 14.8951C7.17747 14.8948 7.66947 14.894 8.16147 14.8927C8.54197 14.8917 8.92247 14.8912 9.30298 14.8911C9.53016 14.8911 9.75733 14.8908 9.98451 14.89C10.1982 14.8892 10.4119 14.8891 10.6256 14.8895C10.7039 14.8895 10.7822 14.8893 10.8605 14.8889C10.9677 14.8883 11.0748 14.8885 11.1819 14.889C11.2418 14.889 11.3017 14.8889 11.3634 14.8888C11.5613 14.9094 11.6834 14.9551 11.8594 15.0469C11.9755 15.2066 12 15.2977 12 15.4951C11.9425 15.6927 11.8788 15.7626 11.7187 15.8906C11.5914 15.9137 11.4934 15.9222 11.3665 15.9201C11.3314 15.9204 11.2963 15.9207 11.2602 15.9211C11.1429 15.9219 11.0257 15.9211 10.9084 15.9202C10.8242 15.9205 10.7401 15.9208 10.6559 15.9212C10.4274 15.9221 10.199 15.9215 9.97051 15.9206C9.73145 15.9198 9.49239 15.9202 9.25333 15.9205C8.85187 15.9207 8.45041 15.9199 8.04895 15.9186C7.58476 15.9171 7.12059 15.9171 6.6564 15.9179C6.20992 15.9187 5.76344 15.9183 5.31696 15.9175C5.12692 15.9172 4.93689 15.9173 4.74685 15.9176C4.52308 15.918 4.29932 15.9174 4.07555 15.9161C3.99341 15.9158 3.91126 15.9158 3.82912 15.9161C3.71701 15.9165 3.60497 15.9158 3.49287 15.9148C3.46033 15.9151 3.4278 15.9155 3.39428 15.9159C3.17327 15.9121 3.06177 15.8587 2.90623 15.7031C2.8304 15.5515 2.83228 15.3983 2.85935 15.2344C2.92388 15.1093 2.98618 15.0511 3.09373 14.9531C3.28301 14.8977 3.46928 14.9001 3.6655 14.8997Z" fill="#FDFDFD"/>
<path d="M20.7657 16.4531C20.9802 16.6009 20.9802 16.6009 21.047 16.7344C21.0652 16.9758 21.0426 17.099 20.9064 17.2969C20.8391 17.3715 20.7693 17.444 20.6978 17.5146C20.6581 17.554 20.6183 17.5934 20.5774 17.6341C20.5361 17.6746 20.4948 17.7151 20.4523 17.7568C20.4104 17.7983 20.3686 17.8397 20.3254 17.8824C20.2224 17.9843 20.1192 18.086 20.0157 18.1875C20.0847 18.3483 20.1741 18.449 20.2999 18.5696C20.3559 18.6243 20.3559 18.6243 20.4131 18.68C20.4918 18.7559 20.5707 18.8317 20.6496 18.9074C20.687 18.9438 20.7243 18.9803 20.7628 19.0179C20.7971 19.0508 20.8313 19.0837 20.8666 19.1177C21.0057 19.28 21.0478 19.4042 21.044 19.6172C20.991 19.8152 20.9269 19.8911 20.7657 20.0156C20.5685 20.0915 20.4415 20.0476 20.2501 19.9688C20.1278 19.8677 20.1278 19.8677 20.0073 19.7443C19.9859 19.7225 19.9644 19.7008 19.9423 19.6785C19.8745 19.6096 19.8074 19.5402 19.7403 19.4707C19.6942 19.4237 19.6481 19.3767 19.6019 19.3297C19.4894 19.215 19.3774 19.0999 19.2657 18.9844C18.9881 19.2157 18.7361 19.4648 18.4849 19.7243C18.4552 19.7545 18.4256 19.7846 18.3951 19.8157C18.3687 19.8429 18.3423 19.87 18.3151 19.898C18.1869 20.0105 18.0811 20.058 17.9122 20.0801C17.7272 20.0579 17.6293 19.9895 17.4845 19.875C17.4007 19.7074 17.4042 19.5416 17.4376 19.3594C17.5213 19.2102 17.6432 19.1024 17.7657 18.9844C17.8253 18.9246 17.8847 18.8646 17.9441 18.8046C18.1179 18.6291 18.2931 18.4548 18.4689 18.2813C18.3982 18.1148 18.3014 18.0098 18.1728 17.8839C18.1331 17.8448 18.0934 17.8056 18.0526 17.7653C18.0111 17.7248 17.9696 17.6843 17.9269 17.6426C17.8447 17.562 17.7626 17.4813 17.6806 17.4005C17.6441 17.3649 17.6076 17.3293 17.5701 17.2926C17.4298 17.146 17.422 17.0319 17.4239 16.83C17.4452 16.6813 17.5198 16.6022 17.6251 16.5C17.7964 16.4144 17.955 16.4107 18.1407 16.4531C18.3197 16.5708 18.461 16.7215 18.6095 16.875C18.6644 16.9297 18.7195 16.9842 18.7746 17.0387C18.9238 17.1862 19.0716 17.335 19.2189 17.4844C19.4961 17.2537 19.7466 17.005 19.9956 16.7444C20.2354 16.4993 20.4102 16.3494 20.7657 16.4531Z" fill="#FDFDFD"/>
<path d="M3.41358 6.50842C3.50082 6.50781 3.50082 6.50781 3.58983 6.50719C3.65464 6.50699 3.71946 6.50679 3.78427 6.50659C3.85225 6.50622 3.92023 6.50583 3.98822 6.50543C4.21181 6.5042 4.4354 6.50348 4.659 6.50281C4.73593 6.50256 4.81286 6.50231 4.88979 6.50206C5.20975 6.50104 5.52971 6.50016 5.84967 6.49964C6.30845 6.49888 6.76721 6.49732 7.22598 6.49465C7.54844 6.49284 7.87089 6.49192 8.19335 6.49167C8.38601 6.4915 8.57864 6.49094 8.77129 6.48942C8.95255 6.48801 9.13378 6.48771 9.31505 6.48826C9.38155 6.48827 9.44804 6.48788 9.51454 6.48706C10.0801 6.48045 10.0801 6.48045 10.2336 6.62867C10.3635 6.82885 10.3652 6.92956 10.3364 7.16273C10.3031 7.30558 10.2434 7.36944 10.1249 7.45313C9.97578 7.50283 9.86965 7.50615 9.71298 7.50659C9.6564 7.50686 9.59982 7.50712 9.54152 7.5074C9.47872 7.50746 9.41592 7.50751 9.35312 7.50756C9.28706 7.50778 9.22099 7.50801 9.15493 7.50826C8.97536 7.50888 8.7958 7.50918 8.61624 7.50939C8.50404 7.50953 8.39184 7.50972 8.27964 7.50993C7.92854 7.51057 7.57744 7.51102 7.22635 7.5112C6.82115 7.51141 6.41595 7.51224 6.01075 7.51359C5.69749 7.51461 5.38423 7.51508 5.07097 7.51514C4.8839 7.51519 4.69684 7.51547 4.50977 7.51631C4.33374 7.51708 4.15773 7.51718 3.9817 7.51677C3.91719 7.51673 3.85268 7.51694 3.78817 7.5174C3.69991 7.518 3.61165 7.51764 3.52339 7.51723C3.47405 7.5173 3.42472 7.51737 3.37389 7.51744C3.18255 7.49355 3.01281 7.43278 2.88855 7.28028C2.84453 7.11741 2.83161 6.96275 2.85925 6.79688C3.02051 6.54425 3.124 6.50991 3.41358 6.50842Z" fill="#FDFDFD"/>
<path d="M14.2969 9.37501C14.4629 9.49775 14.5212 9.57439 14.5781 9.77345C14.5781 9.99929 14.5082 10.0959 14.3584 10.2568C14.1992 10.3386 14.0479 10.3444 13.875 10.3125C13.7433 10.2284 13.6636 10.171 13.5937 10.0313C13.574 9.88785 13.5712 9.75254 13.5937 9.60938C13.8009 9.34063 13.9712 9.29641 14.2969 9.37501Z" fill="#FDFDFD"/>
</g>
<defs>
<clipPath id="clip0_11_121">
<rect width="24" height="24" fill="white"/>
</clipPath>
</defs>
</svg>
