<svg width="24" height="24" viewBox="0 0 24 24" fill="none" xmlns="http://www.w3.org/2000/svg">
<path d="M13.3593 1.26562C13.8511 1.651 14.2385 2.1366 14.3319 2.77148C14.3358 2.81595 14.3397 2.86043 14.3436 2.90625C14.4026 2.90431 14.4616 2.90238 14.5223 2.90039C15.0781 2.90387 15.5584 3.04933 15.9755 3.43066C16.1554 3.62447 16.4061 3.94603 16.4061 4.21875C16.44 4.21843 16.4738 4.21812 16.5086 4.2178C16.8286 4.21497 17.1485 4.21284 17.4685 4.21146C17.633 4.21073 17.7974 4.20974 17.9619 4.20814C18.1513 4.20631 18.3407 4.20563 18.5302 4.20501C18.5887 4.20429 18.6473 4.20356 18.7076 4.20281C19.0816 4.20274 19.3512 4.23658 19.6727 4.43847C20.0696 4.83534 20.1195 5.28905 20.1218 5.83033C20.1216 5.89398 20.1214 5.95763 20.1212 6.02129C20.1213 6.08976 20.1214 6.15824 20.1216 6.22672C20.122 6.41405 20.1218 6.60139 20.1215 6.78872C20.1213 6.99109 20.1216 7.19345 20.1219 7.39581C20.1223 7.79192 20.1222 8.18803 20.1219 8.58415C20.1217 8.90615 20.1217 9.22816 20.1218 9.55017C20.1218 9.59603 20.1218 9.64189 20.1219 9.68914C20.1219 9.78231 20.1219 9.87548 20.1219 9.96865C20.1222 10.842 20.1219 11.7154 20.1214 12.5887C20.121 13.3377 20.1211 14.0867 20.1215 14.8357C20.122 15.7059 20.1222 16.5761 20.1219 17.4463C20.1219 17.5391 20.1218 17.632 20.1218 17.7248C20.1218 17.7705 20.1218 17.8162 20.1218 17.8632C20.1217 18.1847 20.1218 18.5062 20.122 18.8277C20.1223 19.2197 20.1222 19.6117 20.1217 20.0037C20.1215 20.2036 20.1214 20.4034 20.1217 20.6033C20.122 20.7865 20.1218 20.9697 20.1213 21.1529C20.1212 21.2189 20.1213 21.285 20.1215 21.3511C20.1233 21.9027 20.1222 22.3632 19.7343 22.7812C19.4366 23.079 19.0597 23.1252 18.655 23.1282C18.6014 23.1279 18.5479 23.1276 18.4927 23.1272C18.4059 23.1276 18.4059 23.1276 18.3173 23.1279C18.1577 23.1284 17.9981 23.1282 17.8384 23.1278C17.6659 23.1274 17.4933 23.1279 17.3208 23.1283C16.9831 23.1289 16.6455 23.1288 16.3079 23.1284C16.0334 23.1281 15.7589 23.128 15.4845 23.1282C15.4454 23.1282 15.4062 23.1282 15.3659 23.1283C15.2865 23.1283 15.207 23.1283 15.1276 23.1284C14.383 23.1288 13.6385 23.1283 12.8939 23.1276C12.2555 23.1269 11.6171 23.1271 10.9786 23.1277C10.2367 23.1285 9.49474 23.1288 8.7528 23.1283C8.67364 23.1283 8.59448 23.1282 8.51531 23.1282C8.4569 23.1282 8.4569 23.1282 8.3973 23.1281C8.12325 23.128 7.8492 23.1282 7.57515 23.1285C7.24104 23.1289 6.90693 23.1288 6.57282 23.1281C6.40245 23.1277 6.23209 23.1276 6.06172 23.128C5.87684 23.1285 5.69197 23.1279 5.50708 23.1272C5.45352 23.1275 5.39995 23.1279 5.34477 23.1282C4.89084 23.1248 4.54091 23.0494 4.20582 22.7324C3.92408 22.413 3.88476 22.0549 3.88448 21.6391C3.88433 21.581 3.88418 21.5228 3.88403 21.4628C3.88409 21.3988 3.88417 21.3349 3.88425 21.2709C3.88416 21.2025 3.88405 21.1341 3.88392 21.0656C3.88364 20.878 3.88364 20.6904 3.8837 20.5027C3.88371 20.3002 3.88345 20.0977 3.88323 19.8951C3.88284 19.4985 3.88271 19.1019 3.88268 18.7053C3.88266 18.3829 3.88256 18.0605 3.88242 17.7381C3.882 16.824 3.88179 15.9098 3.88182 14.9956C3.88182 14.9463 3.88183 14.8971 3.88183 14.8463C3.88183 14.797 3.88183 14.7476 3.88183 14.6968C3.88185 13.8972 3.8814 13.0976 3.88074 12.2979C3.88007 11.4768 3.87975 10.6556 3.87979 9.83436C3.8798 9.37338 3.87967 8.9124 3.87917 8.45142C3.87874 8.05898 3.87864 7.66654 3.87896 7.2741C3.87911 7.07392 3.87911 6.87374 3.87871 6.67357C3.87834 6.49019 3.87841 6.30682 3.87881 6.12345C3.87889 6.05724 3.8788 5.99103 3.87854 5.92482C3.87656 5.38707 3.89443 4.91991 4.26551 4.5C4.53247 4.28438 4.76261 4.21422 5.10318 4.20912C5.18621 4.20772 5.18621 4.20772 5.27092 4.20629C5.36021 4.20511 5.36021 4.20511 5.4513 4.20391C5.51243 4.20294 5.57355 4.20197 5.63652 4.20096C5.79865 4.19838 5.96079 4.19606 6.12293 4.1938C6.28852 4.19144 6.45411 4.18883 6.6197 4.18624C6.94434 4.18121 7.26899 4.17645 7.59364 4.17187C7.61221 4.13337 7.63078 4.09487 7.64991 4.05521C7.67466 4.00464 7.69942 3.95407 7.72493 3.90197C7.7493 3.85187 7.77367 3.80177 7.79877 3.75016C8.01764 3.34532 8.4094 3.09366 8.84498 2.96173C9.17572 2.89278 9.50718 2.89662 9.84364 2.90625C9.84751 2.84534 9.85137 2.78443 9.85536 2.72168C9.91779 2.17516 10.2548 1.69603 10.6683 1.3493C11.4344 0.780986 12.5682 0.697723 13.3593 1.26562ZM10.6493 2.11816C10.3771 2.48871 10.3034 2.93269 10.2186 3.375C10.1899 3.37568 10.1611 3.37636 10.1314 3.37707C9.99835 3.3806 9.86534 3.38512 9.73231 3.38964C9.68705 3.3907 9.64179 3.39176 9.59516 3.39285C9.08123 3.41182 8.72496 3.50984 8.35005 3.87121C7.84632 4.44033 8.01551 5.10126 8.01551 5.85937C10.6452 5.85937 13.2749 5.85937 15.9843 5.85937C16.0525 4.79338 16.0525 4.79338 15.7177 3.89941C15.2777 3.48322 14.842 3.40924 14.2585 3.39944C14.1616 3.39611 14.065 3.38604 13.9686 3.375C13.8641 3.21821 13.8568 3.13491 13.8368 2.95019C13.7691 2.47192 13.5665 2.08101 13.1864 1.77832C12.3403 1.16586 11.3216 1.33353 10.6493 2.11816ZM4.59364 4.92187C4.37195 5.26175 4.37974 5.57708 4.38264 5.97328C4.38246 6.0422 4.3822 6.11113 4.38186 6.18005C4.38117 6.36884 4.38164 6.55761 4.38232 6.7464C4.38284 6.95023 4.38228 7.15405 4.38185 7.35789C4.3812 7.75694 4.38155 8.15598 4.38226 8.55503C4.38305 9.01977 4.3829 9.4845 4.38272 9.94924C4.38245 10.7784 4.38311 11.6076 4.38427 12.4368C4.38539 13.2414 4.38572 14.046 4.38523 14.8505C4.3847 15.7268 4.38461 16.603 4.38528 17.4793C4.38535 17.5727 4.38542 17.6661 4.3855 17.7596C4.38553 17.8055 4.38557 17.8515 4.3856 17.8989C4.38583 18.2228 4.38574 18.5467 4.38554 18.8707C4.38531 19.2654 4.38559 19.6602 4.38652 20.0549C4.38698 20.2563 4.38722 20.4577 4.38685 20.6591C4.38652 20.8435 4.38684 21.0279 4.38768 21.2122C4.38787 21.2789 4.38782 21.3456 4.38751 21.4123C4.37683 21.9404 4.37683 21.9404 4.61708 22.3942C4.81986 22.5473 4.95362 22.5996 5.20478 22.5999C5.25387 22.6001 5.30296 22.6003 5.35354 22.6005C5.40765 22.6004 5.46177 22.6004 5.51752 22.6003C5.57487 22.6005 5.63222 22.6006 5.6913 22.6007C5.85078 22.6011 6.01025 22.6012 6.16972 22.6012C6.3416 22.6013 6.51348 22.6017 6.68536 22.602C7.06133 22.6026 7.4373 22.6029 7.81326 22.6031C8.04796 22.6033 8.28265 22.6035 8.51734 22.6037C9.16695 22.6042 9.81657 22.6047 10.4662 22.6049C10.5078 22.6049 10.5494 22.6049 10.5922 22.6049C10.6339 22.6049 10.6756 22.6049 10.7185 22.6049C10.803 22.605 10.8875 22.605 10.9719 22.605C11.0348 22.605 11.0348 22.605 11.0989 22.605C11.778 22.6052 12.4571 22.606 13.1362 22.6071C13.8332 22.6082 14.5301 22.6088 15.2271 22.6089C15.6185 22.6089 16.01 22.6092 16.4014 22.61C16.7347 22.6108 17.0679 22.611 17.4012 22.6106C17.5713 22.6104 17.7413 22.6105 17.9114 22.6111C18.0957 22.6118 18.2801 22.6115 18.4644 22.611C18.5182 22.6113 18.572 22.6117 18.6274 22.6121C18.9286 22.6102 19.1547 22.5936 19.3895 22.3845C19.5761 22.1492 19.5994 21.9968 19.5999 21.7017C19.6002 21.6143 19.6002 21.6143 19.6006 21.5252C19.6006 21.4604 19.6006 21.3956 19.6005 21.3308C19.6007 21.2621 19.6009 21.1934 19.6011 21.1246C19.6015 20.9355 19.6017 20.7464 19.6018 20.5573C19.602 20.3534 19.6025 20.1496 19.6029 19.9457C19.6038 19.4533 19.6043 18.9609 19.6047 18.4684C19.6049 18.2366 19.6051 18.0047 19.6054 17.7729C19.6062 17.0023 19.6069 16.2317 19.6072 15.4611C19.6073 15.2611 19.6074 15.0611 19.6075 14.8612C19.6075 14.8115 19.6075 14.7618 19.6075 14.7105C19.6079 13.9051 19.6091 13.0997 19.6106 12.2943C19.6122 11.4675 19.613 10.6408 19.6132 9.81402C19.6133 9.34976 19.6137 8.8855 19.6149 8.42125C19.6159 8.02593 19.6163 7.63063 19.6158 7.23532C19.6156 7.03362 19.6157 6.83194 19.6166 6.63025C19.6174 6.44554 19.6174 6.26084 19.6167 6.07613C19.6166 6.00938 19.6168 5.94263 19.6173 5.87588C19.6202 5.50654 19.6108 5.23539 19.4061 4.92187C19.2333 4.74706 19.0889 4.72277 18.852 4.71309C18.7424 4.71311 18.6328 4.71417 18.5232 4.71606C18.4364 4.71646 18.4364 4.71646 18.3479 4.71686C18.1635 4.71791 17.9792 4.72026 17.7948 4.72265C17.6696 4.7237 17.5444 4.72445 17.4193 4.72522C17.1128 4.72728 16.8063 4.73052 16.4999 4.73437C16.4999 5.10562 16.4999 5.47687 16.4999 5.85937C17.428 5.88257 17.428 5.88257 18.3749 5.90625C18.4354 6.02737 18.4277 6.1141 18.4278 6.24979C18.4279 6.30312 18.4281 6.35645 18.4283 6.4114C18.4282 6.47049 18.4281 6.52958 18.428 6.59046C18.4281 6.65347 18.4282 6.71648 18.4284 6.7795C18.4286 6.95324 18.4286 7.12699 18.4286 7.30074C18.4286 7.48789 18.4288 7.67504 18.4291 7.86219C18.4294 8.22907 18.4296 8.59595 18.4296 8.96282C18.4296 9.26091 18.4297 9.55899 18.4299 9.85707C18.4303 10.7014 18.4305 11.5458 18.4305 12.3902C18.4305 12.4585 18.4305 12.4585 18.4305 12.5282C18.4304 12.5738 18.4304 12.6194 18.4304 12.6664C18.4304 13.4059 18.4309 14.1454 18.4315 14.8849C18.4322 15.6435 18.4325 16.4021 18.4325 17.1607C18.4325 17.5869 18.4326 18.013 18.4331 18.4392C18.4335 18.802 18.4336 19.1648 18.4333 19.5276C18.4332 19.7129 18.4332 19.8981 18.4336 20.0834C18.4339 20.2528 18.4339 20.4222 18.4335 20.5916C18.4334 20.6822 18.4337 20.7729 18.4341 20.8636C18.4339 20.917 18.4337 20.9705 18.4334 21.0256C18.4334 21.095 18.4334 21.095 18.4335 21.1659C18.4218 21.2812 18.4218 21.2812 18.328 21.4219C18.2353 21.4395 18.2353 21.4395 18.1191 21.4396C18.0749 21.4399 18.0307 21.4403 17.9851 21.4407C17.9362 21.4404 17.8873 21.4401 17.8369 21.4397C17.7852 21.4399 17.7335 21.4402 17.6802 21.4404C17.5058 21.441 17.3315 21.4405 17.1571 21.4401C17.0325 21.4403 16.908 21.4405 16.7834 21.4408C16.4795 21.4414 16.1756 21.4413 15.8717 21.4409C15.6249 21.4406 15.378 21.4405 15.1311 21.4407C15.096 21.4407 15.0609 21.4407 15.0248 21.4408C14.9535 21.4408 14.8822 21.4408 14.811 21.4409C14.1421 21.4413 13.4732 21.4408 12.8043 21.4401C12.2299 21.4394 11.6554 21.4396 11.081 21.4402C10.4146 21.441 9.74815 21.4413 9.08172 21.4408C9.01071 21.4408 8.9397 21.4407 8.86869 21.4407C8.83374 21.4407 8.7988 21.4406 8.7628 21.4406C8.5161 21.4405 8.2694 21.4407 8.0227 21.441C7.72221 21.4414 7.42173 21.4413 7.12124 21.4406C6.96781 21.4402 6.81439 21.4401 6.66096 21.4405C6.49493 21.4409 6.32892 21.4404 6.16289 21.4397C6.11398 21.44 6.06507 21.4404 6.01468 21.4407C5.97047 21.4403 5.92625 21.4399 5.8807 21.4396C5.84233 21.4395 5.80397 21.4395 5.76445 21.4395C5.73386 21.4337 5.70328 21.4279 5.67176 21.4219C5.56615 21.2634 5.56631 21.211 5.56635 21.0256C5.56613 20.9721 5.56592 20.9186 5.56569 20.8636C5.56594 20.8046 5.56618 20.7456 5.56642 20.6848C5.56635 20.6217 5.56624 20.5587 5.56608 20.4956C5.56578 20.3218 5.56607 20.1481 5.56645 19.9744C5.56675 19.7872 5.56652 19.5999 5.56636 19.4127C5.56612 19.0458 5.56639 18.679 5.56682 18.3121C5.56731 17.8852 5.5673 17.4583 5.56728 17.0314C5.56726 16.2699 5.56769 15.5084 5.56837 14.7469C5.56903 14.0074 5.56936 13.2678 5.56933 12.5282C5.56932 12.4599 5.56932 12.4599 5.56932 12.3902C5.56932 12.3219 5.56932 12.3219 5.56932 12.2523C5.56928 11.4113 5.56956 10.5703 5.56998 9.72924C5.57012 9.43137 5.57017 9.1335 5.57019 8.83564C5.57022 8.47288 5.57043 8.11012 5.57086 7.74736C5.57108 7.56213 5.57122 7.3769 5.57116 7.19167C5.57111 7.02233 5.57128 6.85299 5.57162 6.68365C5.57174 6.5929 5.57164 6.50215 5.57153 6.4114C5.57168 6.35807 5.57183 6.30474 5.57198 6.24979C5.57202 6.20348 5.57205 6.15717 5.57208 6.10946C5.57801 6 5.57801 6 5.62489 5.90625C6.24364 5.89078 6.86239 5.87531 7.49989 5.85937C7.49989 5.48812 7.49989 5.11687 7.49989 4.73437C7.1312 4.72973 6.76253 4.72633 6.39382 4.72407C6.26841 4.72324 6.14303 4.72185 6.01763 4.72023C5.83727 4.71795 5.65694 4.71689 5.47657 4.71606C5.39262 4.71461 5.39262 4.71461 5.30698 4.71313C4.91316 4.70968 4.91316 4.70968 4.59364 4.92187ZM6.04676 6.32812C6.04676 11.1544 6.04676 15.9806 6.04676 20.9531C9.97583 20.9531 13.9049 20.9531 17.953 20.9531C17.953 16.1269 17.953 11.3006 17.953 6.32812C14.024 6.32812 10.0949 6.32812 6.04676 6.32812Z" fill="#FDFDFD"/>
<path d="M11.0143 17.8472C11.0624 17.8468 11.1105 17.8465 11.1601 17.8461C11.2129 17.8463 11.2656 17.8464 11.3199 17.8465C11.3755 17.8463 11.4311 17.846 11.4883 17.8458C11.6408 17.8452 11.7932 17.8451 11.9457 17.8452C12.0729 17.8453 12.2001 17.8451 12.3273 17.8448C12.6273 17.8443 12.9274 17.8443 13.2274 17.8446C13.5371 17.8449 13.8468 17.8443 14.1565 17.8433C14.4223 17.8425 14.6881 17.8422 14.954 17.8423C15.1128 17.8424 15.2715 17.8423 15.4303 17.8416C15.6073 17.8411 15.7843 17.8414 15.9613 17.8419C16.0141 17.8416 16.0668 17.8412 16.1211 17.8408C16.1933 17.8413 16.1933 17.8413 16.2669 17.8418C16.3088 17.8418 16.3506 17.8418 16.3938 17.8418C16.5 17.8594 16.5 17.8594 16.5854 17.9202C16.6406 18 16.6406 18 16.6318 18.1699C16.6193 18.2221 16.6067 18.2743 16.5938 18.3281C16.4781 18.386 16.402 18.381 16.2726 18.3813C16.2245 18.3815 16.1765 18.3817 16.127 18.3819C16.0476 18.3818 16.0476 18.3818 15.9666 18.3818C15.9111 18.382 15.8555 18.3821 15.7982 18.3823C15.6456 18.3827 15.493 18.3828 15.3403 18.3828C15.213 18.3829 15.0857 18.3831 14.9584 18.3832C14.658 18.3836 14.3577 18.3837 14.0573 18.3837C13.7473 18.3837 13.4373 18.3842 13.1272 18.3849C12.8612 18.3855 12.5952 18.3858 12.3292 18.3857C12.1702 18.3857 12.0113 18.3858 11.8523 18.3863C11.6751 18.3868 11.4979 18.3867 11.3207 18.3864C11.2415 18.3868 11.2415 18.3868 11.1606 18.3872C11.1124 18.387 11.0643 18.3868 11.0146 18.3866C10.9518 18.3866 10.9518 18.3866 10.8876 18.3867C10.7812 18.375 10.7812 18.375 10.6406 18.2812C10.623 18.1172 10.623 18.1172 10.6406 17.9531C10.7937 17.851 10.8371 17.8476 11.0143 17.8472Z" fill="#FDFDFD"/>
<path d="M11.0143 15.8784C11.0624 15.8781 11.1105 15.8777 11.1601 15.8774C11.2129 15.8775 11.2656 15.8776 11.3199 15.8777C11.3755 15.8775 11.4311 15.8773 11.4883 15.877C11.6408 15.8765 11.7932 15.8764 11.9457 15.8765C12.0729 15.8765 12.2001 15.8763 12.3273 15.8761C12.6273 15.8756 12.9274 15.8755 13.2274 15.8758C13.5371 15.8761 13.8468 15.8755 14.1565 15.8745C14.4223 15.8737 14.6881 15.8734 14.954 15.8736C15.1128 15.8737 15.2715 15.8735 15.4303 15.8729C15.6073 15.8723 15.7843 15.8726 15.9613 15.8732C16.0141 15.8728 16.0668 15.8725 16.1211 15.8721C16.1933 15.8726 16.1933 15.8726 16.2669 15.8731C16.3088 15.8731 16.3506 15.8731 16.3938 15.8731C16.5 15.8906 16.5 15.8906 16.5854 15.9514C16.6406 16.0312 16.6406 16.0312 16.6318 16.2012C16.6193 16.2534 16.6067 16.3056 16.5938 16.3594C16.4781 16.4172 16.402 16.4123 16.2726 16.4125C16.2245 16.4127 16.1765 16.4129 16.127 16.4131C16.0476 16.4131 16.0476 16.4131 15.9666 16.4131C15.9111 16.4132 15.8555 16.4134 15.7982 16.4135C15.6456 16.4139 15.493 16.4141 15.3403 16.4141C15.213 16.4141 15.0857 16.4143 14.9584 16.4145C14.658 16.4149 14.3577 16.415 14.0573 16.4149C13.7473 16.4149 13.4373 16.4154 13.1272 16.4161C12.8612 16.4168 12.5952 16.417 12.3292 16.417C12.1702 16.417 12.0113 16.4171 11.8523 16.4176C11.6751 16.4181 11.4979 16.4179 11.3207 16.4176C11.2415 16.418 11.2415 16.418 11.1606 16.4184C11.1124 16.4182 11.0643 16.418 11.0146 16.4178C10.9518 16.4179 10.9518 16.4179 10.8876 16.4179C10.7812 16.4062 10.7812 16.4062 10.6406 16.3125C10.623 16.1484 10.623 16.1484 10.6406 15.9844C10.7937 15.8823 10.8371 15.8788 11.0143 15.8784Z" fill="#FDFDFD"/>
<path d="M10.9636 18.9722C11.012 18.9718 11.0605 18.9715 11.1104 18.9711C11.1637 18.9713 11.2171 18.9714 11.2721 18.9715C11.3561 18.9711 11.3561 18.9711 11.4418 18.9708C11.5957 18.9702 11.7496 18.9701 11.9035 18.9702C12.0319 18.9703 12.1602 18.9701 12.2886 18.9698C12.5914 18.9693 12.8942 18.9693 13.1971 18.9696C13.5097 18.9699 13.8223 18.9693 14.1349 18.9683C14.4031 18.9675 14.6712 18.9672 14.9394 18.9673C15.0997 18.9674 15.26 18.9673 15.4202 18.9666C15.5989 18.9661 15.7776 18.9664 15.9563 18.9669C16.0095 18.9666 16.0628 18.9662 16.1177 18.9658C16.1662 18.9662 16.2148 18.9665 16.2648 18.9668C16.3071 18.9668 16.3494 18.9668 16.3929 18.9668C16.5219 18.988 16.5634 19.0211 16.6406 19.125C16.6611 19.2422 16.6611 19.2422 16.6406 19.3594C16.502 19.4916 16.4052 19.5176 16.2162 19.5175C16.1445 19.518 16.1445 19.518 16.0714 19.5185C16.0193 19.5182 15.9671 19.5178 15.9134 19.5175C15.8307 19.5177 15.8307 19.5177 15.7464 19.518C15.5954 19.5183 15.4444 19.518 15.2934 19.5173C15.1354 19.5168 14.9774 19.517 14.8194 19.5171C14.554 19.5171 14.2887 19.5166 14.0234 19.5158C13.7166 19.5148 13.4098 19.5146 13.103 19.5149C12.8079 19.5152 12.5128 19.5149 12.2176 19.5144C12.092 19.5142 11.9664 19.5141 11.8408 19.5142C11.6655 19.5142 11.4902 19.5136 11.3149 19.5129C11.2627 19.513 11.2104 19.5131 11.1566 19.5132C11.109 19.5129 11.0613 19.5126 11.0122 19.5122C10.9708 19.5121 10.9293 19.512 10.8866 19.5119C10.7812 19.5 10.7812 19.5 10.6406 19.4062C10.626 19.2422 10.626 19.2422 10.6406 19.0781C10.7592 18.9595 10.7993 18.9725 10.9636 18.9722Z" fill="#FDFDFD"/>
<path d="M11.0122 14.7534C11.0599 14.7531 11.1075 14.7527 11.1566 14.7524C11.235 14.7526 11.235 14.7526 11.3149 14.7527C11.3699 14.7525 11.425 14.7523 11.4817 14.752C11.6327 14.7515 11.7837 14.7514 11.9347 14.7515C12.0607 14.7515 12.1867 14.7513 12.3128 14.7511C12.6101 14.7506 12.9075 14.7505 13.2048 14.7508C13.5116 14.7511 13.8184 14.7505 14.1251 14.7495C14.3885 14.7487 14.6519 14.7484 14.9153 14.7486C15.0726 14.7487 15.2299 14.7485 15.3872 14.7479C15.5626 14.7473 15.738 14.7476 15.9134 14.7482C15.9656 14.7478 16.0177 14.7475 16.0714 14.7471C16.1192 14.7474 16.167 14.7477 16.2162 14.7481C16.2784 14.7481 16.2784 14.7481 16.3419 14.7481C16.475 14.7691 16.5404 14.8184 16.6406 14.9062C16.6286 15.0161 16.6128 15.1256 16.5938 15.2344C16.4776 15.2925 16.4005 15.2873 16.2705 15.2875C16.222 15.2877 16.1735 15.2879 16.1235 15.2881C16.0701 15.2881 16.0166 15.2881 15.9616 15.2881C15.9055 15.2882 15.8494 15.2884 15.7916 15.2885C15.6375 15.2889 15.4834 15.2891 15.3293 15.2891C15.2008 15.2891 15.0723 15.2893 14.9438 15.2895C14.6408 15.2899 14.3378 15.29 14.0347 15.2899C13.7218 15.2899 13.4088 15.2904 13.0958 15.2911C12.8274 15.2918 12.559 15.292 12.2905 15.292C12.1301 15.292 11.9696 15.2921 11.8092 15.2926C11.6304 15.2931 11.4516 15.2929 11.2728 15.2926C11.1927 15.293 11.1927 15.293 11.1109 15.2934C11.0624 15.2932 11.0139 15.293 10.9639 15.2928C10.9216 15.2929 10.8793 15.2929 10.8357 15.2929C10.7344 15.2812 10.7344 15.2812 10.6406 15.1875C10.626 15.0234 10.626 15.0234 10.6406 14.8594C10.7933 14.7576 10.8358 14.7538 11.0122 14.7534Z" fill="#FDFDFD"/>
<path d="M11.0122 12.779C11.0599 12.7786 11.1075 12.7782 11.1566 12.7778C11.2089 12.7781 11.2611 12.7784 11.3149 12.7787C11.3699 12.7784 11.425 12.7782 11.4817 12.7779C11.6327 12.7774 11.7837 12.7775 11.9347 12.778C12.0927 12.7783 12.2507 12.778 12.4087 12.7778C12.6741 12.7775 12.9395 12.7779 13.2049 12.7785C13.5116 12.7793 13.8184 12.7791 14.1252 12.7783C14.3885 12.7776 14.6519 12.7775 14.9153 12.7779C15.0726 12.7781 15.2299 12.7782 15.3872 12.7777C15.5626 12.7773 15.738 12.7779 15.9134 12.7787C15.9656 12.7784 16.0177 12.7781 16.0714 12.7778C16.1192 12.7782 16.167 12.7786 16.2162 12.779C16.2577 12.7791 16.2991 12.7791 16.3419 12.7792C16.4749 12.8003 16.5405 12.8497 16.6406 12.9375C16.5996 13.2598 16.5996 13.2598 16.5469 13.3125C16.4718 13.3172 16.3965 13.3186 16.3212 13.3188C16.2724 13.319 16.2235 13.3192 16.1732 13.3194C16.0922 13.3193 16.0922 13.3193 16.0095 13.3193C15.9247 13.3195 15.9247 13.3195 15.8381 13.3198C15.6826 13.3201 15.527 13.3203 15.3715 13.3203C15.2418 13.3204 15.1122 13.3205 14.9825 13.3207C14.6767 13.3211 14.3709 13.3212 14.0651 13.3212C13.7493 13.3211 13.4334 13.3216 13.1175 13.3224C12.8467 13.323 12.5759 13.3232 12.3051 13.3232C12.1431 13.3232 11.9812 13.3233 11.8193 13.3238C11.6388 13.3244 11.4583 13.3242 11.2779 13.3239C11.2239 13.3241 11.17 13.3244 11.1144 13.3247C11.0409 13.3244 11.0409 13.3244 10.966 13.3241C10.9233 13.3241 10.8806 13.3241 10.8366 13.3242C10.7344 13.3125 10.7344 13.3125 10.6406 13.2187C10.6145 12.9734 10.6145 12.9734 10.6974 12.8593C10.808 12.777 10.875 12.7792 11.0122 12.779Z" fill="#FDFDFD"/>
<path d="M10.9657 8.6131C11.0146 8.61284 11.0635 8.61257 11.1139 8.6123C11.1677 8.61249 11.2216 8.61268 11.2771 8.61288C11.3337 8.61271 11.3902 8.61255 11.4485 8.61238C11.6038 8.61204 11.7592 8.61212 11.9145 8.61241C12.0769 8.61265 12.2392 8.61243 12.4016 8.61228C12.6743 8.61211 12.947 8.61234 13.2197 8.61279C13.5352 8.6133 13.8507 8.61313 14.1662 8.61261C14.4369 8.61219 14.7075 8.61213 14.9781 8.61237C15.1399 8.61252 15.3016 8.61254 15.4634 8.61223C15.6436 8.61191 15.8239 8.61235 16.0042 8.61288C16.085 8.61259 16.085 8.61259 16.1674 8.6123C16.2407 8.6127 16.2407 8.6127 16.3156 8.6131C16.3582 8.61314 16.4009 8.61317 16.4448 8.61321C16.5469 8.62501 16.5469 8.62501 16.6406 8.71876C16.6582 8.85645 16.6582 8.85645 16.6406 9.00001C16.5043 9.13297 16.4058 9.15825 16.2183 9.15849C16.1473 9.15908 16.1473 9.15908 16.0749 9.15969C16.0233 9.15941 15.9717 9.15912 15.9185 9.15883C15.8639 9.15907 15.8093 9.15932 15.753 9.15958C15.5723 9.16019 15.3916 9.15978 15.2109 9.15931C15.0855 9.1594 14.9601 9.15954 14.8347 9.15972C14.5718 9.15997 14.3089 9.15964 14.046 9.15897C13.7422 9.1582 13.4383 9.15845 13.1344 9.15922C12.8734 9.15986 12.6124 9.15995 12.3515 9.15958C12.1956 9.15936 12.0398 9.15939 11.8839 9.1598C11.7102 9.16016 11.5365 9.15961 11.3628 9.15883C11.2853 9.15926 11.2853 9.15926 11.2063 9.15969C11.1354 9.1591 11.1354 9.1591 11.063 9.15849C11.0014 9.15841 11.0014 9.15841 10.9385 9.15833C10.8031 9.13662 10.7383 9.09528 10.6406 9.00001C10.623 8.85645 10.623 8.85645 10.6406 8.71876C10.7597 8.59972 10.8007 8.61324 10.9657 8.6131Z" fill="#FDFDFD"/>
<path d="M10.9657 11.7069C11.0146 11.7066 11.0635 11.7063 11.1139 11.7061C11.1677 11.7062 11.2216 11.7064 11.2771 11.7066C11.3337 11.7065 11.3902 11.7063 11.4485 11.7061C11.6038 11.7058 11.7592 11.7059 11.9145 11.7062C12.0769 11.7064 12.2392 11.7062 12.4016 11.706C12.6743 11.7059 12.947 11.7061 13.2197 11.7065C13.5352 11.707 13.8507 11.7069 14.1662 11.7064C14.4369 11.7059 14.7075 11.7059 14.9781 11.7061C15.1399 11.7063 15.3016 11.7063 15.4634 11.706C15.6436 11.7057 15.8239 11.7061 16.0042 11.7066C16.085 11.7063 16.085 11.7063 16.1674 11.7061C16.2407 11.7064 16.2407 11.7064 16.3156 11.7069C16.3582 11.7069 16.4009 11.7069 16.4448 11.707C16.5469 11.7188 16.5469 11.7188 16.6406 11.8125C16.6523 11.9531 16.6523 11.9531 16.6406 12.0938C16.5216 12.2128 16.4805 12.1993 16.3156 12.1994C16.2422 12.1998 16.2422 12.1998 16.1674 12.2002C16.1135 12.2 16.0596 12.1998 16.0042 12.1996C15.9476 12.1998 15.891 12.2 15.8328 12.2001C15.6774 12.2005 15.5221 12.2004 15.3667 12.2001C15.2044 12.1999 15.042 12.2001 14.8797 12.2002C14.607 12.2004 14.3343 12.2002 14.0616 12.1997C13.7461 12.1992 13.4305 12.1994 13.115 12.1999C12.8444 12.2003 12.5738 12.2004 12.3031 12.2001C12.1414 12.2 11.9796 12.2 11.8179 12.2003C11.6376 12.2006 11.4574 12.2002 11.2771 12.1996C11.1963 12.1999 11.1963 12.1999 11.1139 12.2002C11.065 12.1999 11.0161 12.1997 10.9657 12.1994C10.923 12.1994 10.8804 12.1993 10.8364 12.1993C10.7344 12.1875 10.7344 12.1875 10.6406 12.0938C10.6289 11.9531 10.6289 11.9531 10.6406 11.8125C10.7597 11.6935 10.8007 11.707 10.9657 11.7069Z" fill="#FDFDFD"/>
<path d="M10.9657 9.7381C11.0146 9.73784 11.0635 9.73757 11.1139 9.7373C11.1677 9.73749 11.2216 9.73768 11.2771 9.73788C11.3337 9.73771 11.3902 9.73755 11.4485 9.73738C11.6038 9.73704 11.7592 9.73712 11.9145 9.73741C12.0769 9.73765 12.2392 9.73743 12.4016 9.73728C12.6743 9.73711 12.947 9.73734 13.2197 9.73779C13.5352 9.7383 13.8507 9.73813 14.1662 9.73761C14.4369 9.73719 14.7075 9.73713 14.9781 9.73737C15.1399 9.73752 15.3016 9.73754 15.4634 9.73723C15.6436 9.73691 15.8239 9.73735 16.0042 9.73788C16.085 9.73759 16.085 9.73759 16.1674 9.7373C16.2407 9.7377 16.2407 9.7377 16.3156 9.7381C16.3582 9.73814 16.4009 9.73817 16.4448 9.73821C16.5469 9.75001 16.5469 9.75001 16.6406 9.84376C16.6523 9.98438 16.6523 9.98438 16.6406 10.125C16.5216 10.244 16.4805 10.2305 16.3156 10.2307C16.2422 10.2311 16.2422 10.2311 16.1674 10.2315C16.1135 10.2313 16.0596 10.2311 16.0042 10.2309C15.9476 10.2311 15.891 10.2312 15.8328 10.2314C15.6774 10.2317 15.5221 10.2316 15.3667 10.2314C15.2044 10.2311 15.042 10.2313 14.8797 10.2315C14.607 10.2317 14.3343 10.2314 14.0616 10.231C13.7461 10.2305 13.4305 10.2306 13.115 10.2312C12.8444 10.2316 12.5738 10.2316 12.3031 10.2314C12.1414 10.2312 11.9796 10.2312 11.8179 10.2315C11.6376 10.2319 11.4574 10.2314 11.2771 10.2309C11.1963 10.2312 11.1963 10.2312 11.1139 10.2315C11.065 10.2312 11.0161 10.2309 10.9657 10.2307C10.923 10.2306 10.8804 10.2306 10.8364 10.2306C10.7344 10.2188 10.7344 10.2188 10.6406 10.125C10.6289 9.98438 10.6289 9.98438 10.6406 9.84376C10.7597 9.72472 10.8007 9.73824 10.9657 9.7381Z" fill="#FDFDFD"/>
<path d="M9.60938 8.57813C9.64031 8.60907 9.67125 8.64001 9.70312 8.67188C9.7021 8.92613 9.63519 9.05383 9.46519 9.22894C9.43863 9.25479 9.41207 9.28063 9.3847 9.30726C9.35735 9.33477 9.32999 9.36229 9.3018 9.39064C9.24402 9.44841 9.18589 9.50583 9.12743 9.56292C9.03827 9.65021 8.95057 9.73881 8.86295 9.82764C8.80648 9.88375 8.74993 9.93979 8.6933 9.99573C8.65417 10.0354 8.65417 10.0354 8.61425 10.0758C8.45392 10.2304 8.34207 10.3069 8.10938 10.3125C8.01141 10.2568 8.01141 10.2568 7.9248 10.1719C7.89338 10.1414 7.86196 10.111 7.82959 10.0796C7.79817 10.0482 7.76675 10.0168 7.73438 9.98438C7.70295 9.95683 7.67153 9.92927 7.63916 9.90088C7.49166 9.76789 7.3915 9.6732 7.3623 9.47168C7.36134 9.42431 7.36037 9.37694 7.35938 9.32813C7.43848 9.25489 7.43848 9.25489 7.54688 9.18751C7.75374 9.20111 7.84436 9.27635 7.9834 9.42481C8.01609 9.45919 8.04878 9.49357 8.08246 9.529C8.11899 9.56879 8.11899 9.56879 8.15625 9.60938C8.32736 9.53753 8.43466 9.43493 8.56384 9.30304C8.62575 9.24037 8.62575 9.24037 8.6889 9.17643C8.73162 9.13271 8.77434 9.08899 8.81836 9.04395C8.90334 8.95736 8.98842 8.87087 9.07361 8.78449C9.13 8.72684 9.13 8.72684 9.18752 8.66802C9.34014 8.52165 9.40916 8.52307 9.60938 8.57813Z" fill="#FDFDFD"/>
<path d="M9.60925 17.8125C9.703 17.9531 9.703 17.9531 9.70304 18.0829C9.63916 18.2892 9.52578 18.3993 9.37433 18.549C9.34593 18.5777 9.31753 18.6064 9.28827 18.636C9.22823 18.6964 9.1679 18.7565 9.10728 18.8164C9.01474 18.908 8.92365 19.0009 8.83261 19.0941C8.77401 19.1527 8.71533 19.2112 8.65656 19.2697C8.62944 19.2975 8.60233 19.3253 8.5744 19.354C8.44499 19.4797 8.37614 19.5411 8.19477 19.5732C8.04547 19.5435 7.9884 19.509 7.8811 19.403C7.85029 19.3725 7.81947 19.342 7.78772 19.3107C7.74095 19.2623 7.74095 19.2623 7.69324 19.2129C7.66097 19.1817 7.6287 19.1505 7.59546 19.1184C7.36654 18.8868 7.36654 18.8868 7.33252 18.6859C7.35925 18.5625 7.35925 18.5625 7.453 18.4688C7.57605 18.4424 7.57605 18.4424 7.73425 18.4688C7.83701 18.548 7.92762 18.6328 8.0188 18.7251C8.11449 18.8163 8.11449 18.8163 8.29675 18.7969C8.40902 18.7052 8.40902 18.7052 8.51886 18.5815C8.56119 18.5371 8.60352 18.4927 8.64713 18.447C8.71377 18.376 8.78013 18.3047 8.8461 18.2331C8.9101 18.164 8.97521 18.0959 9.04034 18.0278C9.07867 17.9866 9.117 17.9454 9.15649 17.9029C9.31797 17.7858 9.41412 17.7845 9.60925 17.8125Z" fill="#FDFDFD"/>
<path d="M9.65625 14.7656C9.69737 14.9091 9.69737 14.9091 9.70312 15.0937C9.62936 15.2236 9.52721 15.32 9.42023 15.4231C9.37587 15.4677 9.37587 15.4677 9.33061 15.5132C9.26797 15.5757 9.20486 15.6377 9.14132 15.6993C9.04426 15.7936 8.94907 15.8896 8.85397 15.9859C8.79283 16.0465 8.73158 16.1069 8.67023 16.1673C8.6418 16.196 8.61337 16.2247 8.58408 16.2543C8.45135 16.3812 8.37837 16.4469 8.19415 16.4799C7.96665 16.4336 7.84842 16.2834 7.69043 16.1221C7.64144 16.0759 7.64144 16.0759 7.59146 16.0288C7.5021 15.9392 7.42594 15.8576 7.35938 15.75C7.36212 15.5627 7.36212 15.5627 7.40625 15.4219C7.60031 15.3517 7.60031 15.3517 7.73438 15.375C7.89329 15.4997 8.02479 15.6439 8.15625 15.7969C8.4098 15.5859 8.64301 15.3613 8.87402 15.126C8.94014 15.0587 9.00636 14.9915 9.07269 14.9244C9.10153 14.895 9.13038 14.8656 9.16009 14.8353C9.32304 14.6824 9.44574 14.7305 9.65625 14.7656Z" fill="#FDFDFD"/>
<path d="M9.45448 11.6083C9.5625 11.625 9.5625 11.625 9.64746 11.6807C9.72695 11.802 9.72682 11.8558 9.70313 12C9.61902 12.1189 9.51646 12.2172 9.41235 12.3186C9.38263 12.3483 9.3529 12.3781 9.32227 12.4087C9.25934 12.4714 9.19612 12.5338 9.13264 12.5959C9.03551 12.6911 8.93943 12.7872 8.84344 12.8835C8.78216 12.9443 8.72083 13.005 8.65942 13.0657C8.63066 13.0944 8.60189 13.1232 8.57225 13.1528C8.54505 13.1793 8.51785 13.2057 8.48982 13.233C8.46609 13.2563 8.44236 13.2797 8.4179 13.3037C8.33028 13.3695 8.26455 13.3917 8.15625 13.4063C7.95845 13.3145 7.80679 13.1707 7.65234 13.0195C7.6292 12.9983 7.60606 12.9771 7.58221 12.9553C7.41159 12.7884 7.36674 12.6584 7.35938 12.4219C7.41211 12.3311 7.41211 12.3311 7.5 12.2813C7.60858 12.265 7.60858 12.265 7.73438 12.2813C7.84955 12.3735 7.84955 12.3735 7.95996 12.4922C8.01552 12.5509 8.01552 12.5509 8.0722 12.6108C8.09994 12.6413 8.12767 12.6718 8.15625 12.7031C8.33245 12.6305 8.43866 12.5221 8.56915 12.3849C8.6119 12.3408 8.65465 12.2967 8.6987 12.2512C8.76611 12.1812 8.83333 12.111 8.90017 12.0404C8.96508 11.9721 9.03078 11.9046 9.0965 11.837C9.15473 11.7761 9.15473 11.7761 9.21413 11.7139C9.32813 11.625 9.32813 11.625 9.45448 11.6083Z" fill="#FDFDFD"/>
<path d="M12.0527 2.5459C12.1875 2.57812 12.1875 2.57812 12.2344 2.625C12.2461 2.78613 12.2461 2.78613 12.2344 2.95312C12.0938 3.04687 12.0938 3.04687 11.9473 3.03222C11.8125 3 11.8125 3 11.7656 2.95312C11.7539 2.79199 11.7539 2.79199 11.7656 2.625C11.9062 2.53125 11.9062 2.53125 12.0527 2.5459Z" fill="#FDFDFD"/>
</svg>
