<svg width="22" height="22" viewBox="0 0 22 22" fill="none" xmlns="http://www.w3.org/2000/svg">
<path d="M18.6906 3.55404L18.1282 2.99155C17.7532 2.61655 17.1452 2.61655 16.7702 2.99154L13.7448 6.01688C13.3427 6.41903 13.0686 6.93122 12.957 7.4889L12.6479 9.03423L14.1932 8.72516C14.7509 8.61362 15.2632 8.33951 15.6653 7.93736L18.6906 4.91203C19.0657 4.53703 19.0657 3.92903 18.6906 3.55404Z" stroke="#FDFDFD" stroke-width="1.16154" stroke-linejoin="round"/>
<path d="M12.3677 17.5776C12.1958 17.1626 12.1958 16.6364 12.1958 15.584C12.1958 14.5316 12.1958 14.0055 12.3677 13.5904C12.5969 13.037 13.0366 12.5973 13.59 12.3681C14.0051 12.1962 14.5312 12.1962 15.5836 12.1962C16.636 12.1962 17.1622 12.1962 17.5772 12.3681C18.1306 12.5973 18.5703 13.037 18.7995 13.5904C18.9714 14.0055 18.9714 14.5316 18.9714 15.584C18.9714 16.6364 18.9714 17.1626 18.7995 17.5776C18.5703 18.131 18.1306 18.5707 17.5772 18.7999C17.1622 18.9718 16.636 18.9718 15.5836 18.9718C14.5312 18.9718 14.0051 18.9718 13.59 18.7999C13.0366 18.5707 12.5969 18.131 12.3677 17.5776Z" stroke="#FDFDFD" stroke-width="1.16154" stroke-linecap="square" stroke-linejoin="round"/>
<path d="M2.88237 17.5776C2.71045 17.1626 2.71045 16.6364 2.71045 15.584C2.71045 14.5316 2.71045 14.0055 2.88237 13.5904C3.1116 13.037 3.55128 12.5973 4.10469 12.3681C4.51974 12.1962 5.04592 12.1962 6.09827 12.1962C7.15062 12.1962 7.6768 12.1962 8.09185 12.3681C8.64526 12.5973 9.08497 13.037 9.31417 13.5904C9.48609 14.0055 9.48609 14.5316 9.48609 15.584C9.48609 16.6364 9.48609 17.1626 9.31417 17.5776C9.08497 18.131 8.64526 18.5707 8.09185 18.7999C7.6768 18.9718 7.15062 18.9718 6.09827 18.9718C5.04592 18.9718 4.51974 18.9718 4.10469 18.7999C3.55128 18.5707 3.1116 18.131 2.88237 17.5776Z" stroke="#FDFDFD" stroke-width="1.16154" stroke-linecap="square" stroke-linejoin="round"/>
<path d="M2.88237 8.0917C2.71045 7.67664 2.71045 7.15046 2.71045 6.09812C2.71045 5.04577 2.71045 4.51959 2.88237 4.10453C3.1116 3.55113 3.55128 3.11145 4.10469 2.88222C4.51974 2.7103 5.04592 2.7103 6.09827 2.7103C7.15062 2.7103 7.6768 2.7103 8.09185 2.88222C8.64526 3.11145 9.08497 3.55113 9.31417 4.10453C9.48609 4.51959 9.48609 5.04577 9.48609 6.09812C9.48609 7.15046 9.48609 7.67664 9.31417 8.0917C9.08497 8.64511 8.64526 9.08482 8.09185 9.31402C7.6768 9.48594 7.15062 9.48594 6.09827 9.48594C5.04592 9.48594 4.51974 9.48594 4.10469 9.31402C3.55128 9.08482 3.1116 8.64511 2.88237 8.0917Z" stroke="#FDFDFD" stroke-width="1.16154" stroke-linecap="square" stroke-linejoin="round"/>
</svg>
