<svg width="16" height="16" viewBox="0 0 16 16" fill="none" xmlns="http://www.w3.org/2000/svg">
<g clip-path="url(#clip0_55_986)">
<path d="M9.79651 -0.0052374C9.83055 -0.00536548 9.86459 -0.00549357 9.89966 -0.00562554C10.0093 -0.00592289 10.1189 -0.00592352 10.2285 -0.00584775C10.2843 -0.00586616 10.2843 -0.00586616 10.3411 -0.00588494C11.5613 -0.00540033 11.5613 -0.00540032 12.1562 0.0937616C12.1562 0.939387 12.1562 1.78501 12.1562 2.65626C11.4336 2.66993 11.4336 2.66993 11.2084 2.67402C10.2988 2.65225 10.2988 2.65225 9.52734 3.06251C9.31771 3.31781 9.27912 3.67665 9.27483 3.99543C9.27452 4.0159 9.27421 4.03637 9.27388 4.05746C9.27291 4.1229 9.27213 4.18835 9.27136 4.2538C9.27049 4.31428 9.27049 4.31428 9.2696 4.37599C9.26747 4.52605 9.26558 4.67612 9.26367 4.82618C9.25916 5.16198 9.25465 5.49779 9.25 5.84376C10.1781 5.84376 11.1062 5.84376 12.0625 5.84376C12.0266 6.34635 12.0266 6.34635 11.999 6.55468C11.9959 6.5789 11.9928 6.60311 11.9896 6.62806C11.9798 6.70445 11.9698 6.78082 11.9598 6.85719C11.9537 6.90514 11.9475 6.9531 11.9413 7.00106C11.9187 7.17651 11.8959 7.35193 11.873 7.52736C11.8221 7.92052 11.7712 8.31368 11.7188 8.71876C10.9041 8.71876 10.0894 8.71876 9.25 8.71876C9.25 11.1216 9.25 13.5244 9.25 16C8.27031 16 7.29063 16 6.28125 16C6.28125 13.5972 6.28125 11.1944 6.28125 8.71876C5.47688 8.71876 4.6725 8.71876 3.84375 8.71876C3.84375 7.77001 3.84375 6.82126 3.84375 5.84376C4.64812 5.84376 5.4525 5.84376 6.28125 5.84376C6.27879 5.10058 6.27879 5.10058 6.27562 4.3574C6.27226 3.18902 6.33696 2.00884 7.15625 1.09376C7.18123 1.06585 7.2062 1.03793 7.23193 1.00917C7.89887 0.303751 8.84171 -0.0041201 9.79651 -0.0052374Z" fill="#FDFDFD"/>
</g>
<defs>
<clipPath id="clip0_55_986">
<rect width="16" height="16" fill="white"/>
</clipPath>
</defs>
</svg>
