<svg width="16" height="16" viewBox="0 0 16 16" fill="none" xmlns="http://www.w3.org/2000/svg">
<g clip-path="url(#clip0_55_966)">
<path d="M7.59262 -0.0135541C7.64103 -0.0137998 7.64103 -0.0137998 7.69041 -0.0140505C7.75836 -0.0142503 7.8263 -0.0142103 7.89424 -0.0139432C7.9976 -0.0136772 8.1009 -0.0145772 8.20425 -0.0155683C8.27055 -0.0156186 8.33686 -0.0156006 8.40316 -0.0155072C8.44903 -0.0160338 8.44903 -0.0160338 8.49581 -0.016571C8.78075 -0.0137107 9.03992 0.0841611 9.24997 0.281246C9.42253 0.4877 9.49411 0.712748 9.56442 0.968746C9.68206 1.39177 9.82923 1.76845 10.2168 2.00976C10.5774 2.21178 10.9434 2.28556 11.3496 2.17578C11.555 2.10673 11.736 2.00067 11.9232 1.89334C12.2301 1.71857 12.5139 1.63134 12.8684 1.70581C13.0291 1.75517 13.1464 1.82253 13.2697 1.93676C13.2968 1.96179 13.3238 1.98681 13.3517 2.01259C13.38 2.03937 13.4083 2.06615 13.4375 2.09375C13.4662 2.12091 13.4949 2.14807 13.5245 2.17606C13.599 2.24732 13.6728 2.31912 13.7462 2.39153C13.7762 2.42098 13.8063 2.45027 13.8366 2.47939C14.1114 2.74357 14.3123 3.00103 14.3222 3.39257C14.3178 3.6981 14.197 3.92545 14.0468 4.18359C13.8373 4.54529 13.7142 4.90151 13.8029 5.32153C13.9113 5.71031 14.0951 6.01574 14.4442 6.22998C14.6167 6.31612 14.7973 6.36712 14.982 6.41972C15.3643 6.52932 15.7007 6.63145 15.9093 6.99829C15.9973 7.19884 16.01 7.37011 16.0105 7.58654C16.0107 7.61891 16.0109 7.65127 16.0111 7.68461C16.0114 7.75293 16.0116 7.82124 16.0115 7.88956C16.0117 7.99347 16.0128 8.09733 16.014 8.20123C16.0142 8.26782 16.0143 8.33441 16.0144 8.401C16.015 8.44715 16.015 8.44715 16.0157 8.49424C16.0141 8.7509 15.9474 8.96979 15.7734 9.16406C15.7571 9.18291 15.7409 9.20176 15.7241 9.22119C15.488 9.43008 15.2184 9.50339 14.9207 9.58978C14.5068 9.71479 14.1702 9.8883 13.95 10.2753C13.7711 10.6514 13.7209 11.0036 13.8536 11.4056C13.9351 11.6129 14.0456 11.8085 14.1514 12.0041C14.1676 12.034 14.1838 12.064 14.2005 12.0948C14.2153 12.1217 14.23 12.1486 14.2452 12.1763C14.3517 12.3944 14.3428 12.6663 14.2944 12.8997C14.176 13.2388 13.8548 13.4967 13.6084 13.7462C13.579 13.7762 13.5497 13.8063 13.5206 13.8366C13.2564 14.1114 12.9989 14.3124 12.6074 14.3223C12.3019 14.3178 12.0745 14.197 11.8164 14.0469C11.4547 13.8373 11.0985 13.7142 10.6784 13.803C10.3097 13.9057 10.0018 14.0741 9.80413 14.4113C9.68258 14.6489 9.60886 14.8945 9.53518 15.1503C9.43847 15.4698 9.30076 15.7391 8.99997 15.9062C8.79723 15.9973 8.6282 16.0142 8.40731 16.0135C8.37504 16.0137 8.34277 16.0139 8.30952 16.014C8.24157 16.0142 8.17363 16.0142 8.10569 16.0139C8.00233 16.0137 7.89903 16.0146 7.79568 16.0156C7.72938 16.0156 7.66307 16.0156 7.59677 16.0155C7.56619 16.0159 7.53562 16.0162 7.50412 16.0166C7.21918 16.0137 6.96001 15.9158 6.74997 15.7187C6.5774 15.5123 6.50582 15.2872 6.43551 15.0312C6.31869 14.6112 6.16393 14.2319 5.79098 13.9746C5.45985 13.7887 5.09397 13.7277 4.72128 13.7986C4.48893 13.8659 4.28703 13.9876 4.07836 14.1067C3.77057 14.2807 3.48654 14.3688 3.13156 14.2942C2.97079 14.2448 2.85349 14.1775 2.73019 14.0632C2.70315 14.0382 2.6761 14.0132 2.64824 13.9874C2.61994 13.9606 2.59163 13.9338 2.56247 13.9062C2.53374 13.8791 2.50501 13.8519 2.47541 13.8239C2.40094 13.7527 2.32708 13.6809 2.25374 13.6085C2.22377 13.579 2.19362 13.5497 2.16332 13.5206C1.88853 13.2564 1.68761 12.999 1.6777 12.6074C1.68212 12.3019 1.80296 12.0745 1.95309 11.8164C2.163 11.4541 2.28343 11.1002 2.19809 10.6796C2.09983 10.3193 1.92034 9.99571 1.5904 9.80588C1.35229 9.6831 1.10636 9.60916 0.849636 9.53521C0.530188 9.4385 0.260822 9.30079 0.0937152 9C0.00268217 8.79726 -0.014246 8.62823 -0.0135846 8.40734C-0.0137484 8.37507 -0.0139122 8.3428 -0.014081 8.30955C-0.0142809 8.2416 -0.0142409 8.17366 -0.0139737 8.10572C-0.0137077 8.00236 -0.0146078 7.89906 -0.0155988 7.79571C-0.0156492 7.72941 -0.0156311 7.6631 -0.0155377 7.5968C-0.0158888 7.56622 -0.0162399 7.53565 -0.0166016 7.50415C-0.0137412 7.21921 0.0841306 6.96004 0.281215 6.75C0.48767 6.57743 0.712718 6.50585 0.968715 6.43554C1.39174 6.3179 1.76842 6.17073 2.00973 5.7832C2.21174 5.42254 2.28553 5.05655 2.17575 4.65039C2.10669 4.44498 2.00064 4.26392 1.89331 4.07681C1.71854 3.76989 1.63131 3.48605 1.70578 3.13159C1.75514 2.97082 1.82249 2.85352 1.93673 2.73022C1.96176 2.70318 1.98678 2.67614 2.01256 2.64827C2.03934 2.61997 2.06612 2.59166 2.09372 2.5625C2.12088 2.53377 2.14804 2.50504 2.17603 2.47544C2.24729 2.40097 2.31909 2.32712 2.3915 2.25377C2.42095 2.2238 2.45024 2.19365 2.47936 2.16335C2.74354 1.88856 3.001 1.68764 3.39254 1.67773C3.70849 1.68193 3.94599 1.81279 4.2121 1.97065C4.55483 2.17139 4.92378 2.27816 5.3193 2.19848C5.72517 2.08542 6.01727 1.89029 6.22775 1.52356C6.29809 1.38174 6.34888 1.23611 6.39535 1.08508C6.40919 1.04013 6.40919 1.04013 6.42331 0.994281C6.44143 0.934418 6.45907 0.874408 6.47616 0.814243C6.56718 0.508976 6.71472 0.252214 6.99997 0.0937457C7.2027 0.00271269 7.37173 -0.0142155 7.59262 -0.0135541ZM7.21872 0.843746C7.18476 0.904815 7.18476 0.904815 7.16793 0.967769C7.16079 0.990567 7.15364 1.01336 7.14627 1.03685C7.13924 1.06078 7.13221 1.08471 7.12497 1.10937C7.10904 1.15989 7.09304 1.21038 7.07699 1.26086C7.06925 1.2856 7.06151 1.31034 7.05354 1.33583C6.86694 1.92444 6.55906 2.3945 5.99997 2.6875C5.47056 2.9279 4.88274 3.00383 4.32356 2.81114C4.1356 2.73479 3.95732 2.63518 3.78059 2.53604C3.55928 2.4096 3.55928 2.4096 3.31247 2.375C3.22761 2.41597 3.22761 2.41597 3.15426 2.48632C3.12514 2.5121 3.09601 2.53789 3.06601 2.56445C3.03347 2.59493 3.00104 2.62554 2.96872 2.65625C2.95032 2.67353 2.93193 2.69081 2.91297 2.70861C2.85423 2.76423 2.79611 2.82042 2.73825 2.87695C2.72004 2.8946 2.70183 2.91224 2.68306 2.93042C2.45551 3.15673 2.45551 3.15673 2.37252 3.45373C2.41254 3.58293 2.46892 3.68779 2.53903 3.80273C2.85183 4.33702 3.00471 4.88095 2.88583 5.5017C2.74732 6.02602 2.46391 6.48753 1.99997 6.78125C1.7055 6.94484 1.39848 7.04882 1.07538 7.14111C0.870882 7.19964 0.870882 7.19964 0.718715 7.34375C0.639959 7.50126 0.677679 7.74779 0.676525 7.92308C0.676007 7.9807 0.675155 8.03832 0.673961 8.09594C0.672248 8.17908 0.671566 8.26217 0.671108 8.34533C0.670045 8.38382 0.670045 8.38382 0.668961 8.42308C0.669453 8.55662 0.67504 8.60904 0.759784 8.71785C0.859657 8.79329 0.957029 8.82769 1.07614 8.85937C1.12079 8.87237 1.16543 8.88543 1.21005 8.89856C1.23241 8.90501 1.25477 8.91146 1.27781 8.9181C1.87006 9.09239 2.32505 9.37254 2.65622 9.90625C2.83733 10.2392 2.92354 10.5727 2.91793 10.9512C2.91757 10.9828 2.91721 11.0144 2.91684 11.0469C2.9059 11.5458 2.71595 11.9236 2.47067 12.3477C2.41287 12.4507 2.37497 12.5354 2.37497 12.6562C2.4349 12.7729 2.50717 12.857 2.60153 12.9473C2.69194 13.0352 2.77692 13.1236 2.85739 13.2207C3.00346 13.3895 3.1661 13.5564 3.38168 13.6263C3.55134 13.6244 3.65653 13.5517 3.79879 13.4648C4.36062 13.1384 4.9476 12.9842 5.59176 13.1445C6.1162 13.3058 6.5798 13.6144 6.84678 14.1039C6.97051 14.3434 7.05382 14.5887 7.12254 14.8492C7.17331 15.0372 7.23502 15.1726 7.37497 15.3125C7.46505 15.3191 7.55205 15.322 7.64218 15.3219C7.66877 15.322 7.69536 15.3222 7.72276 15.3223C7.77911 15.3225 7.83546 15.3225 7.8918 15.3224C7.97782 15.3223 8.0638 15.323 8.14981 15.3238C8.20456 15.3239 8.2593 15.3239 8.31405 15.3238C8.35254 15.3243 8.35254 15.3243 8.3918 15.3247C8.53681 15.3236 8.63237 15.313 8.74997 15.2187C8.84806 15.0655 8.8842 14.8929 8.92965 14.7187C9.01641 14.4018 9.11722 14.0894 9.3348 13.8358C9.41288 13.7606 9.41288 13.7606 9.40622 13.6875C9.42499 13.6789 9.44376 13.6703 9.4631 13.6615C9.53987 13.6241 9.53987 13.6241 9.62106 13.541C10.0663 13.1527 10.6601 13.0496 11.231 13.0857C11.6847 13.1305 12.1262 13.3758 12.5 13.625C12.601 13.6357 12.6649 13.637 12.7555 13.589C12.9388 13.4358 13.1095 13.2715 13.2793 13.1035C13.3026 13.0805 13.3259 13.0575 13.3499 13.0338C13.5534 12.8446 13.5534 12.8446 13.6266 12.5898C13.5928 12.4207 13.4952 12.2738 13.4121 12.125C13.1107 11.5623 12.9796 10.9776 13.153 10.3463C13.3449 9.80953 13.6925 9.34652 14.2123 9.09187C14.4299 8.99918 14.6603 8.93668 14.8864 8.86865C15.1339 8.79786 15.1339 8.79786 15.3125 8.625C15.3197 8.53428 15.3235 8.44663 15.3241 8.35583C15.3243 8.32936 15.3246 8.30288 15.3249 8.27561C15.3254 8.21958 15.3256 8.16355 15.3258 8.10752C15.3261 8.02211 15.3277 7.93677 15.3293 7.85138C15.3295 7.79687 15.3298 7.74237 15.3299 7.68786C15.3308 7.64977 15.3308 7.64977 15.3318 7.6109C15.3308 7.48308 15.3208 7.39988 15.2401 7.29783C15.1418 7.20519 15.0515 7.17103 14.9238 7.13867C14.8791 7.12596 14.8345 7.11318 14.7899 7.10034C14.7675 7.09408 14.7452 7.08783 14.7221 7.08139C14.1384 6.91406 13.6554 6.62627 13.3496 6.08776C13.081 5.58866 13.0103 5.04479 13.1328 4.48828C13.2086 4.2376 13.3366 4.01012 13.4639 3.78218C13.5891 3.55995 13.5891 3.55995 13.625 3.3125C13.5927 3.24475 13.5927 3.24475 13.5351 3.19336C13.5147 3.17245 13.4944 3.15154 13.4734 3.13C13.4512 3.10772 13.429 3.08545 13.4062 3.0625C13.3618 3.01184 13.3175 2.96105 13.2734 2.91015C13.002 2.5885 13.002 2.5885 12.6562 2.375C12.4718 2.38117 12.3501 2.44581 12.1972 2.53906C11.6469 2.8616 11.0919 3.02015 10.4609 2.87512C9.93314 2.73383 9.49355 2.43878 9.20895 1.97058C9.0463 1.67578 8.93995 1.36657 8.84932 1.04364C8.80852 0.904591 8.775 0.810813 8.65622 0.718746C8.4987 0.63999 8.25217 0.677709 8.07688 0.676555C8.01926 0.676038 7.96164 0.675185 7.90403 0.673992C7.82088 0.672278 7.73779 0.671596 7.65463 0.671138C7.62897 0.67043 7.60332 0.669721 7.57688 0.668992C7.40429 0.669627 7.32743 0.699204 7.21872 0.843746Z" fill="#FDFDFD"/>
<path d="M10.0625 3.78125C10.0827 3.79104 10.1029 3.80084 10.1237 3.81093C10.4075 3.95056 10.6604 4.11184 10.9062 4.3125C10.933 4.33427 10.933 4.33427 10.9603 4.35649C11.6959 4.95834 12.2283 5.7428 12.5 6.65625C12.5093 6.68747 12.5093 6.68747 12.5188 6.71931C12.8796 7.96635 12.6692 9.25657 12.0527 10.3828C11.9134 10.6288 11.7454 10.8476 11.5625 11.0625C11.5363 11.0934 11.5102 11.1244 11.4833 11.1562C11.3074 11.3569 11.1171 11.5247 10.9062 11.6875C10.8792 11.7099 10.8521 11.7323 10.8242 11.7554C9.91134 12.4867 8.66663 12.7871 7.5139 12.672C6.55357 12.5603 5.67485 12.1901 4.93749 11.5625C4.90655 11.5364 4.87561 11.5102 4.84374 11.4833C4.64307 11.3074 4.47532 11.1171 4.31249 10.9062C4.29009 10.8792 4.26769 10.8521 4.24462 10.8242C3.89789 10.3914 3.65598 9.87396 3.49999 9.34375C3.49076 9.31267 3.49076 9.31267 3.48136 9.28096C3.1204 8.03387 3.33063 6.74351 3.94725 5.61719C4.08667 5.37122 4.254 5.152 4.43749 4.9375C4.45176 4.92074 4.46603 4.90397 4.48073 4.8867C4.67582 4.65993 4.88526 4.46121 5.12499 4.28125C5.17006 4.24717 5.17006 4.24717 5.21605 4.2124C5.65514 3.89448 6.13688 3.65448 6.65624 3.5C6.67705 3.49381 6.69786 3.48761 6.7193 3.48123C7.82703 3.16072 9.02914 3.27694 10.0625 3.78125ZM5.40624 4.96875C5.3805 4.98966 5.35475 5.01056 5.32823 5.0321C5.1422 5.18976 4.99224 5.36971 4.84374 5.5625C4.82247 5.58953 4.8012 5.61656 4.77928 5.64441C4.53029 5.9717 4.35593 6.31494 4.2246 6.70312C4.21157 6.74143 4.21157 6.74143 4.19828 6.7805C4.06961 7.18019 4.01358 7.57285 4.01756 7.99219C4.01767 8.01393 4.01778 8.03568 4.01788 8.05808C4.02038 8.41518 4.04875 8.75165 4.15624 9.09375C4.16378 9.11815 4.17132 9.14255 4.17909 9.16769C4.34967 9.70346 4.61102 10.162 4.96874 10.5937C5.00004 10.6322 5.00004 10.6322 5.03197 10.6715C5.18958 10.8577 5.36971 11.0076 5.56249 11.1562C5.58915 11.1775 5.61582 11.1988 5.6433 11.2207C6.46028 11.8488 7.51886 12.0789 8.52879 11.9601C9.30395 11.8567 9.99471 11.5276 10.5937 11.0312C10.6194 11.0104 10.6451 10.9895 10.6715 10.968C10.8577 10.8104 11.0077 10.6304 11.1562 10.4375C11.1775 10.4105 11.1988 10.3834 11.2207 10.3556C11.543 9.93195 11.7294 9.47729 11.875 8.96875C11.8863 8.92911 11.8977 8.88947 11.9094 8.84863C12.1378 7.86689 11.934 6.78577 11.4183 5.92871C11.3023 5.74399 11.1707 5.57373 11.0312 5.40625C10.9965 5.36431 10.9965 5.36431 10.961 5.32153C10.301 4.55676 9.30694 4.09683 8.30754 4.0128C7.23692 3.9378 6.22913 4.29331 5.40624 4.96875Z" fill="#FDFDFD"/>
<path d="M9.16221 5.4121C9.48331 5.70596 9.66382 6.13749 9.69456 6.56567C9.70711 7.02302 9.57314 7.44112 9.27354 7.79101C9.11335 7.95899 8.93223 8.08349 8.73472 8.20361C8.55403 8.31617 8.45371 8.41168 8.38814 8.62049C8.3721 8.70291 8.37055 8.78114 8.36961 8.86511C8.36886 8.89925 8.36811 8.93339 8.36735 8.96856C8.36601 9.04017 8.36503 9.11179 8.36442 9.1834C8.35777 9.44558 8.35777 9.44558 8.28367 9.56884C8.18844 9.65134 8.1297 9.68282 8.004 9.69921C7.87995 9.68433 7.81587 9.63967 7.71885 9.56249C7.62016 9.41446 7.64473 9.25597 7.64477 9.08173C7.64463 9.01877 7.64348 8.95582 7.64231 8.89288C7.64106 8.47272 7.7393 8.11844 8.03135 7.80871C8.15398 7.69286 8.27556 7.60774 8.42588 7.53124C8.65716 7.41124 8.81956 7.23341 8.91697 6.99011C8.97908 6.7376 8.97903 6.45079 8.85386 6.21838C8.70026 5.98708 8.52243 5.81666 8.25266 5.73095C7.98616 5.68095 7.73573 5.70847 7.5001 5.84374C7.28456 5.99775 7.1301 6.17713 7.0626 6.43749C7.05332 6.50062 7.04422 6.56378 7.03525 6.62695C7.01242 6.773 6.98837 6.86609 6.8751 6.96874C6.75894 7.02682 6.62657 7.01809 6.5001 6.99999C6.39553 6.92103 6.35386 6.87377 6.3126 6.74999C6.28312 6.29312 6.44042 5.87312 6.72861 5.51953C7.39705 4.81396 8.42844 4.8234 9.16221 5.4121Z" fill="#FDFDFD"/>
<path d="M8.18759 10.3437C8.27915 10.4203 8.33242 10.4744 8.35642 10.5937C8.36302 10.7331 8.34239 10.8333 8.25009 10.9375C8.12842 11.0114 8.03958 11.0429 7.90048 11.0156C7.77804 10.9759 7.71633 10.93 7.65634 10.8125C7.6329 10.6915 7.62821 10.5829 7.68833 10.4725C7.82852 10.2962 7.98166 10.286 8.18759 10.3437Z" fill="#FDFDFD"/>
</g>
<defs>
<clipPath id="clip0_55_966">
<rect width="16" height="16" fill="white"/>
</clipPath>
</defs>
</svg>
