<svg width="24" height="24" viewBox="0 0 24 24" fill="none" xmlns="http://www.w3.org/2000/svg">
<g clip-path="url(#clip0_11_501)">
<path d="M2.73915 -0.0187207C2.78192 -0.0192897 2.82469 -0.0198588 2.86876 -0.0204451C2.93934 -0.0203103 2.93934 -0.0203103 3.01135 -0.0201728C3.0613 -0.0206237 3.11124 -0.0210746 3.16269 -0.0215391C3.33088 -0.0228737 3.49906 -0.0231928 3.66726 -0.0235109C3.78752 -0.0242382 3.90777 -0.0250208 4.02803 -0.0258548C4.38956 -0.0281173 4.75108 -0.029176 5.11262 -0.030051C5.28293 -0.0304981 5.45324 -0.031105 5.62355 -0.0317023C6.18985 -0.033643 6.75615 -0.0352878 7.32245 -0.0359444C7.37683 -0.0360084 7.37683 -0.0360084 7.4323 -0.0360737C7.46864 -0.0361164 7.50498 -0.036159 7.54242 -0.036203C7.61606 -0.03629 7.68969 -0.0363775 7.76333 -0.0364656C7.79986 -0.036509 7.83638 -0.0365525 7.87402 -0.0365972C8.46539 -0.0373559 9.05674 -0.0401785 9.6481 -0.0438859C10.2555 -0.0476626 10.8628 -0.0496721 11.4702 -0.049931C11.8111 -0.0501182 12.152 -0.0510634 12.4929 -0.0539669C12.8138 -0.0566913 13.1345 -0.057004 13.4554 -0.0556994C13.5731 -0.055604 13.6907 -0.056308 13.8084 -0.0578778C14.7432 -0.0696334 14.7432 -0.0696334 14.9833 0.101217C15.102 0.217786 15.191 0.329568 15.2814 0.468642C15.3366 0.533364 15.3926 0.597487 15.4498 0.660537C15.4885 0.705674 15.4885 0.705674 15.528 0.751723C15.6799 0.923055 15.8446 1.08172 16.0079 1.24208C16.2314 1.46161 16.4462 1.68363 16.6505 1.92113C16.8035 2.09309 16.9688 2.25276 17.1329 2.41395C17.357 2.63403 17.5724 2.85658 17.7772 3.0947C17.9203 3.25594 18.0747 3.40568 18.2286 3.55653C18.2911 3.61783 18.3535 3.67922 18.4158 3.74074C18.4429 3.76732 18.47 3.7939 18.4979 3.82128C18.6084 3.93959 18.6153 4.022 18.6152 4.17882C18.6153 4.21983 18.6154 4.26083 18.6155 4.30308C18.6154 4.34841 18.6153 4.39373 18.6151 4.44043C18.6152 4.51233 18.6152 4.51233 18.6152 4.58569C18.6153 4.74734 18.6151 4.909 18.6148 5.07065C18.6148 5.18612 18.6148 5.30159 18.6148 5.41706C18.6148 5.66619 18.6147 5.91532 18.6144 6.16444C18.6141 6.52465 18.6139 6.88485 18.6139 7.24505C18.6138 7.82941 18.6135 8.41377 18.613 8.99813C18.6126 9.56588 18.6123 10.1336 18.6121 10.7014C18.612 10.7538 18.612 10.7538 18.612 10.8074C18.612 10.9829 18.6119 11.1583 18.6118 11.3338C18.6114 12.7902 18.6105 14.2466 18.6095 15.703C18.6575 15.717 18.6575 15.717 18.7065 15.7314C18.7486 15.7438 18.7906 15.7562 18.834 15.769C18.8757 15.7813 18.9174 15.7935 18.9603 15.8061C19.8701 16.0954 20.633 16.8638 21.0939 17.6718C21.1255 17.7263 21.1255 17.7263 21.1578 17.782C21.6494 18.6922 21.7764 19.857 21.5146 20.8565C21.136 22.0422 20.4295 23.0003 19.3145 23.5788C18.3124 24.076 17.1192 24.1896 16.0456 23.8411C15.5115 23.6486 15.051 23.3935 14.6251 23.0155C14.5937 22.9907 14.5623 22.966 14.5299 22.9404C14.171 22.6513 13.8599 22.2479 13.6407 21.8436C13.6407 21.8127 13.6407 21.7818 13.6407 21.7499C13.5836 21.75 13.5265 21.7502 13.4676 21.7503C12.1125 21.7533 10.7573 21.7556 9.4021 21.7571C9.23541 21.7572 9.06871 21.7574 8.90202 21.7576C8.86883 21.7577 8.83564 21.7577 8.80145 21.7577C8.26366 21.7583 7.72587 21.7595 7.18809 21.7607C6.63651 21.7621 6.08495 21.7628 5.53337 21.7631C5.22346 21.7633 4.91355 21.7637 4.60363 21.7648C4.31219 21.7657 4.02076 21.766 3.72931 21.7658C3.62211 21.7658 3.51491 21.7661 3.40771 21.7667C3.2618 21.7674 3.11593 21.7672 2.97002 21.7668C2.9272 21.7672 2.88439 21.7676 2.84027 21.768C2.78181 21.7676 2.78181 21.7676 2.72216 21.7672C2.68846 21.7672 2.65477 21.7673 2.62005 21.7674C2.53135 21.7499 2.53135 21.7499 2.45022 21.7005C2.35899 21.5606 2.37147 21.4187 2.37303 21.2571C2.37283 21.2207 2.37262 21.1843 2.37241 21.1469C2.3719 21.024 2.37239 20.9011 2.37287 20.7783C2.37271 20.6897 2.37249 20.6011 2.37221 20.5125C2.37162 20.2683 2.37191 20.0242 2.37235 19.78C2.37266 19.5169 2.37217 19.2539 2.37179 18.9909C2.37116 18.4752 2.3713 17.9596 2.3717 17.444C2.37202 17.0251 2.37206 16.6063 2.37191 16.1874C2.37189 16.1278 2.37187 16.0683 2.37185 16.007C2.3718 15.8861 2.37176 15.7652 2.37171 15.6443C2.37132 14.5418 2.37172 13.4393 2.37246 12.3369C2.37313 11.3299 2.37307 10.3229 2.3724 9.31584C2.37164 8.18517 2.37135 7.0545 2.37178 5.92383C2.37182 5.80336 2.37187 5.68289 2.37191 5.56242C2.37194 5.4735 2.37194 5.4735 2.37198 5.38278C2.3721 4.96419 2.37189 4.5456 2.37156 4.12701C2.37117 3.61718 2.37127 3.10736 2.37202 2.59753C2.37239 2.3372 2.37254 2.07687 2.37207 1.81654C2.37166 1.57853 2.37188 1.34052 2.37263 1.1025C2.37279 1.01611 2.37271 0.929708 2.37237 0.843311C2.37195 0.726433 2.37238 0.609589 2.37303 0.492714C2.3727 0.45868 2.37237 0.424646 2.37204 0.389581C2.37354 0.257144 2.37666 0.162464 2.44916 0.0493558C2.55272 -0.0129641 2.61839 -0.0180656 2.73915 -0.0187207ZM3.0001 0.609267C3.0001 7.38458 3.0001 14.1599 3.0001 21.1405C6.4187 21.1405 9.83729 21.1405 13.3595 21.1405C13.3131 20.9394 13.2667 20.7383 13.2189 20.5311C13.1284 19.9437 13.1542 19.3964 13.2666 18.8162C13.2755 18.769 13.2844 18.7218 13.2935 18.6731C13.3152 18.558 13.3372 18.443 13.3595 18.328C13.3173 18.3279 13.2752 18.3277 13.2318 18.3275C12.2072 18.3237 11.1827 18.3194 10.1581 18.3145C9.66264 18.3122 9.16718 18.31 8.67172 18.3082C8.23997 18.3067 7.80824 18.3048 7.3765 18.3026C7.1478 18.3014 6.91911 18.3004 6.69041 18.2997C6.4753 18.2991 6.26019 18.2981 6.04508 18.2967C5.966 18.2963 5.88692 18.296 5.80784 18.2959C5.70011 18.2958 5.59241 18.2951 5.48469 18.2942C5.39414 18.2938 5.39414 18.2938 5.30177 18.2934C5.15635 18.2811 5.15635 18.2811 5.01573 18.1874C4.96985 18.0533 4.95848 17.9817 5.00694 17.8475C5.0626 17.7655 5.0626 17.7655 5.15635 17.7186C5.26781 17.7146 5.37786 17.7134 5.4893 17.7144C5.52399 17.7145 5.55867 17.7146 5.59441 17.7147C5.71125 17.7151 5.82809 17.7158 5.94493 17.7165C6.02846 17.7168 6.112 17.7171 6.19553 17.7173C6.32918 17.7178 6.46282 17.7182 6.59647 17.7188C6.92806 17.7201 7.25965 17.7207 7.59124 17.7207C7.63931 17.7207 7.68738 17.7207 7.73691 17.7207C7.93529 17.7208 8.13367 17.7207 8.33206 17.7207C8.89573 17.7208 9.45939 17.7215 10.0231 17.7246C10.4705 17.727 10.9179 17.7278 11.3654 17.7266C11.6022 17.726 11.839 17.7263 12.0758 17.7286C12.2987 17.7307 12.5216 17.7306 12.7445 17.7289C12.8262 17.7287 12.9079 17.7292 12.9896 17.7306C13.4282 17.7514 13.4282 17.7514 13.8069 17.5684C13.8907 17.4498 13.9538 17.334 14.0157 17.203C14.2362 16.9317 14.4763 16.689 14.7454 16.466C14.7676 16.4463 14.7898 16.4265 14.8126 16.4061C14.8126 16.3907 14.8126 16.3752 14.8126 16.3593C14.7382 16.359 14.7382 16.359 14.6622 16.3588C13.4557 16.355 12.2493 16.3507 11.0428 16.3458C10.4594 16.3434 9.87599 16.3413 9.29256 16.3395C8.78418 16.3379 8.27581 16.3361 7.76744 16.3338C7.49813 16.3326 7.22883 16.3316 6.95952 16.331C6.70624 16.3304 6.45297 16.3294 6.1997 16.328C6.10656 16.3276 6.01342 16.3273 5.92027 16.3272C5.79346 16.327 5.66666 16.3263 5.53985 16.3254C5.48411 16.3256 5.48411 16.3256 5.42724 16.3257C5.24937 16.3239 5.16742 16.3198 5.01573 16.2186C4.96985 16.0845 4.95848 16.013 5.00694 15.8788C5.0626 15.7968 5.0626 15.7968 5.15635 15.7499C5.29095 15.7452 5.42441 15.7434 5.55902 15.7436C5.6012 15.7435 5.64339 15.7434 5.68685 15.7433C5.82907 15.743 5.97128 15.743 6.11349 15.7431C6.21511 15.7429 6.31673 15.7428 6.41835 15.7426C6.69505 15.7422 6.97176 15.7421 7.24846 15.7421C7.47922 15.742 7.70999 15.7418 7.94075 15.7417C8.48516 15.7413 9.02957 15.7412 9.57398 15.7412C10.136 15.7412 10.6979 15.7407 11.2599 15.74C11.742 15.7394 12.224 15.7391 12.7061 15.7392C12.9942 15.7392 13.2823 15.739 13.5703 15.7385C13.8414 15.7381 14.1124 15.7381 14.3834 15.7384C14.4829 15.7385 14.5824 15.7384 14.6819 15.7381C14.8177 15.7377 14.9535 15.7379 15.0893 15.7383C15.1287 15.7381 15.1681 15.7378 15.2087 15.7376C15.4253 15.7388 15.5912 15.7689 15.797 15.8436C15.9304 15.8183 15.9304 15.8183 16.0607 15.7616C16.7057 15.5288 17.2339 15.5624 17.9532 15.5624C17.9532 11.8963 17.9532 8.2302 17.9532 4.45302C16.2362 4.42981 16.2362 4.42981 14.4845 4.40614C13.5885 3.51012 14.3132 1.87633 14.297 0.609267C10.569 0.609267 6.84104 0.609267 3.0001 0.609267ZM14.9064 1.12489C14.9064 2.00661 14.9064 2.88833 14.9064 3.79677C15.7726 3.79677 16.6389 3.79677 17.5314 3.79677C17.302 3.52792 17.302 3.52792 17.0599 3.27547C17.0263 3.24226 16.9927 3.20906 16.9581 3.17485C16.8893 3.10722 16.8205 3.03959 16.7516 2.97197C16.596 2.818 16.4439 2.66388 16.3018 2.49727C16.0817 2.24152 15.8411 2.00578 15.6022 1.7678C15.5206 1.68642 15.4392 1.6048 15.3579 1.52315C15.3062 1.47143 15.2544 1.41974 15.2026 1.36806C15.1783 1.3436 15.1539 1.31914 15.1288 1.29394C15.0338 1.17684 15.0338 1.17684 14.9064 1.12489ZM14.6562 17.3673C13.9475 18.2131 13.7122 19.1664 13.7814 20.2499C13.8634 20.9489 14.2003 21.6525 14.672 22.1718C14.7021 22.2061 14.7322 22.2405 14.7632 22.276C15.3948 22.9554 16.2811 23.3505 17.2041 23.4039C18.2395 23.439 19.1225 23.0668 19.8941 22.4028C20.5754 21.7557 20.9881 20.8213 21.0138 19.8845C21.0225 18.9653 20.7375 18.078 20.1095 17.3905C20.0743 17.3516 20.0391 17.3127 20.0029 17.2726C19.3499 16.5846 18.4816 16.1822 17.534 16.1529C16.3964 16.1391 15.4353 16.5321 14.6562 17.3673Z" fill="#FDFDFD"/>
<g clip-path="url(#clip1_11_501)">
<path d="M16.5014 17.9322C16.7051 17.9322 16.7987 18.0386 16.8424 18.1099C16.9062 18.2144 16.964 18.3834 16.964 18.6325V19.4412H17.1572L17.4816 19.8114H16.964V20.8585C16.964 20.9405 16.9911 21.0148 17.047 21.0821C17.1021 21.1486 17.1922 21.1818 17.3163 21.1818C17.4772 21.1818 17.6468 21.0821 17.827 20.8809C18.0106 20.6758 18.1076 20.4648 18.1164 20.249L18.0333 20.2568C17.7395 20.2568 17.5918 20.082 17.5918 19.7333C17.5918 19.6151 17.6259 19.5096 17.6949 19.4178C17.764 19.325 17.8786 19.2791 18.0394 19.2791C18.21 19.2791 18.3525 19.3611 18.467 19.5252C18.5868 19.6893 18.6463 19.8896 18.6463 20.1259C18.6463 20.4756 18.5134 20.8087 18.2467 21.1271C17.9844 21.4455 17.4833 21.6047 17.3085 21.6047C17.0287 21.6047 16.9211 21.5432 16.8302 21.4738C16.7384 21.4035 16.6194 21.2365 16.6194 21.0274V19.8114H16.2889L15.9707 19.4422H16.6186V18.7106C16.6186 18.5475 16.4726 18.4576 16.3772 18.4489C16.3703 18.4479 16.3624 18.4479 16.3554 18.4479C16.3038 18.4479 16.2522 18.4645 16.2321 18.4879C16.191 18.4108 16.1517 18.319 16.1149 18.2105C16.1149 18.2105 16.1473 18.0806 16.2531 18.0025C16.3265 17.9478 16.3947 17.9322 16.5014 17.9322ZM16.5014 17.7368C16.3939 17.7368 16.2784 17.7495 16.1569 17.8384C16.0021 17.9527 15.9523 18.1363 15.947 18.1568C15.9366 18.1969 15.9383 18.2398 15.9523 18.2789C15.9925 18.3971 16.0362 18.5006 16.0826 18.5876C16.1106 18.6393 16.1578 18.6735 16.2111 18.6813C16.2181 18.6823 16.2251 18.6833 16.233 18.6833C16.2697 18.6833 16.3055 18.6706 16.3353 18.6462C16.3405 18.6452 16.3475 18.6442 16.3554 18.6442H16.3624C16.386 18.6462 16.4437 18.6755 16.4437 18.7116V19.2478H15.9707C15.9007 19.2478 15.8378 19.2947 15.8098 19.366C15.7827 19.4383 15.7958 19.5213 15.8447 19.578L16.1621 19.9481C16.1954 19.9862 16.2408 20.0087 16.2881 20.0087H16.4437V21.0294C16.4437 21.1583 16.4769 21.2882 16.5399 21.4054C16.5906 21.4992 16.6579 21.5812 16.7305 21.6369C16.8599 21.7365 17.0077 21.803 17.3085 21.803C17.5314 21.803 18.0779 21.6223 18.3743 21.2628C18.6708 20.9093 18.8211 20.5274 18.8211 20.1288C18.8211 19.8485 18.7477 19.6053 18.6034 19.4061C18.5309 19.3025 18.4469 19.2234 18.3542 19.1697C18.258 19.114 18.1522 19.0867 18.0394 19.0867C17.8252 19.0867 17.6635 19.157 17.5603 19.2957C17.5122 19.3592 17.4763 19.4285 17.4527 19.5018L17.2822 19.3064C17.249 19.2693 17.2044 19.2478 17.1572 19.2478H17.1388V18.6344C17.1388 18.317 17.0566 18.1148 16.9876 18.0015C16.9141 17.8804 16.7707 17.7368 16.5014 17.7368ZM17.1388 20.0077H17.4484C17.4746 20.1083 17.5166 20.1933 17.5743 20.2617C17.6556 20.3584 17.764 20.4189 17.8969 20.4424C17.8576 20.542 17.7929 20.6436 17.7028 20.7442C17.5585 20.9054 17.4283 20.9874 17.3163 20.9874C17.2481 20.9874 17.1957 20.9737 17.1756 20.9503C17.1432 20.9112 17.1388 20.8809 17.1388 20.8595V20.0077Z" fill="#FDFDFD"/>
</g>
<path d="M5.56132 13.7279C5.60377 13.7277 5.64621 13.7276 5.68994 13.7274C5.83302 13.727 5.9761 13.727 6.11918 13.7269C6.22141 13.7267 6.32364 13.7264 6.42588 13.7262C6.70422 13.7256 6.98256 13.7253 7.26091 13.7251C7.43464 13.7249 7.60838 13.7247 7.78211 13.7245C8.35647 13.7238 8.93082 13.7234 9.50517 13.7232C9.53615 13.7232 9.56713 13.7232 9.59905 13.7232C9.63007 13.7232 9.66109 13.7232 9.69305 13.7231C10.1645 13.723 10.636 13.7223 11.1075 13.7213C11.6547 13.7201 12.2019 13.7194 12.749 13.7193C13.0388 13.7192 13.3286 13.719 13.6183 13.7181C13.8908 13.7174 14.1633 13.7173 14.4358 13.7177C14.5359 13.7177 14.6361 13.7175 14.7362 13.717C14.8727 13.7164 15.0091 13.7167 15.1455 13.7172C15.1854 13.7168 15.2253 13.7165 15.2664 13.7161C15.425 13.7174 15.5405 13.7222 15.6808 13.8001C15.7661 13.8925 15.7753 13.938 15.7734 14.0626C15.7742 14.1104 15.7742 14.1104 15.7749 14.1592C15.75 14.2501 15.75 14.2501 15.6807 14.3249C15.5076 14.4212 15.3391 14.4101 15.1462 14.4085C15.0824 14.4089 15.0824 14.4089 15.0173 14.4092C14.8745 14.4098 14.7317 14.4093 14.5889 14.4089C14.4867 14.4091 14.3844 14.4093 14.2822 14.4096C14.0042 14.4103 13.7263 14.41 13.4483 14.4096C13.1578 14.4092 12.8672 14.4095 12.5766 14.4098C12.0574 14.41 11.5381 14.4096 11.0188 14.4089C10.5479 14.4083 10.077 14.4084 9.60612 14.409C9.05938 14.4098 8.51264 14.4101 7.96589 14.4096C7.67644 14.4094 7.38699 14.4094 7.09754 14.4099C6.82544 14.4103 6.55336 14.41 6.28127 14.4092C6.18127 14.409 6.08127 14.409 5.98127 14.4093C5.84503 14.4097 5.70883 14.4092 5.5726 14.4085C5.51287 14.409 5.51287 14.409 5.45194 14.4095C5.29459 14.4079 5.17858 14.403 5.03922 14.3262C4.9429 14.2221 4.92525 14.1573 4.92188 14.0157C5.07255 13.7 5.23938 13.7275 5.56132 13.7279Z" fill="#FDFDFD"/>
<path d="M5.55923 11.7591C5.62256 11.7589 5.62256 11.7589 5.68716 11.7587C5.82949 11.7583 5.97181 11.7582 6.11413 11.7581C6.21583 11.7579 6.31752 11.7577 6.41922 11.7574C6.69611 11.7568 6.973 11.7565 7.2499 11.7563C7.42275 11.7562 7.59561 11.756 7.76847 11.7558C8.3089 11.7551 8.84934 11.7547 9.38977 11.7545C10.0144 11.7543 10.6389 11.7535 11.2635 11.7521C11.7458 11.7511 12.2281 11.7506 12.7104 11.7505C12.9986 11.7505 13.2869 11.7502 13.5752 11.7494C13.8463 11.7486 14.1174 11.7485 14.3886 11.7489C14.4882 11.749 14.5878 11.7488 14.6874 11.7483C14.8232 11.7477 14.959 11.748 15.0948 11.7485C15.1541 11.7479 15.1541 11.7479 15.2147 11.7473C15.431 11.7491 15.5748 11.7648 15.75 11.9063C15.7795 11.9971 15.7795 11.9971 15.7764 12.0938C15.7764 12.1257 15.7765 12.1576 15.7766 12.1905C15.737 12.3257 15.6859 12.3532 15.5625 12.4219C15.4205 12.4355 15.2882 12.4409 15.1462 12.4398C15.0824 12.4401 15.0824 12.4401 15.0173 12.4405C14.8745 12.441 14.7317 12.4406 14.5889 12.4401C14.4867 12.4403 14.3844 12.4406 14.2822 12.4409C14.0042 12.4415 13.7263 12.4413 13.4483 12.4408C13.1578 12.4405 12.8672 12.4408 12.5766 12.441C12.0574 12.4413 11.5381 12.4409 11.0188 12.4401C10.5479 12.4395 10.077 12.4396 9.60612 12.4403C9.05938 12.441 8.51264 12.4413 7.96589 12.4409C7.67644 12.4407 7.38699 12.4406 7.09754 12.4411C6.82544 12.4415 6.55336 12.4412 6.28127 12.4404C6.18127 12.4402 6.08127 12.4403 5.98127 12.4406C5.84503 12.441 5.70883 12.4405 5.5726 12.4398C5.51287 12.4403 5.51287 12.4403 5.45194 12.4407C5.29459 12.4392 5.17858 12.4342 5.03922 12.3575C4.9429 12.2534 4.92525 12.1885 4.92188 12.0469C5.07222 11.7319 5.23792 11.7588 5.55923 11.7591Z" fill="#FDFDFD"/>
<path d="M5.61028 7.82197C5.65238 7.82186 5.69448 7.82176 5.73785 7.82165C5.87949 7.82135 6.02113 7.82139 6.16277 7.82143C6.26409 7.82129 6.3654 7.82113 6.46672 7.82095C6.74235 7.82054 7.01797 7.82043 7.2936 7.8204C7.52345 7.82035 7.75329 7.82018 7.98313 7.82001C8.52523 7.81963 9.06732 7.81952 9.60941 7.81955C10.1692 7.81958 10.7291 7.81909 11.2889 7.81835C11.769 7.81773 12.2492 7.81748 12.7293 7.81751C13.0163 7.81752 13.3033 7.81739 13.5903 7.81689C13.8601 7.81644 14.1299 7.81643 14.3997 7.81678C14.4989 7.81683 14.5981 7.81671 14.6972 7.81643C14.8323 7.81607 14.9674 7.81629 15.1025 7.81665C15.1617 7.81629 15.1617 7.81629 15.2222 7.81592C15.5614 7.81794 15.5614 7.81794 15.7031 7.92199C15.7754 8.06652 15.7639 8.1849 15.75 8.34386C15.6336 8.47919 15.5557 8.48513 15.3766 8.50218C15.2991 8.50296 15.2216 8.50295 15.1441 8.50234C15.0799 8.50267 15.0799 8.50267 15.0145 8.50301C14.871 8.50357 14.7274 8.50313 14.5839 8.50268C14.4811 8.50287 14.3783 8.50312 14.2755 8.50343C13.9961 8.50407 13.7167 8.50382 13.4373 8.50338C13.1453 8.50302 12.8533 8.50335 12.5612 8.50357C12.0394 8.50384 11.5176 8.50341 10.9957 8.50269C10.5224 8.50206 10.0491 8.50217 9.57574 8.50282C9.02623 8.50357 8.47673 8.50385 7.92722 8.50344C7.63627 8.50322 7.34533 8.50319 7.05439 8.50365C6.78095 8.50406 6.50752 8.50378 6.23408 8.50297C6.13353 8.50278 6.03298 8.50283 5.93243 8.50314C5.79556 8.50353 5.65873 8.50305 5.52187 8.50234C5.48173 8.50266 5.4416 8.50297 5.40024 8.5033C5.12909 8.50058 5.12909 8.50058 5.03037 8.42003C4.94551 8.31514 4.92829 8.24412 4.92188 8.10949C4.98047 7.98058 4.98047 7.98058 5.0625 7.87511C5.24561 7.81408 5.41942 7.82162 5.61028 7.82197Z" fill="#FDFDFD"/>
<path d="M5.61028 9.79072C5.65238 9.79061 5.69448 9.79051 5.73785 9.7904C5.87949 9.7901 6.02113 9.79014 6.16277 9.79018C6.26409 9.79004 6.3654 9.78988 6.46672 9.7897C6.74235 9.78929 7.01797 9.78918 7.2936 9.78915C7.52345 9.7891 7.75329 9.78893 7.98313 9.78876C8.52523 9.78838 9.06732 9.78827 9.60941 9.7883C10.1692 9.78833 10.7291 9.78784 11.2889 9.7871C11.769 9.78648 12.2492 9.78623 12.7293 9.78626C13.0163 9.78627 13.3033 9.78614 13.5903 9.78564C13.8601 9.78519 14.1299 9.78518 14.3997 9.78553C14.4989 9.78558 14.5981 9.78546 14.6972 9.78518C14.8323 9.78482 14.9674 9.78504 15.1025 9.7854C15.1617 9.78504 15.1617 9.78504 15.2222 9.78467C15.5614 9.78669 15.5614 9.78669 15.7031 9.89074C15.7754 10.0353 15.7639 10.1536 15.75 10.3126C15.6337 10.4475 15.5562 10.4538 15.3774 10.4709C15.3003 10.4717 15.2232 10.4717 15.1462 10.4711C15.0824 10.4714 15.0824 10.4714 15.0173 10.4718C14.8745 10.4723 14.7317 10.4719 14.5889 10.4714C14.4867 10.4716 14.3844 10.4719 14.2822 10.4722C14.0042 10.4728 13.7263 10.4726 13.4483 10.4721C13.1578 10.4718 12.8672 10.4721 12.5766 10.4723C12.0574 10.4726 11.5381 10.4722 11.0188 10.4714C10.5479 10.4708 10.077 10.4709 9.60612 10.4716C9.05938 10.4723 8.51264 10.4726 7.96589 10.4722C7.67644 10.472 7.38699 10.4719 7.09754 10.4724C6.82544 10.4728 6.55336 10.4725 6.28127 10.4717C6.18127 10.4715 6.08127 10.4716 5.98127 10.4719C5.84503 10.4723 5.70883 10.4718 5.5726 10.4711C5.51287 10.4716 5.51287 10.4716 5.45194 10.472C5.29459 10.4705 5.17858 10.4655 5.03922 10.3888C4.9429 10.2847 4.92525 10.2198 4.92188 10.0782C4.98047 9.94933 4.98047 9.94933 5.0625 9.84386C5.24561 9.78283 5.41942 9.79037 5.61028 9.79072Z" fill="#FDFDFD"/>
<path d="M5.42316 5.85274C5.49098 5.85234 5.49098 5.85234 5.56017 5.85193C5.63447 5.85185 5.63447 5.85185 5.71027 5.85177C5.76249 5.85154 5.81471 5.85131 5.86851 5.85107C6.04163 5.85038 6.21475 5.85006 6.38787 5.8498C6.50797 5.84953 6.62806 5.84926 6.74816 5.84899C6.9679 5.84856 7.18764 5.84827 7.40739 5.84813C7.73066 5.84792 8.05393 5.84709 8.3772 5.84574C8.65734 5.8446 8.93748 5.84424 9.21762 5.84416C9.33675 5.84402 9.45587 5.84364 9.575 5.84302C9.74153 5.84223 9.90805 5.84231 10.0746 5.84262C10.1239 5.84219 10.1733 5.84175 10.2241 5.84131C10.6479 5.84374 10.6479 5.84374 10.8282 5.99995C10.856 6.09077 10.856 6.09077 10.8516 6.18745C10.8511 6.21936 10.8506 6.25126 10.8502 6.28413C10.8216 6.40204 10.7824 6.44058 10.6876 6.51558C10.5835 6.53327 10.5835 6.53327 10.4598 6.53343C10.3894 6.53403 10.3894 6.53403 10.3176 6.53463C10.2405 6.53421 10.2405 6.53421 10.1618 6.53377C10.0805 6.53414 10.0805 6.53414 9.99752 6.53452C9.81786 6.53514 9.63821 6.53473 9.45855 6.53425C9.33402 6.53435 9.2095 6.53448 9.08497 6.53466C8.82379 6.53492 8.56262 6.53458 8.30144 6.53391C7.9994 6.53314 7.69739 6.53339 7.39535 6.53417C7.13612 6.5348 6.87688 6.53489 6.61764 6.53453C6.46277 6.53431 6.30791 6.53433 6.15304 6.53474C5.98042 6.5351 5.80783 6.53456 5.63522 6.53377C5.55807 6.5342 5.55807 6.5342 5.47936 6.53463C5.43243 6.53424 5.38551 6.53384 5.33716 6.53343C5.29634 6.53338 5.25551 6.53333 5.21345 6.53327C5.08657 6.51169 5.04642 6.47575 4.9688 6.37495C4.91199 6.22075 4.91181 6.16284 4.98052 6.01167C5.10629 5.84997 5.23056 5.85343 5.42316 5.85274Z" fill="#FDFDFD"/>
</g>
<defs>
<clipPath id="clip0_11_501">
<rect width="24" height="24" fill="white"/>
</clipPath>
<clipPath id="clip1_11_501">
<rect width="3.17109" height="4.37578" fill="white" transform="translate(15.7959 17.582)"/>
</clipPath>
</defs>
</svg>
