<svg width="16" height="16" viewBox="0 0 16 16" fill="none" xmlns="http://www.w3.org/2000/svg">
<path d="M9.11673 0.611085C9.38402 0.900067 9.47989 1.24391 9.47806 1.63233C9.46545 1.7483 9.43626 1.85605 9.40616 1.96875C9.44704 1.96777 9.44704 1.96777 9.48875 1.96677C9.59073 1.96463 9.69269 1.96306 9.79469 1.96188C9.83867 1.96126 9.88264 1.96041 9.92662 1.95932C10.3989 1.94794 10.3989 1.94794 10.5624 2.09375C10.6767 2.28987 10.7272 2.48206 10.7733 2.70313C10.7802 2.73479 10.7871 2.76645 10.7942 2.79907C10.811 2.87641 10.8275 2.95379 10.8437 3.03125C10.8887 3.03142 10.8887 3.03142 10.9347 3.0316C11.2184 3.03275 11.5021 3.03456 11.7858 3.037C11.9316 3.03823 12.0774 3.03924 12.2232 3.03972C12.3641 3.04019 12.5049 3.04127 12.6457 3.04276C12.6993 3.04322 12.753 3.04347 12.8066 3.0435C12.882 3.04357 12.9572 3.04442 13.0326 3.04544C13.0546 3.04528 13.0766 3.04513 13.0993 3.04497C13.2695 3.04852 13.3652 3.08869 13.4999 3.1875C13.5841 3.32425 13.6054 3.42702 13.6055 3.58642C13.6056 3.607 13.6057 3.62758 13.6059 3.64878C13.6062 3.71767 13.6059 3.78653 13.6056 3.85541C13.6057 3.90533 13.6058 3.95524 13.606 4.00515C13.6064 4.14225 13.6062 4.27935 13.6059 4.41646C13.6057 4.56434 13.606 4.71222 13.6063 4.8601C13.6067 5.14977 13.6066 5.43945 13.6063 5.72913C13.6061 5.96452 13.6061 6.19992 13.6062 6.43532C13.6062 6.4688 13.6062 6.50229 13.6062 6.53679C13.6063 6.60481 13.6063 6.67283 13.6063 6.74085C13.6066 7.37889 13.6063 8.01694 13.6058 8.65498C13.6054 9.20262 13.6055 9.75026 13.6059 10.2979C13.6064 10.9336 13.6066 11.5694 13.6063 12.2051C13.6063 12.2729 13.6062 12.3407 13.6062 12.4084C13.6062 12.4418 13.6062 12.4751 13.6062 12.5095C13.6061 12.7446 13.6062 12.9798 13.6064 13.2149C13.6067 13.5015 13.6066 13.788 13.6061 14.0745C13.6059 14.2207 13.6058 14.3669 13.6061 14.5132C13.6064 14.647 13.6062 14.7808 13.6057 14.9146C13.6056 14.963 13.6057 15.0115 13.6059 15.0599C13.6062 15.1258 13.6059 15.1915 13.6055 15.2573C13.6054 15.3122 13.6054 15.3122 13.6054 15.3681C13.592 15.4832 13.56 15.5576 13.4999 15.6563C13.3353 15.7859 13.2163 15.8164 13.0111 15.8165C12.975 15.8166 12.9388 15.8167 12.9016 15.8168C12.8618 15.8168 12.8221 15.8167 12.7812 15.8167C12.7385 15.8167 12.6959 15.8168 12.6533 15.8169C12.5361 15.8171 12.4188 15.8171 12.3016 15.817C12.1752 15.817 12.0488 15.8172 11.9225 15.8174C11.6748 15.8176 11.4271 15.8177 11.1795 15.8177C10.9782 15.8177 10.7769 15.8178 10.5756 15.8179C10.005 15.8182 9.43446 15.8183 8.86391 15.8183C8.81776 15.8183 8.81776 15.8183 8.77067 15.8183C8.72446 15.8183 8.72446 15.8183 8.67732 15.8183C8.17804 15.8183 7.67875 15.8186 7.17947 15.819C6.66697 15.8195 6.15447 15.8197 5.64197 15.8197C5.35418 15.8196 5.06638 15.8197 4.77859 15.8201C4.53355 15.8203 4.28852 15.8204 4.04348 15.8202C3.91846 15.8201 3.79343 15.8201 3.66841 15.8204C3.55392 15.8206 3.43944 15.8206 3.32496 15.8203C3.26399 15.8202 3.20301 15.8205 3.14204 15.8207C2.70854 15.819 2.70854 15.819 2.57047 15.7051C2.46152 15.5548 2.4335 15.4882 2.43322 15.303C2.43314 15.2824 2.43307 15.2619 2.43299 15.2407C2.43278 15.1712 2.4328 15.1017 2.43281 15.0322C2.43271 14.9822 2.43259 14.9321 2.43246 14.8821C2.43215 14.744 2.43203 14.6059 2.43195 14.4678C2.43183 14.319 2.43153 14.1703 2.43126 14.0216C2.43064 13.6621 2.43032 13.3027 2.43005 12.9432C2.42991 12.7741 2.42974 12.6049 2.42958 12.4358C2.42905 11.8737 2.42859 11.3117 2.42837 10.7496C2.42831 10.6037 2.42825 10.4578 2.42819 10.3119C2.42817 10.2756 2.42816 10.2393 2.42814 10.202C2.42788 9.61415 2.42709 9.02633 2.42607 8.43851C2.42504 7.83544 2.42448 7.23236 2.42438 6.62928C2.42431 6.2905 2.42404 5.95173 2.42324 5.61295C2.42256 5.32449 2.42231 5.03603 2.42261 4.74756C2.42276 4.60032 2.42269 4.45309 2.42209 4.30586C2.42154 4.17111 2.42157 4.03638 2.42206 3.90163C2.42213 3.85284 2.42199 3.80405 2.42162 3.75526C2.42115 3.68899 2.42145 3.62277 2.42194 3.5565C2.42191 3.51967 2.42188 3.48285 2.42185 3.44491C2.44505 3.29406 2.5157 3.19534 2.63164 3.09832C2.74992 3.04963 2.86021 3.05015 2.98597 3.05186C3.01251 3.05184 3.03905 3.05183 3.0664 3.05182C3.15382 3.05188 3.24123 3.05261 3.32865 3.05335C3.38938 3.05352 3.45011 3.05365 3.51084 3.05375C3.67046 3.05411 3.83008 3.05503 3.9897 3.05606C4.15267 3.05702 4.31564 3.05745 4.47861 3.05792C4.79821 3.05893 5.11781 3.06053 5.43741 3.0625C5.43939 3.04378 5.44137 3.02505 5.44341 3.00576C5.4461 2.98088 5.44878 2.95601 5.45155 2.93038C5.45548 2.89359 5.45548 2.89359 5.4595 2.85605C5.49646 2.55425 5.5384 2.23437 5.78116 2.03125C5.90561 1.96891 6.01259 1.95947 6.15091 1.95581C6.1913 1.9546 6.23168 1.95339 6.27329 1.95215C6.31563 1.95117 6.35796 1.95019 6.4003 1.94922C6.44325 1.94803 6.4862 1.94681 6.52915 1.94556C6.63398 1.94262 6.73881 1.93994 6.84366 1.9375C6.83913 1.91242 6.83459 1.88735 6.82992 1.86151C6.82119 1.81163 6.82119 1.81163 6.81229 1.76074C6.80647 1.72793 6.80064 1.69512 6.79464 1.66132C6.74606 1.30518 6.86191 0.978174 7.07218 0.691407C7.29564 0.425744 7.60127 0.245582 7.94718 0.189454C8.41318 0.161494 8.78216 0.292792 9.11673 0.611085ZM7.81241 1.21875C7.73294 1.30738 7.69162 1.38822 7.68143 1.50757C7.69144 1.68783 7.74534 1.78271 7.87491 1.90625C7.96991 1.97832 8.06848 1.98174 8.18656 1.97888C8.32546 1.95667 8.4432 1.85648 8.53116 1.75C8.56997 1.63356 8.57913 1.5272 8.56241 1.40625C8.49907 1.28635 8.43426 1.18757 8.31241 1.125C8.11706 1.07255 7.96642 1.08066 7.81241 1.21875ZM6.37491 2.875C6.2821 3.2875 6.18929 3.7 6.09366 4.125C7.43429 4.125 8.77491 4.125 10.1562 4.125C10.0724 3.70621 9.97849 3.28933 9.87491 2.875C8.71991 2.875 7.56491 2.875 6.37491 2.875ZM3.31241 3.9375C3.31241 7.55719 3.31241 11.1769 3.31241 14.9063C6.40616 14.9063 9.49991 14.9063 12.6874 14.9063C12.6874 11.2866 12.6874 7.66688 12.6874 3.9375C12.1408 3.9375 11.5943 3.9375 11.0312 3.9375C11.093 4.26234 11.093 4.26234 11.1562 4.59375C11.0624 4.875 11.0624 4.875 10.9999 4.9375C10.8718 5.00158 10.7688 5.00406 10.627 5.00439C10.6048 5.00448 10.5827 5.00458 10.5598 5.00467C10.4853 5.00494 10.4108 5.00499 10.3364 5.00504C10.283 5.00518 10.2297 5.00534 10.1764 5.00551C10.0313 5.00592 9.88633 5.00612 9.74131 5.00626C9.65074 5.00635 9.56018 5.00648 9.46961 5.00662C9.18634 5.00704 8.90307 5.00735 8.6198 5.00747C8.29263 5.00761 7.96546 5.00816 7.63828 5.00906C7.38549 5.00974 7.13271 5.01005 6.87992 5.01009C6.72888 5.01013 6.57785 5.01031 6.42682 5.01087C6.28477 5.01138 6.14273 5.01145 6.00068 5.01118C5.94854 5.01115 5.89639 5.01129 5.84425 5.0116C5.77308 5.01199 5.70192 5.01181 5.63075 5.01149C5.59092 5.01153 5.55108 5.01158 5.51004 5.01162C5.39841 4.99913 5.34165 4.96853 5.24991 4.90625C5.22929 4.90625 5.20866 4.90625 5.18741 4.90625C5.07544 4.63333 5.12714 4.39753 5.19815 4.11939C5.2222 4.03111 5.2222 4.03111 5.21866 3.9375C4.5896 3.9375 3.96054 3.9375 3.31241 3.9375Z" fill="#FDFDFD"/>
<path d="M5.12583 8.33936C5.15131 8.33926 5.17678 8.33917 5.20303 8.33907C5.2885 8.3388 5.37398 8.33876 5.45945 8.33871C5.52069 8.33856 5.58193 8.33841 5.64317 8.33824C5.80962 8.33783 5.97607 8.33763 6.14253 8.33749C6.24651 8.3374 6.3505 8.33727 6.45448 8.33713C6.7798 8.3367 7.10511 8.3364 7.43043 8.33628C7.80601 8.33614 8.18159 8.33559 8.55718 8.33469C8.84747 8.33401 9.13775 8.33369 9.42805 8.33365C9.60144 8.33362 9.77483 8.33343 9.94822 8.33288C10.1113 8.33236 10.2744 8.33229 10.4375 8.33257C10.4974 8.33259 10.5572 8.33246 10.617 8.33215C10.6988 8.33175 10.7805 8.33193 10.8623 8.33226C10.8977 8.33188 10.8977 8.33188 10.9338 8.3315C11.0955 8.333 11.2028 8.36379 11.3438 8.43749C11.4516 8.55106 11.4959 8.63364 11.5078 8.79101C11.4965 8.95742 11.4505 9.05285 11.3281 9.16601C11.1905 9.25892 11.0667 9.25456 10.9066 9.25438C10.8809 9.25448 10.8551 9.25457 10.8286 9.25466C10.7421 9.25494 10.6556 9.25498 10.5691 9.25503C10.5072 9.25517 10.4453 9.25533 10.3834 9.2555C10.215 9.25591 10.0466 9.25611 9.87824 9.25625C9.77308 9.25634 9.66792 9.25647 9.56276 9.25661C9.23385 9.25704 8.90495 9.25734 8.57604 9.25746C8.19614 9.2576 7.81625 9.25815 7.43635 9.25905C7.14285 9.25973 6.84935 9.26004 6.55585 9.26009C6.38048 9.26012 6.20512 9.2603 6.02976 9.26086C5.8648 9.26138 5.69986 9.26144 5.5349 9.26117C5.47436 9.26115 5.41381 9.26128 5.35327 9.26159C5.27061 9.26199 5.18797 9.2618 5.10531 9.26148C5.08136 9.26173 5.05741 9.26198 5.03273 9.26224C4.88395 9.26087 4.78259 9.23496 4.65625 9.15624C4.54988 9.04125 4.50409 8.96045 4.49219 8.80273C4.50341 8.63713 4.5497 8.54178 4.66992 8.42773C4.8155 8.33186 4.95554 8.33916 5.12583 8.33936Z" fill="#FDFDFD"/>
<path d="M5.1545 6.15186C5.1797 6.15176 5.2049 6.15167 5.23086 6.15157C5.31539 6.1513 5.39993 6.15126 5.48447 6.15121C5.54504 6.15106 5.60561 6.15091 5.66618 6.15074C5.83083 6.15033 5.99548 6.15013 6.16013 6.14999C6.263 6.1499 6.36588 6.14977 6.46875 6.14963C6.79065 6.1492 7.11254 6.1489 7.43444 6.14878C7.80597 6.14864 8.1775 6.14809 8.54903 6.14719C8.83625 6.14651 9.12346 6.14619 9.41067 6.14615C9.58219 6.14612 9.75372 6.14594 9.92524 6.14538C10.0866 6.14486 10.248 6.14479 10.4094 6.14507C10.4686 6.14509 10.5277 6.14496 10.5869 6.14465C10.6678 6.14425 10.7487 6.14443 10.8296 6.14476C10.8529 6.14451 10.8761 6.14426 10.9001 6.144C11.0665 6.14556 11.1916 6.18143 11.3438 6.24999C11.4531 6.36218 11.496 6.44642 11.5078 6.60351C11.4965 6.77075 11.4506 6.86623 11.3262 6.97851C11.1948 7.06944 11.095 7.06713 10.9392 7.06709C10.9003 7.06727 10.9003 7.06727 10.8606 7.06744C10.7731 7.06779 10.6856 7.06791 10.5982 7.06803C10.5357 7.06822 10.4732 7.06843 10.4106 7.06865C10.2404 7.06919 10.0702 7.06952 9.90004 7.06978C9.79376 7.06994 9.68749 7.07013 9.58121 7.07033C9.24887 7.07092 8.91653 7.07137 8.58419 7.07163C8.20023 7.07193 7.81629 7.07276 7.43234 7.07402C7.13579 7.07496 6.83924 7.07542 6.54268 7.07553C6.36547 7.0756 6.18825 7.07588 6.01104 7.07667C5.84431 7.07739 5.6776 7.07753 5.51087 7.0772C5.44967 7.07719 5.38848 7.07739 5.32728 7.07782C5.24372 7.07837 5.1602 7.07815 5.07665 7.07774C5.05243 7.07808 5.02821 7.07842 5.00326 7.07878C4.84127 7.07685 4.75017 7.0391 4.625 6.93749C4.53514 6.83523 4.50338 6.75395 4.49023 6.61718C4.50278 6.46665 4.53754 6.40416 4.625 6.28124C4.79312 6.15515 4.95019 6.15162 5.1545 6.15186Z" fill="#FDFDFD"/>
<path d="M5.04323 12.6754C5.08266 12.6751 5.08266 12.6751 5.1229 12.6749C5.21094 12.6744 5.29897 12.6747 5.38702 12.6749C5.45016 12.6747 5.5133 12.6745 5.57644 12.6742C5.74793 12.6737 5.91941 12.6737 6.0909 12.6739C6.23403 12.674 6.37716 12.6738 6.52029 12.6736C6.85792 12.6732 7.19556 12.6732 7.5332 12.6736C7.8816 12.6739 8.23 12.6735 8.5784 12.6726C8.87748 12.672 9.17655 12.6717 9.47562 12.6719C9.65427 12.672 9.83292 12.672 10.0116 12.6714C10.1795 12.6709 10.3475 12.6711 10.5155 12.6716C10.5772 12.6718 10.6388 12.6717 10.7005 12.6713C10.7846 12.6709 10.8688 12.6713 10.9529 12.6718C10.9773 12.6715 11.0017 12.6712 11.0268 12.6709C11.1891 12.6731 11.2817 12.7093 11.4063 12.8125C11.5006 12.9507 11.5287 13.0854 11.5001 13.25C11.4441 13.4011 11.3656 13.495 11.2188 13.5625C11.1291 13.5714 11.0463 13.5752 10.9567 13.5744C10.9172 13.5746 10.9172 13.5746 10.8769 13.5748C10.7888 13.5752 10.7007 13.5749 10.6126 13.5746C10.5494 13.5748 10.4862 13.5749 10.423 13.5751C10.2514 13.5756 10.0798 13.5754 9.9082 13.5751C9.72868 13.5749 9.54916 13.5751 9.36964 13.5752C9.06817 13.5754 8.76669 13.5752 8.46521 13.5747C8.11656 13.5742 7.76791 13.5744 7.41926 13.5749C7.12002 13.5753 6.82079 13.5754 6.52156 13.5751C6.34279 13.575 6.16402 13.575 5.98525 13.5753C5.8172 13.5755 5.64914 13.5754 5.48108 13.5748C5.41937 13.5747 5.35765 13.5747 5.29594 13.5749C5.21177 13.5752 5.12761 13.5749 5.04344 13.5744C5.01896 13.5746 4.99447 13.5748 4.96924 13.575C4.82801 13.5735 4.73675 13.557 4.62506 13.4688C4.52715 13.3338 4.47852 13.2301 4.48798 13.0621C4.51493 12.9236 4.57948 12.8173 4.69133 12.7289C4.80922 12.6747 4.91602 12.6744 5.04323 12.6754Z" fill="#FDFDFD"/>
<path d="M7.73842 10.4956C7.76737 10.4954 7.79632 10.4953 7.82615 10.4951C7.85769 10.495 7.88924 10.495 7.92174 10.495C7.95514 10.4948 7.98853 10.4947 8.02295 10.4945C8.13353 10.494 8.24411 10.4938 8.3547 10.4937C8.43161 10.4935 8.50853 10.4933 8.58545 10.4931C8.74683 10.4928 8.9082 10.4926 9.06958 10.4925C9.27603 10.4923 9.48246 10.4916 9.68891 10.4907C9.84786 10.4901 10.0068 10.4899 10.1658 10.4899C10.2419 10.4898 10.3179 10.4895 10.394 10.4891C10.5007 10.4886 10.6073 10.4887 10.714 10.4889C10.7452 10.4886 10.7764 10.4883 10.8086 10.488C11.0341 10.4893 11.256 10.5062 11.4217 10.6719C11.5017 10.8052 11.5103 10.9088 11.4998 11.0625C11.4377 11.2293 11.3465 11.3267 11.1873 11.4063C11.1387 11.4094 11.09 11.4106 11.0413 11.4109C11.0105 11.4111 10.9797 11.4113 10.948 11.4115C10.9141 11.4116 10.8802 11.4117 10.8452 11.4118C10.8096 11.412 10.774 11.4122 10.7373 11.4124C10.6189 11.413 10.5006 11.4134 10.3823 11.4137C10.3218 11.4139 10.3218 11.4139 10.26 11.4141C10.0684 11.4147 9.87687 11.4151 9.68531 11.4154C9.46438 11.4157 9.24345 11.4165 9.02253 11.4178C8.83104 11.4188 8.63957 11.4192 8.44808 11.4193C8.36671 11.4195 8.28534 11.4198 8.20397 11.4204C8.09003 11.4212 7.97612 11.4212 7.86218 11.4209C7.81179 11.4215 7.81179 11.4215 7.76037 11.4222C7.56258 11.4208 7.44163 11.3998 7.28109 11.2813C7.17624 11.1358 7.15927 10.9865 7.18734 10.8125C7.25691 10.6734 7.32828 10.5979 7.46859 10.5313C7.56035 10.5035 7.64272 10.496 7.73842 10.4956Z" fill="#FDFDFD"/>
<path d="M6.71861 9.625C6.83073 9.66685 6.91551 9.72674 6.99791 9.81446C7.05004 9.9586 7.0702 10.1008 7.03111 10.25C6.90159 10.4332 6.7285 10.5848 6.56431 10.7363C6.54355 10.7557 6.52278 10.7751 6.50139 10.7951C6.37697 10.9108 6.25022 11.0235 6.122 11.135C6.01477 11.2294 5.91114 11.3278 5.80754 11.4262C5.47042 11.7415 5.47042 11.7415 5.26353 11.7363C5.01158 11.7229 4.88628 11.5796 4.71934 11.4066C4.66118 11.3488 4.60133 11.2987 4.53697 11.248C4.43017 11.1571 4.38096 11.0752 4.34361 10.9375C4.33531 10.7892 4.3532 10.6682 4.44517 10.5488C4.58092 10.4223 4.68783 10.3915 4.8751 10.3961C5.01709 10.4192 5.12507 10.5211 5.21861 10.625C5.33785 10.5844 5.40833 10.5391 5.494 10.4473C5.59321 10.3442 5.6953 10.249 5.80394 10.156C5.85913 10.1076 5.91289 10.0584 5.96629 10.0081C5.98247 9.99289 5.99866 9.97771 6.01533 9.96208C6.04705 9.93225 6.07861 9.90227 6.11 9.8721C6.28635 9.70695 6.4689 9.57644 6.71861 9.625Z" fill="#FDFDFD"/>
</svg>
