<svg width="24" height="24" viewBox="0 0 24 24" fill="none" xmlns="http://www.w3.org/2000/svg">
<g clip-path="url(#clip0_11_597)">
<path d="M2.39735 0.737461C2.45853 0.737249 2.51971 0.737037 2.58275 0.736818C2.75165 0.736247 2.92054 0.736256 3.08943 0.736367C3.27196 0.736386 3.45448 0.735868 3.637 0.735424C3.99424 0.734647 4.35149 0.734388 4.70873 0.734336C4.99925 0.734291 5.28977 0.734098 5.58029 0.733801C6.40477 0.732976 7.22925 0.732543 8.05374 0.732613C8.12035 0.732619 8.12035 0.732619 8.1883 0.732625C8.25499 0.73263 8.25499 0.73263 8.32303 0.732636C9.04341 0.732674 9.76378 0.731777 10.4842 0.730456C11.2246 0.729107 11.9651 0.728462 12.7056 0.728542C13.121 0.728574 13.5364 0.728318 13.9518 0.727307C14.3055 0.726452 14.6592 0.726251 15.0129 0.726886C15.1931 0.727191 15.3734 0.727201 15.5537 0.726384C15.7496 0.725506 15.9454 0.726097 16.1414 0.726818C16.1977 0.726336 16.254 0.725854 16.312 0.725357C16.9633 0.730635 17.4862 0.918017 17.9634 1.36248C18.671 2.10048 18.576 3.0809 18.5732 4.03057C18.5731 4.15397 18.5731 4.27736 18.5732 4.40076C18.5732 4.66543 18.5729 4.9301 18.5724 5.19477C18.5717 5.57743 18.5714 5.96009 18.5713 6.34275C18.5711 6.96374 18.5705 7.58473 18.5696 8.20572C18.5687 8.80859 18.5681 9.41147 18.5677 10.0143C18.5676 10.0516 18.5676 10.0888 18.5676 10.1271C18.5675 10.3139 18.5673 10.5007 18.5672 10.6874C18.5663 12.2343 18.5646 13.7812 18.5625 15.3281C18.598 15.3345 18.6334 15.3409 18.67 15.3475C18.7165 15.3559 18.763 15.3644 18.8109 15.373C18.88 15.3855 18.88 15.3855 18.9505 15.3983C19.0854 15.4232 19.2194 15.4509 19.3531 15.4812C19.4004 15.4918 19.4476 15.5025 19.4962 15.5134C19.7069 15.5617 19.9176 15.6101 20.1281 15.659C20.2392 15.6846 20.3503 15.71 20.4616 15.7351C20.6231 15.7715 20.7844 15.8088 20.9456 15.8463C20.9953 15.8574 21.045 15.8684 21.0963 15.8798C21.1424 15.8907 21.1886 15.9017 21.2362 15.9129C21.2767 15.9222 21.3172 15.9315 21.3589 15.9411C21.4939 15.9943 21.5638 16.0611 21.6563 16.1719C21.6885 16.3008 21.6885 16.3008 21.6563 16.4531C21.5626 16.5934 21.4468 16.7088 21.3281 16.8281C21.3063 16.8503 21.2845 16.8724 21.262 16.8953C21.1134 17.046 20.9634 17.1953 20.8125 17.3437C20.8875 17.5298 21.0169 17.6548 21.157 17.7933C21.1825 17.819 21.2081 17.8446 21.2344 17.871C21.3188 17.9556 21.4036 18.0399 21.4883 18.1241C21.5474 18.1831 21.6063 18.2421 21.6653 18.301C21.789 18.4247 21.9129 18.5481 22.0369 18.6715C22.1951 18.829 22.3531 18.9867 22.5109 19.1446C22.6328 19.2665 22.7548 19.3882 22.8769 19.5099C22.9351 19.568 22.9933 19.6261 23.0515 19.6843C23.4033 20.039 23.4033 20.039 23.7747 20.3728C23.927 20.5019 23.9915 20.5767 24.0264 20.7744C23.9989 20.9609 23.9819 20.9922 23.8617 21.124C23.8318 21.1568 23.802 21.1896 23.7712 21.2234C23.5947 21.4096 23.4146 21.592 23.233 21.7733C23.1716 21.8347 23.1716 21.8347 23.1089 21.8974C23.0231 21.9833 22.9372 22.0691 22.8512 22.1549C22.763 22.2429 22.675 22.3309 22.587 22.4191C22.4597 22.5467 22.3322 22.6742 22.2047 22.8016C22.1652 22.8412 22.1257 22.8808 22.085 22.9216C22.0485 22.9579 22.012 22.9942 21.9744 23.0316C21.9423 23.0637 21.9102 23.0958 21.8771 23.1288C21.7763 23.2222 21.7156 23.2476 21.5801 23.2734C21.1354 23.2076 20.695 22.5758 20.3848 22.2643C20.3212 22.2007 20.2576 22.1371 20.1941 22.0734C20.0278 21.907 19.8617 21.7404 19.6956 21.5738C19.5257 21.4034 19.3557 21.2332 19.1856 21.0629C18.8528 20.7296 18.5201 20.3961 18.1875 20.0625C18.0422 20.1316 17.9488 20.1988 17.8394 20.3176C17.795 20.3644 17.795 20.3644 17.7496 20.4121C17.6882 20.4777 17.6272 20.5436 17.5665 20.6099C17.42 20.763 17.3268 20.8496 17.122 20.9163C16.9688 20.9062 16.9688 20.9062 16.8605 20.8354C16.7633 20.6923 16.7259 20.5675 16.6846 20.3994C16.6635 20.3163 16.6635 20.3163 16.6419 20.2315C16.5972 20.0387 16.559 19.8446 16.5204 19.6506C16.5107 19.6017 16.5107 19.6017 16.5008 19.5519C16.4849 19.4721 16.469 19.3923 16.4531 19.3125C16.4072 19.3126 16.4072 19.3126 16.3604 19.3127C14.5445 19.3158 12.7286 19.3182 10.9127 19.3197C10.6946 19.3199 10.4764 19.32 10.2582 19.3202C10.2147 19.3203 10.1713 19.3203 10.1265 19.3203C9.42386 19.3209 8.72119 19.3221 8.01851 19.3233C7.29712 19.3247 6.57573 19.3254 5.85434 19.3257C5.40946 19.3259 4.96458 19.3265 4.51971 19.3277C4.21434 19.3284 3.90897 19.3286 3.6036 19.3285C3.42761 19.3284 3.25163 19.3285 3.07564 19.3293C2.88433 19.3301 2.69304 19.3298 2.50173 19.3294C2.41931 19.33 2.41931 19.33 2.33522 19.3306C1.68111 19.3271 1.09482 19.1879 0.594551 18.7483C0.245406 18.3833 -0.00535654 17.9214 -0.0062843 17.4116C-0.00649326 17.3583 -0.00670218 17.305 -0.00691748 17.2501C-0.00690883 17.1916 -0.00690027 17.133 -0.00689137 17.0727C-0.00704606 17.0098 -0.00722076 16.947 -0.00741369 16.8842C-0.00788306 16.7114 -0.00805748 16.5386 -0.00818187 16.3657C-0.00836492 16.1794 -0.00881391 15.9931 -0.0092231 15.8068C-0.0101493 15.3567 -0.0106214 14.9066 -0.0110384 14.4565C-0.0112439 14.2445 -0.0114954 14.0325 -0.011741 13.8205C-0.0125384 13.1156 -0.0132179 12.4108 -0.0135574 11.7059C-0.0136469 11.523 -0.013737 11.3401 -0.0138286 11.1572C-0.0138513 11.1117 -0.0138739 11.0663 -0.0138973 11.0194C-0.0142863 10.2832 -0.0154739 9.54701 -0.0169965 8.81079C-0.0185474 8.05475 -0.0193909 7.29871 -0.0195407 6.54267C-0.0196421 6.11826 -0.0200513 5.69385 -0.0212498 5.26943C-0.0222682 4.90794 -0.0226443 4.54645 -0.0221889 4.18496C-0.0219761 4.00062 -0.0220632 3.81629 -0.0229746 3.63196C-0.0238031 3.46293 -0.0237527 3.29393 -0.0230263 3.12491C-0.0228629 3.03536 -0.0236179 2.94581 -0.0244141 2.85626C-0.0200695 2.27147 0.160679 1.78012 0.564155 1.35186C1.10383 0.84265 1.67683 0.735617 2.39735 0.737461ZM0.990242 1.91601C0.525479 2.48728 0.656257 3.09837 0.656257 3.84375C6.33329 3.84375 12.0103 3.84375 17.8594 3.84375C17.9214 2.73909 17.9214 2.73909 17.4375 1.82812C16.9685 1.40689 16.4729 1.39918 15.8705 1.39998C15.8118 1.39987 15.7531 1.39977 15.6926 1.39966C15.5302 1.39937 15.3677 1.39938 15.2053 1.39943C15.0299 1.39944 14.8545 1.39918 14.6791 1.39896C14.3357 1.39857 13.9923 1.39844 13.6488 1.39842C13.3696 1.39839 13.0904 1.3983 12.8112 1.39815C12.0192 1.39774 11.2271 1.39752 10.4351 1.39756C10.3924 1.39756 10.3498 1.39756 10.3058 1.39756C10.2631 1.39756 10.2203 1.39756 10.1763 1.39757C9.48387 1.39759 8.79143 1.39714 8.09899 1.39648C7.3876 1.3958 6.67621 1.39548 5.96482 1.39552C5.56559 1.39554 5.16636 1.39541 4.76712 1.3949C4.42721 1.39447 4.08731 1.39437 3.7474 1.39469C3.57408 1.39484 3.40077 1.39485 3.22745 1.39444C3.03929 1.394 2.85115 1.3943 2.66299 1.39466C2.60859 1.39442 2.55418 1.39418 2.49813 1.39393C1.91507 1.3964 1.40187 1.47073 0.990242 1.91601ZM0.656257 4.5C0.653357 6.60955 0.650456 8.7191 0.647468 10.8926C0.646188 11.5588 0.644908 12.2251 0.643589 12.9116C0.643118 13.5084 0.643118 13.5084 0.642835 14.1053C0.642704 14.3713 0.642189 14.6373 0.641411 14.9033C0.640514 15.2102 0.640109 15.5171 0.640304 15.8241C0.640389 15.981 0.640177 16.1379 0.639493 16.2948C0.638792 16.4632 0.638962 16.6315 0.639346 16.7998C0.638937 16.8484 0.638527 16.897 0.638105 16.947C0.641068 17.4305 0.752703 17.866 1.07813 18.2344C1.48359 18.5737 1.8497 18.6232 2.36496 18.6206C2.42435 18.6207 2.48374 18.6208 2.54493 18.6209C2.70944 18.6211 2.87394 18.6207 3.03845 18.6203C3.21598 18.6198 3.39351 18.62 3.57104 18.6201C3.8785 18.6201 4.18597 18.6198 4.49344 18.6193C4.93799 18.6185 5.38253 18.6183 5.82708 18.6182C6.54834 18.618 7.26961 18.6173 7.99087 18.6164C8.69147 18.6156 9.39208 18.6149 10.0927 18.6145C10.1359 18.6145 10.1791 18.6145 10.2236 18.6144C10.4402 18.6143 10.6569 18.6142 10.8736 18.6141C12.6709 18.6131 14.4683 18.6115 16.2656 18.6094C16.2586 18.5508 16.2515 18.4922 16.2442 18.4318C16.2402 18.3988 16.2363 18.3659 16.2322 18.3319C16.2129 18.1915 16.1815 18.0552 16.1489 17.9173C16.1278 17.8274 16.1278 17.8274 16.1062 17.7358C16.0988 17.7043 16.0913 17.6729 16.0836 17.6405C16.0599 17.541 16.0366 17.4414 16.0133 17.3418C15.9471 17.0589 15.8804 16.7761 15.8135 16.4934C15.7724 16.3198 15.7316 16.1461 15.6911 15.9724C15.6757 15.9066 15.6601 15.8408 15.6444 15.775C15.6224 15.6829 15.6009 15.5907 15.5794 15.4985C15.5609 15.4201 15.5609 15.4201 15.542 15.3401C15.5136 15.1755 15.5049 15.0261 15.5156 14.8594C15.6065 14.7642 15.6065 14.7642 15.75 14.7187C15.895 14.7243 16.031 14.7557 16.1719 14.7891C16.2125 14.7979 16.253 14.8067 16.2948 14.8158C16.6487 14.894 17.0014 14.9788 17.3529 15.0667C17.3919 15.0764 17.431 15.086 17.4712 15.0959C17.5226 15.1089 17.5226 15.1089 17.5751 15.1221C17.6862 15.1465 17.6862 15.1465 17.8594 15.1406C17.8594 11.6292 17.8594 8.11781 17.8594 4.5C12.1824 4.5 6.50532 4.5 0.656257 4.5ZM16.2656 15.5156C16.4337 16.3593 16.6367 17.1951 16.8354 18.0319C16.8823 18.2296 16.9291 18.4273 16.9759 18.625C17.0671 19.0105 17.1585 19.3959 17.25 19.7812C17.4031 19.7978 17.4031 19.7978 17.5142 19.6582C17.5864 19.5793 17.6574 19.4998 17.7271 19.4187C17.7506 19.3933 17.7742 19.3679 17.7984 19.3418C17.8191 19.3182 17.8398 19.2947 17.8612 19.2704C18.0106 19.1865 18.1634 19.1903 18.3281 19.2187C18.4441 19.2995 18.5237 19.3668 18.6186 19.4674C18.6451 19.4939 18.6715 19.5203 18.6987 19.5476C18.7856 19.6349 18.871 19.7235 18.9566 19.8122C19.017 19.8735 19.0776 19.9347 19.1383 19.9959C19.2977 20.157 19.456 20.3192 19.6141 20.4817C19.8054 20.6779 19.998 20.873 20.1904 21.0682C20.3404 21.2203 20.4901 21.3726 20.6392 21.5255C21.0943 22.0004 21.0943 22.0004 21.6094 22.4062C22.1199 21.8958 22.6303 21.3853 23.1563 20.8594C23.0557 20.6583 22.9305 20.5276 22.7729 20.3724C22.7284 20.328 22.7284 20.328 22.683 20.2827C22.5851 20.185 22.4868 20.0877 22.3885 19.9904C22.3204 19.9226 22.2523 19.8547 22.1843 19.7869C22.0052 19.6084 21.8258 19.4302 21.6464 19.252C21.3589 18.9666 21.0718 18.6809 20.7848 18.395C20.6843 18.295 20.5837 18.1952 20.4831 18.0954C20.4218 18.0344 20.3605 17.9734 20.2992 17.9124C20.271 17.8845 20.2428 17.8566 20.2138 17.8279C19.9811 17.5959 19.9811 17.5959 19.9453 17.4082C19.9811 17.1669 20.129 17.0438 20.2969 16.875C20.3282 16.843 20.3595 16.8111 20.3917 16.7781C20.4688 16.7003 20.5465 16.6232 20.625 16.5469C20.4453 16.4412 20.2494 16.4025 20.0484 16.3564C20.0093 16.3473 19.9702 16.3381 19.9299 16.3287C19.8007 16.2985 19.6715 16.2687 19.5423 16.2389C19.4525 16.218 19.3627 16.1971 19.273 16.1762C19.0849 16.1325 18.8969 16.0889 18.7088 16.0455C18.4674 15.9898 18.2262 15.9337 17.9849 15.8775C17.7996 15.8343 17.6143 15.7913 17.4289 15.7484C17.3399 15.7278 17.2509 15.7071 17.162 15.6864C17.0378 15.6575 16.9135 15.6288 16.7893 15.6002C16.7524 15.5916 16.7155 15.583 16.6775 15.5741C16.5371 15.5419 16.4102 15.5156 16.2656 15.5156Z" fill="#FDFDFD"/>
<path d="M11.5867 6.08258C11.6209 6.0822 11.6551 6.08182 11.6903 6.08143C11.7631 6.08078 11.8359 6.08028 11.9087 6.07991C12.0186 6.07912 12.1284 6.07706 12.2383 6.07498C12.7737 6.06937 13.2014 6.1342 13.6051 6.51251C13.8868 6.84372 13.9853 7.21424 13.9824 7.63934C13.9544 7.92898 13.8481 8.19648 13.6875 8.4375C13.7152 8.45913 13.7429 8.48076 13.7715 8.50305C14.0898 8.76578 14.3113 9.05586 14.3906 9.46875C14.4348 9.96364 14.3491 10.3361 14.0361 10.7256C13.8234 10.9781 13.5292 11.131 13.2017 11.1692C12.9345 11.1865 12.6677 11.1856 12.4001 11.1817C12.2568 11.1797 12.1136 11.1797 11.9703 11.1801C11.8791 11.1796 11.7879 11.179 11.6967 11.1782C11.654 11.1782 11.6112 11.1782 11.5671 11.1782C11.5275 11.1774 11.4879 11.1767 11.4471 11.1759C11.3949 11.1753 11.3949 11.1753 11.3417 11.1747C11.2236 11.1509 11.1829 11.1096 11.1093 11.0156C11.0466 10.8274 11.0551 10.646 11.0549 10.4497C11.0547 10.4061 11.0544 10.3626 11.0542 10.3177C11.0535 10.1735 11.0532 10.0293 11.0529 9.88513C11.0527 9.785 11.0524 9.68488 11.0521 9.58475C11.0516 9.37472 11.0514 9.16469 11.0512 8.95466C11.0509 8.68548 11.0498 8.41632 11.0485 8.14715C11.0476 7.94029 11.0474 7.73344 11.0473 7.52658C11.0471 7.42734 11.0468 7.3281 11.0461 7.22886C11.0454 7.09006 11.0454 6.95127 11.0457 6.81246C11.0453 6.77145 11.0449 6.73043 11.0444 6.68818C11.0474 6.2575 11.1577 6.08706 11.5867 6.08258ZM11.7656 6.75C11.7656 7.26047 11.7656 7.77094 11.7656 8.29688C11.9048 8.30074 12.044 8.30461 12.1875 8.30859C12.2305 8.3103 12.2736 8.31201 12.318 8.31377C12.652 8.31821 12.8983 8.2353 13.1425 8.00391C13.2613 7.80283 13.3274 7.62794 13.2998 7.39197C13.2322 7.13293 13.1129 7.00071 12.8968 6.84815C12.6597 6.72657 12.409 6.74426 12.1494 6.74707C11.9594 6.74852 11.9594 6.74852 11.7656 6.75ZM11.7656 8.95313C11.7656 9.46359 11.7656 9.97406 11.7656 10.5C11.9744 10.5039 12.1832 10.5077 12.3984 10.5117C12.4635 10.5134 12.5286 10.5151 12.5957 10.5169C12.9948 10.5205 13.2651 10.4906 13.5644 10.207C13.6833 10.0058 13.7527 9.82954 13.7184 9.59345C13.6439 9.32854 13.5409 9.19764 13.3125 9.04688C13.1253 8.95532 12.9754 8.94208 12.7681 8.94397C12.689 8.94432 12.689 8.94432 12.6084 8.94468C12.542 8.94553 12.4756 8.94639 12.4072 8.94727C12.0896 8.95017 12.0896 8.95017 11.7656 8.95313Z" fill="#FDFDFD"/>
<path d="M8.43161 6.07324C8.47305 6.07366 8.51449 6.07409 8.55718 6.07452C9.03123 6.08712 9.35344 6.21455 9.70089 6.5429C9.98001 6.87262 10.1291 7.25781 10.1325 7.68744C10.133 7.73283 10.1334 7.77823 10.1339 7.82499C10.1341 7.87358 10.1343 7.92217 10.1345 7.97223C10.1348 8.0228 10.135 8.07338 10.1353 8.12549C10.1357 8.23247 10.136 8.33944 10.1362 8.44641C10.1367 8.60895 10.1381 8.77146 10.1396 8.93399C10.1399 9.0382 10.1402 9.14242 10.1403 9.24664C10.1409 9.29475 10.1415 9.34286 10.1421 9.39243C10.1405 9.93373 9.99453 10.3668 9.62838 10.7697C9.24306 11.1323 8.82252 11.1843 8.31241 11.1782C7.83354 11.161 7.5202 11.0296 7.17074 10.6974C6.79974 10.2824 6.73534 9.83331 6.73422 9.29663C6.73391 9.24421 6.73359 9.1918 6.73327 9.13779C6.7328 9.02716 6.73258 8.91653 6.73259 8.80591C6.73239 8.63791 6.73069 8.46998 6.72891 8.302C6.72863 8.19409 6.72845 8.08618 6.72836 7.97827C6.72769 7.92864 6.72701 7.87901 6.72632 7.82788C6.72934 7.32787 6.8695 6.88255 7.21872 6.51562C7.58153 6.18443 7.94744 6.06735 8.43161 6.07324ZM7.64059 7.07812C7.44155 7.37089 7.42546 7.64302 7.42819 7.98925C7.42801 8.03986 7.42783 8.09046 7.42765 8.14259C7.42752 8.24912 7.42786 8.35565 7.42865 8.46217C7.42965 8.62451 7.42865 8.78676 7.42746 8.94909C7.42758 9.05298 7.42782 9.15686 7.42819 9.26074C7.42781 9.30889 7.42743 9.35705 7.42704 9.40666C7.43146 9.74873 7.49072 10.0176 7.73434 10.2684C7.76528 10.2897 7.79622 10.311 7.82809 10.333C7.8745 10.3663 7.8745 10.3663 7.92184 10.4002C8.17721 10.5443 8.49416 10.5341 8.77585 10.48C9.06236 10.3902 9.22801 10.2011 9.37766 9.94712C9.42944 9.82596 9.43463 9.73622 9.4362 9.60466C9.43695 9.55708 9.4377 9.50951 9.43847 9.46049C9.43873 9.40931 9.43898 9.35814 9.43924 9.30542C9.43966 9.25247 9.44008 9.19952 9.44052 9.14497C9.4412 9.03291 9.44162 8.92085 9.44179 8.80879C9.44234 8.638 9.44465 8.46728 9.44702 8.29651C9.44746 8.1875 9.4478 8.07849 9.44803 7.96948C9.44894 7.91869 9.44986 7.86789 9.4508 7.81556C9.44891 7.4967 9.40235 7.27416 9.18747 7.03125C8.74522 6.6463 8.05471 6.64034 7.64059 7.07812Z" fill="#FDFDFD"/>
<path d="M3.45543 16.3356C3.5016 16.3353 3.54776 16.335 3.59533 16.3347C3.75018 16.3339 3.905 16.3345 4.05986 16.3351C4.17081 16.3349 4.28176 16.3345 4.39271 16.3341C4.6942 16.3333 4.99567 16.3336 5.29716 16.3342C5.48542 16.3345 5.67367 16.3345 5.86193 16.3343C5.89318 16.3343 5.92444 16.3342 5.95664 16.3342C6.02013 16.3341 6.08362 16.3341 6.14711 16.334C6.74244 16.3335 7.33776 16.3341 7.93309 16.3351C8.44389 16.3359 8.95468 16.3358 9.46547 16.3349C10.0587 16.3339 10.6519 16.3335 11.2451 16.3341C11.3083 16.3342 11.3716 16.3342 11.4348 16.3343C11.4815 16.3343 11.4815 16.3343 11.5292 16.3344C11.7485 16.3345 11.9678 16.3342 12.1871 16.3338C12.4823 16.3333 12.7774 16.3337 13.0726 16.3347C13.181 16.335 13.2895 16.3349 13.3979 16.3345C13.5458 16.334 13.6935 16.3346 13.8413 16.3356C13.8845 16.3351 13.9276 16.3347 13.972 16.3343C14.1652 16.3367 14.2714 16.3444 14.4408 16.4444C14.5312 16.5469 14.5312 16.5469 14.5576 16.7109C14.5312 16.875 14.5312 16.875 14.4642 16.9775C14.2804 17.1072 14.1098 17.0884 13.89 17.0863C13.8202 17.0867 13.8202 17.0867 13.7489 17.0872C13.5925 17.0879 13.4362 17.0873 13.2798 17.0868C13.1678 17.087 13.0559 17.0873 12.9439 17.0878C12.6712 17.0885 12.3984 17.0884 12.1257 17.0879C11.904 17.0874 11.6824 17.0874 11.4607 17.0876C11.4134 17.0876 11.4134 17.0876 11.3651 17.0877C11.3011 17.0877 11.237 17.0878 11.173 17.0879C10.5721 17.0884 9.97132 17.0878 9.3705 17.0868C8.85484 17.0859 8.33918 17.0861 7.82352 17.0869C7.22486 17.0879 6.6262 17.0883 6.02754 17.0878C5.96372 17.0877 5.8999 17.0876 5.83607 17.0876C5.78897 17.0875 5.78897 17.0875 5.74091 17.0875C5.5195 17.0873 5.29808 17.0876 5.07666 17.0881C4.77871 17.0886 4.48078 17.0882 4.18283 17.0871C4.07331 17.0869 3.96378 17.087 3.85426 17.0874C3.70508 17.0879 3.55596 17.0872 3.40679 17.0863C3.36315 17.0867 3.3195 17.0871 3.27453 17.0876C2.98357 17.084 2.98357 17.084 2.83261 16.9775C2.7329 16.825 2.737 16.7247 2.76557 16.5469C2.96726 16.3181 3.17122 16.3328 3.45543 16.3356Z" fill="#FDFDFD"/>
<path d="M3.35816 12.4453C3.40508 12.445 3.452 12.4447 3.50034 12.4445C3.6583 12.4438 3.81622 12.4445 3.97417 12.4452C4.08711 12.4451 4.20005 12.4448 4.31298 12.4445C4.58834 12.4439 4.86368 12.4442 5.13903 12.4449C5.45952 12.4457 5.78001 12.4455 6.1005 12.4453C6.67225 12.4451 7.244 12.4457 7.81575 12.4469C8.37085 12.448 8.92594 12.4483 9.48105 12.4478C10.0852 12.4473 10.6893 12.4472 11.2934 12.4479C11.3578 12.448 11.4222 12.448 11.4866 12.4481C11.5182 12.4481 11.5499 12.4482 11.5826 12.4482C11.8061 12.4484 12.0296 12.4483 12.2532 12.4481C12.5539 12.4479 12.8546 12.4484 13.1553 12.4494C13.2659 12.4497 13.3765 12.4497 13.4871 12.4495C13.6376 12.4492 13.7881 12.4498 13.9386 12.4506C13.9828 12.4503 14.027 12.45 14.0725 12.4497C14.1127 12.4501 14.1529 12.4505 14.1943 12.4509C14.2291 12.451 14.2638 12.451 14.2996 12.4511C14.4164 12.4738 14.4583 12.5172 14.5312 12.6094C14.5499 12.7002 14.5499 12.7002 14.5488 12.7969C14.5491 12.8288 14.5495 12.8607 14.5499 12.8936C14.5255 13.0123 14.4842 13.0493 14.3906 13.125C14.3 13.1427 14.3 13.1427 14.1952 13.1428C14.1552 13.1432 14.1152 13.1436 14.074 13.144C14.03 13.1437 13.986 13.1435 13.9407 13.1432C13.8707 13.1435 13.8707 13.1435 13.7992 13.1439C13.642 13.1446 13.4849 13.1443 13.3277 13.1439C13.2153 13.1442 13.1029 13.1445 12.9905 13.1449C12.7164 13.1457 12.4424 13.1458 12.1683 13.1455C11.9456 13.1453 11.7229 13.1454 11.5002 13.1456C11.4685 13.1457 11.4369 13.1457 11.4042 13.1457C11.3399 13.1458 11.2756 13.1459 11.2112 13.146C10.6076 13.1466 10.004 13.1464 9.40039 13.1458C8.84793 13.1453 8.29549 13.146 7.74304 13.1471C7.17605 13.1482 6.60906 13.1487 6.04207 13.1484C5.72364 13.1482 5.40522 13.1483 5.08679 13.1491C4.78742 13.1499 4.48806 13.1497 4.18869 13.1488C4.07863 13.1486 3.96858 13.1488 3.85852 13.1492C3.70863 13.1499 3.55879 13.1493 3.4089 13.1485C3.36504 13.1489 3.32118 13.1494 3.27599 13.1499C2.98318 13.1465 2.98318 13.1465 2.83213 13.0386C2.74148 12.9009 2.74199 12.8181 2.76558 12.6562C2.87801 12.3941 3.11106 12.4427 3.35816 12.4453Z" fill="#FDFDFD"/>
<path d="M3.35817 14.414C3.40509 14.4137 3.45201 14.4135 3.50035 14.4132C3.65831 14.4126 3.81623 14.4133 3.97418 14.414C4.08712 14.4138 4.20006 14.4135 4.31299 14.4132C4.58835 14.4126 4.86369 14.4129 5.13904 14.4136C5.45953 14.4144 5.78002 14.4143 6.10051 14.4141C6.67226 14.4138 7.24401 14.4145 7.81576 14.4156C8.37086 14.4167 8.92595 14.4171 9.48106 14.4166C10.0852 14.4161 10.6893 14.416 11.2934 14.4166C11.3578 14.4167 11.4222 14.4168 11.4866 14.4169C11.5183 14.4169 11.5499 14.4169 11.5826 14.417C11.8061 14.4172 12.0296 14.4171 12.2532 14.4169C12.5539 14.4166 12.8546 14.4171 13.1553 14.4182C13.2659 14.4184 13.3765 14.4184 13.4871 14.4182C13.6376 14.4179 13.7881 14.4185 13.9386 14.4193C13.9828 14.419 14.027 14.4188 14.0725 14.4185C14.1127 14.4189 14.1529 14.4193 14.1943 14.4197C14.2291 14.4197 14.2638 14.4198 14.2997 14.4198C14.4182 14.4429 14.4595 14.4822 14.5312 14.5781C14.5534 14.7522 14.5616 14.8594 14.4645 15.0089C14.2804 15.1382 14.11 15.1197 13.89 15.1176C13.8202 15.118 13.8202 15.118 13.749 15.1184C13.5926 15.1192 13.4362 15.1186 13.2798 15.118C13.1678 15.1183 13.0559 15.1186 12.9439 15.119C12.6712 15.1198 12.3984 15.1197 12.1257 15.1191C11.904 15.1187 11.6824 15.1186 11.4607 15.1188C11.4134 15.1189 11.4134 15.1189 11.3652 15.1189C11.3011 15.119 11.237 15.119 11.173 15.1191C10.5722 15.1196 9.97134 15.119 9.37052 15.118C8.85486 15.1172 8.3392 15.1173 7.82354 15.1182C7.22488 15.1192 6.62622 15.1196 6.02756 15.119C5.96374 15.119 5.89992 15.1189 5.83609 15.1188C5.78899 15.1188 5.78899 15.1188 5.74093 15.1187C5.51952 15.1186 5.2981 15.1189 5.07668 15.1193C4.77873 15.1198 4.4808 15.1195 4.18285 15.1184C4.07333 15.1181 3.9638 15.1182 3.85428 15.1186C3.7051 15.1191 3.55598 15.1185 3.40681 15.1176C3.36317 15.118 3.31952 15.1184 3.27455 15.1188C2.98316 15.1153 2.98316 15.1153 2.83227 15.0073C2.74144 14.8696 2.74199 14.7869 2.76559 14.625C2.87802 14.3629 3.11107 14.4115 3.35817 14.414Z" fill="#FDFDFD"/>
<path d="M5.22651 6.06738C5.41923 6.09836 5.46306 6.1268 5.57807 6.28125C5.59659 6.40544 5.60375 6.5102 5.60233 6.63429C5.60266 6.66961 5.60299 6.70492 5.60333 6.74131C5.60415 6.85806 5.60361 6.97475 5.60297 7.09149C5.6031 7.17301 5.60328 7.25454 5.60352 7.33606C5.60379 7.50712 5.60339 7.67816 5.60251 7.84922C5.60145 8.06725 5.60206 8.28523 5.60318 8.50326C5.60387 8.67181 5.60364 8.84034 5.60316 9.00889C5.60304 9.08919 5.60319 9.16949 5.60363 9.24979C5.60606 9.81963 5.58563 10.3572 5.16352 10.791C4.79551 11.097 4.43923 11.1986 3.96363 11.1777C3.60028 11.131 3.30236 11.0015 3.04682 10.7344C2.80049 10.3969 2.66414 10.0819 2.67768 9.66211C2.71869 9.51562 2.71869 9.51562 2.79487 9.42188C2.957 9.35361 3.06618 9.37908 3.23432 9.42188C3.33634 9.49893 3.37037 9.54378 3.40095 9.66888C3.4059 9.70822 3.41086 9.74756 3.41596 9.78809C3.46029 10.0333 3.51602 10.1458 3.70307 10.3125C3.90032 10.4335 4.06929 10.4692 4.2978 10.4297C4.52737 10.3656 4.65631 10.2441 4.78649 10.0454C4.84482 9.89404 4.84099 9.74843 4.84004 9.5886C4.84021 9.55375 4.84038 9.51889 4.84055 9.48298C4.84088 9.40745 4.841 9.33193 4.84093 9.2564C4.84089 9.13679 4.84149 9.0172 4.84229 8.8976C4.84446 8.5576 4.84561 8.2176 4.84592 7.8776C4.84616 7.66948 4.84729 7.46139 4.84898 7.25328C4.84944 7.17406 4.84955 7.09484 4.8493 7.01562C4.84897 6.90475 4.84978 6.79395 4.85084 6.68309C4.85046 6.65047 4.85008 6.61786 4.84968 6.58426C4.85245 6.4212 4.87358 6.33034 4.95995 6.1904C5.06244 6.09375 5.06244 6.09375 5.22651 6.06738Z" fill="#FDFDFD"/>
<path d="M2.64235 2.27654C2.67604 2.2763 2.70973 2.27605 2.74444 2.2758C2.81564 2.2755 2.88684 2.27556 2.95804 2.27596C3.06681 2.27636 3.17547 2.27501 3.28423 2.27352C3.35347 2.27345 3.42272 2.27347 3.49196 2.27361C3.52439 2.27309 3.55681 2.27256 3.59022 2.27202C3.74784 2.27429 3.83092 2.28721 3.95816 2.38328C4.05716 2.52028 4.05535 2.60005 4.03121 2.76562C3.98259 2.8666 3.98259 2.8666 3.89058 2.95312C3.76172 2.97214 3.6518 2.97943 3.5229 2.97802C3.46908 2.97829 3.46908 2.97829 3.41417 2.97856C3.33836 2.97869 3.26255 2.97835 3.18675 2.97756C3.07066 2.97656 2.95472 2.97755 2.83864 2.97875C2.76497 2.97863 2.6913 2.97839 2.61763 2.97802C2.58291 2.9784 2.54819 2.97878 2.51242 2.97917C2.35901 2.97637 2.27231 2.97337 2.1563 2.86825C2.08463 2.71163 2.11454 2.60119 2.15621 2.43749C2.27442 2.25512 2.44469 2.27571 2.64235 2.27654Z" fill="#FDFDFD"/>
<path d="M5.16797 2.27655C5.21684 2.27619 5.21684 2.27619 5.26671 2.27581C5.33542 2.27551 5.40413 2.27557 5.47284 2.27597C5.5778 2.27637 5.68265 2.27502 5.7876 2.27353C5.85449 2.27346 5.92139 2.27348 5.98828 2.27362C6.04895 2.27354 6.10961 2.27345 6.17212 2.27336C6.32812 2.29688 6.32812 2.29688 6.44183 2.38329C6.54178 2.5202 6.53983 2.59962 6.51562 2.76563C6.46627 2.86661 6.46627 2.86661 6.375 2.95313C6.24992 2.97218 6.14433 2.97945 6.01923 2.97803C5.98449 2.97821 5.94976 2.97839 5.91398 2.97857C5.84058 2.9787 5.76717 2.97836 5.69377 2.97757C5.58159 2.97657 5.46956 2.97756 5.35739 2.97876C5.28601 2.97864 5.21463 2.9784 5.14325 2.97803C5.09307 2.9786 5.09307 2.9786 5.04188 2.97918C4.88301 2.97619 4.79464 2.96289 4.66488 2.86826C4.59375 2.76563 4.59375 2.76563 4.59375 2.59864C4.64062 2.4375 4.64062 2.4375 4.71606 2.35839C4.87067 2.27353 4.9921 2.27788 5.16797 2.27655Z" fill="#FDFDFD"/>
<path d="M7.6524 2.2782C7.68499 2.27806 7.71757 2.27793 7.75114 2.27779C7.81986 2.2777 7.88857 2.27795 7.95728 2.27854C8.06222 2.27929 8.16709 2.27855 8.27203 2.27765C8.33893 2.27774 8.40582 2.27792 8.47272 2.2782C8.53338 2.27836 8.59405 2.27852 8.65656 2.27868C8.81957 2.29769 8.88596 2.32208 9.00006 2.4375C9.02332 2.52832 9.02332 2.52832 9.02057 2.625C9.02051 2.6569 9.02045 2.68881 9.02039 2.72168C8.99275 2.84519 8.96287 2.87865 8.85944 2.95312C8.7365 2.9671 8.62492 2.97284 8.50201 2.9718C8.44975 2.972 8.44975 2.972 8.39643 2.97221C8.32283 2.97231 8.24923 2.97205 8.17563 2.97146C8.06296 2.97071 7.95037 2.97145 7.83771 2.97235C7.76617 2.97226 7.69464 2.97208 7.62311 2.9718C7.58941 2.97209 7.55572 2.97237 7.521 2.97266C7.28826 2.96938 7.28826 2.96938 7.1743 2.88732C7.11317 2.79444 7.10476 2.73579 7.10455 2.625C7.10365 2.5931 7.10274 2.56119 7.10181 2.52832C7.12506 2.4375 7.12506 2.4375 7.19902 2.36268C7.3547 2.27245 7.47307 2.27867 7.6524 2.2782Z" fill="#FDFDFD"/>
</g>
<defs>
<clipPath id="clip0_11_597">
<rect width="24" height="24" fill="white"/>
</clipPath>
</defs>
</svg>
