<svg width="22" height="22" viewBox="0 0 22 22" fill="none" xmlns="http://www.w3.org/2000/svg">
<path d="M2.2583 10.8411C2.2583 6.79524 2.2583 4.77233 3.51517 3.51545C4.77205 2.25858 6.79496 2.25858 10.8408 2.25858C14.8866 2.25858 16.9095 2.25858 18.1664 3.51545C19.4233 4.77233 19.4233 6.79524 19.4233 10.8411C19.4233 14.8868 19.4233 16.9098 18.1664 18.1667C16.9095 19.4235 14.8866 19.4235 10.8408 19.4235C6.79496 19.4235 4.77205 19.4235 3.51517 18.1667C2.2583 16.9098 2.2583 14.8868 2.2583 10.8411Z" stroke="#FDFDFD" stroke-width="1.16154"/>
<path d="M9.9375 6.32394H15.358" stroke="#FDFDFD" stroke-width="1.16154" stroke-linecap="round"/>
<path d="M6.32324 6.32394H7.22666" stroke="#FDFDFD" stroke-width="1.16154" stroke-linecap="round"/>
<path d="M6.32324 10.841H7.22666" stroke="#FDFDFD" stroke-width="1.16154" stroke-linecap="round"/>
<path d="M6.32324 15.3581H7.22666" stroke="#FDFDFD" stroke-width="1.16154" stroke-linecap="round"/>
<path d="M9.9375 10.841H15.358" stroke="#FDFDFD" stroke-width="1.16154" stroke-linecap="round"/>
<path d="M9.9375 15.3581H15.358" stroke="#FDFDFD" stroke-width="1.16154" stroke-linecap="round"/>
</svg>
