<svg width="22" height="22" viewBox="0 0 22 22" fill="none" xmlns="http://www.w3.org/2000/svg">
<path d="M17.6165 19.8753C17.9759 19.8753 18.3206 19.7325 18.5747 19.4783C18.8288 19.2242 18.9716 18.8795 18.9716 18.5201V15.3582C18.9716 14.9988 18.8288 14.6541 18.5747 14.3999C18.3206 14.1458 17.9759 14.003 17.6165 14.003C16.5595 14.003 15.5205 13.8404 14.5268 13.5062C14.2892 13.4312 14.0356 13.4227 13.7935 13.4816C13.5514 13.5405 13.3301 13.6646 13.1536 13.8404L11.8527 15.1413C9.60517 13.9149 7.75799 12.0677 6.53152 9.8202L7.82341 8.52831C8.19381 8.17598 8.32932 7.652 8.16671 7.14608C7.84148 6.16136 7.67886 5.12242 7.67886 4.06542C7.67886 3.70602 7.53609 3.36134 7.28196 3.1072C7.02782 2.85307 6.68314 2.7103 6.32373 2.7103H3.16177C2.80237 2.7103 2.45768 2.85307 2.20355 3.1072C1.94941 3.36134 1.80664 3.70602 1.80664 4.06542C1.80664 12.7834 8.89848 19.8753 17.6165 19.8753ZM3.16177 3.61372H6.32373C6.44354 3.61372 6.55843 3.66131 6.64314 3.74602C6.72785 3.83073 6.77544 3.94562 6.77544 4.06542C6.77544 5.2218 6.95613 6.35107 7.30846 7.42614C7.35363 7.55262 7.3446 7.73331 7.20005 7.87785L5.42032 9.64855C6.91096 12.5666 9.09723 14.7529 12.0243 16.2616L13.786 14.4818C13.9125 14.3554 14.0841 14.3192 14.2467 14.3644C15.3308 14.7258 16.4601 14.9065 17.6165 14.9065C17.7363 14.9065 17.8512 14.954 17.9359 15.0388C18.0206 15.1235 18.0682 15.2384 18.0682 15.3582V18.5201C18.0682 18.6399 18.0206 18.7548 17.9359 18.8395C17.8512 18.9242 17.7363 18.9718 17.6165 18.9718C9.39536 18.9718 2.71006 12.2865 2.71006 4.06542C2.71006 3.94562 2.75765 3.83073 2.84236 3.74602C2.92707 3.66131 3.04197 3.61372 3.16177 3.61372Z" fill="#FDFDFD"/>
</svg>
