<svg width="16" height="16" viewBox="0 0 16 16" fill="none" xmlns="http://www.w3.org/2000/svg">
<g clip-path="url(#clip0_55_973)">
<path d="M1.0487 1.8982C1.07194 1.89809 1.09518 1.89798 1.11912 1.89787C1.19706 1.89758 1.27499 1.89773 1.35293 1.89788C1.40935 1.89777 1.46577 1.89762 1.52219 1.89746C1.67728 1.89707 1.83238 1.89708 1.98747 1.89715C2.15471 1.89717 2.32196 1.89682 2.4892 1.89653C2.81689 1.89601 3.14457 1.89584 3.47225 1.8958C3.73858 1.89577 4.0049 1.89564 4.27123 1.89544C5.02613 1.89489 5.78103 1.89461 6.53593 1.89465C6.57663 1.89465 6.61733 1.89466 6.65927 1.89466C6.70003 1.89466 6.74078 1.89466 6.78277 1.89467C7.44337 1.89469 8.10396 1.89409 8.76456 1.89321C9.44268 1.89232 10.1208 1.89188 10.7989 1.89194C11.1797 1.89196 11.5605 1.89179 11.9413 1.89111C12.2655 1.89055 12.5896 1.89041 12.9138 1.89083C13.0792 1.89104 13.2447 1.89104 13.4101 1.8905C13.5615 1.89001 13.713 1.8901 13.8644 1.89064C13.9192 1.89074 13.9739 1.89062 14.0287 1.89028C14.555 1.88715 14.555 1.88715 14.7814 2.03124C14.8038 2.04516 14.8261 2.05908 14.8492 2.07342C15.0811 2.22465 15.2373 2.45449 15.3126 2.71874C15.3203 2.81551 15.3203 2.81551 15.3202 2.92043C15.3203 2.98037 15.3203 2.98037 15.3204 3.04153C15.3202 3.08542 15.32 3.12931 15.3197 3.17319C15.3197 3.21971 15.3197 3.26623 15.3198 3.31275C15.3198 3.4387 15.3194 3.56465 15.319 3.69061C15.3186 3.82236 15.3186 3.95411 15.3185 4.08586C15.3183 4.33521 15.3178 4.58455 15.3171 4.83389C15.3164 5.11783 15.3161 5.40176 15.3158 5.68569C15.3151 6.26962 15.314 6.85356 15.3126 7.43749C15.3513 7.43661 15.3513 7.43661 15.3908 7.43571C15.4247 7.43525 15.4585 7.43479 15.4933 7.43432C15.5436 7.43343 15.5436 7.43343 15.5949 7.43253C15.7219 7.43932 15.7836 7.4755 15.8751 7.56249C16.0018 7.71812 16.0183 7.82721 16.0163 8.01954C16.0166 8.05922 16.0166 8.05922 16.017 8.09971C16.0175 8.187 16.0172 8.27427 16.0167 8.36156C16.0168 8.42285 16.017 8.48415 16.0171 8.54544C16.0173 8.67411 16.017 8.80277 16.0164 8.93143C16.0157 9.09455 16.0161 9.25764 16.0169 9.42076C16.0173 9.54759 16.0172 9.67441 16.0169 9.80123C16.0168 9.86125 16.0169 9.92126 16.0172 9.98128C16.0217 11.1526 15.6006 12.2231 14.7814 13.0625C14.7575 13.0887 14.7335 13.1149 14.7089 13.142C14.3526 13.5218 13.9087 13.7871 13.4376 14C13.4003 14.0173 13.363 14.0346 13.3246 14.0524C13.1184 14.1331 12.9354 14.1272 12.7276 14.0513C12.6259 14.0063 12.5273 13.9561 12.4292 13.9037C12.3822 13.8787 12.3344 13.8552 12.2865 13.8319C11.8613 13.618 11.2184 13.1981 11.0056 12.7593C10.9686 12.69 10.9353 12.6448 10.8751 12.5937C10.7449 12.5603 10.6164 12.5648 10.4826 12.5669C10.4422 12.5666 10.4019 12.5664 10.3603 12.5661C10.2484 12.5655 10.1365 12.5662 10.0245 12.5671C9.9038 12.5678 9.78306 12.5673 9.66231 12.567C9.45305 12.5665 9.2438 12.5668 9.03454 12.5677C8.73161 12.5689 8.42869 12.5689 8.12575 12.5685C7.63378 12.5678 7.14181 12.5681 6.64984 12.569C6.17277 12.5699 5.69571 12.5706 5.21865 12.5709C5.1893 12.5709 5.15994 12.5709 5.1297 12.571C4.80901 12.5711 4.48832 12.5712 4.16762 12.5711C4.13941 12.5711 4.11119 12.571 4.08212 12.571C3.9693 12.571 3.85647 12.5709 3.74365 12.5709C3.41372 12.5707 3.0838 12.5709 2.75387 12.5717C2.54674 12.5722 2.33962 12.5725 2.13249 12.5724C2.01308 12.5724 1.89368 12.5726 1.77427 12.5731C1.6446 12.5738 1.51494 12.5737 1.38526 12.5735C1.32911 12.5739 1.32911 12.5739 1.27182 12.5744C0.882949 12.5726 0.572035 12.4913 0.282251 12.2245C0.0363744 11.9661 -0.0185812 11.6887 -0.0157261 11.3414C-0.0159211 11.3046 -0.0161161 11.2677 -0.016317 11.2298C-0.0167271 11.1284 -0.0165826 11.0271 -0.0161937 10.9257C-0.0159096 10.8161 -0.0163481 10.7064 -0.0166912 10.5968C-0.0172457 10.3823 -0.0171276 10.1679 -0.0167646 9.95343C-0.0164818 9.77909 -0.0164443 9.60475 -0.0165801 9.43041C-0.0165992 9.40555 -0.0166184 9.3807 -0.0166381 9.35509C-0.0166781 9.30459 -0.0167187 9.25409 -0.0167597 9.20359C-0.0171158 8.73059 -0.016707 8.2576 -0.0160347 7.7846C-0.0154762 7.37907 -0.0155733 6.97354 -0.0161495 6.56801C-0.016819 6.0966 -0.0170816 5.6252 -0.016698 5.15379C-0.0166582 5.10349 -0.0166189 5.05319 -0.0165801 5.0029C-0.0165608 4.97815 -0.0165416 4.9534 -0.0165217 4.92791C-0.0164139 4.75384 -0.0165955 4.57976 -0.01689 4.40569C-0.0172412 4.19347 -0.0171446 3.98126 -0.01648 3.76904C-0.0161522 3.66084 -0.0160214 3.55264 -0.0164361 3.44444C-0.0167779 3.327 -0.0163489 3.20958 -0.0157261 3.09213C-0.0160049 3.05815 -0.0162837 3.02416 -0.016571 2.98915C-0.0133365 2.67441 0.0940086 2.41636 0.312647 2.18749C0.544142 1.99596 0.744735 1.89638 1.0487 1.8982ZM0.968897 2.90624C0.794282 3.43009 0.937647 4.01031 0.937647 4.56249C5.37202 4.56249 9.8064 4.56249 14.3751 4.56249C14.4698 3.68903 14.4698 3.68903 14.3126 2.87499C14.2034 2.83856 14.1181 2.83979 14.0027 2.83972C13.9805 2.83967 13.9583 2.83961 13.9354 2.83956C13.8603 2.83941 13.7852 2.83949 13.7102 2.83956C13.6561 2.8395 13.6019 2.83943 13.5478 2.83935C13.3986 2.83916 13.2494 2.83916 13.1002 2.8392C12.9395 2.8392 12.7788 2.83903 12.618 2.83888C12.303 2.83862 11.9879 2.83854 11.6729 2.83852C11.4169 2.83851 11.161 2.83844 10.905 2.83834C10.1799 2.83807 9.45474 2.83792 8.72963 2.83795C8.67095 2.83795 8.67095 2.83795 8.61109 2.83795C8.57192 2.83795 8.53275 2.83795 8.4924 2.83795C7.85736 2.83797 7.22231 2.83767 6.58727 2.83723C5.93581 2.83678 5.28436 2.83656 4.6329 2.83659C4.26692 2.8366 3.90093 2.83651 3.53494 2.83618C3.22339 2.83589 2.91183 2.83582 2.60028 2.83604C2.44121 2.83614 2.28215 2.83614 2.12309 2.83587C1.97761 2.83563 1.83214 2.83567 1.68667 2.83594C1.63391 2.83599 1.58114 2.83593 1.52838 2.83576C1.45692 2.83554 1.38546 2.8357 1.31399 2.83596C1.25434 2.83595 1.25434 2.83595 1.19347 2.83594C1.09894 2.84335 1.04527 2.85107 0.968897 2.90624ZM0.937647 5.53124C0.51933 8.653 0.51933 8.653 1.00015 11.5625C1.0776 11.6012 1.12862 11.5976 1.21529 11.5976C1.24774 11.5976 1.2802 11.5977 1.31363 11.5978C1.34956 11.5977 1.3855 11.5976 1.42251 11.5975C1.47945 11.5975 1.47945 11.5975 1.53753 11.5976C1.64321 11.5976 1.74889 11.5975 1.85457 11.5974C1.9684 11.5972 2.08224 11.5973 2.19608 11.5973C2.39342 11.5973 2.59076 11.5972 2.7881 11.597C3.07343 11.5968 3.35876 11.5967 3.64408 11.5967C4.10697 11.5966 4.56985 11.5964 5.03274 11.5961C5.48248 11.5958 5.93221 11.5956 6.38195 11.5955C6.40966 11.5954 6.43737 11.5954 6.46591 11.5954C6.6049 11.5954 6.7439 11.5954 6.88289 11.5953C8.03656 11.595 9.19023 11.5944 10.3439 11.5937C10.3384 11.5748 10.333 11.556 10.3274 11.5365C10.3024 11.4501 10.2776 11.3638 10.2528 11.2774C10.2442 11.2477 10.2356 11.2179 10.2268 11.1873C10.1037 10.7585 10.0837 10.3608 10.0834 9.91723C10.0832 9.85516 10.083 9.79308 10.0828 9.73101C10.0824 9.60163 10.0823 9.47225 10.0823 9.34287C10.0823 9.17727 10.0815 9.01168 10.0804 8.84607C10.0797 8.7182 10.0796 8.59032 10.0796 8.46244C10.0795 8.40137 10.0793 8.34029 10.0788 8.27922C10.0782 8.19397 10.0783 8.10875 10.0787 8.0235C10.0784 7.99847 10.078 7.97343 10.0777 7.94764C10.0795 7.78422 10.1121 7.69288 10.2189 7.56249C10.3568 7.44504 10.5105 7.45002 10.6837 7.43944C11.419 7.3814 12.01 7.08871 12.5978 6.65898C12.7776 6.52872 12.9138 6.44464 13.1406 6.47753C13.3407 6.53495 13.5046 6.67649 13.6708 6.79723C13.7083 6.82447 13.7458 6.85169 13.7833 6.8789C13.8018 6.8923 13.8202 6.90571 13.8393 6.91952C14.0868 7.10741 14.0868 7.10741 14.3751 7.18749C14.3751 6.64093 14.3751 6.09437 14.3751 5.53124C9.94077 5.53124 5.5064 5.53124 0.937647 5.53124ZM12.8244 7.65624C12.5941 7.82024 12.3508 7.94564 12.0939 8.06249C12.0616 8.07727 12.0293 8.09206 11.996 8.10729C11.7791 8.19816 11.5596 8.25077 11.3305 8.30138C11.2986 8.30851 11.2668 8.31564 11.234 8.32298C11.1561 8.34042 11.0781 8.35775 11.0001 8.37499C10.9985 8.59942 10.9975 8.82385 10.9967 9.04829C10.9964 9.12435 10.996 9.20041 10.9954 9.27646C10.9871 10.4731 11.1335 11.5198 12.0001 12.4083C12.2819 12.688 12.6612 13.0187 13.0626 13.0937C13.7201 12.9273 14.3025 12.2106 14.631 11.666C15.0712 10.8909 15.0676 10.0412 15.0646 9.17577C15.0644 9.09797 15.0643 9.02017 15.0642 8.94237C15.0638 8.75325 15.0633 8.56412 15.0626 8.37499C15.0405 8.36986 15.0183 8.36474 14.9955 8.35945C14.8936 8.33577 14.7918 8.3118 14.69 8.28783C14.6551 8.27977 14.6203 8.27171 14.5843 8.26341C14.0499 8.13699 13.5362 7.9134 13.1081 7.56347C12.9964 7.48425 12.9178 7.58765 12.8244 7.65624Z" fill="#FDFDFD"/>
<path d="M2.14021 9.08935C2.17662 9.08917 2.21303 9.08899 2.25054 9.08881C2.29069 9.08877 2.33083 9.08874 2.3722 9.0887C2.41475 9.08856 2.4573 9.0884 2.49985 9.08823C2.61562 9.08782 2.73139 9.08762 2.84716 9.08748C2.91947 9.08739 2.99179 9.08726 3.0641 9.08712C3.2903 9.08669 3.51651 9.08639 3.74272 9.08627C4.00392 9.08613 4.26512 9.08558 4.52632 9.08468C4.72815 9.084 4.92998 9.08369 5.13182 9.08365C5.25239 9.08361 5.37296 9.08343 5.49353 9.08287C5.60698 9.08236 5.72043 9.08229 5.83388 9.08256C5.89531 9.0826 5.95675 9.08217 6.01818 9.08173C6.05486 9.0819 6.09153 9.08207 6.12931 9.08225C6.16112 9.08221 6.19293 9.08216 6.2257 9.08211C6.38417 9.10331 6.4908 9.19473 6.59384 9.31249C6.64784 9.4745 6.65461 9.65083 6.58603 9.80858C6.43674 9.98985 6.43674 9.98985 6.31259 10.0312C6.25434 10.0343 6.196 10.0356 6.13767 10.0358C6.08306 10.0362 6.08306 10.0362 6.02735 10.0365C5.96737 10.0366 5.96737 10.0366 5.90618 10.0368C5.86367 10.037 5.82117 10.0372 5.77866 10.0374C5.63905 10.038 5.49944 10.0384 5.35983 10.0387C5.31175 10.0388 5.26366 10.0389 5.21558 10.0391C4.98969 10.0397 4.7638 10.0401 4.53791 10.0404C4.27724 10.0407 4.01658 10.0415 3.75591 10.0428C3.55436 10.0437 3.35282 10.0442 3.15128 10.0443C3.03093 10.0443 2.91059 10.0446 2.79024 10.0454C2.67699 10.0461 2.56376 10.0463 2.45051 10.0459C2.38927 10.0459 2.32803 10.0465 2.26679 10.0471C1.93195 10.0452 1.93195 10.0452 1.78134 9.90624C1.67053 9.78015 1.64685 9.66978 1.64962 9.50182C1.66452 9.35906 1.72589 9.27183 1.83017 9.17772C1.94408 9.09886 2.00238 9.08975 2.14021 9.08935Z" fill="#FDFDFD"/>
<path d="M14.1248 9.15625C14.2703 9.23298 14.3847 9.31094 14.4373 9.46875C14.4425 9.52393 14.4456 9.57935 14.447 9.63476C14.4488 9.67809 14.4488 9.67809 14.4506 9.72229C14.4233 9.90713 14.2852 10.0355 14.1619 10.168C14.1342 10.198 14.1065 10.228 14.078 10.2589C14.0522 10.2869 14.0264 10.3149 13.9998 10.3437C13.8794 10.4783 13.7622 10.6156 13.6448 10.7529C13.5959 10.8101 13.5468 10.8672 13.4977 10.9243C13.4423 10.9887 13.3874 11.0535 13.3329 11.1186C13.1041 11.3874 13.1041 11.3874 12.908 11.4147C12.7587 11.4223 12.657 11.3973 12.531 11.3125C12.35 11.1488 12.1893 10.9666 12.031 10.7812C11.9991 10.7447 11.9672 10.7081 11.9352 10.6716C11.9007 10.632 11.8663 10.5924 11.8318 10.5527C11.815 10.5336 11.7983 10.5145 11.781 10.4948C11.6341 10.3249 11.6138 10.2104 11.6159 9.99157C11.6311 9.84604 11.6998 9.76225 11.8073 9.6687C11.8836 9.61925 11.9351 9.60701 12.0252 9.59765C12.0632 9.59294 12.0632 9.59294 12.1019 9.58813C12.3041 9.60144 12.4251 9.69193 12.5555 9.83709C12.5791 9.86456 12.5791 9.86456 12.6033 9.89257C12.6278 9.92022 12.6278 9.92022 12.6529 9.94842C12.6958 9.9967 12.7384 10.0452 12.781 10.0937C12.8016 10.1144 12.8223 10.135 12.8435 10.1562C13.0011 9.98616 13.1554 9.81567 13.3005 9.63476C13.7298 9.10446 13.7298 9.10446 14.1248 9.15625Z" fill="#FDFDFD"/>
<path d="M4.41288 7.05747C4.4522 7.05717 4.49153 7.05687 4.53205 7.05656C4.57489 7.05641 4.61774 7.05628 4.66058 7.05616C4.70472 7.05598 4.74886 7.0558 4.79299 7.05562C4.88549 7.05529 4.97798 7.05511 5.07047 7.055C5.18858 7.05483 5.30667 7.05408 5.42477 7.05319C5.51595 7.0526 5.60713 7.05244 5.69831 7.05239C5.74183 7.0523 5.78535 7.05205 5.82887 7.05164C6.31212 7.04739 6.31212 7.04739 6.52716 7.23438C6.63593 7.36234 6.6356 7.47913 6.63348 7.64051C6.62052 7.7575 6.57804 7.8198 6.49981 7.90626C6.36045 8.01588 6.2698 8.04697 6.0932 8.04743C6.07214 8.04765 6.05107 8.04787 6.02937 8.04809C5.96026 8.04864 5.89119 8.04828 5.82208 8.04786C5.77375 8.04794 5.72543 8.04806 5.6771 8.04822C5.57602 8.0484 5.47495 8.04814 5.37387 8.04755C5.24462 8.04684 5.1154 8.04725 4.98614 8.048C4.88641 8.04845 4.78668 8.04831 4.68695 8.04798C4.63931 8.0479 4.59167 8.048 4.54402 8.04829C4.47731 8.04861 4.41064 8.04812 4.34393 8.04743C4.30605 8.04733 4.26817 8.04723 4.22915 8.04713C4.06709 8.02247 3.97115 7.94366 3.8631 7.82422C3.78649 7.66513 3.7764 7.5092 3.83514 7.34083C3.90861 7.19928 3.99842 7.12391 4.1488 7.07625C4.23779 7.05872 4.32215 7.05803 4.41288 7.05747Z" fill="#FDFDFD"/>
<path d="M2.75001 7.15625C2.86952 7.26278 2.9149 7.33778 2.93946 7.4961C2.9473 7.65372 2.9192 7.78649 2.81251 7.90625C2.63502 8.03496 2.49522 8.05073 2.27931 8.04688C2.23843 8.0476 2.23843 8.0476 2.19673 8.04834C2.02192 8.04729 1.91956 8.02266 1.78126 7.90625C1.67046 7.78017 1.64659 7.6697 1.64967 7.50171C1.66474 7.35492 1.73449 7.2572 1.84181 7.16211C2.07556 6.99515 2.51 6.99972 2.75001 7.15625Z" fill="#FDFDFD"/>
</g>
<defs>
<clipPath id="clip0_55_973">
<rect width="16" height="16" fill="white"/>
</clipPath>
</defs>
</svg>
