<svg width="24" height="24" viewBox="0 0 24 24" fill="none" xmlns="http://www.w3.org/2000/svg">
<g clip-path="url(#clip0_11_589)">
<path d="M14.2477 9.82526C14.2838 9.82497 14.3199 9.82468 14.3571 9.82439C14.4775 9.82361 14.5978 9.82383 14.7181 9.82406C14.8047 9.82372 14.8912 9.82331 14.9778 9.82286C15.2125 9.82182 15.4471 9.82168 15.6818 9.82177C15.878 9.82177 16.0741 9.82137 16.2703 9.82098C16.7333 9.82008 17.1962 9.81994 17.6592 9.82026C18.1361 9.82057 18.6131 9.8195 19.09 9.81776C19.5001 9.81632 19.9101 9.81579 20.3202 9.81597C20.5648 9.81607 20.8095 9.81581 21.0541 9.81466C21.2843 9.81362 21.5145 9.81371 21.7447 9.81466C21.829 9.81482 21.9132 9.81458 21.9974 9.81391C22.8362 9.80768 22.8362 9.80768 23.2031 10.0781C23.3088 10.1867 23.3088 10.1867 23.3701 10.292C23.3915 10.3269 23.4128 10.3617 23.4348 10.3976C23.5603 10.6566 23.5752 10.9416 23.5025 11.219C23.3925 11.5026 23.2216 11.6921 22.9688 11.8594C22.7427 11.9506 22.5538 11.9557 22.3125 11.9531C22.3135 12.0102 22.3145 12.0674 22.3155 12.1262C22.3189 12.3419 22.3211 12.5575 22.3228 12.7731C22.3238 12.8657 22.325 12.9584 22.3267 13.051C22.3393 13.783 22.3037 14.4705 21.9375 15.126C21.9196 15.1588 21.9016 15.1915 21.8831 15.2253C21.4299 16.015 20.6983 16.5179 19.875 16.875C19.8441 16.875 19.8131 16.875 19.7813 16.875C19.7813 16.9059 19.7813 16.9369 19.7813 16.9687C19.8204 16.9804 19.8595 16.9921 19.8997 17.0041C20.8059 17.3292 21.5718 17.9947 21.999 18.8555C22.297 19.5697 22.3378 20.2127 22.3242 20.9766C22.3233 21.0702 22.3224 21.1639 22.3217 21.2576C22.3196 21.4843 22.3164 21.7109 22.3125 21.9375C22.3598 21.9362 22.3598 21.9362 22.408 21.9348C22.4496 21.9341 22.4913 21.9334 22.5343 21.9327C22.596 21.9314 22.596 21.9314 22.659 21.9301C22.9263 21.9463 23.1032 22.072 23.2881 22.2568C23.4989 22.5639 23.5885 22.8338 23.5313 23.2031C23.4211 23.5493 23.2373 23.7743 22.9219 23.9531C22.7541 24.009 22.6016 24.0069 22.427 24.0069C22.3906 24.0071 22.3542 24.0072 22.3166 24.0074C22.1942 24.0079 22.0718 24.0081 21.9494 24.0083C21.8618 24.0086 21.7741 24.0089 21.6865 24.0092C21.4482 24.01 21.2098 24.0105 20.9715 24.0109C20.8225 24.0112 20.6736 24.0114 20.5247 24.0117C20.0588 24.0126 19.5929 24.0133 19.1269 24.0137C18.5891 24.0141 18.0513 24.0154 17.5135 24.0173C17.0978 24.0187 16.6821 24.0194 16.2664 24.0195C16.0181 24.0197 15.7699 24.0201 15.5216 24.0213C15.2879 24.0223 15.0543 24.0225 14.8206 24.0221C14.735 24.022 14.6493 24.0223 14.5637 24.023C14.4465 24.0238 14.3294 24.0235 14.2122 24.0229C14.1617 24.0236 14.1617 24.0236 14.1102 24.0244C13.8168 24.0207 13.5803 23.92 13.3583 23.7323C13.1041 23.4193 13.0379 23.1351 13.0781 22.7344C13.1752 22.4163 13.3584 22.1802 13.626 21.9873C13.781 21.9376 13.8876 21.9324 14.0488 21.9344C14.0952 21.9348 14.1417 21.9353 14.1896 21.9357C14.225 21.9363 14.2604 21.9369 14.2969 21.9375C14.2954 21.8497 14.2954 21.8497 14.2939 21.7601C14.2905 21.5392 14.2884 21.3184 14.2866 21.0975C14.2857 21.0026 14.2844 20.9077 14.2828 20.8128C14.2638 19.6868 14.4781 18.7424 15.2813 17.9062C15.6815 17.5158 16.2726 17.0882 16.8281 16.9687C16.8281 16.9378 16.8281 16.9069 16.8281 16.875C16.7887 16.863 16.7494 16.8511 16.7088 16.8387C16.2139 16.663 15.7645 16.3807 15.375 16.0312C15.3322 15.9949 15.3322 15.9949 15.2884 15.9578C14.7362 15.4559 14.3407 14.6411 14.2887 13.8984C14.2861 13.7733 14.2863 13.6484 14.2877 13.5232C14.2879 13.4781 14.288 13.4329 14.2881 13.3863C14.2887 13.2435 14.2898 13.1008 14.291 12.958C14.2915 12.8606 14.2919 12.7631 14.2923 12.6657C14.2933 12.4281 14.295 12.1906 14.2969 11.9531C14.2374 11.9537 14.178 11.9543 14.1167 11.9549C13.833 11.9576 13.6148 11.8701 13.4037 11.6779C13.1464 11.3955 13.053 11.1604 13.0602 10.7776C13.0974 10.4937 13.2256 10.2611 13.4238 10.0576C13.7029 9.89153 13.9228 9.82281 14.2477 9.82526ZM13.8281 10.7812C13.793 10.8984 13.793 10.8984 13.8281 11.0156C13.9809 11.1723 14.0944 11.2246 14.3137 11.2284C14.362 11.2278 14.362 11.2278 14.4112 11.2272C14.4633 11.2277 14.4633 11.2277 14.5163 11.2282C14.6323 11.2291 14.7483 11.2286 14.8642 11.2281C14.9475 11.2285 15.0307 11.2289 15.114 11.2293C15.3399 11.2304 15.5659 11.2303 15.7918 11.2298C15.9804 11.2296 16.169 11.23 16.3576 11.2303C16.8025 11.2311 17.2474 11.2309 17.6922 11.2301C18.1513 11.2293 18.6104 11.2301 19.0695 11.2316C19.4636 11.2329 19.8577 11.2332 20.2518 11.2328C20.4872 11.2326 20.7226 11.2327 20.958 11.2336C21.1793 11.2345 21.4006 11.2342 21.6219 11.2331C21.7032 11.2328 21.7844 11.233 21.8656 11.2336C21.9765 11.2343 22.0873 11.2336 22.1982 11.2326C22.2464 11.2334 22.2464 11.2334 22.2957 11.2342C22.4738 11.2308 22.5449 11.2048 22.6859 11.0918C22.7938 10.9785 22.7938 10.9785 22.7813 10.8457C22.7294 10.7224 22.7017 10.6722 22.5938 10.5937C22.4762 10.5798 22.3701 10.5746 22.2525 10.5756C22.2174 10.5753 22.1824 10.5751 22.1464 10.5748C22.0287 10.5741 21.911 10.5745 21.7933 10.5748C21.7091 10.5745 21.6249 10.5742 21.5407 10.5738C21.3116 10.573 21.0826 10.573 20.8535 10.5733C20.6625 10.5735 20.4714 10.5732 20.2804 10.5729C19.8297 10.5722 19.3791 10.5723 18.9285 10.5728C18.4632 10.5734 17.998 10.5727 17.5327 10.5715C17.1336 10.5704 16.7345 10.5701 16.3354 10.5704C16.0968 10.5705 15.8583 10.5704 15.6198 10.5696C15.3955 10.5689 15.1713 10.5691 14.947 10.57C14.8646 10.5701 14.7822 10.57 14.6998 10.5695C14.5875 10.5689 14.4752 10.5694 14.3629 10.5702C14.3302 10.5698 14.2974 10.5693 14.2637 10.5689C14.0525 10.5721 13.9545 10.6105 13.8281 10.7812ZM15.0469 11.9531C14.9562 13.2005 14.9562 13.2005 15.2344 14.5312C17.2608 14.5312 19.2872 14.5312 21.375 14.5312C21.6927 13.5782 21.5625 13.2211 21.5625 11.9531C19.4124 11.9531 17.2622 11.9531 15.0469 11.9531ZM15.7031 15.2344C16.1021 15.6998 16.5176 15.9344 17.0646 16.1929C17.1039 16.2118 17.1432 16.2306 17.1837 16.2501C17.219 16.2666 17.2544 16.2832 17.2907 16.3003C17.3906 16.3594 17.3906 16.3594 17.4767 16.4584C17.6197 16.5831 17.7201 16.5711 17.9077 16.5718C17.9393 16.5719 17.9708 16.5721 18.0033 16.5723C18.0698 16.5724 18.1363 16.5721 18.2028 16.5713C18.3044 16.5703 18.4058 16.5713 18.5074 16.5725C18.5722 16.5724 18.6369 16.5721 18.7017 16.5718C18.7604 16.5716 18.8191 16.5713 18.8796 16.5711C19.0596 16.5423 19.1018 16.4939 19.2188 16.3594C19.3172 16.3017 19.3172 16.3017 19.4224 16.2534C19.4612 16.235 19.5001 16.2166 19.5401 16.1976C19.581 16.1785 19.6219 16.1594 19.6641 16.1396C20.1498 15.9047 20.5642 15.662 20.9063 15.2344C19.1892 15.2344 17.4722 15.2344 15.7031 15.2344ZM17.3906 17.4844C17.3117 17.5289 17.2314 17.5711 17.15 17.6109C17.1048 17.6335 17.0595 17.6561 17.0128 17.6794C16.9654 17.703 16.918 17.7266 16.8692 17.751C16.1474 18.121 15.5786 18.5521 15.2344 19.3125C15.2344 19.3434 15.2344 19.3744 15.2344 19.4062C17.2608 19.4062 19.2872 19.4062 21.375 19.4062C21.2567 19.0747 21.2567 19.0747 21.0733 18.8115C21.0463 18.7785 21.0192 18.7454 20.9914 18.7114C20.9493 18.6609 20.9493 18.6609 20.9063 18.6094C20.8771 18.5705 20.848 18.5317 20.818 18.4916C20.4722 18.0853 19.9243 17.8466 19.4565 17.6118C19.4157 17.5911 19.3748 17.5705 19.3327 17.5492C19.296 17.531 19.2594 17.5128 19.2217 17.4941C19.125 17.4375 19.125 17.4375 19.0607 17.3615C18.8936 17.2199 18.6147 17.2746 18.4059 17.276C18.3112 17.2764 18.2166 17.275 18.122 17.2735C18.0321 17.2736 18.0321 17.2736 17.9403 17.2736C17.8855 17.2735 17.8307 17.2734 17.7742 17.2734C17.5942 17.3017 17.5252 17.3646 17.3906 17.4844ZM15.0469 20.1094C15.0469 20.7126 15.0469 21.3159 15.0469 21.9375C17.1971 21.9375 19.3472 21.9375 21.5625 21.9375C21.5625 21.3342 21.5625 20.7309 21.5625 20.1094C19.4124 20.1094 17.2622 20.1094 15.0469 20.1094ZM13.9219 22.7344C13.8125 22.8669 13.8125 22.8669 13.8399 23.0185C13.8637 23.1609 13.8637 23.1609 13.9688 23.25C14.1391 23.3126 14.3126 23.3029 14.4922 23.3031C14.543 23.3033 14.543 23.3033 14.5949 23.3035C14.7084 23.3038 14.8219 23.3037 14.9355 23.3037C15.0169 23.3038 15.0982 23.304 15.1796 23.3042C15.4007 23.3046 15.6218 23.3047 15.8429 23.3047C16.0275 23.3048 16.212 23.3049 16.3965 23.3051C16.8318 23.3055 17.2671 23.3056 17.7023 23.3056C18.1515 23.3055 18.6007 23.306 19.0499 23.3068C19.4355 23.3074 19.821 23.3076 20.2066 23.3076C20.4369 23.3076 20.6672 23.3077 20.8975 23.3082C21.1141 23.3087 21.3307 23.3087 21.5473 23.3083C21.6268 23.3083 21.7063 23.3084 21.7858 23.3087C21.8943 23.309 22.0027 23.3088 22.1112 23.3085C22.2023 23.3085 22.2023 23.3085 22.2953 23.3085C22.4495 23.2971 22.552 23.2763 22.6875 23.2031C22.7969 23.0706 22.7969 23.0706 22.7696 22.9189C22.7457 22.7766 22.7457 22.7766 22.6406 22.6875C22.4703 22.6249 22.2968 22.6346 22.1172 22.6343C22.0833 22.6342 22.0494 22.6341 22.0145 22.634C21.901 22.6337 21.7875 22.6338 21.674 22.6338C21.5926 22.6337 21.5112 22.6335 21.4298 22.6333C21.2087 22.6329 20.9876 22.6328 20.7665 22.6328C20.582 22.6327 20.3974 22.6326 20.2129 22.6324C19.7776 22.632 19.3423 22.6319 18.9071 22.6319C18.4579 22.632 18.0087 22.6315 17.5595 22.6307C17.1739 22.6301 16.7884 22.6299 16.4028 22.6299C16.1725 22.6299 15.9422 22.6298 15.7119 22.6293C15.4953 22.6288 15.2787 22.6288 15.0622 22.6292C14.9827 22.6292 14.9032 22.6291 14.8237 22.6288C14.7152 22.6285 14.6067 22.6287 14.4982 22.629C14.4375 22.629 14.3767 22.629 14.3142 22.629C14.16 22.6403 14.0574 22.6612 13.9219 22.7344Z" fill="#FDFDFD"/>
<path d="M2.19271 -0.0191229C2.24254 -0.0194746 2.29236 -0.0198262 2.34369 -0.0201886C2.51008 -0.0211858 2.67646 -0.0211831 2.84285 -0.0211757C2.96237 -0.0216734 3.08189 -0.0222279 3.20141 -0.0228351C3.52565 -0.0242766 3.84989 -0.0248003 4.17414 -0.0250683C4.37673 -0.0252445 4.57931 -0.0256576 4.7819 -0.0261229C5.34326 -0.0273849 5.90462 -0.0284407 6.46598 -0.0285547C6.51979 -0.0285656 6.51979 -0.0285656 6.57469 -0.0285768C6.6474 -0.0285905 6.72012 -0.0286038 6.79283 -0.0286169C6.82893 -0.0286236 6.86502 -0.0286303 6.90221 -0.0286372C6.95641 -0.0286471 6.95641 -0.0286471 7.01172 -0.0286571C7.59768 -0.0288041 8.18362 -0.0305206 8.76958 -0.0329327C9.37175 -0.0353917 9.97391 -0.0366225 10.5761 -0.0365962C10.914 -0.036608 11.2518 -0.0371333 11.5897 -0.038995C11.9074 -0.0407365 12.225 -0.0407847 12.5426 -0.0396901C12.6592 -0.0395558 12.7757 -0.0399822 12.8923 -0.041011C13.0515 -0.042329 13.2105 -0.0416216 13.3697 -0.0404089C13.4158 -0.0412688 13.4618 -0.0421286 13.5093 -0.0430145C13.8077 -0.0378755 13.9576 0.0309101 14.1691 0.24176C14.2091 0.284509 14.2091 0.284509 14.25 0.328121C14.3133 0.388563 14.3133 0.388563 14.378 0.450225C14.4354 0.507662 14.4354 0.507662 14.494 0.566259C14.5158 0.587912 14.5375 0.609565 14.5599 0.631874C14.6313 0.703078 14.7025 0.774446 14.7737 0.845817C14.8254 0.897447 14.8771 0.949066 14.9288 1.00068C15.0682 1.13982 15.2074 1.27911 15.3466 1.41843C15.4925 1.56447 15.6385 1.7104 15.7845 1.85634C16.0293 2.10107 16.2741 2.34589 16.5187 2.59077C16.8017 2.87404 17.0849 3.15714 17.3682 3.44015C17.6117 3.68342 17.8551 3.92678 18.0984 4.17022C18.2436 4.31552 18.3888 4.46078 18.5342 4.60596C18.6705 4.74217 18.8068 4.8785 18.9429 5.01491C18.993 5.06503 19.0431 5.11511 19.0932 5.16514C19.1614 5.23323 19.2295 5.30147 19.2975 5.36974C19.3357 5.40795 19.3739 5.44615 19.4132 5.48551C19.5604 5.64273 19.5535 5.74693 19.5559 5.95849C19.557 6.04884 19.557 6.04884 19.5582 6.14103C19.5587 6.20711 19.5592 6.2732 19.5596 6.33929C19.5599 6.37253 19.5601 6.40576 19.5604 6.44001C19.5617 6.61595 19.5626 6.79189 19.5632 6.96783C19.564 7.14943 19.5661 7.33098 19.5685 7.51256C19.5701 7.65231 19.5706 7.79204 19.5709 7.93179C19.5712 7.99872 19.5719 8.06565 19.573 8.13256C19.5745 8.22634 19.5744 8.32014 19.5742 8.41393C19.5746 8.46726 19.5749 8.52058 19.5753 8.57552C19.5378 8.7642 19.4603 8.83416 19.3125 8.95312C19.1718 8.98242 19.1718 8.98242 19.0312 8.95312C18.9067 8.87014 18.9067 8.87014 18.7968 8.71875C18.7639 8.52645 18.7696 8.33674 18.7739 8.14215C18.7743 8.0863 18.7746 8.03044 18.7749 7.9729C18.7763 7.79473 18.7792 7.61662 18.7822 7.43847C18.7834 7.31759 18.7844 7.19671 18.7854 7.07583C18.788 6.7797 18.7919 6.4836 18.7968 6.1875C18.7421 6.18791 18.6873 6.18833 18.6309 6.18876C18.1137 6.19257 17.5965 6.19537 17.0793 6.19721C16.8134 6.19819 16.5475 6.19951 16.2816 6.20164C16.0248 6.20369 15.768 6.2048 15.5112 6.20529C15.4134 6.20563 15.3157 6.2063 15.218 6.20732C15.0805 6.20869 14.9431 6.20887 14.8057 6.20878C14.7657 6.20946 14.7258 6.21013 14.6846 6.21082C14.3092 6.20829 13.9735 6.10396 13.6933 5.84765C13.3624 5.48395 13.3051 5.11079 13.3071 4.63571C13.3071 4.59316 13.3071 4.5506 13.3071 4.50676C13.3071 4.3665 13.3075 4.22625 13.3079 4.08599C13.308 3.98859 13.308 3.89119 13.3081 3.79378C13.3083 3.53771 13.3087 3.28164 13.3092 3.02556C13.3097 2.76414 13.3099 2.50272 13.3102 2.2413C13.3107 1.72857 13.3115 1.21585 13.3125 0.703121C11.8864 0.705893 10.4604 0.709378 9.03445 0.713855C8.866 0.714383 8.69756 0.714905 8.52911 0.715423C8.47881 0.715578 8.47881 0.715578 8.42749 0.715736C7.88489 0.717393 7.3423 0.718559 6.79969 0.719543C6.24272 0.720564 5.68574 0.722115 5.12877 0.724154C4.81602 0.725284 4.50327 0.726154 4.19051 0.726447C3.89607 0.72673 3.60163 0.727667 3.30719 0.729102C3.1992 0.729514 3.09121 0.729689 2.98322 0.729606C2.83556 0.729528 2.68793 0.730312 2.54028 0.731305C2.49774 0.731078 2.45519 0.730851 2.41136 0.730617C2.0755 0.734336 1.77244 0.784556 1.50582 0.999019C1.30878 1.24821 1.24476 1.45637 1.24775 1.7707C1.24753 1.80668 1.24732 1.84267 1.24709 1.87974C1.24653 2.00047 1.24697 2.12118 1.24741 2.2419C1.24721 2.32927 1.24696 2.41664 1.24664 2.50401C1.24596 2.74423 1.24616 2.98443 1.24651 3.22465C1.24673 3.48366 1.24615 3.74268 1.24567 4.00169C1.24486 4.50918 1.24482 5.01667 1.24507 5.52416C1.24526 5.93658 1.24519 6.34901 1.24494 6.76143C1.24488 6.84942 1.24488 6.84942 1.24483 6.93918C1.24476 7.05834 1.24469 7.17749 1.24461 7.29664C1.24415 8.09691 1.24396 8.89717 1.24432 9.69744C1.24433 9.72873 1.24434 9.76003 1.24436 9.79227C1.24447 10.0464 1.2446 10.3006 1.24472 10.5547C1.24519 11.546 1.2448 12.5373 1.24371 13.5286C1.24249 14.6423 1.24189 15.7561 1.24222 16.8698C1.24238 17.4595 1.24228 18.0492 1.24146 18.6389C1.24077 19.1409 1.24074 19.6429 1.24156 20.1449C1.24195 20.4011 1.24205 20.6573 1.24134 20.9134C1.24069 21.1479 1.24091 21.3824 1.24182 21.6169C1.24199 21.7018 1.24185 21.7866 1.24137 21.8715C1.24075 21.9868 1.24129 22.1021 1.24212 22.2175C1.24166 22.2504 1.24121 22.2833 1.24075 22.3173C1.24445 22.5697 1.31956 22.7591 1.45308 22.9687C1.53968 23.0568 1.53968 23.0568 1.63765 23.1064C1.66804 23.1243 1.69844 23.1421 1.72975 23.1605C1.968 23.2638 2.2129 23.2567 2.46842 23.2561C2.50926 23.2562 2.5501 23.2563 2.59218 23.2565C2.72899 23.2567 2.86581 23.2567 3.00262 23.2566C3.10072 23.2568 3.19882 23.257 3.29691 23.2571C3.50813 23.2575 3.71935 23.2577 3.93057 23.2579C4.26439 23.2582 4.59822 23.259 4.93204 23.2598C5.0463 23.2601 5.16056 23.2604 5.27482 23.2607C5.36065 23.261 5.36065 23.261 5.4482 23.2612C6.22539 23.2632 7.00258 23.2647 7.77978 23.2653C8.30405 23.2657 8.82832 23.2667 9.3526 23.2685C9.6301 23.2695 9.9076 23.27 10.1851 23.2698C10.4459 23.2696 10.7067 23.2702 10.9676 23.2715C11.0634 23.2719 11.1592 23.2719 11.2551 23.2715C11.3857 23.2711 11.5162 23.2718 11.6468 23.2729C11.685 23.2725 11.7231 23.2721 11.7624 23.2717C11.9287 23.2741 12.0277 23.283 12.1641 23.3819C12.2672 23.5324 12.2598 23.6344 12.2343 23.8125C12.1649 23.915 12.1649 23.915 12.0468 24C11.9036 24.0184 11.7774 24.0253 11.6342 24.0238C11.592 24.0241 11.5499 24.0244 11.5065 24.0247C11.365 24.0254 11.2235 24.0248 11.082 24.0243C10.9807 24.0245 10.8794 24.0248 10.778 24.0253C10.5025 24.0261 10.2269 24.0258 9.9514 24.0252C9.66302 24.0247 9.37465 24.0251 9.08628 24.0254C8.60166 24.0258 8.11705 24.0253 7.63243 24.0244C7.07263 24.0234 6.51285 24.0238 5.95305 24.0248C5.47235 24.0256 4.99165 24.0258 4.51095 24.0253C4.2239 24.025 3.93685 24.0249 3.6498 24.0256C3.37963 24.0261 3.10947 24.0257 2.8393 24.0246C2.74032 24.0244 2.64135 24.0245 2.54237 24.0249C1.89668 24.0273 1.3861 24.0163 0.892778 23.551C0.586478 23.1886 0.461454 22.7964 0.462414 22.332C0.462304 22.2959 0.462193 22.2597 0.46208 22.2225C0.461766 22.1006 0.461788 21.9788 0.461807 21.8569C0.461652 21.769 0.461478 21.681 0.461285 21.5931C0.460815 21.3508 0.460641 21.1085 0.460516 20.8662C0.460334 20.6051 0.459885 20.344 0.459475 20.0829C0.458548 19.4521 0.458077 18.8212 0.45766 18.1904C0.457454 17.8934 0.457203 17.5964 0.456957 17.2994C0.45616 16.3122 0.455479 15.3251 0.455141 14.3379C0.455119 14.2741 0.455096 14.2103 0.455074 14.1464C0.455063 14.1148 0.455052 14.0831 0.45504 14.0505C0.454984 13.8901 0.454927 13.7297 0.45487 13.5693C0.454858 13.5375 0.454847 13.5056 0.454836 13.4728C0.454466 12.441 0.453367 11.4091 0.451844 10.3772C0.450235 9.28614 0.449312 8.19505 0.449158 7.10396C0.449056 6.50926 0.448645 5.91455 0.447449 5.31985C0.446432 4.81339 0.446053 4.30694 0.446509 3.80048C0.446723 3.5421 0.446633 3.28372 0.445724 3.02534C0.444898 2.78866 0.444943 2.552 0.445672 2.31532C0.445784 2.22983 0.44558 2.14435 0.445024 2.05886C0.441238 1.43831 0.487209 0.894941 0.937456 0.421871C1.31769 0.0747725 1.68908 -0.0211539 2.19271 -0.0191229ZM14.0625 1.26562C14.0592 1.74359 14.0567 2.22155 14.0552 2.69953C14.0544 2.92149 14.0534 3.14343 14.0518 3.36538C14.0503 3.57966 14.0495 3.79392 14.0491 4.0082C14.0489 4.08987 14.0483 4.17154 14.0476 4.25321C14.0466 4.36777 14.0464 4.48231 14.0465 4.59688C14.046 4.6305 14.0455 4.66411 14.045 4.69875C14.0465 4.95418 14.1105 5.13813 14.2734 5.33496C14.4424 5.46878 14.6407 5.44381 14.8445 5.44282C14.8811 5.44282 14.9177 5.44283 14.9554 5.44284C15.0764 5.44281 15.1974 5.44244 15.3184 5.44207C15.4023 5.44199 15.4861 5.44192 15.57 5.44187C15.7908 5.44169 16.0116 5.44123 16.2323 5.44071C16.4576 5.44024 16.6829 5.44002 16.9082 5.43979C17.3502 5.43928 17.7923 5.43848 18.2343 5.4375C18.0239 5.18547 17.8015 4.95104 17.569 4.71928C17.5316 4.68174 17.4941 4.6442 17.4555 4.60552C17.3326 4.4824 17.2095 4.35945 17.0864 4.23651C17.0008 4.1508 16.9151 4.0651 16.8295 3.97938C16.6504 3.80031 16.4714 3.62132 16.2922 3.44239C16.0849 3.23534 15.8778 3.02813 15.6707 2.82082C15.4713 2.62116 15.2718 2.42164 15.0722 2.22217C14.9872 2.13729 14.9024 2.05238 14.8175 1.96744C14.6995 1.84926 14.5813 1.73124 14.463 1.61326C14.4277 1.57783 14.3924 1.54241 14.356 1.50591C14.324 1.47404 14.292 1.44217 14.259 1.40934C14.2311 1.38142 14.2031 1.3535 14.1743 1.32473C14.1182 1.26037 14.1182 1.26037 14.0625 1.26562Z" fill="#FDFDFD"/>
<path d="M3.30416 5.41369C3.36567 5.41316 3.42718 5.41263 3.49056 5.41209C3.5584 5.41245 3.62625 5.41284 3.69409 5.41324C3.76579 5.41298 3.83749 5.41265 3.90918 5.41224C4.10366 5.41139 4.29812 5.41172 4.49259 5.41231C4.69618 5.41279 4.89976 5.41235 5.10335 5.41205C5.44523 5.41171 5.7871 5.41216 6.12898 5.41305C6.52416 5.41407 6.91931 5.41374 7.31449 5.41271C7.65386 5.41186 7.99324 5.41174 8.33262 5.41223C8.53527 5.41252 8.73792 5.41256 8.94058 5.41194C9.13111 5.4114 9.32162 5.41178 9.51216 5.41286C9.58205 5.41311 9.65195 5.41304 9.72185 5.41262C9.8173 5.41211 9.91277 5.41287 10.0082 5.41369C10.0883 5.41379 10.0883 5.41379 10.1701 5.4139C10.3446 5.44283 10.4225 5.50102 10.5468 5.625C10.6057 5.79796 10.6098 5.87174 10.5322 6.03808C10.4531 6.14062 10.4531 6.14062 10.3593 6.1875C10.2623 6.19231 10.1652 6.19404 10.0681 6.1944C10.0228 6.19466 10.0228 6.19466 9.97664 6.19492C9.87502 6.19544 9.7734 6.19562 9.67178 6.1958C9.5991 6.19609 9.52642 6.1964 9.45375 6.19673C9.25598 6.19755 9.05821 6.19804 8.86045 6.19843C8.73696 6.19867 8.61348 6.19895 8.49 6.19925C8.10386 6.20014 7.71773 6.20081 7.33159 6.2012C6.88545 6.20166 6.43932 6.20289 5.99318 6.20478C5.64859 6.2062 5.30401 6.20689 4.95942 6.20705C4.75348 6.20716 4.54756 6.20758 4.34163 6.20876C4.14795 6.20984 3.95428 6.21005 3.76059 6.20956C3.68947 6.20954 3.61834 6.20984 3.54721 6.21048C3.45017 6.21131 3.3532 6.21098 3.25615 6.21036C3.20183 6.21047 3.14751 6.21059 3.09154 6.2107C2.92356 6.18255 2.86887 6.13265 2.76556 6C2.73901 5.90625 2.73901 5.90625 2.7392 5.8125C2.73817 5.78156 2.73714 5.75062 2.73608 5.71875C2.81907 5.45484 3.05954 5.41401 3.30416 5.41369Z" fill="#FDFDFD"/>
<path d="M3.25558 3.11713C3.28585 3.11687 3.31612 3.11661 3.34731 3.11634C3.44866 3.11571 3.54995 3.11641 3.6513 3.11711C3.72399 3.11693 3.79668 3.11667 3.86937 3.11634C4.06675 3.11569 4.26412 3.11621 4.4615 3.11698C4.66798 3.11763 4.87447 3.11733 5.08096 3.11716C5.42773 3.11704 5.77449 3.11767 6.12126 3.11876C6.52226 3.12 6.92325 3.12008 7.32426 3.11953C7.70989 3.11903 8.09552 3.11932 8.48116 3.11998C8.64533 3.12025 8.8095 3.12025 8.97367 3.12003C9.16697 3.1198 9.36026 3.12028 9.55356 3.12129C9.62453 3.12155 9.69551 3.12157 9.76648 3.12134C9.86331 3.12106 9.96009 3.12165 10.0569 3.12245C10.1111 3.12257 10.1653 3.12268 10.2212 3.1228C10.3747 3.1426 10.4393 3.17116 10.5469 3.28125C10.5878 3.44198 10.6092 3.55747 10.5615 3.71777C10.4847 3.81658 10.4293 3.84468 10.3125 3.89062C10.1759 3.90268 10.1759 3.90268 10.0139 3.90316C9.92174 3.90376 9.92174 3.90376 9.82771 3.90437C9.7597 3.90434 9.69168 3.9043 9.62367 3.90424C9.55197 3.90452 9.48028 3.90484 9.40859 3.9052C9.21393 3.90603 9.01926 3.90625 8.8246 3.90631C8.66209 3.90639 8.49959 3.90674 8.33708 3.90707C7.95372 3.90783 7.57036 3.90806 7.18699 3.908C6.79147 3.90794 6.39597 3.90893 6.00045 3.91041C5.66088 3.91164 5.3213 3.91214 4.98173 3.91208C4.77891 3.91206 4.57611 3.91232 4.37329 3.91331C4.18257 3.91422 3.99186 3.91423 3.80114 3.91355C3.73116 3.91345 3.66119 3.91367 3.59122 3.91424C3.49566 3.91496 3.40009 3.91441 3.30453 3.9138C3.25107 3.91385 3.1976 3.91391 3.14251 3.91396C2.96867 3.8855 2.89015 3.82537 2.76562 3.70312C2.73614 3.60938 2.73614 3.60938 2.73925 3.51562C2.73919 3.48469 2.73913 3.45375 2.73907 3.42188C2.81476 3.1546 3.0048 3.11718 3.25558 3.11713Z" fill="#FDFDFD"/>
</g>
<defs>
<clipPath id="clip0_11_589">
<rect width="24" height="24" fill="white"/>
</clipPath>
</defs>
</svg>
