<svg width="18" height="18" viewBox="0 0 18 18" fill="none" xmlns="http://www.w3.org/2000/svg">
<g clip-path="url(#clip0_11_2128)">
<path d="M5.82308 1.00745C5.84846 1.0073 5.87384 1.00715 5.89999 1.00699C5.98428 1.00656 6.06857 1.00662 6.15286 1.00667C6.21361 1.00647 6.27436 1.00624 6.33511 1.00598C6.49964 1.00539 6.66417 1.00522 6.8287 1.00518C6.93166 1.00513 7.03463 1.00499 7.13759 1.00481C7.49731 1.00418 7.85703 1.00391 8.21675 1.00396C8.55123 1.004 8.88571 1.00328 9.22019 1.00221C9.50802 1.00133 9.79585 1.00096 10.0837 1.00101C10.2553 1.00102 10.4269 1.00084 10.5985 1.00011C10.7601 0.999455 10.9216 0.999456 11.0832 0.999946C11.1422 1.00002 11.2012 0.99986 11.2602 0.999447C11.7591 0.996188 12.1747 1.05837 12.5708 1.38924C12.5952 1.40947 12.6196 1.42969 12.6448 1.45052C12.8833 1.66744 13.0924 2.01553 13.1188 2.34326C13.1207 2.42938 13.1205 2.51525 13.1195 2.6014C13.1194 2.64835 13.1194 2.64835 13.1192 2.69624C13.1189 2.79567 13.118 2.89508 13.1172 2.9945C13.1168 3.06214 13.1165 3.12978 13.1162 3.19741C13.1155 3.36273 13.1143 3.52805 13.1129 3.69337C13.1481 3.69314 13.1833 3.69291 13.2195 3.69268C13.5525 3.69061 13.8855 3.68909 14.2184 3.6881C14.3896 3.68757 14.5607 3.68685 14.7319 3.6857C14.8973 3.68459 15.0627 3.68398 15.2282 3.68372C15.291 3.68353 15.3539 3.68317 15.4167 3.68262C15.9886 3.67779 16.4912 3.73131 16.9334 4.13386C17.2176 4.43398 17.3531 4.79958 17.3544 5.20775C17.3548 5.25233 17.3548 5.25233 17.3551 5.29781C17.3558 5.39616 17.3562 5.49451 17.3565 5.59286C17.3567 5.62658 17.3568 5.6603 17.3569 5.69504C17.3576 5.87373 17.3581 6.05241 17.3584 6.2311C17.3588 6.41475 17.36 6.59838 17.3613 6.78203C17.3622 6.92398 17.3625 7.06593 17.3626 7.20789C17.3628 7.27552 17.3632 7.34316 17.3638 7.41079C17.37 8.12192 17.212 8.63341 16.7385 9.1826C16.7273 9.19378 16.7162 9.20496 16.7046 9.21649C16.7013 9.29183 16.7004 9.36729 16.7004 9.44271C16.7004 9.46664 16.7003 9.49058 16.7003 9.51523C16.7002 9.59605 16.7003 9.67686 16.7004 9.75767C16.7003 9.81538 16.7003 9.87309 16.7002 9.9308C16.7 10.0555 16.7 10.1801 16.7 10.3048C16.6999 10.5022 16.6995 10.6996 16.699 10.897C16.6989 10.9303 16.6988 10.9636 16.6987 10.9979C16.6985 11.066 16.6983 11.1341 16.6982 11.2023C16.697 11.662 16.6961 12.1217 16.6962 12.5814C16.6962 12.8912 16.6957 13.201 16.6944 13.5109C16.6938 13.6747 16.6935 13.8386 16.6939 14.0025C16.6943 14.157 16.6939 14.3116 16.6929 14.4661C16.6927 14.5225 16.6927 14.5789 16.6931 14.6353C16.6962 15.1423 16.594 15.5523 16.2303 15.9255C15.9384 16.1971 15.582 16.3362 15.1865 16.3366C15.1637 16.3367 15.1408 16.3368 15.1172 16.3368C15.0405 16.337 14.9637 16.337 14.887 16.3369C14.8314 16.337 14.7759 16.3371 14.7204 16.3372C14.5677 16.3375 14.4149 16.3376 14.2622 16.3376C14.0975 16.3376 13.9329 16.3379 13.7682 16.3381C13.4081 16.3386 13.048 16.3388 12.6878 16.3389C12.463 16.339 12.2381 16.3392 12.0133 16.3393C11.3907 16.3397 10.7682 16.3401 10.1457 16.3402C10.0859 16.3402 10.0859 16.3402 10.0249 16.3402C9.98497 16.3402 9.94503 16.3402 9.90388 16.3403C9.82295 16.3403 9.74201 16.3403 9.66108 16.3403C9.62093 16.3403 9.58079 16.3403 9.53942 16.3403C8.8889 16.3405 8.23837 16.341 7.58785 16.3418C6.91999 16.3426 6.25214 16.3431 5.58429 16.3431C5.2093 16.3431 4.83431 16.3433 4.45933 16.3439C4.14002 16.3445 3.82071 16.3446 3.5014 16.3444C3.33851 16.3442 3.17563 16.3443 3.01274 16.3447C2.86352 16.3452 2.71431 16.3451 2.56509 16.3447C2.5112 16.3446 2.45732 16.3448 2.40344 16.345C1.8878 16.3477 1.46962 16.2509 1.08126 15.8943C0.713688 15.496 0.662453 15.0867 0.666547 14.5716C0.666629 14.5135 0.666664 14.4555 0.666655 14.3975C0.666716 14.273 0.667076 14.1486 0.66766 14.0241C0.668541 13.8271 0.668501 13.6302 0.668294 13.4333C0.667834 12.8734 0.668434 12.3135 0.670335 11.7536C0.671379 11.444 0.671574 11.1345 0.670848 10.8249C0.670438 10.6292 0.671074 10.4336 0.67249 10.2379C0.673122 10.1161 0.672762 9.99432 0.672123 9.8725C0.672025 9.81617 0.67233 9.75984 0.673077 9.70351C0.685183 9.35282 0.685182 9.35282 0.527107 9.05092C0.48742 9.01512 0.447243 8.97984 0.40636 8.94541C0.143592 8.56979 -0.0106058 8.17884 -0.0100945 7.71952C-0.0103221 7.68967 -0.0105497 7.65983 -0.0107842 7.62908C-0.011424 7.53113 -0.0115601 7.4332 -0.0116331 7.33525C-0.0118512 7.26664 -0.0120792 7.19803 -0.0123167 7.12942C-0.0127215 6.98584 -0.0128481 6.84227 -0.0128078 6.69869C-0.012801 6.51549 -0.0137259 6.33231 -0.014893 6.14912C-0.0156497 6.00746 -0.0157839 5.8658 -0.0157482 5.72414C-0.0158277 5.65664 -0.0161251 5.58914 -0.016652 5.52164C-0.0201802 5.0229 0.0217191 4.64105 0.338591 4.23551C0.354796 4.21463 0.371001 4.19375 0.387697 4.17224C0.640658 3.88551 1.05195 3.71829 1.42877 3.68731C1.50398 3.68513 1.57889 3.68496 1.65413 3.68567C1.68226 3.68566 1.7104 3.68565 1.73939 3.68564C1.83124 3.68569 1.92308 3.68621 2.01493 3.68675C2.07907 3.68687 2.14321 3.68697 2.20734 3.68704C2.37529 3.6873 2.54324 3.68796 2.71119 3.68871C2.88291 3.68941 3.05463 3.68972 3.22636 3.69006C3.56266 3.69078 3.89897 3.69194 4.23527 3.69337C4.23438 3.65256 4.2335 3.61176 4.23258 3.56972C4.22948 3.41633 4.22756 3.26294 4.22596 3.10953C4.22512 3.04351 4.22397 2.9775 4.22249 2.91149C4.21113 2.39109 4.24399 1.96417 4.608 1.55866C4.62743 1.53573 4.64687 1.5128 4.6669 1.48917C4.96791 1.15825 5.38125 1.00545 5.82308 1.00745ZM5.3958 2.25964C5.1234 2.66068 5.2518 3.27454 5.2518 3.69337C7.51051 3.69337 9.76923 3.69337 12.0964 3.69337C12.1709 2.98863 12.1709 2.98863 11.9333 2.24058C11.917 2.2218 11.9007 2.20302 11.884 2.18367C11.74 2.06343 11.5924 2.05838 11.4105 2.05809C11.374 2.0579 11.374 2.0579 11.3367 2.0577C11.2553 2.05735 11.1739 2.05748 11.0925 2.05762C11.034 2.05747 10.9756 2.0573 10.9171 2.05709C10.7585 2.05664 10.5998 2.05662 10.4412 2.05671C10.3087 2.05674 10.1763 2.05658 10.0438 2.05641C9.73133 2.05604 9.41885 2.05602 9.10636 2.05623C8.78402 2.05643 8.46169 2.05602 8.13935 2.05529C7.86254 2.0547 7.58574 2.05449 7.30894 2.0546C7.14364 2.05467 6.97834 2.05458 6.81304 2.05411C6.6576 2.05368 6.50217 2.05375 6.34672 2.05419C6.28971 2.05427 6.23269 2.05418 6.17568 2.0539C6.09778 2.05354 6.0199 2.05382 5.942 2.05425C5.89843 2.05424 5.85486 2.05423 5.80997 2.05423C5.63097 2.07354 5.52345 2.1349 5.3958 2.25964ZM1.14122 4.92167C1.0299 5.10308 1.00778 5.28473 1.00751 5.49443C1.00739 5.51739 1.00727 5.54034 1.00715 5.56399C1.00685 5.63918 1.00704 5.71436 1.00727 5.78955C1.00723 5.84234 1.00716 5.89513 1.00708 5.94791C1.00698 6.05834 1.00712 6.16875 1.00744 6.27918C1.00782 6.41987 1.0076 6.56056 1.0072 6.70125C1.00695 6.81024 1.00703 6.91922 1.00721 7.02821C1.00725 7.08004 1.0072 7.13187 1.00704 7.1837C1.00573 7.72809 1.07044 8.12535 1.44962 8.53682C2.79068 9.78547 5.15967 10.1177 6.91212 10.1652C6.91299 10.1211 6.91387 10.077 6.91477 10.0316C6.91667 9.97305 6.91862 9.91455 6.92059 9.85605C6.92107 9.82705 6.92155 9.79804 6.92205 9.76816C6.9292 9.58206 6.9496 9.46 7.08154 9.31814C7.25371 9.22871 7.39582 9.20156 7.59019 9.20279C7.61623 9.20256 7.64227 9.20233 7.6691 9.20209C7.75452 9.20147 7.83991 9.2016 7.92534 9.20179C7.98512 9.20164 8.04491 9.20146 8.1047 9.20125C8.22976 9.20095 8.35482 9.20103 8.47988 9.20137C8.63966 9.20176 8.79941 9.20108 8.95918 9.20009C9.08258 9.19946 9.20598 9.19947 9.32938 9.19967C9.38827 9.19967 9.44715 9.19947 9.50603 9.19905C9.58858 9.19854 9.67107 9.19891 9.75362 9.19948C9.77762 9.19916 9.80162 9.19883 9.82634 9.19849C10.01 9.20117 10.1483 9.25397 10.3005 9.35202C10.4321 9.49563 10.4206 9.66853 10.4255 9.85393C10.4266 9.88387 10.4278 9.91381 10.429 9.94466C10.4318 10.0182 10.434 10.0917 10.4361 10.1652C10.8384 10.1481 11.2341 10.1144 11.6326 10.0572C11.6717 10.0517 11.6717 10.0517 11.7116 10.0461C13.107 9.84731 15.0876 9.55197 16.044 8.37613C16.2557 8.06493 16.3353 7.78972 16.3374 7.41488C16.3375 7.39187 16.3377 7.36886 16.3379 7.34516C16.3384 7.26981 16.3386 7.19446 16.3388 7.11911C16.3389 7.09316 16.339 7.06722 16.3391 7.04049C16.3396 6.90326 16.3399 6.76604 16.3401 6.62881C16.3402 6.48781 16.3411 6.34682 16.342 6.20582C16.3427 6.09669 16.3428 5.98756 16.3429 5.87843C16.343 5.82648 16.3433 5.77452 16.3437 5.72257C16.3613 5.28102 16.3613 5.28102 16.1835 4.8927C16.0135 4.74036 15.8703 4.73953 15.65 4.73932C15.6255 4.73925 15.6011 4.73918 15.5759 4.73911C15.4935 4.73892 15.4111 4.73897 15.3287 4.73902C15.2692 4.73893 15.2097 4.73883 15.1503 4.73871C14.9864 4.73844 14.8226 4.73838 14.6588 4.73835C14.4823 4.73829 14.3057 4.73803 14.1292 4.7378C13.743 4.73734 13.3569 4.73714 12.9707 4.73699C12.7297 4.7369 12.4887 4.73675 12.2476 4.7366C11.5806 4.73619 10.9135 4.73584 10.2464 4.73572C10.2037 4.73572 10.161 4.73571 10.117 4.7357C10.0528 4.73569 10.0528 4.73569 9.98732 4.73568C9.90057 4.73566 9.81382 4.73565 9.72708 4.73563C9.68405 4.73563 9.64102 4.73562 9.59668 4.73561C8.8992 4.73548 8.20171 4.73489 7.50423 4.7341C6.78847 4.73329 6.07272 4.73287 5.35697 4.73283C4.95496 4.7328 4.55295 4.73261 4.15094 4.73199C3.80868 4.73147 3.46641 4.7313 3.12414 4.73158C2.94946 4.73171 2.77479 4.73168 2.60011 4.7312C2.44023 4.73077 2.28037 4.73081 2.12049 4.73122C2.06262 4.73129 2.00475 4.73118 1.94688 4.73089C1.86825 4.73051 1.78964 4.73076 1.71101 4.73117C1.66732 4.73115 1.62364 4.73113 1.57863 4.73111C1.40347 4.74931 1.27 4.79637 1.14122 4.92167ZM1.69396 9.99582C1.69237 10.6191 1.69118 11.2423 1.69045 11.8656C1.6901 12.155 1.68962 12.4444 1.68885 12.7338C1.68817 12.986 1.68773 13.2383 1.68758 13.4906C1.68749 13.6241 1.68729 13.7577 1.68679 13.8912C1.68633 14.017 1.68619 14.1428 1.68629 14.2686C1.68627 14.3366 1.6859 14.4045 1.68553 14.4725C1.67631 14.8132 1.67631 14.8132 1.81785 15.111C1.83846 15.1268 1.85908 15.1426 1.88032 15.1589C1.90094 15.1753 1.92155 15.1916 1.94279 15.2084C2.05876 15.2899 2.13973 15.2861 2.28084 15.2863C2.30316 15.2864 2.32549 15.2865 2.3485 15.2865C2.42405 15.2868 2.4996 15.2868 2.57515 15.2867C2.62957 15.2868 2.684 15.287 2.73842 15.2871C2.88854 15.2875 3.03867 15.2876 3.18879 15.2877C3.35048 15.2878 3.51216 15.2881 3.67385 15.2884C4.06461 15.2891 4.45536 15.2894 4.84612 15.2897C5.02999 15.2899 5.21387 15.2901 5.39774 15.2902C6.00873 15.2908 6.61972 15.2913 7.23071 15.2916C7.38935 15.2916 7.54798 15.2917 7.70661 15.2918C7.76575 15.2918 7.76575 15.2918 7.82609 15.2918C8.4651 15.2921 9.10411 15.2929 9.74312 15.294C10.3987 15.2952 11.0543 15.2958 11.7099 15.2959C12.0782 15.296 12.4465 15.2963 12.8148 15.2971C13.1283 15.2979 13.4419 15.2981 13.7555 15.2978C13.9156 15.2976 14.0756 15.2977 14.2357 15.2984C14.3822 15.299 14.5286 15.2989 14.6751 15.2984C14.7281 15.2983 14.7812 15.2985 14.8342 15.2989C14.9063 15.2994 14.9783 15.2991 15.0503 15.2985C15.0903 15.2986 15.1304 15.2986 15.1716 15.2986C15.3422 15.2724 15.4465 15.1866 15.5632 15.0636C15.6589 14.9182 15.6585 14.775 15.6583 14.6043C15.6584 14.5636 15.6584 14.5229 15.6584 14.4809C15.6583 14.4366 15.6582 14.3922 15.6581 14.3465C15.6581 14.299 15.6581 14.2516 15.6581 14.2042C15.6581 14.0756 15.6579 13.9471 15.6577 13.8186C15.6575 13.6842 15.6574 13.5498 15.6574 13.4154C15.6573 13.161 15.657 12.9066 15.6567 12.6522C15.6563 12.3625 15.6561 12.0728 15.6559 11.7832C15.6556 11.1874 15.655 10.5916 15.6542 9.99582C15.535 10.0351 15.4193 10.0751 15.3052 10.1274C13.7561 10.8229 12.0783 11.0594 10.4022 11.2157C10.3957 11.2383 10.3892 11.261 10.3825 11.2844C10.3737 11.3145 10.3649 11.3446 10.3559 11.3755C10.3473 11.4052 10.3387 11.4349 10.3298 11.4655C10.1954 11.8744 9.89722 12.1885 9.5212 12.3878C9.08363 12.5929 8.52383 12.6137 8.05783 12.4842C7.6079 12.3158 7.27176 12.0302 7.0646 11.5947C7.00899 11.4679 6.97133 11.3514 6.946 11.2157C6.90616 11.2114 6.86632 11.2072 6.82527 11.2028C5.12418 11.0204 3.44397 10.7936 1.88204 10.0506C1.77348 9.99114 1.77348 9.99114 1.69396 9.99582ZM7.92864 10.233C7.8953 10.8351 7.8953 10.8351 8.13195 11.3512C8.38212 11.5401 8.60517 11.545 8.91129 11.5206C9.12681 11.4601 9.24258 11.3385 9.35813 11.15C9.46949 10.8673 9.41955 10.5152 9.41955 10.233C8.92755 10.233 8.43555 10.233 7.92864 10.233Z" fill="#504F4F"/>
</g>
<defs>
<clipPath id="clip0_11_2128">
<rect width="17.3487" height="17.3487" fill="white"/>
</clipPath>
</defs>
</svg>
