<svg width="16" height="16" viewBox="0 0 16 16" fill="none" xmlns="http://www.w3.org/2000/svg">
<g clip-path="url(#clip0_55_990)">
<path d="M8.53125 0.124992C8.72732 0.253281 8.91291 0.394824 9.09913 0.536857C9.12101 0.553474 9.1429 0.570091 9.16546 0.587211C9.20755 0.619256 9.24948 0.651511 9.29122 0.684013C9.71558 1.00861 10.1473 1.00881 10.6621 0.999992C11.4722 0.986217 11.4722 0.986217 11.8076 1.26696C12.0407 1.49846 12.1156 1.8381 12.2111 2.14306C12.2205 2.17306 12.2299 2.20307 12.2396 2.23399C12.2577 2.29245 12.2756 2.35101 12.293 2.40968C12.4322 2.86474 12.6282 3.14013 13.0215 3.40429C13.0774 3.44273 13.1333 3.48118 13.1892 3.51965C13.2407 3.55478 13.2922 3.5899 13.3438 3.62499C13.645 3.83061 13.9294 4.03243 14.0145 4.40783C14.059 4.68938 13.9779 4.95387 13.8875 5.21825C13.8799 5.24043 13.8723 5.26261 13.8645 5.28546C13.8329 5.37741 13.8012 5.46926 13.7684 5.56081C13.6291 5.95288 13.5438 6.33085 13.6895 6.73827C13.6963 6.75822 13.7031 6.77817 13.7101 6.79873C13.7331 6.86608 13.7571 6.93302 13.7813 6.99999C14.1044 7.91125 14.1044 7.91125 13.9688 8.28124C13.8015 8.61768 13.5232 8.80493 13.2197 9.00854C13.0834 9.10008 12.9514 9.19674 12.8198 9.29504C12.75 9.34374 12.75 9.34374 12.6821 9.37389C12.6088 9.41544 12.5986 9.45596 12.5625 9.53124C12.5377 9.56883 12.5127 9.60622 12.4873 9.64342C12.3942 9.79113 12.346 9.94472 12.2969 10.1113C12.2783 10.1722 12.2596 10.233 12.241 10.2938C12.232 10.3235 12.223 10.3531 12.2137 10.3836C12.1771 10.5026 12.1377 10.6205 12.0977 10.7383C12.0752 10.8046 12.053 10.8709 12.0313 10.9375C12.0212 10.967 12.0212 10.967 12.011 10.997C11.9971 11.0798 12.0139 11.1226 12.0449 11.2002C12.0556 11.2275 12.0663 11.2548 12.0774 11.2829C12.0894 11.3126 12.1015 11.3422 12.1139 11.3728C12.1263 11.4041 12.1387 11.4355 12.1515 11.4677C12.1925 11.5711 12.2339 11.6742 12.2754 11.7773C12.3038 11.8488 12.3322 11.9203 12.3606 11.9918C12.4192 12.1395 12.478 12.2872 12.5369 12.4349C12.6603 12.7445 12.7816 13.0549 12.9029 13.3654C12.9388 13.4574 12.9749 13.5494 13.0109 13.6414C13.033 13.6979 13.0552 13.7544 13.0773 13.8109C13.0871 13.836 13.0969 13.8611 13.1071 13.887C13.1253 13.9336 13.1435 13.9803 13.1616 14.027C13.1792 14.0723 13.1971 14.1176 13.2152 14.1628C13.274 14.3126 13.2975 14.4053 13.25 14.5625C13.1816 14.6432 13.126 14.7026 13.0313 14.75C12.6064 14.7458 12.1821 14.679 11.7615 14.6252C11.6745 14.6141 11.5875 14.6033 11.5005 14.5925C11.474 14.589 11.4475 14.5856 11.4202 14.582C11.3955 14.5789 11.3709 14.5759 11.3455 14.5728C11.324 14.57 11.3024 14.5673 11.2802 14.5645C11.1646 14.5608 11.108 14.5804 11.0231 14.6599C10.9981 14.6883 10.973 14.7168 10.9473 14.7461C10.9267 14.7693 10.9267 14.7693 10.9058 14.7929C10.793 14.9213 10.6852 15.0536 10.5779 15.1865C10.4364 15.3586 10.2892 15.5259 10.1425 15.6937C10.1087 15.7327 10.0752 15.7721 10.0419 15.8117C10.0253 15.8315 10.0087 15.8512 9.99158 15.8716C9.97668 15.8895 9.96179 15.9074 9.94644 15.9258C9.89429 15.9815 9.85728 15.9984 9.78162 16.0074C9.75765 16.0082 9.73368 16.009 9.70899 16.0098C9.6734 16.0115 9.6734 16.0115 9.63709 16.0133C9.52958 15.9941 9.48493 15.9509 9.40625 15.875C9.35967 15.7932 9.32742 15.7074 9.29456 15.6194C9.28451 15.5936 9.27446 15.5679 9.26411 15.5413C9.23098 15.4561 9.1985 15.3706 9.16602 15.2851C9.1429 15.2253 9.11973 15.1656 9.09652 15.1058C9.04761 14.9797 8.99894 14.8534 8.95044 14.7271C8.83797 14.4345 8.72324 14.1428 8.60877 13.851C8.57313 13.76 8.53758 13.669 8.50206 13.578C8.49088 13.5494 8.47969 13.5207 8.46817 13.4912C8.44651 13.4357 8.42486 13.3803 8.40322 13.3248C8.35435 13.1997 8.3051 13.0749 8.25469 12.9505C8.24583 12.9286 8.23697 12.9067 8.22784 12.8841C8.2043 12.8261 8.1806 12.7682 8.15689 12.7103C8.125 12.625 8.125 12.625 8.125 12.5625C8.0425 12.5625 7.96 12.5625 7.875 12.5625C7.86961 12.5792 7.86421 12.5959 7.85865 12.6131C7.79891 12.7955 7.73269 12.9746 7.66309 13.1534C7.65165 13.183 7.64021 13.2125 7.62842 13.243C7.52392 13.5126 7.41882 13.782 7.31364 14.0513C7.22945 14.267 7.14585 14.4828 7.0627 14.6989C7.00939 14.8372 6.95569 14.9753 6.9019 15.1134C6.87625 15.1795 6.85076 15.2456 6.82544 15.3118C6.79006 15.4042 6.75411 15.4964 6.71802 15.5885C6.70773 15.6158 6.69743 15.6431 6.68682 15.6712C6.62792 15.8196 6.5788 15.9136 6.4375 16C6.34054 16.0244 6.25414 16.0192 6.15625 16C5.98964 15.8993 5.88165 15.7413 5.76111 15.5904C5.69209 15.5056 5.62064 15.4245 5.54688 15.3437C5.42642 15.2115 5.31279 15.075 5.20105 14.9354C5.16341 14.89 5.16341 14.89 5.125 14.8437C5.1101 14.8191 5.0952 14.7945 5.07985 14.7691C5.01749 14.6784 4.96803 14.6221 4.875 14.5625C4.68873 14.5437 4.51387 14.5733 4.33008 14.6035C4.28154 14.6104 4.23298 14.6172 4.18439 14.6238C4.08758 14.6372 3.99092 14.6514 3.89431 14.6661C3.75105 14.6877 3.60757 14.7066 3.46375 14.724C3.43225 14.728 3.43225 14.728 3.40011 14.732C3.02231 14.7768 3.02231 14.7768 2.86329 14.6973C2.77343 14.6181 2.73963 14.5862 2.71875 14.4687C2.76326 14.1862 2.87674 13.9251 2.98047 13.6601C3.00091 13.6075 3.02133 13.5549 3.04173 13.5023C3.09833 13.3565 3.15523 13.2109 3.21222 13.0653C3.25193 12.9638 3.2916 12.8623 3.33126 12.7609C3.46808 12.4109 3.60514 12.061 3.74256 11.7113C3.7541 11.6819 3.76564 11.6525 3.77753 11.6223C3.78853 11.5943 3.79954 11.5663 3.81088 11.5374C3.82662 11.4971 3.82662 11.4971 3.84267 11.4559C3.865 11.4 3.88819 11.3445 3.91209 11.2893C3.92383 11.2618 3.93558 11.2343 3.94769 11.206C3.95845 11.1815 3.96921 11.1571 3.9803 11.1319C4.01006 11.0271 3.98145 10.9588 3.94004 10.8611C3.89923 10.7646 3.87055 10.667 3.84107 10.5665C3.82939 10.5279 3.8177 10.4894 3.80567 10.4496C3.78163 10.3701 3.75779 10.2905 3.73414 10.2109C3.565 9.65567 3.33369 9.36283 2.84571 9.04687C2.06142 8.52442 2.06142 8.52442 1.97547 8.1009C1.94592 7.7943 2.03507 7.51549 2.13672 7.23046C2.16175 7.15845 2.18673 7.08643 2.21167 7.0144C2.22357 6.98012 2.23546 6.94585 2.24772 6.91054C2.44477 6.33447 2.35409 5.92169 2.16077 5.36364C2.14606 5.32071 2.14606 5.32071 2.13105 5.27692C2.112 5.22165 2.09255 5.16652 2.07263 5.11156C1.97558 4.83298 1.92204 4.53262 2.03125 4.24999C2.19586 3.9258 2.47589 3.72955 2.7732 3.53527C3.40008 3.12562 3.60808 2.7434 3.82544 2.02982C3.93407 1.67802 4.05983 1.34064 4.375 1.12499C4.58775 1.02064 4.79416 0.995422 5.02942 0.999138C5.07848 0.999533 5.12753 0.99992 5.17658 1.0003C5.25302 1.00107 5.32946 1.00194 5.4059 1.00299C6.03103 1.01105 6.42677 0.913343 6.92505 0.520744C7.40131 0.145772 7.92167 -0.228313 8.53125 0.124992ZM7.32813 1.06249C6.85003 1.44953 6.39444 1.66698 5.76844 1.6571C5.71898 1.6567 5.66952 1.65632 5.62006 1.65594C5.54326 1.65516 5.46647 1.65428 5.38968 1.65324C5.31476 1.65229 5.23984 1.65174 5.16492 1.65124C5.14223 1.65082 5.11953 1.6504 5.09615 1.64996C4.94961 1.64925 4.82492 1.66724 4.6875 1.71874C4.55345 1.89414 4.50293 2.10737 4.43946 2.3164C4.41748 2.38657 4.39543 2.45672 4.3733 2.52685C4.36279 2.56018 4.35229 2.59352 4.34147 2.62786C4.11545 3.33712 3.73902 3.70549 3.13225 4.10947C3.03946 4.1717 2.94822 4.23565 2.85743 4.30077C2.81869 4.32845 2.81869 4.32845 2.77918 4.35668C2.71146 4.40731 2.71146 4.40731 2.65625 4.49999C2.64313 4.68034 2.66715 4.81074 2.72925 4.98241C2.74464 5.02632 2.76002 5.07022 2.7754 5.11413C2.79958 5.18169 2.82394 5.2492 2.84842 5.31666C3.10306 6.02283 3.07076 6.58804 2.82422 7.29687C2.7999 7.36718 2.77571 7.43753 2.75192 7.50803C2.73729 7.55137 2.72236 7.59462 2.70706 7.63774C2.66133 7.77289 2.64581 7.88894 2.65625 8.03124C2.74984 8.19887 2.92458 8.29495 3.08008 8.40038C3.13665 8.43948 3.19321 8.47858 3.24976 8.51769C3.32124 8.56679 3.39276 8.61583 3.46451 8.66453C4.01431 9.03825 4.23415 9.52415 4.41211 10.1406C4.43143 10.2071 4.45088 10.2736 4.47072 10.34C4.4885 10.3995 4.50581 10.4592 4.5231 10.5189C4.57269 10.6524 4.62834 10.768 4.74428 10.8551C4.84094 10.8833 4.92858 10.8814 5.02918 10.88C5.05024 10.8798 5.07129 10.8797 5.09298 10.8795C5.16031 10.8789 5.22761 10.878 5.29493 10.8769C6.09863 10.8664 6.6667 10.9583 7.3125 11.4687C7.36681 11.5111 7.42123 11.5532 7.47572 11.5953C7.52654 11.6346 7.57718 11.6741 7.62781 11.7136C7.82112 11.8588 7.82112 11.8588 8.05616 11.8912C8.20638 11.8558 8.31867 11.7501 8.4375 11.6562C8.52586 11.5876 8.61447 11.5194 8.70313 11.4512C8.73774 11.4245 8.73774 11.4245 8.77305 11.3973C9.16595 11.0966 9.54616 10.908 10.0449 10.8867C10.0696 10.8855 10.0942 10.8842 10.1196 10.8829C10.2761 10.876 10.4321 10.8748 10.5887 10.8765C10.6434 10.877 10.6434 10.877 10.6991 10.8775C10.7711 10.8784 10.843 10.8798 10.915 10.8816C10.9481 10.8821 10.9812 10.8826 11.0154 10.883C11.0448 10.8837 11.0743 10.8844 11.1046 10.8851C11.2053 10.8728 11.262 10.8405 11.3438 10.7812C11.5021 10.5662 11.5522 10.2957 11.6226 10.0418C11.8424 9.25336 12.2491 8.83714 12.9124 8.40258C13.1541 8.24397 13.1541 8.24397 13.3438 8.03124C13.3569 7.8509 13.3329 7.72049 13.2708 7.54882C13.2554 7.50492 13.24 7.46101 13.2246 7.41711C13.2004 7.34954 13.1761 7.28204 13.1516 7.21458C12.9004 6.51785 12.9246 5.94809 13.1758 5.25195C13.2001 5.18419 13.2244 5.11641 13.2481 5.04843C13.2627 5.00667 13.2776 4.96502 13.2929 4.92352C13.345 4.77462 13.3571 4.65555 13.3438 4.49999C13.2322 4.30101 12.9728 4.17214 12.7871 4.05077C12.1129 3.59977 11.8188 3.16643 11.5898 2.38716C11.4941 1.99052 11.4941 1.99052 11.25 1.68749C11.1163 1.64947 10.9833 1.65321 10.8456 1.65539C10.7965 1.65578 10.7475 1.65617 10.6984 1.65655C10.622 1.65732 10.5456 1.65819 10.4691 1.65924C9.66257 1.66964 9.14168 1.43942 8.51427 0.936706C8.27908 0.740776 8.27908 0.740776 7.99598 0.643059C7.74004 0.680665 7.52387 0.903583 7.32813 1.06249ZM4.5625 11.5C4.43253 11.774 4.32301 12.0539 4.21549 12.3372C4.16435 12.4719 4.11283 12.6064 4.06128 12.741C4.05094 12.768 4.04059 12.795 4.02993 12.8228C3.92917 13.0853 3.82552 13.3465 3.72071 13.6074C3.71256 13.6277 3.7044 13.648 3.696 13.6689C3.65162 13.7793 3.60712 13.8897 3.5625 14C3.67044 14.054 3.79291 14.0145 3.90943 13.999C3.9679 13.9916 4.02637 13.9843 4.08484 13.9769C4.17702 13.9651 4.26917 13.9532 4.36132 13.9411C4.45024 13.9295 4.5392 13.9184 4.62818 13.9072C4.6554 13.9035 4.68262 13.8999 4.71067 13.8961C5.09465 13.8485 5.09465 13.8485 5.24988 13.9451C5.26475 13.9619 5.27961 13.9787 5.29493 13.9961C5.31269 14.0158 5.33046 14.0355 5.34876 14.0558C5.4381 14.1633 5.52701 14.2712 5.61463 14.3801C5.68539 14.4662 5.75877 14.5487 5.83399 14.6309C5.95036 14.7584 6.0561 14.8906 6.15625 15.0312C6.23468 14.9615 6.27141 14.9004 6.30871 14.8027C6.31929 14.7753 6.32987 14.7479 6.34077 14.7198C6.3576 14.6751 6.3576 14.6751 6.37476 14.6296C6.38672 14.5985 6.39869 14.5674 6.41101 14.5354C6.45003 14.4338 6.4887 14.3322 6.52735 14.2305C6.58073 14.0909 6.63424 13.9513 6.68775 13.8118C6.70101 13.7771 6.71428 13.7424 6.72795 13.7067C6.80821 13.4973 6.89018 13.2887 6.97437 13.0808C6.98408 13.0567 6.99379 13.0326 7.00379 13.0078C7.07679 12.8268 7.07679 12.8268 7.11263 12.7402C7.13712 12.6809 7.16111 12.6215 7.18506 12.562C7.19847 12.5294 7.21187 12.4967 7.22568 12.4631C7.25276 12.365 7.25258 12.3142 7.21875 12.2187C7.17886 12.1681 7.17886 12.1681 7.12525 12.1291C7.10596 12.1138 7.08667 12.0985 7.0668 12.0827C7.04605 12.067 7.02529 12.0513 7.00391 12.0351C6.98269 12.0187 6.96148 12.0023 6.93962 11.9854C6.54569 11.6842 6.23104 11.5184 5.72828 11.5153C5.67796 11.5144 5.67796 11.5144 5.62662 11.5136C5.52062 11.5119 5.41461 11.5108 5.3086 11.5098C5.23625 11.5087 5.1639 11.5076 5.09156 11.5065C4.91521 11.5039 4.73886 11.5017 4.5625 11.5ZM10.7194 11.5082C10.6542 11.5092 10.589 11.5101 10.5238 11.5108C10.4292 11.5119 10.3346 11.5135 10.24 11.5153C10.2112 11.5155 10.1825 11.5156 10.1529 11.5159C9.58364 11.5286 9.10953 11.8905 8.71875 12.2812C8.96615 12.9296 9.21598 13.577 9.46993 14.2228C9.49652 14.2905 9.52304 14.3582 9.54948 14.426C9.58669 14.5213 9.62418 14.6165 9.66175 14.7117C9.67852 14.7548 9.67852 14.7548 9.69562 14.7989C9.70601 14.825 9.71639 14.8512 9.72709 14.8781C9.73609 14.901 9.74508 14.9239 9.75435 14.9475C9.77777 15.006 9.77777 15.006 9.84375 15.0312C9.85934 15.0119 9.87493 14.9925 9.891 14.9725C10.0673 14.755 10.2482 14.542 10.433 14.3317C10.4938 14.2623 10.5532 14.1923 10.611 14.1205C10.6343 14.0923 10.6576 14.0642 10.6816 14.0351C10.7012 14.0107 10.7207 13.9863 10.7408 13.9612C10.9188 13.8247 11.1791 13.8802 11.3877 13.9061C11.4179 13.9096 11.448 13.9131 11.4791 13.9168C11.5747 13.928 11.6701 13.9396 11.7656 13.9512C11.8307 13.9589 11.8958 13.9665 11.9609 13.9742C12.1198 13.9929 12.2787 14.012 12.4375 14.0312C12.2352 13.49 12.0267 12.9514 11.8145 12.4141C11.7971 12.3701 11.7971 12.3701 11.7794 12.3252C11.746 12.2403 11.7124 12.1556 11.6788 12.0708C11.664 12.0332 11.664 12.0332 11.6489 11.9948C11.5826 11.8279 11.5116 11.6636 11.4375 11.5C11.1981 11.5 10.9588 11.5041 10.7194 11.5082Z" fill="#FDFDFD"/>
<path d="M9.1248 2.28126C9.14716 2.28763 9.16953 2.29399 9.19258 2.30055C9.73095 2.45891 10.2316 2.72726 10.656 3.09376C10.6729 3.10801 10.6897 3.12226 10.707 3.13694C11.4694 3.78809 11.9281 4.67252 12.0935 5.65626C12.0993 5.68925 12.1051 5.72224 12.1111 5.75624C12.2337 6.82133 11.9546 7.94526 11.2869 8.79267C11.2037 8.8949 11.1182 8.99491 11.031 9.09376C11.0076 9.12039 10.9842 9.14702 10.9601 9.17445C10.2558 9.92189 9.20897 10.3726 8.1873 10.4063C8.15882 10.4075 8.13034 10.4088 8.10099 10.41C6.97273 10.4362 5.9104 10.0056 5.09439 9.2322C4.44928 8.60053 4.0604 7.79131 3.90605 6.90626C3.90029 6.87403 3.89453 6.84181 3.88859 6.8086C3.77046 5.77153 4.01643 4.69415 4.6309 3.84242C4.69951 3.75721 4.7706 3.67527 4.84355 3.59376C4.88252 3.54808 4.88252 3.54808 4.92228 3.50148C5.46568 2.87423 6.20373 2.46276 6.9998 2.25001C7.03529 2.23998 7.07078 2.22995 7.10734 2.21962C7.74094 2.07008 8.50221 2.09961 9.1248 2.28126ZM5.3123 4.06251C4.75358 4.73458 4.45937 5.66048 4.53105 6.53126C4.60841 7.27509 4.86636 7.97338 5.3748 8.53126C5.39385 8.55471 5.41291 8.57815 5.43254 8.60231C5.98701 9.27333 6.8294 9.62243 7.67375 9.73341C8.61065 9.82235 9.50886 9.51733 10.2326 8.92814C10.9577 8.31874 11.3667 7.4655 11.4685 6.53126C11.5445 5.62627 11.2295 4.72658 10.656 4.03126C10.0544 3.3445 9.21081 2.86913 8.28964 2.80674C7.11775 2.75225 6.09402 3.18001 5.3123 4.06251Z" fill="#FDFDFD"/>
<path d="M8.01758 3.88672C8.04018 3.88632 8.06278 3.88591 8.08606 3.8855C8.22487 3.92654 8.30077 4.04282 8.37228 4.16283C8.39121 4.2001 8.40981 4.23755 8.4281 4.27515C8.43814 4.29522 8.44817 4.31528 8.45851 4.33596C8.47953 4.37817 8.5004 4.42046 8.52113 4.46281C8.55263 4.52712 8.58465 4.59115 8.61676 4.65515C8.63724 4.69644 8.65769 4.73774 8.6781 4.77905C8.68754 4.79794 8.69698 4.81683 8.70671 4.83629C8.76788 4.96206 8.80878 5.08402 8.84375 5.21875C8.87267 5.22181 8.9016 5.22487 8.9314 5.22803C9.2233 5.26005 9.51414 5.29923 9.80469 5.3418C9.84001 5.34672 9.87533 5.35165 9.91173 5.35672C9.96195 5.36426 9.96195 5.36426 10.0132 5.37195C10.043 5.3763 10.0729 5.38064 10.1036 5.38512C10.2187 5.41412 10.3126 5.45851 10.3848 5.55469C10.4278 5.69557 10.4267 5.80372 10.3594 5.93555C10.2245 6.10073 10.0738 6.24601 9.91211 6.38477C9.89197 6.40253 9.87183 6.4203 9.85107 6.4386C9.79737 6.48582 9.74285 6.53212 9.68799 6.578C9.65587 6.60663 9.62381 6.63531 9.5918 6.66406C9.56179 6.69 9.53177 6.71595 9.50085 6.74268C9.40489 6.89578 9.43814 7.0148 9.46875 7.1875C9.47783 7.24126 9.47783 7.24126 9.48708 7.2961C9.51453 7.45315 9.54377 7.60983 9.57373 7.76642C9.64258 8.14489 9.64258 8.14489 9.59375 8.34375C9.4959 8.4583 9.44129 8.49648 9.29074 8.5116C9.13871 8.50738 9.02801 8.44944 8.89697 8.37695C8.87335 8.36447 8.84972 8.35198 8.82538 8.33912C8.7505 8.29948 8.67602 8.25917 8.60156 8.21875C8.52662 8.17843 8.4516 8.13826 8.37641 8.09838C8.32979 8.07362 8.28332 8.04859 8.23701 8.02326C8.12657 7.96426 8.06529 7.9375 7.9375 7.9375C7.87165 7.96161 7.87165 7.96161 7.80505 7.99707C7.77964 8.00991 7.75424 8.02274 7.72806 8.03596C7.70114 8.04988 7.67422 8.06379 7.64648 8.07812C7.61872 8.09216 7.59095 8.10619 7.56235 8.12065C7.43212 8.18684 7.30307 8.2545 7.1759 8.32642C7.14495 8.34373 7.14495 8.34373 7.11338 8.36139C7.05822 8.39254 7.00346 8.4244 6.94873 8.4563C6.81623 8.51146 6.73636 8.51263 6.59375 8.5C6.48633 8.4375 6.48633 8.4375 6.40625 8.34375C6.37006 8.16328 6.37844 8.01493 6.41296 7.83557C6.41717 7.81202 6.42138 7.78847 6.42571 7.7642C6.43906 7.68974 6.4529 7.61538 6.4668 7.54102C6.4805 7.46631 6.4941 7.39158 6.50755 7.31683C6.51591 7.27054 6.52442 7.22428 6.53311 7.17805C6.56588 7.01157 6.56588 7.01157 6.5625 6.84375C6.51548 6.77476 6.51548 6.77476 6.44824 6.71313C6.42399 6.68925 6.39974 6.66536 6.37476 6.64075C6.34906 6.61621 6.32335 6.59168 6.29688 6.56641C6.27214 6.54212 6.24741 6.51782 6.22192 6.4928C6.0858 6.36002 5.94652 6.23213 5.80169 6.10891C5.68108 6.00062 5.59821 5.9028 5.58594 5.74023C5.59456 5.61302 5.60158 5.56248 5.6875 5.46875C5.92842 5.36872 6.18049 5.33697 6.43705 5.30117C6.51018 5.29096 6.58325 5.28037 6.65631 5.26971C6.70304 5.263 6.74977 5.2563 6.79651 5.24963C6.81822 5.24651 6.83994 5.24339 6.86231 5.24017C6.96197 5.22633 7.05529 5.21875 7.15625 5.21875C7.16446 5.19245 7.17267 5.16615 7.18112 5.13905C7.22106 5.02465 7.26902 4.91587 7.3208 4.80652C7.33067 4.78565 7.34054 4.76479 7.35071 4.74329C7.37155 4.69942 7.39246 4.65559 7.41344 4.61179C7.43467 4.56725 7.4557 4.52262 7.47652 4.47788C7.50685 4.41273 7.53777 4.34789 7.56885 4.28308C7.58248 4.25339 7.58248 4.25339 7.59639 4.22309C7.6803 4.05125 7.8097 3.883 8.01758 3.88672ZM7.96875 5C7.9601 5.01906 7.95145 5.03812 7.94254 5.05776C7.90281 5.1448 7.86254 5.23158 7.82227 5.31836C7.80867 5.34835 7.79507 5.37834 7.78107 5.40924C7.63421 5.72361 7.63421 5.72361 7.5 5.8125C7.36916 5.84702 7.23768 5.86442 7.10352 5.88086C7.0324 5.8902 6.96131 5.89975 6.89026 5.90955C6.85885 5.91346 6.82744 5.91738 6.79508 5.92141C6.71353 5.93134 6.71353 5.93134 6.65625 6C6.73282 6.07838 6.80973 6.15641 6.88672 6.23438C6.90855 6.25673 6.93039 6.27909 6.95288 6.30212C6.9843 6.33385 6.9843 6.33385 7.01636 6.36621C7.04532 6.39567 7.04532 6.39567 7.07487 6.42572C7.12189 6.47553 7.12189 6.47553 7.1875 6.46875C7.31564 6.70901 7.24527 7.01324 7.20312 7.26953C7.19865 7.29793 7.19418 7.32633 7.18958 7.35559C7.17868 7.4246 7.16757 7.49356 7.15625 7.5625C7.24159 7.52289 7.32686 7.48316 7.41211 7.44336C7.43614 7.43222 7.46017 7.42108 7.48492 7.40961C7.60894 7.35159 7.72686 7.29035 7.84375 7.21875C8.03336 7.15261 8.17217 7.23128 8.34375 7.3125C8.51142 7.39386 8.67781 7.47767 8.84375 7.5625C8.83401 7.49349 8.82424 7.42448 8.81445 7.35547C8.8063 7.29782 8.8063 7.29782 8.79797 7.23901C8.78757 7.16808 8.77643 7.09725 8.76416 7.02661C8.73665 6.8535 8.71999 6.69184 8.79297 6.5293C8.89196 6.41852 9.0001 6.32236 9.11194 6.22473C9.19975 6.14515 9.27165 6.06249 9.34375 5.96875C9.20427 5.93517 9.06623 5.90613 8.92407 5.88672C8.89935 5.88317 8.87463 5.87961 8.84917 5.87595C8.79936 5.8689 8.74948 5.86237 8.69954 5.85641C8.58327 5.83951 8.51224 5.8212 8.41516 5.7522C8.31442 5.61684 8.24721 5.47161 8.17773 5.31836C8.16353 5.28776 8.14933 5.25717 8.1347 5.22565C8.09991 5.15057 8.06544 5.07536 8.03125 5C8.01062 5 7.99 5 7.96875 5Z" fill="#FDFDFD"/>
</g>
<defs>
<clipPath id="clip0_55_990">
<rect width="16" height="16" fill="white"/>
</clipPath>
</defs>
</svg>
