<svg width="16" height="16" viewBox="0 0 16 16" fill="none" xmlns="http://www.w3.org/2000/svg">
<g clip-path="url(#clip0_55_981)">
<path d="M6.54011 -0.00460422C6.5666 -0.00482782 6.5931 -0.00505142 6.6204 -0.0052818C6.64921 -0.00536583 6.67803 -0.00544986 6.70772 -0.00553643C6.73827 -0.00574178 6.76883 -0.00594713 6.80031 -0.00615871C6.90146 -0.00677475 7.00261 -0.00713974 7.10377 -0.00745141C7.13839 -0.00757877 7.17301 -0.00770613 7.20868 -0.00783735C7.39205 -0.00848909 7.57541 -0.00893603 7.75877 -0.00922906C7.94763 -0.00957422 8.13647 -0.0106486 8.32533 -0.0118907C8.47099 -0.0127101 8.61664 -0.0129696 8.7623 -0.0130816C8.83188 -0.0132333 8.90146 -0.0135951 8.97104 -0.0141765C9.502 -0.0183366 9.87658 0.0129047 10.2736 0.396601C10.5012 0.641873 10.5581 0.936427 10.6115 1.25781C10.702 1.90617 10.702 1.90617 11.0392 2.44726C11.29 2.60119 11.5186 2.66086 11.8126 2.62499C11.9941 2.57908 12.1679 2.50767 12.3419 2.43945C12.4113 2.41287 12.4807 2.38647 12.5502 2.36017C12.5931 2.34388 12.6359 2.3274 12.6786 2.31071C13.0524 2.16626 13.4128 2.18829 13.7814 2.34374C14.1285 2.53635 14.3342 2.88344 14.5197 3.2207C14.5414 3.25955 14.5631 3.29838 14.585 3.33718C14.6183 3.39646 14.6515 3.45575 14.6847 3.51511C14.7888 3.70154 14.8961 3.88608 15.004 4.07031C15.0216 4.10038 15.0391 4.13046 15.0572 4.16145C15.1507 4.32175 15.245 4.48157 15.3401 4.64099C15.36 4.67459 15.3799 4.7082 15.4004 4.74282C15.4384 4.80678 15.4765 4.87061 15.5149 4.93429C15.7324 5.30224 15.8392 5.67468 15.7451 6.10253C15.596 6.58522 15.1832 6.89872 14.7905 7.18713C14.5768 7.34706 14.3926 7.53973 14.3439 7.81249C14.3168 8.11494 14.3642 8.34605 14.5353 8.59765C14.6286 8.69922 14.7386 8.7816 14.8472 8.86621C14.95 8.94726 15.0505 9.03076 15.1505 9.11523C15.1674 9.12934 15.1842 9.14344 15.2015 9.15798C15.5227 9.4296 15.73 9.70901 15.7775 10.1328C15.7924 10.407 15.7371 10.64 15.6028 10.8793C15.5861 10.9091 15.5695 10.939 15.5523 10.9698C15.5351 11.0004 15.5179 11.031 15.5001 11.0625C15.4672 11.1219 15.4344 11.1812 15.4015 11.2406C15.1816 11.635 14.9578 12.0268 14.7289 12.416C14.6616 12.5305 14.5957 12.6457 14.5311 12.7617C14.294 13.1862 14.0425 13.5936 13.5529 13.7461C13.1328 13.8437 12.7979 13.7342 12.4076 13.5853C12.3737 13.5726 12.3399 13.5599 12.305 13.5469C12.2374 13.5214 12.1699 13.4954 12.1028 13.4687C11.822 13.3627 11.5599 13.3251 11.2716 13.4258C10.9997 13.5513 10.8548 13.7199 10.7501 14C10.7011 14.1899 10.6724 14.3847 10.6408 14.5781C10.5609 15.0664 10.4719 15.4962 10.0472 15.807C9.79297 15.9666 9.57744 16.0094 9.2819 16.0091C9.25133 16.0093 9.22076 16.0095 9.18926 16.0097C9.08862 16.0103 8.98798 16.0104 8.88733 16.0105C8.81701 16.0107 8.74668 16.0109 8.67635 16.0111C8.52904 16.0115 8.38173 16.0116 8.23441 16.0116C8.04629 16.0116 7.85819 16.0124 7.67007 16.0135C7.52482 16.0142 7.37956 16.0143 7.2343 16.0143C7.16499 16.0144 7.09567 16.0146 7.02635 16.0151C6.54119 16.0182 6.15054 16.0087 5.78138 15.6562C5.45786 15.3173 5.40455 14.8899 5.33516 14.4453C5.25458 13.9331 5.25458 13.9331 4.93763 13.5391C4.69684 13.3886 4.46954 13.341 4.18763 13.375C4.0061 13.4208 3.83235 13.4923 3.65833 13.5605C3.58895 13.5871 3.51952 13.6135 3.45004 13.6398C3.40718 13.6561 3.36439 13.6726 3.32169 13.6893C2.94785 13.8337 2.58741 13.8117 2.21888 13.6562C1.87172 13.4636 1.66608 13.1165 1.4806 12.7793C1.45887 12.7404 1.43711 12.7016 1.4153 12.6628C1.382 12.6035 1.34872 12.5442 1.31557 12.4849C1.21144 12.2985 1.1042 12.1139 0.996222 11.9297C0.978681 11.8996 0.96114 11.8695 0.943068 11.8385C0.84952 11.6782 0.755222 11.5184 0.660162 11.359C0.640247 11.3254 0.620332 11.2918 0.599814 11.2572C0.5619 11.1932 0.523777 11.1294 0.485403 11.0657C0.273995 10.7081 0.160471 10.347 0.254034 9.92968C0.340924 9.62934 0.496812 9.38268 0.742316 9.18749C0.772246 9.16328 0.802176 9.13907 0.833014 9.11413C0.909543 9.05305 0.987002 8.99329 1.0647 8.93371C1.45924 8.63209 1.45924 8.63209 1.65638 8.18749C1.68343 7.88504 1.63606 7.65394 1.46497 7.40234C1.37161 7.30077 1.26161 7.21839 1.15308 7.13378C1.05024 7.05273 0.949779 6.96923 0.849737 6.88476C0.82448 6.8636 0.82448 6.8636 0.798712 6.84201C0.47752 6.57038 0.270266 6.29098 0.222784 5.86718C0.203329 5.50872 0.322158 5.24016 0.500128 4.93749C0.522356 4.89749 0.544441 4.8574 0.566412 4.81726C0.731552 4.51558 0.902803 4.21769 1.07712 3.92122C1.1772 3.75086 1.27588 3.57985 1.37244 3.40747C1.39299 3.37102 1.41355 3.33458 1.43413 3.29815C1.47297 3.2292 1.51152 3.16008 1.54971 3.09075C1.76026 2.71872 2.02683 2.38484 2.44739 2.2539C2.86746 2.15633 3.20234 2.26579 3.59266 2.41467C3.62651 2.42736 3.66036 2.44005 3.69523 2.45313C3.76288 2.4786 3.83031 2.50463 3.89749 2.5313C4.1783 2.63727 4.44039 2.67491 4.72864 2.57421C5.00053 2.44873 5.14556 2.28004 5.25013 1.99999C5.30487 1.78638 5.33505 1.56641 5.36986 1.34887C5.4403 0.915198 5.53369 0.496712 5.90638 0.218745C6.109 0.0997212 6.30198 -0.00321819 6.54011 -0.00460422ZM6.68763 1.24999C6.62575 1.60062 6.56388 1.95124 6.50013 2.31249C6.25431 2.95161 5.96825 3.41328 5.34388 3.71874C4.77331 3.9525 4.17906 3.98797 3.59388 3.78124C3.5622 3.77018 3.53052 3.75912 3.49788 3.74772C3.26868 3.66725 3.04039 3.58445 2.81263 3.49999C2.80088 3.52035 2.78914 3.54071 2.77704 3.56169C2.76038 3.59055 2.74373 3.61942 2.72657 3.64916C2.70783 3.68165 2.68909 3.71414 2.66978 3.74761C2.62776 3.82043 2.58575 3.89325 2.54374 3.96607C2.43597 4.15286 2.3282 4.33967 2.22047 4.52648C2.20071 4.56072 2.18095 4.59497 2.16059 4.63024C2.12146 4.69812 2.0824 4.76603 2.0434 4.83398C1.95287 4.99152 1.86149 5.14832 1.7671 5.30358C1.7424 5.34468 1.7424 5.34468 1.7172 5.3866C1.68663 5.43732 1.65567 5.48781 1.62424 5.53801C1.60432 5.57128 1.60432 5.57128 1.58399 5.60522C1.57225 5.62427 1.5605 5.64332 1.5484 5.66294C1.52461 5.72084 1.52461 5.72084 1.55558 5.78491C1.60386 5.85908 1.65809 5.90161 1.72864 5.95507C2.32333 6.41808 2.83742 6.90169 2.93763 7.68749C2.99355 8.30031 2.878 8.895 2.48426 9.38183C2.20849 9.70247 1.86709 9.96458 1.53138 10.2187C1.57543 10.3707 1.64296 10.4986 1.72474 10.6328C1.75306 10.6801 1.78133 10.7274 1.80958 10.7748C1.82504 10.8007 1.8405 10.8265 1.85644 10.8532C1.95009 11.0113 2.04135 11.1708 2.13294 11.3301C2.35799 11.7209 2.58494 12.1107 2.81263 12.5C2.85444 12.4849 2.85444 12.4849 2.89709 12.4694C3.0017 12.4317 3.10637 12.3941 3.21107 12.3566C3.25616 12.3404 3.30122 12.3241 3.34627 12.3078C4.03309 12.0593 4.67495 11.9819 5.36143 12.2931C5.55133 12.3842 5.70477 12.4925 5.85413 12.6405C5.90241 12.6945 5.90241 12.6945 5.96888 12.6875C5.9771 12.7056 5.98531 12.7237 5.99378 12.7423C6.03327 12.816 6.07876 12.872 6.13294 12.9355C6.5367 13.4509 6.58376 14.1268 6.68763 14.75C7.55388 14.75 8.42013 14.75 9.31263 14.75C9.3745 14.3994 9.43638 14.0487 9.50013 13.6875C9.76894 12.9886 9.76894 12.9886 10.0314 12.75C10.0314 12.7294 10.0314 12.7087 10.0314 12.6875C10.0494 12.6793 10.0675 12.6711 10.0861 12.6626C10.1601 12.623 10.2172 12.5774 10.2814 12.5234C10.7676 12.1425 11.3355 12.0404 11.9376 12.0937C12.1002 12.119 12.2516 12.1641 12.4064 12.2187C12.4539 12.2353 12.4539 12.2353 12.5024 12.2523C12.7316 12.3327 12.9599 12.4155 13.1876 12.5C13.1994 12.4796 13.2111 12.4593 13.2232 12.4383C13.2399 12.4094 13.2565 12.3806 13.2737 12.3508C13.3018 12.3021 13.3018 12.3021 13.3305 12.2524C13.3725 12.1796 13.4145 12.1067 13.4565 12.0339C13.5643 11.8471 13.6721 11.6603 13.7798 11.4735C13.7996 11.4393 13.8193 11.405 13.8397 11.3697C13.8788 11.3019 13.9179 11.234 13.9569 11.166C14.0474 11.0085 14.1388 10.8517 14.2332 10.6964C14.2496 10.669 14.2661 10.6416 14.2831 10.6134C14.3136 10.5627 14.3446 10.5122 14.376 10.462C14.3893 10.4398 14.4026 10.4176 14.4163 10.3948C14.428 10.3757 14.4398 10.3567 14.4519 10.337C14.4756 10.2791 14.4756 10.2791 14.4447 10.2151C14.3964 10.1409 14.3422 10.0984 14.2716 10.0449C13.6769 9.5819 13.1628 9.0983 13.0626 8.31249C13.0067 7.69968 13.1223 7.10499 13.516 6.61816C13.7918 6.29752 14.1332 6.03541 14.4689 5.78124C14.4248 5.62929 14.3573 5.50139 14.2755 5.36718C14.2472 5.31988 14.2189 5.27256 14.1907 5.22521C14.1752 5.19934 14.1598 5.17346 14.1438 5.1468C14.0502 4.9887 13.9589 4.82922 13.8673 4.66992C13.6423 4.27905 13.4153 3.88933 13.1876 3.49999C13.1598 3.51008 13.1319 3.52017 13.1032 3.53056C12.9986 3.56832 12.8939 3.60592 12.7892 3.64343C12.7441 3.65961 12.699 3.67586 12.654 3.69216C11.9672 3.94071 11.3253 4.01811 10.6388 3.70686C10.4489 3.61578 10.2955 3.50745 10.1461 3.35949C10.0978 3.30553 10.0978 3.30553 10.0314 3.31249C10.0232 3.29441 10.0149 3.27632 10.0065 3.25769C9.96698 3.18396 9.9215 3.12803 9.86732 3.06445C9.46356 2.54905 9.4165 1.87322 9.31263 1.24999C8.44638 1.24999 7.58013 1.24999 6.68763 1.24999Z" fill="#FDFDFD"/>
<path d="M9.83531 5.47736C10.5295 6.01573 10.9721 6.74996 11.0935 7.62501C11.1609 8.48551 10.9569 9.32477 10.3943 9.99415C9.86334 10.6045 9.15461 11.0041 8.34354 11.0938C7.42841 11.1421 6.59504 10.9252 5.90494 10.3055C5.31753 9.76169 4.92774 9.00527 4.89554 8.19715C4.88161 7.2843 5.14719 6.48088 5.78104 5.81251C6.83444 4.73205 8.617 4.58272 9.83531 5.47736ZM6.53104 6.90626C6.2338 7.31324 6.12764 7.78505 6.18729 8.28126C6.28112 8.79944 6.5688 9.20554 6.98001 9.5265C7.38132 9.79066 7.87811 9.88658 8.34901 9.80001C8.85905 9.68362 9.29279 9.382 9.57596 8.93946C9.81983 8.49824 9.88053 7.99815 9.76541 7.50977C9.62532 7.04556 9.32204 6.66544 8.9119 6.40821C8.06232 5.95452 7.14454 6.18685 6.53104 6.90626Z" fill="#FDFDFD"/>
</g>
<defs>
<clipPath id="clip0_55_981">
<rect width="16" height="16" fill="white"/>
</clipPath>
</defs>
</svg>
