<svg width="16" height="16" viewBox="0 0 16 16" fill="none" xmlns="http://www.w3.org/2000/svg">
<g clip-path="url(#clip0_11_869)">
<path fill-rule="evenodd" clip-rule="evenodd" d="M12.6152 10.6524C11.8088 10.6524 11.0933 11.0171 10.6034 11.5818L5.90177 8.86731C6.00017 8.58816 6.06434 8.2919 6.06434 7.97852C6.06434 7.68761 6.00551 7.41167 5.91995 7.14857L10.6184 4.43623C11.1083 4.99025 11.8163 5.34748 12.6152 5.34748C14.0923 5.34748 15.2891 4.15067 15.2891 2.67365C15.2891 1.19662 14.0923 -0.000183105 12.6152 -0.000183105C11.1382 -0.000183105 9.9414 1.19662 9.9414 2.67365C9.9414 2.96669 10.0002 3.24371 10.0868 3.50682L5.38947 6.21915C4.89962 5.66297 4.19051 5.30469 3.39051 5.30469C1.91348 5.30469 0.716675 6.5015 0.716675 7.97852C0.716675 9.45555 1.91348 10.6524 3.39051 10.6524C4.16912 10.6524 4.86218 10.3155 5.35096 9.7839L10.0804 12.5144C9.99808 12.7711 9.9414 13.0406 9.9414 13.3262C9.9414 14.8032 11.1382 16 12.6152 16C14.0923 16 15.2891 14.8032 15.2891 13.3262C15.2891 11.8492 14.0923 10.6524 12.6152 10.6524Z" fill="#FDFDFD"/>
</g>
<defs>
<clipPath id="clip0_11_869">
<rect width="16" height="16" fill="white"/>
</clipPath>
</defs>
</svg>
