<svg width="24" height="24" viewBox="0 0 24 24" fill="none" xmlns="http://www.w3.org/2000/svg">
<path d="M1.66231 1.11294C1.7227 1.11264 1.78309 1.11233 1.8453 1.11202C1.91198 1.11216 1.97866 1.11231 2.04534 1.11246C2.11644 1.11229 2.18753 1.11207 2.25862 1.11182C2.45385 1.11125 2.64908 1.11126 2.84431 1.11137C3.05491 1.11139 3.26552 1.11087 3.47613 1.11043C3.88869 1.10965 4.30126 1.10939 4.71383 1.10934C5.04918 1.10929 5.38453 1.1091 5.71988 1.1088C6.67065 1.10798 7.62142 1.10754 8.5722 1.10761C8.64908 1.10762 8.64908 1.10762 8.72752 1.10763C8.77884 1.10763 8.83016 1.10763 8.88303 1.10764C9.71479 1.10768 10.5465 1.10678 11.3783 1.10546C12.2323 1.10411 13.0864 1.10346 13.9404 1.10354C14.4199 1.10357 14.8994 1.10332 15.3788 1.10231C15.7871 1.10145 16.1953 1.10125 16.6035 1.10189C16.8118 1.10219 17.02 1.1022 17.2283 1.10139C17.419 1.10065 17.6097 1.10078 17.8005 1.1016C17.8694 1.10174 17.9383 1.10157 18.0072 1.10105C18.4399 1.09799 18.7958 1.11887 19.1394 1.4013C19.1637 1.43097 19.188 1.46064 19.213 1.49121C19.238 1.52052 19.263 1.54982 19.2888 1.58002C19.4743 1.86208 19.5206 2.09093 19.516 2.42144C19.516 2.46114 19.516 2.50084 19.516 2.54174C19.5159 2.67416 19.5148 2.80655 19.5137 2.93897C19.5134 3.03416 19.5132 3.12935 19.5131 3.22455C19.5127 3.4293 19.5119 3.63404 19.5108 3.83878C19.5091 4.16287 19.5088 4.48695 19.5088 4.81105C19.5085 5.73256 19.5072 6.65406 19.5029 7.57556C19.5005 8.0847 19.4996 8.59383 19.5004 9.10297C19.5007 9.37217 19.5003 9.64132 19.498 9.91052C19.4958 10.1639 19.4956 10.4172 19.4969 10.6706C19.497 10.7633 19.4964 10.8559 19.495 10.9486C19.4863 11.5536 19.5468 11.8823 19.9689 12.3281C20.6857 13.3833 20.8697 14.7591 20.6691 15.999C20.5527 16.5308 20.3537 17.0459 20.1095 17.5312C20.149 17.5703 20.1885 17.6094 20.2292 17.6497C20.6022 18.0189 20.9746 18.3885 21.3466 18.7586C21.5378 18.9489 21.7292 19.1389 21.921 19.3286C22.1062 19.5118 22.2909 19.6954 22.4754 19.8793C22.5457 19.9493 22.6162 20.0191 22.6868 20.0888C22.786 20.1866 22.8846 20.285 22.9831 20.3836C23.0268 20.4263 23.0268 20.4263 23.0714 20.4698C23.3678 20.7691 23.5364 21.0929 23.546 21.5186C23.5411 21.9229 23.4479 22.2164 23.1739 22.5176C22.8381 22.8231 22.499 22.8953 22.0533 22.8999C21.5787 22.8272 21.2925 22.5978 20.966 22.259C20.9251 22.2177 20.8841 22.1763 20.8419 22.1337C20.7123 22.0026 20.5838 21.8704 20.4552 21.7383C20.3671 21.6487 20.2789 21.5592 20.1906 21.4698C19.9753 21.2515 19.7608 21.0323 19.547 20.8125C19.5411 20.8477 19.5352 20.8829 19.5292 20.9191C19.5211 20.9654 19.5131 21.0117 19.5049 21.0593C19.4971 21.1051 19.4892 21.151 19.4812 21.1982C19.4053 21.5512 19.1808 21.7796 18.8907 21.9844C18.7073 22.0728 18.5604 22.0899 18.3577 22.0902C18.2971 22.0905 18.2364 22.0908 18.1739 22.0911C18.1067 22.091 18.0395 22.0908 17.9723 22.0907C17.9008 22.0908 17.8293 22.091 17.7578 22.0913C17.5613 22.0919 17.3649 22.0919 17.1684 22.0918C16.9565 22.0917 16.7446 22.0923 16.5327 22.0927C16.1175 22.0935 15.7024 22.0937 15.2872 22.0938C14.9498 22.0938 14.6124 22.094 14.2749 22.0943C13.3185 22.0951 12.362 22.0956 11.4055 22.0955C11.3282 22.0955 11.3282 22.0955 11.2492 22.0955C11.1976 22.0955 11.146 22.0955 11.0927 22.0955C10.2558 22.0954 9.41886 22.0963 8.58191 22.0977C7.72274 22.099 6.86357 22.0997 6.0044 22.0996C5.52196 22.0995 5.03952 22.0998 4.55708 22.1008C4.14633 22.1017 3.73559 22.1019 3.32484 22.1012C3.11527 22.1009 2.9057 22.1009 2.69613 22.1017C2.50422 22.1025 2.31233 22.1023 2.12042 22.1015C2.05105 22.1014 1.98169 22.1015 1.91232 22.1021C1.47166 22.1052 1.16441 22.0886 0.822249 21.7899C0.792641 21.7555 0.763033 21.721 0.732528 21.6855C0.702194 21.6513 0.671861 21.6171 0.640609 21.5819C0.481868 21.3516 0.45711 21.1295 0.456796 20.8547C0.456632 20.8221 0.456467 20.7895 0.456298 20.756C0.455862 20.6469 0.456092 20.5378 0.45632 20.4287C0.456145 20.3497 0.455929 20.2706 0.455676 20.1916C0.455103 19.9745 0.455115 19.7573 0.455226 19.5402C0.455245 19.306 0.454728 19.0718 0.454283 18.8376C0.453504 18.3788 0.453247 17.92 0.453194 17.4612C0.45315 17.0883 0.452957 16.7154 0.45266 16.3424C0.451834 15.2853 0.451402 14.2282 0.451472 13.1711C0.451476 13.1141 0.45148 13.0571 0.451484 12.9983C0.451487 12.9413 0.451491 12.8842 0.451495 12.8254C0.451533 11.9005 0.450636 10.9755 0.449314 10.0505C0.447968 9.10093 0.44732 8.15134 0.447401 7.20174C0.447432 6.66856 0.447174 6.13537 0.446166 5.60218C0.445313 5.14824 0.445108 4.6943 0.445745 4.24036C0.446051 4.00875 0.446055 3.77716 0.445243 3.54556C0.444507 3.33347 0.444639 3.12139 0.445457 2.9093C0.445601 2.83265 0.44543 2.75599 0.444908 2.67935C0.441996 2.2215 0.451918 1.83721 0.757064 1.47381C0.791506 1.44475 0.825948 1.41569 0.861434 1.38574C0.895634 1.35583 0.929835 1.32592 0.965071 1.2951C1.18616 1.14592 1.39952 1.11327 1.66231 1.11294ZM1.31261 2.01562C1.19688 2.17329 1.20702 2.3279 1.2068 2.51897C1.20663 2.55084 1.20647 2.5827 1.2063 2.61554C1.20586 2.72282 1.20609 2.8301 1.20632 2.93738C1.20615 3.01488 1.20593 3.09237 1.20568 3.16986C1.2051 3.38321 1.20512 3.59656 1.20523 3.80991C1.20525 4.03984 1.20473 4.26978 1.20428 4.49972C1.2035 4.95035 1.20325 5.40098 1.20319 5.85162C1.20315 6.21781 1.20296 6.584 1.20266 6.95019C1.20183 7.98783 1.2014 9.02548 1.20147 10.0631C1.20148 10.1191 1.20148 10.175 1.20148 10.2327C1.20149 10.2887 1.20149 10.3448 1.2015 10.4025C1.20153 11.3109 1.20064 12.2193 1.19931 13.1277C1.19797 14.0599 1.19732 14.992 1.1974 15.9242C1.19743 16.4478 1.19717 16.9713 1.19617 17.4949C1.19531 17.9406 1.19511 18.3863 1.19574 18.8321C1.19605 19.0596 1.19605 19.2871 1.19524 19.5146C1.19451 19.7228 1.19464 19.9309 1.19546 20.1391C1.1956 20.2145 1.19543 20.2899 1.19491 20.3653C1.19425 20.4677 1.19474 20.57 1.19552 20.6724C1.1955 20.7292 1.19548 20.7861 1.19546 20.8448C1.22382 21.0329 1.28629 21.1351 1.40636 21.2812C1.55808 21.3318 1.66755 21.3341 1.82717 21.3343C1.88609 21.3345 1.94501 21.3346 2.00571 21.3348C2.07146 21.3348 2.13721 21.3348 2.20295 21.3347C2.27252 21.3348 2.34208 21.335 2.41164 21.3351C2.60327 21.3355 2.7949 21.3356 2.98653 21.3356C3.19301 21.3357 3.3995 21.3361 3.60598 21.3364C4.05768 21.337 4.50938 21.3373 4.96107 21.3375C5.24297 21.3376 5.52487 21.3378 5.80677 21.338C6.58687 21.3386 7.36697 21.3391 8.14707 21.3393C8.19701 21.3393 8.24696 21.3393 8.29841 21.3393C8.34848 21.3393 8.39854 21.3393 8.45013 21.3393C8.55158 21.3393 8.65304 21.3394 8.75449 21.3394C8.80482 21.3394 8.85514 21.3394 8.90699 21.3394C9.72282 21.3396 10.5387 21.3404 11.3545 21.3415C12.1916 21.3426 13.0286 21.3432 13.8657 21.3433C14.3359 21.3433 14.8061 21.3436 15.2763 21.3444C15.6766 21.3451 16.0769 21.3454 16.4772 21.345C16.6816 21.3448 16.8859 21.3449 17.0902 21.3455C17.2772 21.3461 17.4641 21.3461 17.6511 21.3455C17.7188 21.3454 17.7865 21.3455 17.8543 21.346C17.9462 21.3465 18.0381 21.346 18.13 21.3456C18.2066 21.3456 18.2066 21.3456 18.2848 21.3456C18.4415 21.3256 18.5295 21.2799 18.6564 21.1875C18.8535 20.8953 18.8092 20.4295 18.7783 20.0936C18.7067 19.7763 18.4416 19.5854 18.1876 19.4062C18.1405 19.4278 18.0935 19.4493 18.045 19.4714C17.6468 19.6511 17.2527 19.8132 16.8282 19.9219C16.7876 19.9324 16.7469 19.943 16.705 19.9539C15.363 20.2372 13.9797 19.9034 12.8439 19.1719C12.6814 19.0535 12.5278 18.9275 12.3751 18.7969C12.3476 18.7761 12.32 18.7553 12.2916 18.7339C11.3735 18.0236 10.8816 16.7835 10.7158 15.6716C10.5603 14.3521 10.9114 13.0139 11.7159 11.9561C12.5437 10.9146 13.7553 10.227 15.0799 10.0624C16.3268 9.93351 17.5751 10.2168 18.602 10.9451C18.6891 11.0201 18.6891 11.0201 18.7501 11.0156C18.7534 9.87066 18.7559 8.72571 18.7574 7.58074C18.7581 7.04913 18.7591 6.51752 18.7607 5.98591C18.7621 5.52262 18.763 5.05932 18.7633 4.59603C18.7635 4.35066 18.764 4.10531 18.765 3.85994C18.7659 3.62906 18.7662 3.39818 18.766 3.1673C18.7661 3.08251 18.7663 2.99772 18.7669 2.91293C18.7676 2.79723 18.7674 2.68157 18.767 2.56586C18.7674 2.53226 18.7678 2.49865 18.7683 2.46403C18.7664 2.25994 18.7385 2.12873 18.6095 1.96875C18.452 1.86676 18.3213 1.86322 18.136 1.86307C18.077 1.8628 18.018 1.86252 17.9572 1.86224C17.8916 1.86241 17.826 1.86259 17.7604 1.86278C17.6908 1.86264 17.6212 1.86245 17.5516 1.86223C17.36 1.86175 17.1685 1.86186 16.977 1.86206C16.7705 1.86217 16.5641 1.86175 16.3576 1.8614C15.9531 1.8608 15.5485 1.86072 15.144 1.86083C14.8152 1.86091 14.4865 1.86083 14.1577 1.86063C14.0876 1.86059 14.0876 1.86059 14.0161 1.86054C13.9212 1.86049 13.8262 1.86043 13.7313 1.86037C12.8403 1.85986 11.9494 1.85996 11.0585 1.86025C10.243 1.86049 9.42747 1.85996 8.61195 1.85907C7.77508 1.85817 6.93821 1.85778 6.10134 1.85795C5.6313 1.85804 5.16125 1.85793 4.69121 1.85726C4.29108 1.85671 3.89094 1.85664 3.49081 1.85721C3.28657 1.85748 3.08234 1.85753 2.87811 1.85697C2.69123 1.85647 2.50437 1.85661 2.3175 1.85727C2.24981 1.85739 2.18211 1.85728 2.11442 1.8569C2.02256 1.85643 1.9307 1.85691 1.83884 1.85743C1.78777 1.85743 1.7367 1.85743 1.68408 1.85742C1.52505 1.87781 1.43914 1.91791 1.31261 2.01562ZM12.3282 12.375C11.5761 13.3321 11.3222 14.4855 11.45 15.6785C11.5669 16.5154 11.9626 17.2762 12.5157 17.9062C12.5454 17.9406 12.5751 17.9749 12.6056 18.0103C13.364 18.8252 14.43 19.2534 15.5273 19.322C16.7678 19.3402 17.8149 18.908 18.7032 18.0469C18.7319 18.0217 18.7605 17.9965 18.79 17.9705C19.5373 17.2898 19.9137 16.1998 19.9793 15.2188C20.0122 13.9656 19.5157 12.8459 18.6651 11.9414C17.8047 11.1256 16.7096 10.7477 15.5379 10.7592C14.2621 10.7994 13.151 11.4123 12.3282 12.375ZM19.5939 18.1875C19.526 18.2575 19.461 18.3303 19.3976 18.4043C19.2243 18.6017 19.0479 18.7725 18.8439 18.9375C18.9205 19.1315 19.0612 19.2622 19.2063 19.4065C19.2337 19.4342 19.2612 19.4619 19.2895 19.4904C19.3802 19.5818 19.4713 19.6729 19.5624 19.7639C19.6257 19.8273 19.689 19.8909 19.7523 19.9544C19.885 20.0874 20.0179 20.2203 20.1509 20.3531C20.3211 20.523 20.4908 20.6935 20.6603 20.8641C20.7909 20.9954 20.9218 21.1264 21.0529 21.2572C21.1155 21.32 21.1781 21.3828 21.2406 21.4457C21.3281 21.5338 21.416 21.6214 21.5041 21.7089C21.5296 21.7348 21.5552 21.7608 21.5816 21.7875C21.7525 21.9561 21.9307 22.1103 22.1795 22.1351C22.3965 22.1034 22.5317 22.0557 22.6876 21.8906C22.7866 21.7286 22.8049 21.5727 22.7739 21.3845C22.6057 20.9435 22.0328 20.5251 21.7005 20.1925C21.6425 20.1343 21.5844 20.0761 21.5264 20.018C21.4058 19.8971 21.2851 19.7763 21.1644 19.6556C21.0094 19.5006 20.8548 19.3454 20.7002 19.19C20.581 19.0702 20.4616 18.9507 20.3421 18.8312C20.2849 18.774 20.2278 18.7167 20.1708 18.6593C20.0916 18.5797 20.0121 18.5003 19.9325 18.421C19.8972 18.3853 19.8972 18.3853 19.8612 18.3489C19.7488 18.2235 19.7488 18.2235 19.5939 18.1875Z" fill="#FDFDFD"/>
<path d="M18.3573 12.4805C19.0617 13.2006 19.3722 14.1232 19.3708 15.1159C19.3562 16.1693 18.9215 17.0267 18.1874 17.7656C17.4333 18.4829 16.4786 18.7268 15.4624 18.7132C14.5286 18.6839 13.604 18.2315 12.9663 17.553C12.2768 16.7408 11.933 15.7791 12.0161 14.7113C12.1084 13.7532 12.5608 12.8097 13.3124 12.1875C14.9207 11.0216 16.9097 11.0977 18.3573 12.4805ZM13.3446 13.3066C13.1639 13.5424 13.0413 13.785 12.9374 14.0625C12.9224 14.1008 12.9074 14.139 12.892 14.1784C12.6653 14.8573 12.7507 15.6559 13.0552 16.2919C13.4311 17.0307 14.0064 17.5382 14.791 17.8246C15.5813 18.0633 16.3459 17.9673 17.0764 17.5934C17.3599 17.4393 17.5893 17.2487 17.8124 17.0156C17.842 16.9875 17.8716 16.9593 17.9021 16.9303C18.3738 16.4503 18.5997 15.7084 18.6269 15.0498C18.5907 14.167 18.2337 13.4262 17.5985 12.8145C16.947 12.2743 16.1804 12.0756 15.3461 12.1285C14.5262 12.2175 13.866 12.6904 13.3446 13.3066Z" fill="#FDFDFD"/>
<path d="M6.86139 3.74121C6.91903 3.78986 6.9757 3.83967 7.03132 3.89062C7.07455 3.92751 7.07455 3.92751 7.11866 3.96514C7.48479 4.29835 7.65352 4.7361 7.69782 5.2218C7.71679 5.72287 7.55954 6.15944 7.26569 6.56249C7.20451 6.62629 7.14233 6.68918 7.07819 6.74999C7.10998 6.76879 7.14176 6.78758 7.17451 6.80694C7.95985 7.28663 8.50111 7.91081 8.7569 8.80371C8.8261 9.10969 8.87329 9.43997 8.81257 9.75C8.6866 9.87743 8.61414 9.93076 8.43757 9.96386C8.24354 9.92748 8.18539 9.85649 8.06257 9.70312C8.02198 9.57108 8.00916 9.43885 7.99518 9.30175C7.9063 8.65249 7.62732 8.16066 7.11445 7.74316C6.56871 7.35748 5.95664 7.22688 5.29658 7.33575C4.69296 7.48794 4.20689 7.7878 3.85261 8.30566C3.59924 8.73086 3.50192 9.18299 3.45417 9.67126C3.42194 9.79687 3.42194 9.79687 3.33552 9.88311C3.18473 9.96424 3.07443 9.95851 2.90632 9.9375C2.79499 9.86425 2.79499 9.86425 2.71882 9.75C2.5904 9.10085 2.81757 8.44876 3.14655 7.89257C3.47733 7.40177 3.90609 7.05467 4.40632 6.74999C4.37405 6.71166 4.37405 6.71166 4.34113 6.67254C3.91462 6.14836 3.80405 5.68804 3.84382 5.01562C3.92511 4.52442 4.18789 4.10301 4.56708 3.78552C5.23908 3.32595 6.18162 3.25172 6.86139 3.74121ZM4.8714 4.57653C4.66385 4.83218 4.57467 5.11821 4.59382 5.44628C4.65382 5.81446 4.8068 6.07047 5.09681 6.3056C5.3654 6.48081 5.66873 6.55456 5.98633 6.50115C6.35526 6.38991 6.59575 6.18724 6.7942 5.86175C6.94165 5.57609 6.9425 5.23607 6.85151 4.93121C6.70383 4.60463 6.49817 4.4063 6.16999 4.26434C5.67618 4.08809 5.24481 4.21504 4.8714 4.57653Z" fill="#FDFDFD"/>
<path d="M3.2223 19.0247C3.27161 19.0245 3.27161 19.0245 3.32191 19.0242C3.4326 19.0238 3.54329 19.0238 3.65399 19.0237C3.73313 19.0235 3.81227 19.0232 3.89141 19.023C4.10681 19.0224 4.3222 19.0221 4.53759 19.0219C4.67207 19.0217 4.80654 19.0215 4.94102 19.0213C5.36149 19.0207 5.78197 19.0202 6.20244 19.0201C6.68832 19.0198 7.1742 19.019 7.66008 19.0177C8.03532 19.0167 8.41056 19.0162 8.7858 19.0161C9.01007 19.0161 9.23434 19.0158 9.45861 19.015C9.66952 19.0142 9.88043 19.0141 10.0914 19.0145C10.1688 19.0145 10.2463 19.0143 10.3238 19.0139C10.4294 19.0133 10.5351 19.0135 10.6407 19.014C10.7294 19.0139 10.7294 19.0139 10.82 19.0138C10.9801 19.0326 11.0454 19.0565 11.1562 19.1719C11.2079 19.3581 11.2226 19.4573 11.1416 19.6348C11.0625 19.7344 11.0625 19.7344 10.9687 19.7813C10.8634 19.7861 10.758 19.7878 10.6526 19.7882C10.6197 19.7883 10.5869 19.7885 10.553 19.7887C10.4423 19.7892 10.3316 19.7894 10.2209 19.7895C10.1418 19.7898 10.0626 19.7902 9.9835 19.7905C9.76811 19.7913 9.55272 19.7918 9.33732 19.7922C9.20285 19.7924 9.06837 19.7927 8.9339 19.793C8.51342 19.7939 8.09295 19.7946 7.67247 19.795C7.18659 19.7954 6.70072 19.7966 6.21484 19.7985C5.83959 19.7999 5.46436 19.8006 5.08911 19.8008C4.86484 19.8009 4.64058 19.8013 4.41631 19.8025C4.20539 19.8036 3.99448 19.8038 3.78356 19.8033C3.70609 19.8033 3.62861 19.8036 3.55114 19.8042C3.44547 19.8051 3.33987 19.8047 3.23421 19.8041C3.17505 19.8042 3.11589 19.8043 3.05493 19.8045C2.87915 19.777 2.82541 19.7331 2.71871 19.5938C2.65414 19.4302 2.66662 19.3723 2.73336 19.207C2.86505 18.9924 2.98245 19.0252 3.2223 19.0247Z" fill="#FDFDFD"/>
<path d="M3.20814 11.3781C3.23891 11.3779 3.26968 11.3777 3.30139 11.3774C3.4047 11.3768 3.50801 11.3769 3.61132 11.377C3.68531 11.3767 3.75931 11.3764 3.8333 11.376C4.03446 11.3752 4.23561 11.375 4.43677 11.3749C4.60463 11.3749 4.77249 11.3745 4.94035 11.3742C5.33637 11.3734 5.73238 11.3732 6.1284 11.3733C6.53705 11.3733 6.94568 11.3723 7.35432 11.3708C7.70504 11.3696 8.05576 11.3691 8.40648 11.3692C8.616 11.3692 8.82552 11.3689 9.03504 11.3679C9.23211 11.367 9.42916 11.367 9.62623 11.3677C9.69855 11.3678 9.77087 11.3676 9.84318 11.367C9.94195 11.3663 10.0407 11.3667 10.1394 11.3674C10.2223 11.3674 10.2223 11.3674 10.3069 11.3673C10.4833 11.3954 10.5616 11.4538 10.6875 11.5781C10.717 11.6719 10.717 11.6719 10.7139 11.7656C10.714 11.7966 10.714 11.8275 10.7141 11.8594C10.6751 11.9971 10.6112 12.0515 10.5 12.1406C10.3589 12.1642 10.3589 12.1642 10.1905 12.1644C10.1439 12.1649 10.1439 12.1649 10.0964 12.1653C9.99248 12.1661 9.88859 12.1655 9.78465 12.1649C9.71011 12.1651 9.63558 12.1655 9.56104 12.1659C9.35862 12.1667 9.15623 12.1664 8.95381 12.1658C8.74207 12.1653 8.53033 12.1658 8.31858 12.1661C7.96299 12.1664 7.6074 12.166 7.2518 12.1651C6.84057 12.164 6.42936 12.1644 6.01813 12.1654C5.66518 12.1663 5.31223 12.1664 4.95928 12.1659C4.74842 12.1656 4.53758 12.1656 4.32672 12.1662C4.12849 12.1667 3.93029 12.1663 3.73206 12.1653C3.65927 12.165 3.58648 12.1651 3.51369 12.1655C3.41439 12.166 3.31517 12.1654 3.21587 12.1644C3.16029 12.1644 3.1047 12.1643 3.04744 12.1642C2.87725 12.1358 2.82311 12.0878 2.7188 11.9531C2.66756 11.8104 2.66621 11.7392 2.70708 11.5928C2.82734 11.3703 2.97719 11.3787 3.20814 11.3781Z" fill="#FDFDFD"/>
<path d="M3.22887 13.8984C3.28407 13.8979 3.33927 13.8975 3.39615 13.897C3.4563 13.8974 3.51645 13.8979 3.57843 13.8984C3.64274 13.8982 3.70705 13.8979 3.77136 13.8976C3.94569 13.8969 4.12 13.8975 4.29433 13.8982C4.4769 13.8989 4.65946 13.8986 4.84203 13.8984C5.1486 13.8983 5.45516 13.8989 5.76173 13.9C6.11601 13.9013 6.47027 13.9013 6.82454 13.9008C7.16555 13.9003 7.50656 13.9006 7.84757 13.9012C7.9926 13.9015 8.13763 13.9015 8.28266 13.9013C8.45349 13.9011 8.62431 13.9015 8.79514 13.9025C8.88763 13.9029 8.98012 13.9026 9.0726 13.9023C9.1554 13.903 9.1554 13.903 9.23988 13.9037C9.31169 13.9039 9.31169 13.9039 9.38495 13.9041C9.53752 13.9249 9.62625 13.9723 9.75 14.0625C9.82246 14.2074 9.81064 14.3247 9.79688 14.4844C9.69288 14.6207 9.6319 14.6644 9.46875 14.7188C9.38246 14.7232 9.29602 14.7249 9.20962 14.725C9.15573 14.7252 9.10184 14.7254 9.04632 14.7256C8.95755 14.7256 8.95755 14.7256 8.867 14.7256C8.80409 14.7257 8.74118 14.7259 8.67827 14.726C8.50733 14.7265 8.33639 14.7266 8.16545 14.7266C8.02275 14.7266 7.88005 14.7268 7.73735 14.727C7.40067 14.7274 7.06398 14.7275 6.72729 14.7274C6.38 14.7274 6.03271 14.7279 5.68542 14.7286C5.38725 14.7293 5.08908 14.7295 4.7909 14.7295C4.61282 14.7295 4.43474 14.7296 4.25666 14.7301C4.08914 14.7306 3.92163 14.7306 3.75411 14.7302C3.66341 14.7301 3.57271 14.7305 3.48201 14.7309C3.42786 14.7307 3.37371 14.7305 3.31791 14.7303C3.27095 14.7304 3.224 14.7304 3.17561 14.7304C3.03676 14.7178 2.937 14.6871 2.8125 14.625C2.70146 14.4918 2.67188 14.4212 2.67188 14.2471C2.76472 13.9743 2.95532 13.8984 3.22887 13.8984Z" fill="#FDFDFD"/>
<path d="M3.13818 16.4875C3.1976 16.4871 3.25701 16.4867 3.31822 16.4863C3.38444 16.4863 3.45066 16.4863 3.51687 16.4864C3.58632 16.4861 3.65576 16.4858 3.7252 16.4854C3.91416 16.4846 4.10311 16.4844 4.29207 16.4843C4.44968 16.4842 4.60729 16.4839 4.7649 16.4836C5.13671 16.4828 5.50852 16.4826 5.88033 16.4826C6.26413 16.4827 6.64792 16.4817 7.03172 16.4802C7.36098 16.479 7.69024 16.4785 8.0195 16.4785C8.21627 16.4786 8.41302 16.4783 8.60978 16.4773C8.79485 16.4764 8.9799 16.4764 9.16496 16.4771C9.23292 16.4772 9.30087 16.477 9.36882 16.4764C9.46153 16.4757 9.55424 16.4762 9.64695 16.4768C9.7248 16.4767 9.7248 16.4767 9.80423 16.4767C9.96843 16.5054 10.0233 16.5582 10.1251 16.6875C10.1516 16.7813 10.1516 16.7813 10.1514 16.875C10.1525 16.9059 10.1535 16.9369 10.1546 16.9688C10.1083 17.1159 10.0167 17.1656 9.89071 17.25C9.75418 17.2736 9.75418 17.2736 9.60072 17.2738C9.54237 17.2743 9.48401 17.2749 9.42389 17.2754C9.35958 17.275 9.29528 17.2747 9.23098 17.2743C9.16297 17.2745 9.09497 17.2749 9.02697 17.2753C8.84256 17.2761 8.65818 17.2758 8.47378 17.2752C8.2807 17.2747 8.08762 17.2752 7.89455 17.2754C7.57032 17.2758 7.2461 17.2753 6.92188 17.2744C6.54715 17.2734 6.17245 17.2738 5.79772 17.2748C5.47586 17.2756 5.15401 17.2758 4.83214 17.2753C4.63996 17.275 4.4478 17.2749 4.25562 17.2756C4.07493 17.2761 3.89427 17.2757 3.71359 17.2746C3.64732 17.2744 3.58105 17.2745 3.51478 17.2749C3.42425 17.2754 3.33372 17.2746 3.24319 17.2738C3.16723 17.2737 3.16723 17.2737 3.08974 17.2736C2.9197 17.2442 2.84118 17.182 2.71883 17.0625C2.66328 16.9181 2.66523 16.8504 2.71004 16.7021C2.8209 16.4863 2.90702 16.4882 3.13818 16.4875Z" fill="#FDFDFD"/>
<path d="M10.9978 6.26339C11.0502 6.26299 11.1027 6.2626 11.1567 6.26219C11.2423 6.26262 11.2423 6.26262 11.3297 6.26305C11.4204 6.26268 11.4204 6.26268 11.5129 6.26231C11.6784 6.26167 11.8439 6.26191 12.0094 6.26236C12.1828 6.26272 12.3562 6.26238 12.5295 6.26216C12.8207 6.26191 13.1118 6.26224 13.4029 6.26291C13.7393 6.26368 14.0757 6.26343 14.412 6.26266C14.7011 6.26202 14.9901 6.26193 15.2791 6.2623C15.4516 6.26252 15.6241 6.26255 15.7967 6.26208C15.989 6.2616 16.1813 6.26227 16.3737 6.26305C16.4308 6.26277 16.4878 6.26248 16.5467 6.26219C16.6253 6.26278 16.6253 6.26278 16.7056 6.26339C16.751 6.26344 16.7965 6.2635 16.8433 6.26355C17.0064 6.28654 17.1329 6.35154 17.2501 6.46875C17.2629 6.55902 17.2629 6.55902 17.2677 6.6709C17.27 6.70745 17.2723 6.74401 17.2746 6.78168C17.2381 6.94378 17.1513 6.98752 17.0157 7.07812C16.8887 7.10172 16.8887 7.10172 16.7489 7.10193C16.669 7.10273 16.669 7.10273 16.5876 7.10353C16.5296 7.10316 16.4717 7.10278 16.4119 7.10238C16.3199 7.10288 16.3199 7.10288 16.2259 7.10338C16.0579 7.10423 15.8899 7.1039 15.7219 7.10331C15.5459 7.10283 15.3699 7.10328 15.1939 7.10357C14.8983 7.10391 14.6028 7.10346 14.3073 7.10257C13.9658 7.10155 13.6243 7.10188 13.2828 7.10291C12.9894 7.10376 12.696 7.10388 12.4026 7.10339C12.2275 7.1031 12.0523 7.10306 11.8772 7.10368C11.6819 7.10432 11.4867 7.10343 11.2914 7.10238C11.2334 7.10276 11.1755 7.10314 11.1158 7.10353C11.0625 7.10301 11.0093 7.10248 10.9545 7.10193C10.9083 7.10186 10.8622 7.10179 10.8146 7.10172C10.6512 7.07136 10.5719 7.00481 10.4532 6.89062C10.3996 6.75129 10.4012 6.67812 10.4357 6.5332C10.5649 6.30989 10.7518 6.26368 10.9978 6.26339Z" fill="#FDFDFD"/>
<path d="M10.9431 3.73747C10.9962 3.73707 11.0493 3.73667 11.104 3.73625C11.1915 3.73632 11.1915 3.73632 11.2807 3.73638C11.3727 3.73591 11.3727 3.73591 11.4666 3.73543C11.6351 3.7346 11.8035 3.73438 11.9719 3.73432C12.1125 3.73423 12.2531 3.73389 12.3937 3.73356C12.7255 3.73279 13.0572 3.73256 13.3889 3.73263C13.7311 3.73269 14.0733 3.7317 14.4155 3.73022C14.7093 3.72899 15.0031 3.72849 15.2969 3.72855C15.4723 3.72857 15.6478 3.7283 15.8232 3.72731C16.019 3.72624 16.2147 3.72666 16.4104 3.72723C16.4685 3.7267 16.5266 3.72617 16.5865 3.72563C16.6398 3.72602 16.6932 3.72642 16.7482 3.72682C16.7945 3.72677 16.8407 3.72672 16.8884 3.72667C17.0517 3.75661 17.1314 3.82371 17.25 3.9375C17.2795 4.03125 17.2795 4.03125 17.2764 4.125C17.2765 4.15594 17.2765 4.18688 17.2766 4.21875C17.238 4.35486 17.1711 4.41075 17.0625 4.5C16.9397 4.52347 16.9397 4.52347 16.7975 4.5235C16.7164 4.52419 16.7164 4.52419 16.6338 4.52489C16.5747 4.52444 16.5156 4.52399 16.4547 4.52352C16.3917 4.5237 16.3287 4.52395 16.2657 4.52429C16.0948 4.52494 15.9239 4.52442 15.7529 4.52364C15.574 4.52299 15.3952 4.5233 15.2163 4.52346C14.9158 4.52359 14.6154 4.52296 14.315 4.52187C13.9677 4.52062 13.6203 4.52054 13.273 4.52109C12.9389 4.5216 12.6048 4.52131 12.2706 4.52065C12.1284 4.52038 11.9863 4.52038 11.8441 4.5206C11.6766 4.52082 11.5092 4.52035 11.3417 4.51934C11.251 4.51895 11.1602 4.51926 11.0695 4.51958C10.9884 4.51888 10.9884 4.51888 10.9058 4.51817C10.8588 4.51806 10.8119 4.51795 10.7635 4.51783C10.6202 4.49703 10.5564 4.45964 10.4532 4.35938C10.3981 4.1906 10.3909 4.11191 10.4649 3.94922C10.6096 3.76318 10.7176 3.73823 10.9431 3.73747Z" fill="#FDFDFD"/>
<path d="M10.9537 8.85108C10.9859 8.85078 11.0181 8.85047 11.0512 8.85015C11.1579 8.84922 11.2645 8.84868 11.3711 8.84821C11.4257 8.84792 11.4257 8.84792 11.4814 8.84763C11.674 8.84665 11.8666 8.84598 12.0592 8.84554C12.2583 8.84503 12.4573 8.84341 12.6563 8.84155C12.8093 8.84033 12.9623 8.83993 13.1152 8.83977C13.1886 8.83954 13.262 8.83899 13.3354 8.83812C13.438 8.83698 13.5407 8.83702 13.6434 8.83735C13.731 8.83694 13.731 8.83694 13.8204 8.83652C13.9687 8.85938 13.9687 8.85938 14.0811 8.94444C14.1562 9.04688 14.1562 9.04688 14.1825 9.20801C14.149 9.42027 14.0878 9.47636 13.9218 9.60938C13.7724 9.63883 13.7724 9.63883 13.602 9.63896C13.5708 9.6393 13.5396 9.63963 13.5074 9.63998C13.4048 9.64077 13.3023 9.63986 13.1996 9.63886C13.128 9.6389 13.0564 9.63901 12.9848 9.6392C12.8349 9.63934 12.685 9.63865 12.5351 9.63736C12.3433 9.63576 12.1515 9.63605 11.9597 9.63692C11.8118 9.63742 11.664 9.637 11.5162 9.6363C11.4455 9.63605 11.3747 9.63608 11.304 9.63637C11.2051 9.63663 11.1062 9.63567 11.0072 9.63439C10.951 9.6341 10.8947 9.6338 10.8368 9.63351C10.6583 9.60467 10.5804 9.54798 10.453 9.42188C10.3845 9.25901 10.4009 9.20059 10.4677 9.03516C10.5987 8.82174 10.7151 8.85297 10.9537 8.85108Z" fill="#FDFDFD"/>
</svg>
