<svg width="16" height="16" viewBox="0 0 16 16" fill="none" xmlns="http://www.w3.org/2000/svg">
<path d="M10 6C10 4.89543 9.1046 4 8 4C6.8954 4 6 4.89543 6 6C6 7.1046 6.8954 8 8 8C9.1046 8 10 7.1046 10 6Z" stroke="#FDFDFD" stroke-linecap="round" stroke-linejoin="round"/>
<path d="M14.6668 8.00001C14.6668 4.31811 11.682 1.33334 8.00016 1.33334C4.31826 1.33334 1.3335 4.31811 1.3335 8.00001C1.3335 11.6819 4.31826 14.6667 8.00016 14.6667C11.682 14.6667 14.6668 11.6819 14.6668 8.00001Z" stroke="#FDFDFD" stroke-linecap="round" stroke-linejoin="round"/>
<path d="M11.3332 11.3333C11.3332 9.4924 9.84077 8 7.99984 8C6.15889 8 4.6665 9.4924 4.6665 11.3333" stroke="#FDFDFD" stroke-linecap="round" stroke-linejoin="round"/>
</svg>
