<svg width="22" height="22" viewBox="0 0 22 22" fill="none" xmlns="http://www.w3.org/2000/svg">
<path d="M17.1411 13.5708C17.1463 13.5448 17.1834 13.5448 17.1886 13.5708C17.4632 14.9138 18.5127 15.9633 19.8557 16.2378C19.8816 16.2431 19.8816 16.2801 19.8557 16.2854C18.5127 16.5599 17.4632 17.6094 17.1886 18.9524C17.1834 18.9784 17.1463 18.9784 17.1411 18.9524C16.8666 17.6094 15.8171 16.5599 14.474 16.2854C14.4481 16.2801 14.4481 16.2431 14.474 16.2378C15.8171 15.9633 16.8666 14.9138 17.1411 13.5708Z" stroke="#FDFDFD" stroke-width="1.16154"/>
<path d="M13.2319 11.4488C13.9018 10.9793 14.2367 10.7447 14.3707 10.4036C14.4821 10.1202 14.4821 9.75504 14.3707 9.47163C14.2367 9.1305 13.9018 8.89584 13.2319 8.42647C12.7626 8.09762 12.2765 7.77134 11.8495 7.51329C11.4937 7.2983 11.0745 7.06758 10.6535 6.84597C9.94173 6.47131 9.58587 6.28397 9.24131 6.3311C8.95563 6.37015 8.65689 6.55194 8.48116 6.79363C8.26914 7.08522 8.24268 7.5045 8.18979 8.34306C8.15499 8.89463 8.13037 9.45528 8.13037 9.93762C8.13037 10.42 8.15499 10.9806 8.18979 11.5322C8.24268 12.3707 8.26914 12.79 8.48116 13.0816C8.65689 13.3233 8.95563 13.5051 9.24131 13.5442C9.58587 13.5912 9.94173 13.4039 10.6535 13.0292C11.0745 12.8076 11.4937 12.577 11.8495 12.3619C12.2765 12.1038 12.7626 11.7776 13.2319 11.4488Z" stroke="#FDFDFD" stroke-width="1.16154" stroke-linecap="round"/>
<path d="M19.7599 13.4029C19.8755 12.5781 19.8755 11.4987 19.8755 9.93765C19.8755 7.40784 19.8755 6.14294 19.3831 5.17668C18.9501 4.32673 18.2591 3.6357 17.4092 3.20263C16.4429 2.7103 15.178 2.7103 12.6482 2.7103H9.03448C6.50467 2.7103 5.23977 2.7103 4.27351 3.20263C3.42356 3.6357 2.73253 4.32673 2.29947 5.17668C1.80713 6.14294 1.80713 7.40784 1.80713 9.93765C1.80713 12.4675 1.80713 13.7324 2.29947 14.6987C2.73253 15.5486 3.42356 16.2396 4.27351 16.6726C5.23977 17.165 6.50467 17.165 9.03448 17.165H12.1293" stroke="#FDFDFD" stroke-width="1.16154" stroke-linecap="round" stroke-linejoin="round"/>
</svg>
