<?xml version="1.0"?>
<svg width="800px" height="800px" viewBox="0 0 2050 2050" xmlns="http://www.w3.org/2000/svg">

<path fill="#c8c2e9" d="M1704,510.5h0a873.5,873.5,0,0,0-116.4-119.1,531.2,531.2,0,0,0-314.8-105.4c-296.1-1.8-536.1,236.5-536.1,532.7v5.9c1.2,114.6-45.3,224.9-130.6,301.4a450.4,450.4,0,0,0-150.3,336.5c0,141.3,64.9,267.5,166.5,350.4,180.7,129.5,382.5,102.6,408.7,102.6,477,0,863.6-386.7,863.6-863.7A860,860,0,0,0,1704,510.5Z"/>

<path fill="#b9b1e0" d="M1064.1,1301.7l38.5-45.1h.8c-43.6,81.4,32.7,190.3,180.8,215.5,85.6,11.3,99.4,61.1,124.3,88.5,109.5-347.8-196-408.8-243.9-376.3v-.4l27.9-32.7a39.7,39.7,0,0,0-60.5-51.5l-10.3,12.1L742.2,741.4a544.8,544.8,0,0,0-5.5,77.2v5.9a406.3,406.3,0,0,1-39.1,178.8L1014,1238.1l-10.3,12.1a39.7,39.7,0,1,0,60.4,51.5Z"/>

<circle fill="#84b320" cx="1301.8" cy="624.5" r="172.2"/>
<circle fill="#de3226" cx="1588.6" cy="1025" r="172.2"/>
<circle fill="#67baeb" cx="1338.9" cy="1525.9" r="172.2"/>
<circle fill="#f4c23f" cx="822.9" cy="1525.9" r="172.2"/>

<path fill="#4b7d27" d="M1360.4,761.2a172.2,172.2,0,0,1-116.6-298.9,172.2,172.2,0,1,0,174.6,288.9A171.1,171.1,0,0,1,1360.4,761.2Z"/>

<path fill="#b11a31" d="M1647.2,1161.7a172.2,172.2,0,0,1-116.6-298.9,172.2,172.2,0,1,0,174.6,288.9A171.1,171.1,0,0,1,1647.2,1161.7Z"/>

<path fill="#46a1f8" d="M1397.6,1662.6A172.2,172.2,0,0,1,1281,1363.7a172.2,172.2,0,1,0,174.5,288.9A171,171,0,0,1,1397.6,1662.6Z"/>

<path fill="#f4a93f" d="M881.5,1662.6a172.2,172.2,0,0,1-116.6-298.9,172.2,172.2,0,1,0,174.6,288.9A172,172,0,0,1,881.5,1662.6Z"/>

<path fill="#ffffff" d="M1190.9,1155.4l-54.7,64.1c-46.4,81.7,30,192.5,179.5,218,85.6,11.3,99.4,61.1,124.3,88.4C1555.1,1160.5,1211.9,1111.6,1190.9,1155.4Z"/>

<path fill="#4d4c78" d="M172.7,350.4h0c57.9-68,161.4-72.8,225.3-10.4l755.2,737.1-107.7,126.4-847.3-629C126.4,521.2,114.7,418.4,172.7,350.4Z"/>

<path fill="#323150" d="M271.3,536.6c-71.7-53.2-83.4-156.1-25.5-224.1h0a155.1,155.1,0,0,1,12.6-13,152.8,152.8,0,0,0-85.7,50.9h0c-58,68-46.3,170.8,25.5,224.1l847.3,629,48.1-56.5Z"/>

<circle fill="#fad564" cx="889.3" cy="1484.7" r="83.5"/>
<circle fill="#bddd2a" cx="1371" cy="547.6" r="69.2"/>
<circle fill="#f44533" cx="1675.1" cy="958.8" r="62.8"/>

<path fill="#dfdafd" d="M1704,510.5h0a867.1,867.1,0,0,0-116.4-119c-12.2-9.2-24.8-17.7-37.8-25.8a328.9,328.9,0,0,0-18.3,108.7c0,181.5,146.2,328.7,327.3,330.4A861.2,861.2,0,0,0,1704,510.5Z"/>

</svg>